<svg width="303" height="303" viewBox="0 0 303 303" fill="none" xmlns="http://www.w3.org/2000/svg">
<g clip-path="url(#clip0_227_289)">
<rect width="303" height="303" rx="151.5" fill="white"/>
<circle cx="151.5" cy="151.5" r="148.5" fill="white" stroke="black" stroke-width="6"/>
<path d="M28 68L62.4364 97.1012C63.1109 97.6712 63.5 98.5094 63.5 99.3925V125.653C63.5 126.51 63.8664 127.326 64.5069 127.895L89.6129 150.211C90.1828 150.718 90.5384 151.423 90.6075 152.182L93.3378 182.215C93.4377 183.315 92.926 184.38 92.0055 184.989L27 228" stroke="black" stroke-width="6" stroke-linecap="round"/>
<path d="M156.5 2.5V36.4617C156.5 37.4275 156.035 38.3341 155.251 38.8978L125.749 60.1022C124.965 60.6658 124.5 61.5725 124.5 62.5383V90.1563C124.5 91.0112 124.865 91.8255 125.503 92.3947L201.67 160.367C202.735 161.317 204.321 161.386 205.464 160.531L265.583 115.56C266.457 114.906 266.907 113.829 266.758 112.747L263.259 87.378C263.101 86.2309 263.617 85.0952 264.585 84.4599L279 75M300 148L240.115 192.668C239.408 193.196 238.969 194.008 238.915 194.889L234 275M59.5 266.5L98.1569 240.89C98.9956 240.334 99.5 239.395 99.5 238.389V212.642C99.5 211.619 100.021 210.666 100.883 210.115L120.191 197.758C122.121 196.523 124.667 197.82 124.802 200.108L128.957 270.281C128.985 270.754 129.125 271.213 129.364 271.621L144.47 297.389C145.313 298.827 147.167 299.303 148.597 298.447L192.68 272.088C193.771 271.436 195.154 271.542 196.133 272.353L212 285.5" stroke="black" stroke-width="6" stroke-linecap="round"/>
<path d="M163.041 234.518L160.165 203.291C160.063 202.189 160.578 201.12 161.502 200.511L176.322 190.752C178.214 189.506 180.751 190.726 180.959 192.982L183.835 224.209C183.937 225.311 183.422 226.38 182.498 226.989L167.678 236.748C165.786 237.994 163.249 236.774 163.041 234.518Z" stroke="black" stroke-width="6" stroke-linecap="round"/>
<path d="M121 8V31.9739C121 32.9328 120.542 33.834 119.767 34.3986L87.8867 57.6254C86.7771 58.4338 85.2602 58.3859 84.2039 57.5089L59.5 37" stroke="black" stroke-width="6" stroke-linecap="round"/>
</g>
<defs>
<clipPath id="clip0_227_289">
<rect width="303" height="303" rx="151.5" fill="white"/>
</clipPath>
</defs>
</svg>
