<svg width="260" height="260" viewBox="0 0 260 260" fill="none" xmlns="http://www.w3.org/2000/svg">
<g clip-path="url(#clip0_22_535)">
<rect width="260" height="260" fill="white"/>
<rect width="260" height="260" fill="black"/>
<circle cx="130" cy="130" r="130" fill="#FF9500"/>
<path d="M108.005 29.9243L106.973 29.646L107.427 24.3359H112.07V25.5884H108.518L108.269 28.4888C108.435 28.3765 108.635 28.2715 108.87 28.1738C109.104 28.0762 109.377 28.0273 109.69 28.0273C110.11 28.0273 110.483 28.1128 110.811 28.2837C111.143 28.4497 111.423 28.689 111.653 29.0015C111.882 29.314 112.058 29.6899 112.18 30.1294C112.302 30.5688 112.363 31.0596 112.363 31.6016C112.363 32.1143 112.302 32.5854 112.18 33.0151C112.063 33.4448 111.882 33.8208 111.638 34.1431C111.399 34.4604 111.096 34.707 110.73 34.8828C110.369 35.0586 109.946 35.1465 109.463 35.1465C109.102 35.1465 108.76 35.0879 108.438 34.9707C108.115 34.8486 107.825 34.6655 107.566 34.4214C107.312 34.1724 107.104 33.8647 106.943 33.4985C106.782 33.1274 106.682 32.6929 106.643 32.1948H107.866C107.915 32.5952 108.008 32.9321 108.145 33.2056C108.286 33.479 108.467 33.6865 108.687 33.8281C108.911 33.9648 109.17 34.0332 109.463 34.0332C109.712 34.0332 109.937 33.9771 110.137 33.8647C110.337 33.7524 110.505 33.5913 110.642 33.3813C110.779 33.1714 110.884 32.9175 110.957 32.6196C111.03 32.3218 111.067 31.9873 111.067 31.6162C111.067 31.2793 111.03 30.9668 110.957 30.6787C110.884 30.3906 110.774 30.1392 110.627 29.9243C110.481 29.7095 110.303 29.5435 110.093 29.4263C109.888 29.3042 109.648 29.2432 109.375 29.2432C109.009 29.2432 108.738 29.3042 108.562 29.4263C108.391 29.5483 108.206 29.7144 108.005 29.9243ZM114.004 34.2822C114.004 34.0527 114.075 33.8599 114.216 33.7036C114.363 33.5425 114.573 33.4619 114.846 33.4619C115.12 33.4619 115.327 33.5425 115.469 33.7036C115.615 33.8599 115.688 34.0527 115.688 34.2822C115.688 34.5068 115.615 34.6973 115.469 34.8535C115.327 35.0098 115.12 35.0879 114.846 35.0879C114.573 35.0879 114.363 35.0098 114.216 34.8535C114.075 34.6973 114.004 34.5068 114.004 34.2822ZM113.997 27.8149C113.997 27.5854 114.067 27.3926 114.209 27.2363C114.355 27.0752 114.565 26.9946 114.839 26.9946C115.112 26.9946 115.32 27.0752 115.461 27.2363C115.608 27.3926 115.681 27.5854 115.681 27.8149C115.681 28.0396 115.608 28.23 115.461 28.3862C115.32 28.5425 115.112 28.6206 114.839 28.6206C114.565 28.6206 114.355 28.5425 114.209 28.3862C114.067 28.23 113.997 28.0396 113.997 27.8149ZM123.313 33.8867V35H117.351V34.0259L120.288 30.1367C120.649 29.6582 120.925 29.2529 121.116 28.9209C121.306 28.584 121.438 28.2837 121.511 28.02C121.584 27.7515 121.621 27.478 121.621 27.1997C121.621 26.8481 121.565 26.5308 121.453 26.2476C121.34 25.9595 121.177 25.73 120.962 25.5591C120.747 25.3882 120.488 25.3027 120.186 25.3027C119.79 25.3027 119.465 25.3955 119.211 25.5811C118.962 25.7617 118.779 26.0156 118.662 26.3428C118.545 26.6699 118.486 27.0459 118.486 27.4707H117.19C117.19 26.8701 117.3 26.3208 117.52 25.8228C117.744 25.3247 118.079 24.9292 118.523 24.6362C118.967 24.3384 119.521 24.1895 120.186 24.1895C120.757 24.1895 121.245 24.3091 121.65 24.5483C122.061 24.7827 122.373 25.1147 122.588 25.5444C122.808 25.9692 122.917 26.4673 122.917 27.0386C122.917 27.3511 122.874 27.6685 122.786 27.9907C122.703 28.3081 122.585 28.6255 122.434 28.9429C122.288 29.2603 122.114 29.5728 121.914 29.8804C121.714 30.188 121.499 30.4907 121.27 30.7886L118.904 33.8867H123.313ZM125.935 33.8647H126.038C126.697 33.8647 127.227 33.7549 127.627 33.5352C128.027 33.3154 128.328 33.02 128.528 32.6489C128.733 32.2778 128.87 31.8604 128.938 31.3965C129.011 30.9277 129.048 30.4468 129.048 29.9536V28.3203C129.048 27.8369 129.001 27.4072 128.909 27.0312C128.821 26.6553 128.701 26.3403 128.55 26.0864C128.403 25.8325 128.235 25.6396 128.044 25.5078C127.859 25.376 127.668 25.3101 127.473 25.3101C127.224 25.3101 127.004 25.3735 126.814 25.5005C126.624 25.6226 126.462 25.7959 126.331 26.0205C126.204 26.2451 126.106 26.5088 126.038 26.8115C125.969 27.1143 125.935 27.4438 125.935 27.8003C125.935 28.1177 125.964 28.4253 126.023 28.7231C126.082 29.021 126.172 29.2896 126.294 29.5288C126.421 29.7681 126.577 29.9585 126.763 30.1001C126.953 30.2368 127.178 30.3052 127.437 30.3052C127.651 30.3052 127.859 30.2466 128.059 30.1294C128.264 30.0073 128.45 29.8438 128.616 29.6387C128.782 29.4287 128.918 29.1919 129.026 28.9282C129.133 28.6646 129.197 28.3887 129.216 28.1006H129.824C129.824 28.5059 129.758 28.9062 129.626 29.3018C129.5 29.6924 129.316 30.0488 129.077 30.3711C128.843 30.6934 128.567 30.9521 128.25 31.1475C127.937 31.3379 127.593 31.4331 127.217 31.4331C126.763 31.4331 126.375 31.3306 126.052 31.1255C125.73 30.9204 125.466 30.647 125.261 30.3052C125.061 29.9634 124.912 29.5825 124.814 29.1626C124.717 28.7378 124.668 28.3081 124.668 27.8735C124.668 27.3657 124.727 26.8896 124.844 26.4453C124.961 26.001 125.134 25.6104 125.364 25.2734C125.598 24.9316 125.891 24.6655 126.243 24.4751C126.594 24.2847 127.004 24.1895 127.473 24.1895C127.996 24.1895 128.44 24.3115 128.806 24.5557C129.172 24.7998 129.468 25.127 129.692 25.5371C129.917 25.9473 130.081 26.4087 130.183 26.9214C130.286 27.4341 130.337 27.9614 130.337 28.5034V28.9941C130.337 29.5459 130.31 30.1074 130.256 30.6787C130.208 31.2451 130.103 31.7871 129.941 32.3047C129.785 32.8223 129.551 33.2861 129.238 33.6963C128.926 34.1016 128.508 34.4238 127.986 34.6631C127.468 34.8975 126.819 35.0146 126.038 35.0146H125.942L125.935 33.8647ZM139.309 30.8179H136.98V29.668H139.309C139.749 29.668 140.103 29.5801 140.371 29.4043C140.645 29.2285 140.842 28.9844 140.964 28.6719C141.091 28.3594 141.155 28.0029 141.155 27.6025C141.155 27.2363 141.091 26.8921 140.964 26.5698C140.842 26.2476 140.645 25.9888 140.371 25.7935C140.103 25.5933 139.749 25.4932 139.309 25.4932H137.258V35H135.911V24.3359H139.309C139.998 24.3359 140.579 24.4751 141.052 24.7534C141.526 25.0317 141.885 25.4175 142.129 25.9106C142.378 26.3989 142.502 26.958 142.502 27.5879C142.502 28.2715 142.378 28.855 142.129 29.3384C141.885 29.8218 141.526 30.1904 141.052 30.4443C140.579 30.6934 139.998 30.8179 139.309 30.8179ZM144.656 24.3359H145.959L148.75 33.0298L151.533 24.3359H152.837L149.255 35H148.23L144.656 24.3359ZM144.231 24.3359H145.374L145.571 30.8398V35H144.231V24.3359ZM152.112 24.3359H153.254V35H151.914V30.8398L152.112 24.3359Z" fill="white"/>
<path d="M260 260H130C201.797 260 260 201.797 260 130C260 58.203 201.797 0 130 0C58.203 0 0 58.203 0 130C0 201.797 58.203 260 130 260H0V0H260V260Z" fill="black"/>
<circle cx="267.5" cy="129.5" r="22.5" fill="black"/>
<path d="M130 81C136.114 81 141.987 83.4109 146.325 87.7188C150.665 92.0283 153.111 97.8843 153.111 104V109.812C160.235 110.102 166 115.94 166 123.2V159.6C166 166.932 160.121 172.814 152.9 172.996L152.556 173H107.444C100.067 173 94 167.048 94 159.6V123.2C94 115.94 99.7649 110.102 106.889 109.812V104C106.889 97.8843 109.335 92.0283 113.675 87.7188C118.013 83.4109 123.886 81 130 81ZM129.546 95.0107C127.281 95.1223 125.14 96.0658 123.541 97.6533C121.837 99.3452 120.889 101.629 120.889 104V109.8H139.111V104C139.111 101.629 138.163 99.3452 136.459 97.6533C134.754 95.9601 132.432 95 130 95L129.546 95.0107Z" fill="white" stroke="black" stroke-width="6" stroke-linecap="round" stroke-linejoin="round"/>
<path d="M104.374 189.5V206H102.483V189.5H104.374ZM106.984 200.747V199.641C106.984 198.738 107.099 197.947 107.328 197.267C107.557 196.579 107.876 196.006 108.284 195.548C108.692 195.09 109.169 194.746 109.713 194.517C110.257 194.28 110.841 194.162 111.464 194.162C112.101 194.162 112.692 194.28 113.236 194.517C113.781 194.746 114.257 195.09 114.665 195.548C115.08 196.006 115.403 196.579 115.632 197.267C115.861 197.947 115.976 198.738 115.976 199.641V200.747C115.976 201.649 115.861 202.444 115.632 203.132C115.403 203.812 115.084 204.382 114.676 204.84C114.268 205.298 113.791 205.642 113.247 205.871C112.703 206.1 112.116 206.215 111.485 206.215C110.855 206.215 110.268 206.1 109.724 205.871C109.179 205.642 108.7 205.298 108.284 204.84C107.876 204.382 107.557 203.812 107.328 203.132C107.099 202.444 106.984 201.649 106.984 200.747ZM108.886 199.641V200.747C108.886 201.384 108.95 201.943 109.079 202.423C109.208 202.903 109.391 203.304 109.627 203.626C109.863 203.948 110.139 204.192 110.454 204.356C110.769 204.514 111.113 204.593 111.485 204.593C111.915 204.593 112.291 204.514 112.613 204.356C112.943 204.192 113.215 203.948 113.43 203.626C113.645 203.304 113.806 202.903 113.913 202.423C114.021 201.943 114.074 201.384 114.074 200.747V199.641C114.074 199.003 114.01 198.448 113.881 197.976C113.752 197.496 113.569 197.095 113.333 196.772C113.097 196.443 112.817 196.2 112.495 196.042C112.18 195.877 111.836 195.795 111.464 195.795C111.099 195.795 110.758 195.877 110.443 196.042C110.128 196.2 109.853 196.443 109.616 196.772C109.387 197.095 109.208 197.496 109.079 197.976C108.95 198.448 108.886 199.003 108.886 199.641ZM122.453 204.593C122.833 204.593 123.176 204.518 123.484 204.367C123.799 204.21 124.057 203.966 124.258 203.637C124.458 203.3 124.573 202.863 124.602 202.326H126.385C126.356 203.1 126.159 203.78 125.794 204.367C125.436 204.947 124.963 205.402 124.376 205.731C123.796 206.054 123.155 206.215 122.453 206.215C121.701 206.215 121.046 206.093 120.487 205.85C119.936 205.606 119.478 205.255 119.112 204.797C118.754 204.331 118.486 203.769 118.307 203.11C118.128 202.444 118.038 201.689 118.038 200.844V199.533C118.038 198.688 118.128 197.936 118.307 197.277C118.486 196.611 118.754 196.049 119.112 195.591C119.478 195.125 119.936 194.771 120.487 194.527C121.046 194.284 121.701 194.162 122.453 194.162C123.241 194.162 123.921 194.33 124.494 194.667C125.074 194.996 125.525 195.476 125.848 196.106C126.177 196.729 126.356 197.485 126.385 198.373H124.602C124.573 197.8 124.469 197.324 124.29 196.944C124.111 196.558 123.868 196.271 123.56 196.085C123.252 195.892 122.883 195.795 122.453 195.795C121.952 195.795 121.536 195.884 121.207 196.063C120.885 196.235 120.631 196.486 120.444 196.815C120.258 197.145 120.126 197.539 120.047 197.997C119.975 198.455 119.939 198.967 119.939 199.533V200.844C119.939 201.41 119.975 201.925 120.047 202.391C120.126 202.849 120.255 203.243 120.434 203.572C120.62 203.902 120.878 204.156 121.207 204.335C121.536 204.507 121.952 204.593 122.453 204.593ZM130.499 189.5V206H128.598V189.5H130.499ZM136.396 194.377L132.261 199.802L129.704 202.745L129.575 200.629L131.337 198.201L134.108 194.377H136.396ZM134.656 206L131.391 200.457L132.368 198.685L136.869 206H134.656ZM142.455 206.215C141.76 206.215 141.134 206.111 140.575 205.903C140.017 205.696 139.54 205.381 139.146 204.958C138.753 204.528 138.452 203.988 138.244 203.336C138.036 202.684 137.933 201.914 137.933 201.026V199.716C137.933 198.692 138.051 197.825 138.287 197.116C138.531 196.407 138.856 195.838 139.265 195.408C139.673 194.971 140.135 194.656 140.65 194.463C141.166 194.262 141.696 194.162 142.24 194.162C142.971 194.162 143.594 194.28 144.109 194.517C144.625 194.753 145.044 195.104 145.366 195.569C145.688 196.035 145.925 196.608 146.075 197.288C146.233 197.968 146.312 198.753 146.312 199.641V200.747H139.05V199.125H144.41V198.856C144.382 198.255 144.299 197.725 144.163 197.267C144.034 196.808 143.819 196.45 143.519 196.192C143.218 195.927 142.792 195.795 142.24 195.795C141.889 195.795 141.563 195.856 141.263 195.978C140.969 196.092 140.715 196.296 140.5 196.59C140.292 196.876 140.128 197.274 140.006 197.782C139.891 198.291 139.834 198.935 139.834 199.716V201.026C139.834 201.649 139.891 202.187 140.006 202.638C140.128 203.082 140.303 203.451 140.532 203.744C140.769 204.031 141.055 204.245 141.392 204.389C141.735 204.525 142.126 204.593 142.562 204.593C143.2 204.593 143.726 204.471 144.142 204.228C144.557 203.977 144.919 203.658 145.227 203.271L146.226 204.464C146.018 204.757 145.746 205.04 145.409 205.312C145.08 205.577 144.672 205.796 144.185 205.968C143.705 206.132 143.128 206.215 142.455 206.215ZM154.701 203.744V189.5H156.592V206H154.862L154.701 203.744ZM148.202 200.747V199.662C148.202 198.702 148.295 197.879 148.481 197.191C148.668 196.497 148.933 195.927 149.276 195.483C149.62 195.032 150.032 194.699 150.512 194.484C150.992 194.27 151.521 194.162 152.102 194.162C152.703 194.162 153.219 194.284 153.648 194.527C154.085 194.771 154.451 195.125 154.744 195.591C155.038 196.049 155.267 196.608 155.432 197.267C155.604 197.918 155.718 198.656 155.775 199.479V200.93C155.711 201.746 155.593 202.48 155.421 203.132C155.256 203.784 155.027 204.339 154.733 204.797C154.44 205.255 154.075 205.606 153.638 205.85C153.201 206.093 152.682 206.215 152.08 206.215C151.507 206.215 150.984 206.104 150.512 205.882C150.039 205.653 149.627 205.312 149.276 204.861C148.933 204.403 148.668 203.834 148.481 203.153C148.295 202.466 148.202 201.664 148.202 200.747ZM150.104 199.662V200.747C150.104 201.392 150.15 201.954 150.243 202.434C150.336 202.906 150.483 203.3 150.684 203.615C150.884 203.923 151.138 204.152 151.446 204.303C151.761 204.453 152.137 204.528 152.574 204.528C153.104 204.528 153.537 204.399 153.874 204.142C154.211 203.884 154.479 203.544 154.68 203.121C154.887 202.691 155.052 202.229 155.174 201.735V198.685C155.102 198.319 154.998 197.968 154.862 197.632C154.726 197.288 154.554 196.984 154.347 196.719C154.146 196.447 153.899 196.232 153.605 196.074C153.319 195.917 152.982 195.838 152.596 195.838C152.159 195.838 151.779 195.917 151.457 196.074C151.142 196.232 150.884 196.468 150.684 196.783C150.49 197.098 150.343 197.496 150.243 197.976C150.15 198.455 150.104 199.018 150.104 199.662Z" fill="white"/>
<line x1="130" y1="136" x2="130" y2="148" stroke="black" stroke-width="6" stroke-linecap="round"/>
</g>
<defs>
<clipPath id="clip0_22_535">
<rect width="260" height="260" fill="white"/>
</clipPath>
</defs>
</svg>
