<svg width="260" height="260" viewBox="0 0 260 260" fill="none" xmlns="http://www.w3.org/2000/svg">
<g clip-path="url(#clip0_111_2)">
<rect width="260" height="260" fill="white"/>
<rect width="260" height="260" fill="black"/>
<circle cx="130" cy="130" r="130" fill="#FF9500"/>
<path d="M48.48 62.16V53.2H66.4V89.04H75.36V98H48.48V89.04H57.44V62.16H48.48ZM82.105 98V53.2H113.465V98H82.105ZM104.505 80.08H91.065V89.04H104.505V80.08ZM91.065 71.12H104.505V62.16H91.065V71.12ZM122.418 98V53.2H153.778V98H122.418ZM131.378 62.16V89.04H144.818V62.16H131.378Z" fill="white"/>
<rect x="127.349" y="179.987" width="9.11111" height="80.6667" fill="white" stroke="black" stroke-width="6"/>
<path d="M151.689 140.905C143.64 145.789 134.483 163.522 133.131 172.471C132.949 173.68 133.615 174.814 134.674 175.426C135.694 176.015 136.958 176.049 137.884 175.32C144.685 169.966 155.364 152.565 155.897 143.391C156.033 141.05 153.694 139.689 151.689 140.905Z" fill="white" stroke="black" stroke-width="6"/>
<path d="M89.5994 182.618C97.8815 187.009 117.657 186.08 126.006 182.845C127.122 182.413 127.763 181.293 127.763 180.096C127.763 178.942 127.168 177.854 126.094 177.43C118.132 174.284 97.8921 173.735 89.648 177.736C87.5107 178.774 87.5003 181.505 89.5994 182.618Z" fill="white" stroke="black" stroke-width="6"/>
<path d="M151.211 218.19C143.268 213.212 134.184 195.622 132.811 186.774C132.627 185.591 133.276 184.476 134.313 183.878C135.312 183.301 136.552 183.272 137.456 183.99C144.162 189.313 154.758 206.566 155.414 215.707C155.585 218.076 153.224 219.451 151.211 218.19Z" fill="white" stroke="black" stroke-width="6"/>
<path d="M135.935 173.504C139.23 175.407 140.359 179.62 138.457 182.915C136.554 186.209 132.341 187.338 129.047 185.436C125.752 183.534 124.623 179.321 126.525 176.026C128.427 172.731 132.64 171.602 135.935 173.504Z" fill="white" stroke="black" stroke-width="6"/>
<rect x="191.904" y="158.653" width="10" height="102" fill="white" stroke="black" stroke-width="6"/>
<path d="M184.304 103.599C179.669 114.516 185.467 140.817 191.721 151.058C192.54 152.399 194.134 152.966 195.682 152.693C197.173 152.43 198.447 151.418 198.756 149.936C201.102 138.692 196.913 111.395 189.42 102.741C187.886 100.968 185.22 101.44 184.304 103.599Z" fill="white" stroke="black" stroke-width="6"/>
<path d="M156.127 197.223C167.812 195.615 187.55 177.572 193.277 167.164C194.019 165.815 193.725 164.183 192.736 163.004C191.782 161.867 190.296 161.288 188.889 161.758C178.105 165.354 156.714 182.497 152.824 193.216C152.013 195.45 153.773 197.548 156.127 197.223Z" fill="white" stroke="black" stroke-width="6"/>
<path d="M248.416 180.95C236.886 183.435 212.167 173.231 203.226 165.409C202.067 164.396 201.785 162.762 202.311 161.316C202.819 159.921 204.017 158.869 205.5 158.828C216.863 158.519 242.828 167.313 250.15 176.055C251.675 177.877 250.739 180.45 248.416 180.95Z" fill="white" stroke="black" stroke-width="6"/>
<circle cx="196.875" cy="158.481" r="8" transform="rotate(-10 196.875 158.481)" fill="white" stroke="black" stroke-width="6"/>
<path d="M108.005 29.9243L106.973 29.646L107.427 24.3359H112.07V25.5884H108.518L108.269 28.4888C108.435 28.3765 108.635 28.2715 108.87 28.1738C109.104 28.0762 109.377 28.0273 109.69 28.0273C110.11 28.0273 110.483 28.1128 110.811 28.2837C111.143 28.4497 111.423 28.689 111.653 29.0015C111.882 29.314 112.058 29.6899 112.18 30.1294C112.302 30.5688 112.363 31.0596 112.363 31.6016C112.363 32.1143 112.302 32.5854 112.18 33.0151C112.063 33.4448 111.882 33.8208 111.638 34.1431C111.399 34.4604 111.096 34.707 110.73 34.8828C110.369 35.0586 109.946 35.1465 109.463 35.1465C109.102 35.1465 108.76 35.0879 108.438 34.9707C108.115 34.8486 107.825 34.6655 107.566 34.4214C107.312 34.1724 107.104 33.8647 106.943 33.4985C106.782 33.1274 106.682 32.6929 106.643 32.1948H107.866C107.915 32.5952 108.008 32.9321 108.145 33.2056C108.286 33.479 108.467 33.6865 108.687 33.8281C108.911 33.9648 109.17 34.0332 109.463 34.0332C109.712 34.0332 109.937 33.9771 110.137 33.8647C110.337 33.7524 110.505 33.5913 110.642 33.3813C110.779 33.1714 110.884 32.9175 110.957 32.6196C111.03 32.3218 111.067 31.9873 111.067 31.6162C111.067 31.2793 111.03 30.9668 110.957 30.6787C110.884 30.3906 110.774 30.1392 110.627 29.9243C110.481 29.7095 110.303 29.5435 110.093 29.4263C109.888 29.3042 109.648 29.2432 109.375 29.2432C109.009 29.2432 108.738 29.3042 108.562 29.4263C108.391 29.5483 108.206 29.7144 108.005 29.9243ZM114.004 34.2822C114.004 34.0527 114.075 33.8599 114.216 33.7036C114.363 33.5425 114.573 33.4619 114.846 33.4619C115.12 33.4619 115.327 33.5425 115.469 33.7036C115.615 33.8599 115.688 34.0527 115.688 34.2822C115.688 34.5068 115.615 34.6973 115.469 34.8535C115.327 35.0098 115.12 35.0879 114.846 35.0879C114.573 35.0879 114.363 35.0098 114.216 34.8535C114.075 34.6973 114.004 34.5068 114.004 34.2822ZM113.997 27.8149C113.997 27.5854 114.067 27.3926 114.209 27.2363C114.355 27.0752 114.565 26.9946 114.839 26.9946C115.112 26.9946 115.32 27.0752 115.461 27.2363C115.608 27.3926 115.681 27.5854 115.681 27.8149C115.681 28.0396 115.608 28.23 115.461 28.3862C115.32 28.5425 115.112 28.6206 114.839 28.6206C114.565 28.6206 114.355 28.5425 114.209 28.3862C114.067 28.23 113.997 28.0396 113.997 27.8149ZM123.313 33.8867V35H117.351V34.0259L120.288 30.1367C120.649 29.6582 120.925 29.2529 121.116 28.9209C121.306 28.584 121.438 28.2837 121.511 28.02C121.584 27.7515 121.621 27.478 121.621 27.1997C121.621 26.8481 121.565 26.5308 121.453 26.2476C121.34 25.9595 121.177 25.73 120.962 25.5591C120.747 25.3882 120.488 25.3027 120.186 25.3027C119.79 25.3027 119.465 25.3955 119.211 25.5811C118.962 25.7617 118.779 26.0156 118.662 26.3428C118.545 26.6699 118.486 27.0459 118.486 27.4707H117.19C117.19 26.8701 117.3 26.3208 117.52 25.8228C117.744 25.3247 118.079 24.9292 118.523 24.6362C118.967 24.3384 119.521 24.1895 120.186 24.1895C120.757 24.1895 121.245 24.3091 121.65 24.5483C122.061 24.7827 122.373 25.1147 122.588 25.5444C122.808 25.9692 122.917 26.4673 122.917 27.0386C122.917 27.3511 122.874 27.6685 122.786 27.9907C122.703 28.3081 122.585 28.6255 122.434 28.9429C122.288 29.2603 122.114 29.5728 121.914 29.8804C121.714 30.188 121.499 30.4907 121.27 30.7886L118.904 33.8867H123.313ZM125.935 33.8647H126.038C126.697 33.8647 127.227 33.7549 127.627 33.5352C128.027 33.3154 128.328 33.02 128.528 32.6489C128.733 32.2778 128.87 31.8604 128.938 31.3965C129.011 30.9277 129.048 30.4468 129.048 29.9536V28.3203C129.048 27.8369 129.001 27.4072 128.909 27.0312C128.821 26.6553 128.701 26.3403 128.55 26.0864C128.403 25.8325 128.235 25.6396 128.044 25.5078C127.859 25.376 127.668 25.3101 127.473 25.3101C127.224 25.3101 127.004 25.3735 126.814 25.5005C126.624 25.6226 126.462 25.7959 126.331 26.0205C126.204 26.2451 126.106 26.5088 126.038 26.8115C125.969 27.1143 125.935 27.4438 125.935 27.8003C125.935 28.1177 125.964 28.4253 126.023 28.7231C126.082 29.021 126.172 29.2896 126.294 29.5288C126.421 29.7681 126.577 29.9585 126.763 30.1001C126.953 30.2368 127.178 30.3052 127.437 30.3052C127.651 30.3052 127.859 30.2466 128.059 30.1294C128.264 30.0073 128.45 29.8438 128.616 29.6387C128.782 29.4287 128.918 29.1919 129.026 28.9282C129.133 28.6646 129.197 28.3887 129.216 28.1006H129.824C129.824 28.5059 129.758 28.9062 129.626 29.3018C129.5 29.6924 129.316 30.0488 129.077 30.3711C128.843 30.6934 128.567 30.9521 128.25 31.1475C127.937 31.3379 127.593 31.4331 127.217 31.4331C126.763 31.4331 126.375 31.3306 126.052 31.1255C125.73 30.9204 125.466 30.647 125.261 30.3052C125.061 29.9634 124.912 29.5825 124.814 29.1626C124.717 28.7378 124.668 28.3081 124.668 27.8735C124.668 27.3657 124.727 26.8896 124.844 26.4453C124.961 26.001 125.134 25.6104 125.364 25.2734C125.598 24.9316 125.891 24.6655 126.243 24.4751C126.594 24.2847 127.004 24.1895 127.473 24.1895C127.996 24.1895 128.44 24.3115 128.806 24.5557C129.172 24.7998 129.468 25.127 129.692 25.5371C129.917 25.9473 130.081 26.4087 130.183 26.9214C130.286 27.4341 130.337 27.9614 130.337 28.5034V28.9941C130.337 29.5459 130.31 30.1074 130.256 30.6787C130.208 31.2451 130.103 31.7871 129.941 32.3047C129.785 32.8223 129.551 33.2861 129.238 33.6963C128.926 34.1016 128.508 34.4238 127.986 34.6631C127.468 34.8975 126.819 35.0146 126.038 35.0146H125.942L125.935 33.8647ZM139.309 30.8179H136.98V29.668H139.309C139.749 29.668 140.103 29.5801 140.371 29.4043C140.645 29.2285 140.842 28.9844 140.964 28.6719C141.091 28.3594 141.155 28.0029 141.155 27.6025C141.155 27.2363 141.091 26.8921 140.964 26.5698C140.842 26.2476 140.645 25.9888 140.371 25.7935C140.103 25.5933 139.749 25.4932 139.309 25.4932H137.258V35H135.911V24.3359H139.309C139.998 24.3359 140.579 24.4751 141.052 24.7534C141.526 25.0317 141.885 25.4175 142.129 25.9106C142.378 26.3989 142.502 26.958 142.502 27.5879C142.502 28.2715 142.378 28.855 142.129 29.3384C141.885 29.8218 141.526 30.1904 141.052 30.4443C140.579 30.6934 139.998 30.8179 139.309 30.8179ZM144.656 24.3359H145.959L148.75 33.0298L151.533 24.3359H152.837L149.255 35H148.23L144.656 24.3359ZM144.231 24.3359H145.374L145.571 30.8398V35H144.231V24.3359ZM152.112 24.3359H153.254V35H151.914V30.8398L152.112 24.3359Z" fill="white"/>
<path d="M61.3813 214.862L60.588 223.991C60.2489 227.893 62.7851 231.467 66.5806 232.435L82.6213 236.527C83.2513 236.688 83.8797 236.771 84.5299 236.775C112.824 236.949 168.661 237.183 173.135 236.769C176.677 236.442 180.065 235.346 182.123 234.509C183.05 234.132 183.911 233.537 184.322 232.625C185.551 229.901 184.876 225.71 184.125 222.248C183.74 220.475 182.758 218.859 181.181 217.963C174.038 213.9 161.272 211.635 153.937 210.81C152.764 210.679 151.635 210.319 150.616 209.724C143.819 205.758 131.964 199.048 128.824 198.081C124.581 196.773 102.426 196.512 93.7049 198.081C87.0545 199.277 75.3069 204.368 69.5272 207.106C68.9874 207.362 68.427 207.559 67.8449 207.692L67.5621 207.757C64.1786 208.534 61.6819 211.403 61.3813 214.862Z" fill="white" stroke="black" stroke-width="6"/>
<circle cx="86.5" cy="233.5" r="11.5" fill="white" stroke="black" stroke-width="6"/>
<circle cx="162.5" cy="233.5" r="11.5" fill="white" stroke="black" stroke-width="6"/>
<path d="M51.3408 108.5V125H49.4395V108.5H51.3408ZM57.2383 113.377L53.1025 118.802L50.5459 121.745L50.417 119.629L52.1787 117.201L54.9502 113.377H57.2383ZM55.498 125L52.2324 119.457L53.21 117.685L57.7109 125H55.498ZM61.3955 113.377V125H59.5049V113.377H61.3955ZM59.3975 110.294C59.3975 109.972 59.487 109.7 59.666 109.478C59.8451 109.256 60.1136 109.145 60.4717 109.145C60.8298 109.145 61.0983 109.256 61.2773 109.478C61.4635 109.7 61.5566 109.972 61.5566 110.294C61.5566 110.602 61.4635 110.867 61.2773 111.089C61.0983 111.304 60.8298 111.411 60.4717 111.411C60.1136 111.411 59.8451 111.304 59.666 111.089C59.487 110.867 59.3975 110.602 59.3975 110.294ZM66.4443 108.5V125H64.5537V108.5H66.4443ZM69.0547 119.747V118.641C69.0547 117.738 69.1693 116.947 69.3984 116.267C69.6276 115.579 69.9463 115.006 70.3545 114.548C70.7627 114.09 71.2389 113.746 71.7832 113.517C72.3275 113.28 72.9111 113.162 73.5342 113.162C74.1715 113.162 74.7624 113.28 75.3066 113.517C75.8509 113.746 76.3271 114.09 76.7354 114.548C77.1507 115.006 77.473 115.579 77.7021 116.267C77.9313 116.947 78.0459 117.738 78.0459 118.641V119.747C78.0459 120.649 77.9313 121.444 77.7021 122.132C77.473 122.812 77.1543 123.382 76.7461 123.84C76.3379 124.298 75.8617 124.642 75.3174 124.871C74.7731 125.1 74.1859 125.215 73.5557 125.215C72.9255 125.215 72.3382 125.1 71.7939 124.871C71.2497 124.642 70.7699 124.298 70.3545 123.84C69.9463 123.382 69.6276 122.812 69.3984 122.132C69.1693 121.444 69.0547 120.649 69.0547 119.747ZM70.9561 118.641V119.747C70.9561 120.384 71.0205 120.943 71.1494 121.423C71.2783 121.903 71.4609 122.304 71.6973 122.626C71.9336 122.948 72.2093 123.192 72.5244 123.356C72.8395 123.514 73.1833 123.593 73.5557 123.593C73.9854 123.593 74.3613 123.514 74.6836 123.356C75.013 123.192 75.2852 122.948 75.5 122.626C75.7148 122.304 75.876 121.903 75.9834 121.423C76.0908 120.943 76.1445 120.384 76.1445 119.747V118.641C76.1445 118.003 76.0801 117.448 75.9512 116.976C75.8223 116.496 75.6396 116.095 75.4033 115.772C75.167 115.443 74.8877 115.2 74.5654 115.042C74.2503 114.877 73.9066 114.795 73.5342 114.795C73.1689 114.795 72.8288 114.877 72.5137 115.042C72.1986 115.2 71.9229 115.443 71.6865 115.772C71.4574 116.095 71.2783 116.496 71.1494 116.976C71.0205 117.448 70.9561 118.003 70.9561 118.641ZM82.3965 115.687V125H80.5059V113.377H82.2891L82.3965 115.687ZM82.0098 118.748L81.1289 118.716C81.1217 117.921 81.2005 117.187 81.3652 116.514C81.5299 115.833 81.777 115.243 82.1064 114.741C82.443 114.24 82.862 113.853 83.3633 113.581C83.8717 113.302 84.4626 113.162 85.1357 113.162C85.5798 113.162 85.9915 113.241 86.3711 113.398C86.7578 113.549 87.0944 113.789 87.3809 114.118C87.6673 114.448 87.8893 114.87 88.0469 115.386C88.2116 115.901 88.2939 116.524 88.2939 117.255V125H86.3926V117.352C86.3926 116.743 86.3102 116.256 86.1455 115.891C85.988 115.525 85.7624 115.26 85.4688 115.096C85.1751 114.924 84.8242 114.838 84.416 114.838C83.9505 114.838 83.5602 114.942 83.2451 115.149C82.9372 115.357 82.6901 115.644 82.5039 116.009C82.3249 116.374 82.196 116.793 82.1172 117.266C82.0456 117.731 82.0098 118.225 82.0098 118.748ZM88.2725 117.652L87.0049 118.061C86.9977 117.423 87.0765 116.811 87.2412 116.224C87.4059 115.636 87.6494 115.114 87.9717 114.655C88.3011 114.197 88.7093 113.835 89.1963 113.57C89.6833 113.298 90.249 113.162 90.8936 113.162C91.4235 113.162 91.8926 113.244 92.3008 113.409C92.709 113.574 93.0527 113.828 93.332 114.172C93.6185 114.508 93.8333 114.942 93.9766 115.472C94.1198 116.002 94.1914 116.632 94.1914 117.362V125H92.29V117.341C92.29 116.689 92.2077 116.184 92.043 115.826C91.8854 115.461 91.6598 115.207 91.3662 115.063C91.0726 114.913 90.7217 114.838 90.3135 114.838C89.984 114.838 89.6904 114.913 89.4326 115.063C89.182 115.214 88.9707 115.422 88.7988 115.687C88.627 115.944 88.4945 116.242 88.4014 116.578C88.3154 116.915 88.2725 117.273 88.2725 117.652ZM101.217 125.215C100.522 125.215 99.8955 125.111 99.3369 124.903C98.7783 124.696 98.3021 124.381 97.9082 123.958C97.5143 123.528 97.2135 122.988 97.0059 122.336C96.7982 121.684 96.6943 120.914 96.6943 120.026V118.716C96.6943 117.692 96.8125 116.825 97.0488 116.116C97.2923 115.407 97.6182 114.838 98.0264 114.408C98.4346 113.971 98.8965 113.656 99.4121 113.463C99.9277 113.262 100.458 113.162 101.002 113.162C101.732 113.162 102.355 113.28 102.871 113.517C103.387 113.753 103.806 114.104 104.128 114.569C104.45 115.035 104.687 115.608 104.837 116.288C104.994 116.968 105.073 117.753 105.073 118.641V119.747H97.8115V118.125H103.172V117.856C103.143 117.255 103.061 116.725 102.925 116.267C102.796 115.808 102.581 115.45 102.28 115.192C101.979 114.927 101.553 114.795 101.002 114.795C100.651 114.795 100.325 114.856 100.024 114.978C99.7308 115.092 99.4766 115.296 99.2617 115.59C99.054 115.876 98.8893 116.274 98.7676 116.782C98.653 117.291 98.5957 117.935 98.5957 118.716V120.026C98.5957 120.649 98.653 121.187 98.7676 121.638C98.8893 122.082 99.0648 122.451 99.2939 122.744C99.5303 123.031 99.8167 123.245 100.153 123.389C100.497 123.525 100.887 123.593 101.324 123.593C101.962 123.593 102.488 123.471 102.903 123.228C103.319 122.977 103.68 122.658 103.988 122.271L104.987 123.464C104.78 123.757 104.507 124.04 104.171 124.312C103.841 124.577 103.433 124.796 102.946 124.968C102.466 125.132 101.89 125.215 101.217 125.215ZM111.615 113.377V114.902H106.19V113.377H111.615ZM107.963 110.552H109.864V122.121C109.864 122.515 109.911 122.812 110.004 123.013C110.104 123.213 110.229 123.346 110.38 123.41C110.53 123.475 110.691 123.507 110.863 123.507C110.992 123.507 111.135 123.493 111.293 123.464C111.451 123.428 111.558 123.399 111.615 123.378L111.604 125C111.476 125.05 111.304 125.097 111.089 125.14C110.874 125.19 110.602 125.215 110.272 125.215C109.864 125.215 109.485 125.118 109.134 124.925C108.783 124.731 108.5 124.409 108.285 123.958C108.07 123.5 107.963 122.884 107.963 122.11V110.552ZM118.039 125.215C117.344 125.215 116.718 125.111 116.159 124.903C115.601 124.696 115.124 124.381 114.73 123.958C114.337 123.528 114.036 122.988 113.828 122.336C113.62 121.684 113.517 120.914 113.517 120.026V118.716C113.517 117.692 113.635 116.825 113.871 116.116C114.115 115.407 114.44 114.838 114.849 114.408C115.257 113.971 115.719 113.656 116.234 113.463C116.75 113.262 117.28 113.162 117.824 113.162C118.555 113.162 119.178 113.28 119.693 113.517C120.209 113.753 120.628 114.104 120.95 114.569C121.272 115.035 121.509 115.608 121.659 116.288C121.817 116.968 121.896 117.753 121.896 118.641V119.747H114.634V118.125H119.994V117.856C119.965 117.255 119.883 116.725 119.747 116.267C119.618 115.808 119.403 115.45 119.103 115.192C118.802 114.927 118.376 114.795 117.824 114.795C117.473 114.795 117.147 114.856 116.847 114.978C116.553 115.092 116.299 115.296 116.084 115.59C115.876 115.876 115.712 116.274 115.59 116.782C115.475 117.291 115.418 117.935 115.418 118.716V120.026C115.418 120.649 115.475 121.187 115.59 121.638C115.712 122.082 115.887 122.451 116.116 122.744C116.353 123.031 116.639 123.245 116.976 123.389C117.319 123.525 117.71 123.593 118.146 123.593C118.784 123.593 119.31 123.471 119.726 123.228C120.141 122.977 120.503 122.658 120.811 122.271L121.81 123.464C121.602 123.757 121.33 124.04 120.993 124.312C120.664 124.577 120.256 124.796 119.769 124.968C119.289 125.132 118.712 125.215 118.039 125.215ZM126.096 115.203V125H124.194V113.377H126.031L126.096 115.203ZM128.985 113.312L128.996 115.16C128.839 115.124 128.695 115.103 128.566 115.096C128.445 115.081 128.301 115.074 128.137 115.074C127.779 115.074 127.464 115.146 127.191 115.289C126.926 115.432 126.697 115.633 126.504 115.891C126.311 116.148 126.157 116.456 126.042 116.814C125.927 117.165 125.849 117.552 125.806 117.975L125.312 118.297C125.312 117.595 125.365 116.936 125.473 116.32C125.587 115.704 125.763 115.16 125.999 114.688C126.235 114.208 126.536 113.835 126.901 113.57C127.274 113.298 127.718 113.162 128.233 113.162C128.348 113.162 128.488 113.18 128.652 113.216C128.824 113.244 128.935 113.277 128.985 113.312ZM51.3301 137.203V147H49.4287V135.377H51.2656L51.3301 137.203ZM54.2197 135.312L54.2305 137.16C54.0729 137.124 53.9297 137.103 53.8008 137.096C53.679 137.081 53.5358 137.074 53.3711 137.074C53.013 137.074 52.6979 137.146 52.4258 137.289C52.1608 137.432 51.9316 137.633 51.7383 137.891C51.5449 138.148 51.391 138.456 51.2764 138.814C51.1618 139.165 51.083 139.552 51.04 139.975L50.5459 140.297C50.5459 139.595 50.5996 138.936 50.707 138.32C50.8216 137.704 50.9971 137.16 51.2334 136.688C51.4697 136.208 51.7705 135.835 52.1357 135.57C52.5081 135.298 52.9521 135.162 53.4678 135.162C53.5824 135.162 53.722 135.18 53.8867 135.216C54.0586 135.244 54.1696 135.277 54.2197 135.312ZM61.3955 145.013V138.707C61.3955 138.249 61.3239 137.88 61.1807 137.601C61.0446 137.321 60.8369 137.117 60.5576 136.988C60.2855 136.859 59.9417 136.795 59.5264 136.795C59.1253 136.795 58.778 136.877 58.4844 137.042C58.1979 137.207 57.9759 137.425 57.8184 137.697C57.668 137.969 57.5928 138.27 57.5928 138.6H55.6914C55.6914 138.184 55.7809 137.772 55.96 137.364C56.1462 136.956 56.4111 136.587 56.7549 136.258C57.0986 135.921 57.5104 135.656 57.9902 135.463C58.4772 135.262 59.0215 135.162 59.623 135.162C60.3392 135.162 60.973 135.28 61.5244 135.517C62.0758 135.746 62.5091 136.122 62.8242 136.645C63.1393 137.167 63.2969 137.862 63.2969 138.729V144.465C63.2969 144.852 63.3255 145.263 63.3828 145.7C63.4473 146.137 63.5368 146.513 63.6514 146.828V147H61.6855C61.5924 146.771 61.5208 146.466 61.4707 146.087C61.4206 145.7 61.3955 145.342 61.3955 145.013ZM61.6963 139.953L61.7178 141.35H60.3965C59.9453 141.35 59.5335 141.4 59.1611 141.5C58.7959 141.6 58.4808 141.747 58.2158 141.94C57.9508 142.127 57.7467 142.359 57.6035 142.639C57.4674 142.918 57.3994 143.237 57.3994 143.595C57.3994 144.06 57.4639 144.433 57.5928 144.712C57.7217 144.984 57.915 145.181 58.1729 145.303C58.4307 145.424 58.7565 145.485 59.1504 145.485C59.6302 145.485 60.0527 145.374 60.418 145.152C60.7832 144.93 61.0661 144.662 61.2666 144.347C61.4743 144.032 61.571 143.738 61.5566 143.466L61.9756 144.357C61.9469 144.637 61.8538 144.941 61.6963 145.271C61.5459 145.593 61.3346 145.904 61.0625 146.205C60.7904 146.499 60.4681 146.742 60.0957 146.936C59.7305 147.122 59.3187 147.215 58.8604 147.215C58.1872 147.215 57.5964 147.086 57.0879 146.828C56.5866 146.57 56.1963 146.191 55.917 145.689C55.6377 145.188 55.498 144.569 55.498 143.831C55.498 143.272 55.5947 142.757 55.7881 142.284C55.9814 141.812 56.2679 141.403 56.6475 141.06C57.027 140.709 57.5033 140.437 58.0762 140.243C58.6562 140.05 59.3258 139.953 60.085 139.953H61.6963ZM68.1523 137.858V147H66.251V135.377H68.0449L68.1523 137.858ZM67.6904 140.748L66.917 140.716C66.9098 139.921 66.9993 139.187 67.1855 138.514C67.3789 137.833 67.651 137.243 68.002 136.741C68.36 136.24 68.7861 135.853 69.2803 135.581C69.7744 135.302 70.3223 135.162 70.9238 135.162C71.3965 135.162 71.8262 135.241 72.2129 135.398C72.5996 135.549 72.929 135.792 73.2012 136.129C73.4733 136.465 73.681 136.902 73.8242 137.439C73.9746 137.969 74.0498 138.618 74.0498 139.384V147H72.1484V139.362C72.1484 138.754 72.0804 138.267 71.9443 137.901C71.8154 137.529 71.6149 137.26 71.3428 137.096C71.0778 136.924 70.7412 136.838 70.333 136.838C69.9606 136.838 69.6133 136.942 69.291 137.149C68.9688 137.357 68.6859 137.644 68.4424 138.009C68.2061 138.374 68.0199 138.793 67.8838 139.266C67.7549 139.731 67.6904 140.225 67.6904 140.748ZM83.2021 135.377H84.9102V147.097C84.9102 148.121 84.7311 148.966 84.373 149.632C84.0221 150.298 83.5316 150.788 82.9014 151.104C82.2712 151.426 81.5443 151.587 80.7207 151.587C80.4271 151.587 80.0583 151.533 79.6143 151.426C79.1702 151.318 78.7262 151.154 78.2822 150.932C77.8382 150.717 77.473 150.445 77.1865 150.115L77.9707 148.794C78.3789 149.209 78.8122 149.507 79.2705 149.686C79.7288 149.865 80.1657 149.954 80.5811 149.954C81.0752 149.954 81.5049 149.865 81.8701 149.686C82.2354 149.507 82.5182 149.213 82.7188 148.805C82.9193 148.404 83.0195 147.867 83.0195 147.193V137.934L83.2021 135.377ZM76.5205 141.747V140.662C76.5205 139.702 76.61 138.879 76.7891 138.191C76.9681 137.497 77.2259 136.927 77.5625 136.483C77.9062 136.032 78.318 135.699 78.7979 135.484C79.2777 135.27 79.8148 135.162 80.4092 135.162C81.0107 135.162 81.5299 135.284 81.9668 135.527C82.4036 135.771 82.7653 136.125 83.0518 136.591C83.3454 137.049 83.5745 137.608 83.7393 138.267C83.9111 138.918 84.0293 139.656 84.0938 140.479V141.93C84.0293 142.746 83.9111 143.48 83.7393 144.132C83.5745 144.784 83.3418 145.339 83.041 145.797C82.7474 146.255 82.3822 146.606 81.9453 146.85C81.5085 147.093 80.9893 147.215 80.3877 147.215C79.8005 147.215 79.2705 147.104 78.7979 146.882C78.3252 146.653 77.917 146.312 77.5732 145.861C77.2367 145.403 76.9753 144.834 76.7891 144.153C76.61 143.466 76.5205 142.664 76.5205 141.747ZM78.4219 140.662V141.747C78.4219 142.392 78.4684 142.954 78.5615 143.434C78.6546 143.906 78.7979 144.3 78.9912 144.615C79.1917 144.923 79.446 145.152 79.7539 145.303C80.069 145.453 80.445 145.528 80.8818 145.528C81.4118 145.528 81.8451 145.399 82.1816 145.142C82.5182 144.884 82.7868 144.544 82.9873 144.121C83.195 143.691 83.3597 143.229 83.4814 142.735V139.685C83.4098 139.319 83.306 138.968 83.1699 138.632C83.041 138.288 82.8727 137.984 82.665 137.719C82.4574 137.447 82.2067 137.232 81.9131 137.074C81.6266 136.917 81.29 136.838 80.9033 136.838C80.4665 136.838 80.0905 136.917 79.7754 137.074C79.4603 137.232 79.2025 137.468 79.002 137.783C78.8014 138.098 78.6546 138.496 78.5615 138.976C78.4684 139.455 78.4219 140.018 78.4219 140.662ZM91.9141 147.215C91.2194 147.215 90.5928 147.111 90.0342 146.903C89.4756 146.696 88.9993 146.381 88.6055 145.958C88.2116 145.528 87.9108 144.988 87.7031 144.336C87.4954 143.684 87.3916 142.914 87.3916 142.026V140.716C87.3916 139.692 87.5098 138.825 87.7461 138.116C87.9896 137.407 88.3154 136.838 88.7236 136.408C89.1318 135.971 89.5938 135.656 90.1094 135.463C90.625 135.262 91.1549 135.162 91.6992 135.162C92.4297 135.162 93.0527 135.28 93.5684 135.517C94.084 135.753 94.5029 136.104 94.8252 136.569C95.1475 137.035 95.3838 137.608 95.5342 138.288C95.6917 138.968 95.7705 139.753 95.7705 140.641V141.747H88.5088V140.125H93.8691V139.856C93.8405 139.255 93.7581 138.725 93.6221 138.267C93.4932 137.808 93.2783 137.45 92.9775 137.192C92.6768 136.927 92.2507 136.795 91.6992 136.795C91.3483 136.795 91.0225 136.856 90.7217 136.978C90.4281 137.092 90.1738 137.296 89.959 137.59C89.7513 137.876 89.5866 138.274 89.4648 138.782C89.3503 139.291 89.293 139.935 89.293 140.716V142.026C89.293 142.649 89.3503 143.187 89.4648 143.638C89.5866 144.082 89.762 144.451 89.9912 144.744C90.2275 145.031 90.514 145.245 90.8506 145.389C91.1943 145.525 91.5846 145.593 92.0215 145.593C92.6589 145.593 93.1852 145.471 93.6006 145.228C94.016 144.977 94.3776 144.658 94.6855 144.271L95.6846 145.464C95.4769 145.757 95.2048 146.04 94.8682 146.312C94.5387 146.577 94.1305 146.796 93.6436 146.968C93.1637 147.132 92.5872 147.215 91.9141 147.215Z" fill="white"/>
<rect x="12" y="248" width="210" height="22" fill="white" stroke="black" stroke-width="6"/>
<path d="M260 260H130C201.797 260 260 201.797 260 130C260 58.203 201.797 0 130 0C58.203 0 0 58.203 0 130C0 201.797 58.203 260 130 260H0V0H260V260Z" fill="black"/>
</g>
<defs>
<clipPath id="clip0_111_2">
<rect width="260" height="260" fill="white"/>
</clipPath>
</defs>
</svg>
