<svg width="260" height="260" viewBox="0 0 260 260" fill="none" xmlns="http://www.w3.org/2000/svg">
<g clip-path="url(#clip0_5_60)">
<rect width="260" height="260" fill="white"/>
<rect width="260" height="260" fill="black"/>
<circle cx="130" cy="130" r="130" fill="#FF9500"/>
<path d="M50.48 66.64V53.2H81.84V80.08H59.44V89.04H81.84V98H50.48V71.12H72.88V62.16H59.44V66.64H50.48ZM90.7925 98V84.56H99.7525V89.04H113.193V80.08H90.7925V53.2H122.153V62.16H99.7525V71.12H122.153V98H90.7925Z" fill="white"/>
<path d="M50.3301 111.687V121H48.4395V109.377H50.2227L50.3301 111.687ZM49.9434 114.748L49.0625 114.716C49.0553 113.921 49.1341 113.187 49.2988 112.514C49.4635 111.833 49.7106 111.243 50.04 110.741C50.3766 110.24 50.7956 109.853 51.2969 109.581C51.8053 109.302 52.3962 109.162 53.0693 109.162C53.5133 109.162 53.9251 109.241 54.3047 109.398C54.6914 109.549 55.028 109.789 55.3145 110.118C55.6009 110.448 55.8229 110.87 55.9805 111.386C56.1452 111.901 56.2275 112.524 56.2275 113.255V121H54.3262V113.352C54.3262 112.743 54.2438 112.256 54.0791 111.891C53.9215 111.525 53.696 111.26 53.4023 111.096C53.1087 110.924 52.7578 110.838 52.3496 110.838C51.8841 110.838 51.4938 110.942 51.1787 111.149C50.8708 111.357 50.6237 111.644 50.4375 112.009C50.2585 112.374 50.1296 112.793 50.0508 113.266C49.9792 113.731 49.9434 114.225 49.9434 114.748ZM56.2061 113.652L54.9385 114.061C54.9313 113.423 55.0101 112.811 55.1748 112.224C55.3395 111.636 55.583 111.114 55.9053 110.655C56.2347 110.197 56.6429 109.835 57.1299 109.57C57.6169 109.298 58.1826 109.162 58.8271 109.162C59.3571 109.162 59.8262 109.244 60.2344 109.409C60.6426 109.574 60.9863 109.828 61.2656 110.172C61.5521 110.508 61.7669 110.942 61.9102 111.472C62.0534 112.002 62.125 112.632 62.125 113.362V121H60.2236V113.341C60.2236 112.689 60.1413 112.184 59.9766 111.826C59.819 111.461 59.5934 111.207 59.2998 111.063C59.0062 110.913 58.6553 110.838 58.2471 110.838C57.9176 110.838 57.624 110.913 57.3662 111.063C57.1156 111.214 56.9043 111.422 56.7324 111.687C56.5605 111.944 56.4281 112.242 56.335 112.578C56.249 112.915 56.2061 113.273 56.2061 113.652ZM67.0342 109.377V121H65.1436V109.377H67.0342ZM65.0361 106.294C65.0361 105.972 65.1257 105.7 65.3047 105.478C65.4837 105.256 65.7523 105.145 66.1104 105.145C66.4684 105.145 66.737 105.256 66.916 105.478C67.1022 105.7 67.1953 105.972 67.1953 106.294C67.1953 106.602 67.1022 106.867 66.916 107.089C66.737 107.304 66.4684 107.411 66.1104 107.411C65.7523 107.411 65.4837 107.304 65.3047 107.089C65.1257 106.867 65.0361 106.602 65.0361 106.294ZM71.9434 111.858V121H70.042V109.377H71.8359L71.9434 111.858ZM71.4814 114.748L70.708 114.716C70.7008 113.921 70.7904 113.187 70.9766 112.514C71.1699 111.833 71.4421 111.243 71.793 110.741C72.151 110.24 72.5771 109.853 73.0713 109.581C73.5654 109.302 74.1133 109.162 74.7148 109.162C75.1875 109.162 75.6172 109.241 76.0039 109.398C76.3906 109.549 76.7201 109.792 76.9922 110.129C77.2643 110.465 77.472 110.902 77.6152 111.439C77.7656 111.969 77.8408 112.618 77.8408 113.384V121H75.9395V113.362C75.9395 112.754 75.8714 112.267 75.7354 111.901C75.6064 111.529 75.4059 111.26 75.1338 111.096C74.8688 110.924 74.5322 110.838 74.124 110.838C73.7516 110.838 73.4043 110.942 73.082 111.149C72.7598 111.357 72.4769 111.644 72.2334 112.009C71.9971 112.374 71.8109 112.793 71.6748 113.266C71.5459 113.731 71.4814 114.225 71.4814 114.748ZM86.5742 118.314V109.377H88.4756V121H86.6709L86.5742 118.314ZM86.9287 115.865L87.6807 115.844C87.6807 116.617 87.6126 117.333 87.4766 117.992C87.3477 118.644 87.1328 119.21 86.832 119.689C86.5384 120.169 86.1481 120.545 85.6611 120.817C85.1742 121.082 84.5762 121.215 83.8672 121.215C83.3874 121.215 82.9505 121.132 82.5566 120.968C82.1699 120.803 81.8333 120.549 81.5469 120.205C81.2676 119.861 81.0492 119.414 80.8916 118.862C80.7412 118.311 80.666 117.648 80.666 116.875V109.377H82.5566V116.896C82.5566 117.419 82.6032 117.853 82.6963 118.196C82.7894 118.533 82.9147 118.801 83.0723 119.002C83.2298 119.195 83.4053 119.331 83.5986 119.41C83.792 119.489 83.9889 119.528 84.1895 119.528C84.8626 119.528 85.3997 119.367 85.8008 119.045C86.2018 118.715 86.4883 118.275 86.6602 117.724C86.8392 117.165 86.9287 116.546 86.9287 115.865ZM95.5762 109.377V110.902H90.1514V109.377H95.5762ZM91.9238 106.552H93.8252V118.121C93.8252 118.515 93.8717 118.812 93.9648 119.013C94.0651 119.213 94.1904 119.346 94.3408 119.41C94.4912 119.475 94.6523 119.507 94.8242 119.507C94.9531 119.507 95.0964 119.493 95.2539 119.464C95.4115 119.428 95.5189 119.399 95.5762 119.378L95.5654 121C95.4365 121.05 95.2646 121.097 95.0498 121.14C94.835 121.19 94.5628 121.215 94.2334 121.215C93.8252 121.215 93.4456 121.118 93.0947 120.925C92.7438 120.731 92.4609 120.409 92.2461 119.958C92.0312 119.5 91.9238 118.884 91.9238 118.11V106.552ZM102 121.215C101.305 121.215 100.679 121.111 100.12 120.903C99.5615 120.696 99.0853 120.381 98.6914 119.958C98.2975 119.528 97.9967 118.988 97.7891 118.336C97.5814 117.684 97.4775 116.914 97.4775 116.026V114.716C97.4775 113.692 97.5957 112.825 97.832 112.116C98.0755 111.407 98.4014 110.838 98.8096 110.408C99.2178 109.971 99.6797 109.656 100.195 109.463C100.711 109.262 101.241 109.162 101.785 109.162C102.516 109.162 103.139 109.28 103.654 109.517C104.17 109.753 104.589 110.104 104.911 110.569C105.233 111.035 105.47 111.608 105.62 112.288C105.778 112.968 105.856 113.753 105.856 114.641V115.747H98.5947V114.125H103.955V113.856C103.926 113.255 103.844 112.725 103.708 112.267C103.579 111.808 103.364 111.45 103.063 111.192C102.763 110.927 102.337 110.795 101.785 110.795C101.434 110.795 101.108 110.856 100.808 110.978C100.514 111.092 100.26 111.296 100.045 111.59C99.8372 111.876 99.6725 112.274 99.5508 112.782C99.4362 113.291 99.3789 113.935 99.3789 114.716V116.026C99.3789 116.649 99.4362 117.187 99.5508 117.638C99.6725 118.082 99.848 118.451 100.077 118.744C100.313 119.031 100.6 119.245 100.937 119.389C101.28 119.525 101.671 119.593 102.107 119.593C102.745 119.593 103.271 119.471 103.687 119.228C104.102 118.977 104.464 118.658 104.771 118.271L105.771 119.464C105.563 119.757 105.291 120.04 104.954 120.312C104.625 120.577 104.216 120.796 103.729 120.968C103.25 121.132 102.673 121.215 102 121.215ZM113.795 118.024C113.795 117.731 113.723 117.473 113.58 117.251C113.437 117.029 113.201 116.814 112.871 116.606C112.549 116.399 112.112 116.177 111.561 115.94C111.023 115.718 110.54 115.5 110.11 115.285C109.688 115.063 109.33 114.823 109.036 114.565C108.743 114.308 108.517 114.01 108.359 113.674C108.209 113.33 108.134 112.925 108.134 112.46C108.134 111.994 108.22 111.565 108.392 111.171C108.571 110.77 108.821 110.419 109.144 110.118C109.466 109.817 109.853 109.585 110.304 109.42C110.755 109.248 111.26 109.162 111.818 109.162C112.613 109.162 113.29 109.316 113.849 109.624C114.407 109.932 114.833 110.354 115.127 110.892C115.428 111.422 115.578 112.02 115.578 112.686H113.688C113.688 112.363 113.616 112.059 113.473 111.772C113.329 111.486 113.118 111.253 112.839 111.074C112.56 110.888 112.219 110.795 111.818 110.795C111.396 110.795 111.052 110.87 110.787 111.021C110.522 111.171 110.329 111.368 110.207 111.611C110.092 111.848 110.035 112.109 110.035 112.396C110.035 112.61 110.064 112.797 110.121 112.954C110.186 113.104 110.293 113.248 110.443 113.384C110.594 113.513 110.798 113.649 111.056 113.792C111.321 113.928 111.657 114.086 112.065 114.265C112.853 114.573 113.516 114.884 114.053 115.199C114.59 115.514 114.998 115.883 115.277 116.306C115.557 116.728 115.696 117.251 115.696 117.874C115.696 118.382 115.603 118.844 115.417 119.26C115.238 119.668 114.98 120.019 114.644 120.312C114.307 120.606 113.902 120.832 113.43 120.989C112.964 121.14 112.441 121.215 111.861 121.215C110.988 121.215 110.246 121.043 109.638 120.699C109.036 120.348 108.578 119.894 108.263 119.335C107.955 118.769 107.801 118.164 107.801 117.52H109.702C109.724 118.064 109.845 118.486 110.067 118.787C110.297 119.088 110.572 119.296 110.895 119.41C111.217 119.525 111.539 119.582 111.861 119.582C112.284 119.582 112.638 119.521 112.925 119.399C113.211 119.271 113.426 119.088 113.569 118.852C113.72 118.615 113.795 118.34 113.795 118.024ZM54.3047 140.314V131.377H56.2061V143H54.4014L54.3047 140.314ZM54.6592 137.865L55.4111 137.844C55.4111 138.617 55.3431 139.333 55.207 139.992C55.0781 140.644 54.8633 141.21 54.5625 141.689C54.2689 142.169 53.8786 142.545 53.3916 142.817C52.9046 143.082 52.3066 143.215 51.5977 143.215C51.1178 143.215 50.681 143.132 50.2871 142.968C49.9004 142.803 49.5638 142.549 49.2773 142.205C48.998 141.861 48.7796 141.414 48.6221 140.862C48.4717 140.311 48.3965 139.648 48.3965 138.875V131.377H50.2871V138.896C50.2871 139.419 50.3337 139.853 50.4268 140.196C50.5199 140.533 50.6452 140.801 50.8027 141.002C50.9603 141.195 51.1357 141.331 51.3291 141.41C51.5225 141.489 51.7194 141.528 51.9199 141.528C52.5931 141.528 53.1302 141.367 53.5312 141.045C53.9323 140.715 54.2188 140.275 54.3906 139.724C54.5697 139.165 54.6592 138.546 54.6592 137.865ZM60.9648 133.858V143H59.0635V131.377H60.8574L60.9648 133.858ZM60.5029 136.748L59.7295 136.716C59.7223 135.921 59.8118 135.187 59.998 134.514C60.1914 133.833 60.4635 133.243 60.8145 132.741C61.1725 132.24 61.5986 131.853 62.0928 131.581C62.5869 131.302 63.1348 131.162 63.7363 131.162C64.209 131.162 64.6387 131.241 65.0254 131.398C65.4121 131.549 65.7415 131.792 66.0137 132.129C66.2858 132.465 66.4935 132.902 66.6367 133.439C66.7871 133.969 66.8623 134.618 66.8623 135.384V143H64.9609V135.362C64.9609 134.754 64.8929 134.267 64.7568 133.901C64.6279 133.529 64.4274 133.26 64.1553 133.096C63.8903 132.924 63.5537 132.838 63.1455 132.838C62.7731 132.838 62.4258 132.942 62.1035 133.149C61.7812 133.357 61.4984 133.644 61.2549 134.009C61.0186 134.374 60.8324 134.793 60.6963 135.266C60.5674 135.731 60.5029 136.225 60.5029 136.748ZM73.9629 131.377V132.902H68.5381V131.377H73.9629ZM70.3105 128.552H72.2119V140.121C72.2119 140.515 72.2585 140.812 72.3516 141.013C72.4518 141.213 72.5771 141.346 72.7275 141.41C72.8779 141.475 73.0391 141.507 73.2109 141.507C73.3398 141.507 73.4831 141.493 73.6406 141.464C73.7982 141.428 73.9056 141.399 73.9629 141.378L73.9521 143C73.8232 143.05 73.6514 143.097 73.4365 143.14C73.2217 143.19 72.9495 143.215 72.6201 143.215C72.2119 143.215 71.8324 143.118 71.4814 142.925C71.1305 142.731 70.8477 142.409 70.6328 141.958C70.418 141.5 70.3105 140.884 70.3105 140.11V128.552ZM78.2705 131.377V143H76.3799V131.377H78.2705ZM76.2725 128.294C76.2725 127.972 76.362 127.7 76.541 127.478C76.7201 127.256 76.9886 127.145 77.3467 127.145C77.7048 127.145 77.9733 127.256 78.1523 127.478C78.3385 127.7 78.4316 127.972 78.4316 128.294C78.4316 128.602 78.3385 128.867 78.1523 129.089C77.9733 129.304 77.7048 129.411 77.3467 129.411C76.9886 129.411 76.7201 129.304 76.541 129.089C76.362 128.867 76.2725 128.602 76.2725 128.294ZM83.3193 126.5V143H81.4287V126.5H83.3193ZM94.1152 143H92.2139V130.152C92.2139 129.314 92.3464 128.609 92.6113 128.036C92.8835 127.456 93.2666 127.019 93.7607 126.726C94.262 126.425 94.8564 126.274 95.5439 126.274C95.7373 126.274 95.9307 126.289 96.124 126.317C96.3245 126.346 96.5143 126.389 96.6934 126.446L96.6074 128.068C96.4928 128.033 96.3532 128.007 96.1885 127.993C96.0309 127.979 95.8805 127.972 95.7373 127.972C95.3936 127.972 95.0999 128.058 94.8564 128.229C94.613 128.394 94.4268 128.638 94.2979 128.96C94.1761 129.282 94.1152 129.68 94.1152 130.152V143ZM96.0918 131.377V132.902H90.6992V131.377H96.0918ZM104.213 140.314V131.377H106.114V143H104.31L104.213 140.314ZM104.567 137.865L105.319 137.844C105.319 138.617 105.251 139.333 105.115 139.992C104.986 140.644 104.771 141.21 104.471 141.689C104.177 142.169 103.787 142.545 103.3 142.817C102.813 143.082 102.215 143.215 101.506 143.215C101.026 143.215 100.589 143.132 100.195 142.968C99.8086 142.803 99.472 142.549 99.1855 142.205C98.9062 141.861 98.6878 141.414 98.5303 140.862C98.3799 140.311 98.3047 139.648 98.3047 138.875V131.377H100.195V138.896C100.195 139.419 100.242 139.853 100.335 140.196C100.428 140.533 100.553 140.801 100.711 141.002C100.868 141.195 101.044 141.331 101.237 141.41C101.431 141.489 101.628 141.528 101.828 141.528C102.501 141.528 103.038 141.367 103.439 141.045C103.84 140.715 104.127 140.275 104.299 139.724C104.478 139.165 104.567 138.546 104.567 137.865ZM111.013 126.5V143H109.122V126.5H111.013ZM116.062 126.5V143H114.171V126.5H116.062Z" fill="white"/>
<path d="M108.005 29.9243L106.973 29.646L107.427 24.3359H112.07V25.5884H108.518L108.269 28.4888C108.435 28.3765 108.635 28.2715 108.87 28.1738C109.104 28.0762 109.377 28.0273 109.69 28.0273C110.11 28.0273 110.483 28.1128 110.811 28.2837C111.143 28.4497 111.423 28.689 111.653 29.0015C111.882 29.314 112.058 29.6899 112.18 30.1294C112.302 30.5688 112.363 31.0596 112.363 31.6016C112.363 32.1143 112.302 32.5854 112.18 33.0151C112.063 33.4448 111.882 33.8208 111.638 34.1431C111.399 34.4604 111.096 34.707 110.73 34.8828C110.369 35.0586 109.946 35.1465 109.463 35.1465C109.102 35.1465 108.76 35.0879 108.438 34.9707C108.115 34.8486 107.825 34.6655 107.566 34.4214C107.312 34.1724 107.104 33.8647 106.943 33.4985C106.782 33.1274 106.682 32.6929 106.643 32.1948H107.866C107.915 32.5952 108.008 32.9321 108.145 33.2056C108.286 33.479 108.467 33.6865 108.687 33.8281C108.911 33.9648 109.17 34.0332 109.463 34.0332C109.712 34.0332 109.937 33.9771 110.137 33.8647C110.337 33.7524 110.505 33.5913 110.642 33.3813C110.779 33.1714 110.884 32.9175 110.957 32.6196C111.03 32.3218 111.067 31.9873 111.067 31.6162C111.067 31.2793 111.03 30.9668 110.957 30.6787C110.884 30.3906 110.774 30.1392 110.627 29.9243C110.481 29.7095 110.303 29.5435 110.093 29.4263C109.888 29.3042 109.648 29.2432 109.375 29.2432C109.009 29.2432 108.738 29.3042 108.562 29.4263C108.391 29.5483 108.206 29.7144 108.005 29.9243ZM114.004 34.2822C114.004 34.0527 114.075 33.8599 114.216 33.7036C114.363 33.5425 114.573 33.4619 114.846 33.4619C115.12 33.4619 115.327 33.5425 115.469 33.7036C115.615 33.8599 115.688 34.0527 115.688 34.2822C115.688 34.5068 115.615 34.6973 115.469 34.8535C115.327 35.0098 115.12 35.0879 114.846 35.0879C114.573 35.0879 114.363 35.0098 114.216 34.8535C114.075 34.6973 114.004 34.5068 114.004 34.2822ZM113.997 27.8149C113.997 27.5854 114.067 27.3926 114.209 27.2363C114.355 27.0752 114.565 26.9946 114.839 26.9946C115.112 26.9946 115.32 27.0752 115.461 27.2363C115.608 27.3926 115.681 27.5854 115.681 27.8149C115.681 28.0396 115.608 28.23 115.461 28.3862C115.32 28.5425 115.112 28.6206 114.839 28.6206C114.565 28.6206 114.355 28.5425 114.209 28.3862C114.067 28.23 113.997 28.0396 113.997 27.8149ZM123.313 33.8867V35H117.351V34.0259L120.288 30.1367C120.649 29.6582 120.925 29.2529 121.116 28.9209C121.306 28.584 121.438 28.2837 121.511 28.02C121.584 27.7515 121.621 27.478 121.621 27.1997C121.621 26.8481 121.565 26.5308 121.453 26.2476C121.34 25.9595 121.177 25.73 120.962 25.5591C120.747 25.3882 120.488 25.3027 120.186 25.3027C119.79 25.3027 119.465 25.3955 119.211 25.5811C118.962 25.7617 118.779 26.0156 118.662 26.3428C118.545 26.6699 118.486 27.0459 118.486 27.4707H117.19C117.19 26.8701 117.3 26.3208 117.52 25.8228C117.744 25.3247 118.079 24.9292 118.523 24.6362C118.967 24.3384 119.521 24.1895 120.186 24.1895C120.757 24.1895 121.245 24.3091 121.65 24.5483C122.061 24.7827 122.373 25.1147 122.588 25.5444C122.808 25.9692 122.917 26.4673 122.917 27.0386C122.917 27.3511 122.874 27.6685 122.786 27.9907C122.703 28.3081 122.585 28.6255 122.434 28.9429C122.288 29.2603 122.114 29.5728 121.914 29.8804C121.714 30.188 121.499 30.4907 121.27 30.7886L118.904 33.8867H123.313ZM125.935 33.8647H126.038C126.697 33.8647 127.227 33.7549 127.627 33.5352C128.027 33.3154 128.328 33.02 128.528 32.6489C128.733 32.2778 128.87 31.8604 128.938 31.3965C129.011 30.9277 129.048 30.4468 129.048 29.9536V28.3203C129.048 27.8369 129.001 27.4072 128.909 27.0312C128.821 26.6553 128.701 26.3403 128.55 26.0864C128.403 25.8325 128.235 25.6396 128.044 25.5078C127.859 25.376 127.668 25.3101 127.473 25.3101C127.224 25.3101 127.004 25.3735 126.814 25.5005C126.624 25.6226 126.462 25.7959 126.331 26.0205C126.204 26.2451 126.106 26.5088 126.038 26.8115C125.969 27.1143 125.935 27.4438 125.935 27.8003C125.935 28.1177 125.964 28.4253 126.023 28.7231C126.082 29.021 126.172 29.2896 126.294 29.5288C126.421 29.7681 126.577 29.9585 126.763 30.1001C126.953 30.2368 127.178 30.3052 127.437 30.3052C127.651 30.3052 127.859 30.2466 128.059 30.1294C128.264 30.0073 128.45 29.8438 128.616 29.6387C128.782 29.4287 128.918 29.1919 129.026 28.9282C129.133 28.6646 129.197 28.3887 129.216 28.1006H129.824C129.824 28.5059 129.758 28.9062 129.626 29.3018C129.5 29.6924 129.316 30.0488 129.077 30.3711C128.843 30.6934 128.567 30.9521 128.25 31.1475C127.937 31.3379 127.593 31.4331 127.217 31.4331C126.763 31.4331 126.375 31.3306 126.052 31.1255C125.73 30.9204 125.466 30.647 125.261 30.3052C125.061 29.9634 124.912 29.5825 124.814 29.1626C124.717 28.7378 124.668 28.3081 124.668 27.8735C124.668 27.3657 124.727 26.8896 124.844 26.4453C124.961 26.001 125.134 25.6104 125.364 25.2734C125.598 24.9316 125.891 24.6655 126.243 24.4751C126.594 24.2847 127.004 24.1895 127.473 24.1895C127.996 24.1895 128.44 24.3115 128.806 24.5557C129.172 24.7998 129.468 25.127 129.692 25.5371C129.917 25.9473 130.081 26.4087 130.183 26.9214C130.286 27.4341 130.337 27.9614 130.337 28.5034V28.9941C130.337 29.5459 130.31 30.1074 130.256 30.6787C130.208 31.2451 130.103 31.7871 129.941 32.3047C129.785 32.8223 129.551 33.2861 129.238 33.6963C128.926 34.1016 128.508 34.4238 127.986 34.6631C127.468 34.8975 126.819 35.0146 126.038 35.0146H125.942L125.935 33.8647ZM139.309 30.8179H136.98V29.668H139.309C139.749 29.668 140.103 29.5801 140.371 29.4043C140.645 29.2285 140.842 28.9844 140.964 28.6719C141.091 28.3594 141.155 28.0029 141.155 27.6025C141.155 27.2363 141.091 26.8921 140.964 26.5698C140.842 26.2476 140.645 25.9888 140.371 25.7935C140.103 25.5933 139.749 25.4932 139.309 25.4932H137.258V35H135.911V24.3359H139.309C139.998 24.3359 140.579 24.4751 141.052 24.7534C141.526 25.0317 141.885 25.4175 142.129 25.9106C142.378 26.3989 142.502 26.958 142.502 27.5879C142.502 28.2715 142.378 28.855 142.129 29.3384C141.885 29.8218 141.526 30.1904 141.052 30.4443C140.579 30.6934 139.998 30.8179 139.309 30.8179ZM144.656 24.3359H145.959L148.75 33.0298L151.533 24.3359H152.837L149.255 35H148.23L144.656 24.3359ZM144.231 24.3359H145.374L145.571 30.8398V35H144.231V24.3359ZM152.112 24.3359H153.254V35H151.914V30.8398L152.112 24.3359Z" fill="white"/>
<path d="M103.527 179.726L100.583 213.825C100.247 217.721 102.776 221.29 106.564 222.262L149.391 233.258C150.025 233.421 150.651 233.505 151.306 233.509C211.384 233.884 332.042 234.398 341.657 233.503C350.219 232.707 358.36 229.794 362.441 227.967C363.355 227.557 364.183 226.957 364.728 226.116C368.936 219.63 366.371 207.655 364.429 199.133C364.027 197.369 363.066 195.772 361.567 194.76C346.449 184.55 314.795 179.135 298.638 177.475C297.457 177.354 296.326 176.99 295.304 176.387C281.172 168.049 253.994 152.489 247.008 150.323C237.946 147.513 190.621 146.951 171.994 150.323C157.427 152.96 131.411 164.404 119.433 170.167C118.892 170.428 118.332 170.624 117.748 170.759L109.697 172.619C106.317 173.4 103.825 176.269 103.527 179.726Z" fill="white" stroke="black" stroke-width="6"/>
<circle cx="156" cy="224" r="20" fill="white" stroke="black" stroke-width="6"/>
<circle cx="145.5" cy="177.5" r="5.5" stroke="black" stroke-width="6"/>
<rect x="12" y="248" width="210" height="22" fill="white" stroke="black" stroke-width="6"/>
<path d="M131.645 177.956C135.667 175.313 140.33 173.579 145.4 174.089C147.598 174.31 149.2 176.271 148.979 178.469C148.758 180.667 146.798 182.27 144.6 182.049C141.92 181.78 139.08 182.643 136.038 184.642C132.981 186.651 129.965 189.653 127.102 193.185C121.363 200.262 116.784 208.759 113.996 213.776C111.045 219.087 105.108 227.295 96.5918 234.221C88.0544 241.163 76.6874 247 63 247H10C7.79086 247 6 245.209 6 243C6 240.791 7.79086 239 10 239H63C74.3126 239 83.9535 234.188 91.5449 228.015C99.1571 221.824 104.47 214.448 107.004 209.89C109.701 205.037 114.623 195.872 120.888 188.146C124.026 184.276 127.637 180.59 131.645 177.956Z" fill="white" stroke="black" stroke-width="6" stroke-linecap="round"/>
<path d="M260 260H130C201.797 260 260 201.797 260 130C260 58.203 201.797 0 130 0C58.203 0 0 58.203 0 130C0 201.797 58.203 260 130 260H0V0H260V260Z" fill="black"/>
</g>
<defs>
<clipPath id="clip0_5_60">
<rect width="260" height="260" fill="white"/>
</clipPath>
</defs>
</svg>
