<svg width="260" height="260" viewBox="0 0 260 260" fill="none" xmlns="http://www.w3.org/2000/svg">
<g clip-path="url(#clip0_5_53)">
<rect width="260" height="260" fill="white"/>
<rect width="260" height="260" fill="black"/>
<circle cx="130" cy="130" r="130" fill="#FF9500"/>
<path d="M108.005 29.9243L106.973 29.646L107.427 24.3359H112.07V25.5884H108.518L108.269 28.4888C108.435 28.3765 108.635 28.2715 108.87 28.1738C109.104 28.0762 109.377 28.0273 109.69 28.0273C110.11 28.0273 110.483 28.1128 110.811 28.2837C111.143 28.4497 111.423 28.689 111.653 29.0015C111.882 29.314 112.058 29.6899 112.18 30.1294C112.302 30.5688 112.363 31.0596 112.363 31.6016C112.363 32.1143 112.302 32.5854 112.18 33.0151C112.063 33.4448 111.882 33.8208 111.638 34.1431C111.399 34.4604 111.096 34.707 110.73 34.8828C110.369 35.0586 109.946 35.1465 109.463 35.1465C109.102 35.1465 108.76 35.0879 108.438 34.9707C108.115 34.8486 107.825 34.6655 107.566 34.4214C107.312 34.1724 107.104 33.8647 106.943 33.4985C106.782 33.1274 106.682 32.6929 106.643 32.1948H107.866C107.915 32.5952 108.008 32.9321 108.145 33.2056C108.286 33.479 108.467 33.6865 108.687 33.8281C108.911 33.9648 109.17 34.0332 109.463 34.0332C109.712 34.0332 109.937 33.9771 110.137 33.8647C110.337 33.7524 110.505 33.5913 110.642 33.3813C110.779 33.1714 110.884 32.9175 110.957 32.6196C111.03 32.3218 111.067 31.9873 111.067 31.6162C111.067 31.2793 111.03 30.9668 110.957 30.6787C110.884 30.3906 110.774 30.1392 110.627 29.9243C110.481 29.7095 110.303 29.5435 110.093 29.4263C109.888 29.3042 109.648 29.2432 109.375 29.2432C109.009 29.2432 108.738 29.3042 108.562 29.4263C108.391 29.5483 108.206 29.7144 108.005 29.9243ZM114.004 34.2822C114.004 34.0527 114.075 33.8599 114.216 33.7036C114.363 33.5425 114.573 33.4619 114.846 33.4619C115.12 33.4619 115.327 33.5425 115.469 33.7036C115.615 33.8599 115.688 34.0527 115.688 34.2822C115.688 34.5068 115.615 34.6973 115.469 34.8535C115.327 35.0098 115.12 35.0879 114.846 35.0879C114.573 35.0879 114.363 35.0098 114.216 34.8535C114.075 34.6973 114.004 34.5068 114.004 34.2822ZM113.997 27.8149C113.997 27.5854 114.067 27.3926 114.209 27.2363C114.355 27.0752 114.565 26.9946 114.839 26.9946C115.112 26.9946 115.32 27.0752 115.461 27.2363C115.608 27.3926 115.681 27.5854 115.681 27.8149C115.681 28.0396 115.608 28.23 115.461 28.3862C115.32 28.5425 115.112 28.6206 114.839 28.6206C114.565 28.6206 114.355 28.5425 114.209 28.3862C114.067 28.23 113.997 28.0396 113.997 27.8149ZM123.313 33.8867V35H117.351V34.0259L120.288 30.1367C120.649 29.6582 120.925 29.2529 121.116 28.9209C121.306 28.584 121.438 28.2837 121.511 28.02C121.584 27.7515 121.621 27.478 121.621 27.1997C121.621 26.8481 121.565 26.5308 121.453 26.2476C121.34 25.9595 121.177 25.73 120.962 25.5591C120.747 25.3882 120.488 25.3027 120.186 25.3027C119.79 25.3027 119.465 25.3955 119.211 25.5811C118.962 25.7617 118.779 26.0156 118.662 26.3428C118.545 26.6699 118.486 27.0459 118.486 27.4707H117.19C117.19 26.8701 117.3 26.3208 117.52 25.8228C117.744 25.3247 118.079 24.9292 118.523 24.6362C118.967 24.3384 119.521 24.1895 120.186 24.1895C120.757 24.1895 121.245 24.3091 121.65 24.5483C122.061 24.7827 122.373 25.1147 122.588 25.5444C122.808 25.9692 122.917 26.4673 122.917 27.0386C122.917 27.3511 122.874 27.6685 122.786 27.9907C122.703 28.3081 122.585 28.6255 122.434 28.9429C122.288 29.2603 122.114 29.5728 121.914 29.8804C121.714 30.188 121.499 30.4907 121.27 30.7886L118.904 33.8867H123.313ZM125.935 33.8647H126.038C126.697 33.8647 127.227 33.7549 127.627 33.5352C128.027 33.3154 128.328 33.02 128.528 32.6489C128.733 32.2778 128.87 31.8604 128.938 31.3965C129.011 30.9277 129.048 30.4468 129.048 29.9536V28.3203C129.048 27.8369 129.001 27.4072 128.909 27.0312C128.821 26.6553 128.701 26.3403 128.55 26.0864C128.403 25.8325 128.235 25.6396 128.044 25.5078C127.859 25.376 127.668 25.3101 127.473 25.3101C127.224 25.3101 127.004 25.3735 126.814 25.5005C126.624 25.6226 126.462 25.7959 126.331 26.0205C126.204 26.2451 126.106 26.5088 126.038 26.8115C125.969 27.1143 125.935 27.4438 125.935 27.8003C125.935 28.1177 125.964 28.4253 126.023 28.7231C126.082 29.021 126.172 29.2896 126.294 29.5288C126.421 29.7681 126.577 29.9585 126.763 30.1001C126.953 30.2368 127.178 30.3052 127.437 30.3052C127.651 30.3052 127.859 30.2466 128.059 30.1294C128.264 30.0073 128.45 29.8438 128.616 29.6387C128.782 29.4287 128.918 29.1919 129.026 28.9282C129.133 28.6646 129.197 28.3887 129.216 28.1006H129.824C129.824 28.5059 129.758 28.9062 129.626 29.3018C129.5 29.6924 129.316 30.0488 129.077 30.3711C128.843 30.6934 128.567 30.9521 128.25 31.1475C127.937 31.3379 127.593 31.4331 127.217 31.4331C126.763 31.4331 126.375 31.3306 126.052 31.1255C125.73 30.9204 125.466 30.647 125.261 30.3052C125.061 29.9634 124.912 29.5825 124.814 29.1626C124.717 28.7378 124.668 28.3081 124.668 27.8735C124.668 27.3657 124.727 26.8896 124.844 26.4453C124.961 26.001 125.134 25.6104 125.364 25.2734C125.598 24.9316 125.891 24.6655 126.243 24.4751C126.594 24.2847 127.004 24.1895 127.473 24.1895C127.996 24.1895 128.44 24.3115 128.806 24.5557C129.172 24.7998 129.468 25.127 129.692 25.5371C129.917 25.9473 130.081 26.4087 130.183 26.9214C130.286 27.4341 130.337 27.9614 130.337 28.5034V28.9941C130.337 29.5459 130.31 30.1074 130.256 30.6787C130.208 31.2451 130.103 31.7871 129.941 32.3047C129.785 32.8223 129.551 33.2861 129.238 33.6963C128.926 34.1016 128.508 34.4238 127.986 34.6631C127.468 34.8975 126.819 35.0146 126.038 35.0146H125.942L125.935 33.8647ZM139.309 30.8179H136.98V29.668H139.309C139.749 29.668 140.103 29.5801 140.371 29.4043C140.645 29.2285 140.842 28.9844 140.964 28.6719C141.091 28.3594 141.155 28.0029 141.155 27.6025C141.155 27.2363 141.091 26.8921 140.964 26.5698C140.842 26.2476 140.645 25.9888 140.371 25.7935C140.103 25.5933 139.749 25.4932 139.309 25.4932H137.258V35H135.911V24.3359H139.309C139.998 24.3359 140.579 24.4751 141.052 24.7534C141.526 25.0317 141.885 25.4175 142.129 25.9106C142.378 26.3989 142.502 26.958 142.502 27.5879C142.502 28.2715 142.378 28.855 142.129 29.3384C141.885 29.8218 141.526 30.1904 141.052 30.4443C140.579 30.6934 139.998 30.8179 139.309 30.8179ZM144.656 24.3359H145.959L148.75 33.0298L151.533 24.3359H152.837L149.255 35H148.23L144.656 24.3359ZM144.231 24.3359H145.374L145.571 30.8398V35H144.231V24.3359ZM152.112 24.3359H153.254V35H151.914V30.8398L152.112 24.3359Z" fill="white"/>
<path d="M130.024 64.3982C136.138 64.3983 142.011 66.8093 146.349 71.1169C150.688 75.4265 153.136 81.2825 153.136 87.3982V87.4011L153.114 108.812C160.237 109.104 166 114.941 166 122.2V158.599C166 166.048 159.933 172 152.556 172H107.444C100.067 172 94 166.048 94 158.599V122.2C94.0001 114.939 99.7666 109.1 106.892 108.811L106.913 87.3953C106.914 81.2806 109.36 75.4258 113.699 71.1169C118.037 66.8091 123.911 64.3982 130.024 64.3982ZM130.024 78.3982C127.593 78.3982 125.27 79.3582 123.564 81.0515C121.861 82.7433 120.913 85.0274 120.913 87.3982V87.4011L120.892 108.8H139.114L139.123 99.5964L139.136 87.3982L139.124 86.9548C139.014 84.7442 138.08 82.6376 136.483 81.0515C134.778 79.3583 132.456 78.3983 130.024 78.3982Z" fill="white" stroke="black" stroke-width="6" stroke-linecap="round" stroke-linejoin="round"/>
<rect x="124" y="94" width="33" height="12" fill="#FF9500"/>
<rect x="137" y="88" width="18" height="6" fill="black"/>
<rect x="137" y="106" width="14" height="6" fill="black"/>
<path d="M97.5635 203.314V194.377H99.4648V206H97.6602L97.5635 203.314ZM97.918 200.865L98.6699 200.844C98.6699 201.617 98.6019 202.333 98.4658 202.992C98.3369 203.644 98.1221 204.21 97.8213 204.689C97.5277 205.169 97.1374 205.545 96.6504 205.817C96.1634 206.082 95.5654 206.215 94.8564 206.215C94.3766 206.215 93.9398 206.132 93.5459 205.968C93.1592 205.803 92.8226 205.549 92.5361 205.205C92.2568 204.861 92.0384 204.414 91.8809 203.862C91.7305 203.311 91.6553 202.648 91.6553 201.875V194.377H93.5459V201.896C93.5459 202.419 93.5924 202.853 93.6855 203.196C93.7786 203.533 93.904 203.801 94.0615 204.002C94.2191 204.195 94.3945 204.331 94.5879 204.41C94.7812 204.489 94.9782 204.528 95.1787 204.528C95.8519 204.528 96.389 204.367 96.79 204.045C97.1911 203.715 97.4775 203.275 97.6494 202.724C97.8285 202.165 97.918 201.546 97.918 200.865ZM104.224 196.858V206H102.322V194.377H104.116L104.224 196.858ZM103.762 199.748L102.988 199.716C102.981 198.921 103.071 198.187 103.257 197.514C103.45 196.833 103.722 196.243 104.073 195.741C104.431 195.24 104.857 194.853 105.352 194.581C105.846 194.302 106.394 194.162 106.995 194.162C107.468 194.162 107.897 194.241 108.284 194.398C108.671 194.549 109 194.792 109.272 195.129C109.545 195.465 109.752 195.902 109.896 196.439C110.046 196.969 110.121 197.618 110.121 198.384V206H108.22V198.362C108.22 197.754 108.152 197.267 108.016 196.901C107.887 196.529 107.686 196.26 107.414 196.096C107.149 195.924 106.812 195.838 106.404 195.838C106.032 195.838 105.685 195.942 105.362 196.149C105.04 196.357 104.757 196.644 104.514 197.009C104.277 197.374 104.091 197.793 103.955 198.266C103.826 198.731 103.762 199.225 103.762 199.748ZM115.02 189.5V206H113.129V189.5H115.02ZM117.63 200.747V199.641C117.63 198.738 117.744 197.947 117.974 197.267C118.203 196.579 118.521 196.006 118.93 195.548C119.338 195.09 119.814 194.746 120.358 194.517C120.903 194.28 121.486 194.162 122.109 194.162C122.747 194.162 123.338 194.28 123.882 194.517C124.426 194.746 124.902 195.09 125.311 195.548C125.726 196.006 126.048 196.579 126.277 197.267C126.507 197.947 126.621 198.738 126.621 199.641V200.747C126.621 201.649 126.507 202.444 126.277 203.132C126.048 203.812 125.729 204.382 125.321 204.84C124.913 205.298 124.437 205.642 123.893 205.871C123.348 206.1 122.761 206.215 122.131 206.215C121.501 206.215 120.913 206.1 120.369 205.871C119.825 205.642 119.345 205.298 118.93 204.84C118.521 204.382 118.203 203.812 117.974 203.132C117.744 202.444 117.63 201.649 117.63 200.747ZM119.531 199.641V200.747C119.531 201.384 119.596 201.943 119.725 202.423C119.854 202.903 120.036 203.304 120.272 203.626C120.509 203.948 120.785 204.192 121.1 204.356C121.415 204.514 121.758 204.593 122.131 204.593C122.561 204.593 122.937 204.514 123.259 204.356C123.588 204.192 123.86 203.948 124.075 203.626C124.29 203.304 124.451 202.903 124.559 202.423C124.666 201.943 124.72 201.384 124.72 200.747V199.641C124.72 199.003 124.655 198.448 124.526 197.976C124.397 197.496 124.215 197.095 123.979 196.772C123.742 196.443 123.463 196.2 123.141 196.042C122.826 195.877 122.482 195.795 122.109 195.795C121.744 195.795 121.404 195.877 121.089 196.042C120.774 196.2 120.498 196.443 120.262 196.772C120.033 197.095 119.854 197.496 119.725 197.976C119.596 198.448 119.531 199.003 119.531 199.641ZM133.099 204.593C133.478 204.593 133.822 204.518 134.13 204.367C134.445 204.21 134.703 203.966 134.903 203.637C135.104 203.3 135.218 202.863 135.247 202.326H137.03C137.002 203.1 136.805 203.78 136.439 204.367C136.081 204.947 135.609 205.402 135.021 205.731C134.441 206.054 133.8 206.215 133.099 206.215C132.347 206.215 131.691 206.093 131.133 205.85C130.581 205.606 130.123 205.255 129.758 204.797C129.4 204.331 129.131 203.769 128.952 203.11C128.773 202.444 128.684 201.689 128.684 200.844V199.533C128.684 198.688 128.773 197.936 128.952 197.277C129.131 196.611 129.4 196.049 129.758 195.591C130.123 195.125 130.581 194.771 131.133 194.527C131.691 194.284 132.347 194.162 133.099 194.162C133.886 194.162 134.567 194.33 135.14 194.667C135.72 194.996 136.171 195.476 136.493 196.106C136.823 196.729 137.002 197.485 137.03 198.373H135.247C135.218 197.8 135.115 197.324 134.936 196.944C134.757 196.558 134.513 196.271 134.205 196.085C133.897 195.892 133.528 195.795 133.099 195.795C132.597 195.795 132.182 195.884 131.853 196.063C131.53 196.235 131.276 196.486 131.09 196.815C130.904 197.145 130.771 197.539 130.692 197.997C130.621 198.455 130.585 198.967 130.585 199.533V200.844C130.585 201.41 130.621 201.925 130.692 202.391C130.771 202.849 130.9 203.243 131.079 203.572C131.265 203.902 131.523 204.156 131.853 204.335C132.182 204.507 132.597 204.593 133.099 204.593ZM141.145 189.5V206H139.243V189.5H141.145ZM147.042 194.377L142.906 199.802L140.35 202.745L140.221 200.629L141.982 198.201L144.754 194.377H147.042ZM145.302 206L142.036 200.457L143.014 198.685L147.515 206H145.302ZM153.101 206.215C152.406 206.215 151.779 206.111 151.221 205.903C150.662 205.696 150.186 205.381 149.792 204.958C149.398 204.528 149.097 203.988 148.89 203.336C148.682 202.684 148.578 201.914 148.578 201.026V199.716C148.578 198.692 148.696 197.825 148.933 197.116C149.176 196.407 149.502 195.838 149.91 195.408C150.318 194.971 150.78 194.656 151.296 194.463C151.812 194.262 152.341 194.162 152.886 194.162C153.616 194.162 154.239 194.28 154.755 194.517C155.271 194.753 155.689 195.104 156.012 195.569C156.334 196.035 156.57 196.608 156.721 197.288C156.878 197.968 156.957 198.753 156.957 199.641V200.747H149.695V199.125H155.056V198.856C155.027 198.255 154.945 197.725 154.809 197.267C154.68 196.808 154.465 196.45 154.164 196.192C153.863 195.927 153.437 195.795 152.886 195.795C152.535 195.795 152.209 195.856 151.908 195.978C151.615 196.092 151.36 196.296 151.146 196.59C150.938 196.876 150.773 197.274 150.651 197.782C150.537 198.291 150.479 198.935 150.479 199.716V201.026C150.479 201.649 150.537 202.187 150.651 202.638C150.773 203.082 150.949 203.451 151.178 203.744C151.414 204.031 151.701 204.245 152.037 204.389C152.381 204.525 152.771 204.593 153.208 204.593C153.845 204.593 154.372 204.471 154.787 204.228C155.202 203.977 155.564 203.658 155.872 203.271L156.871 204.464C156.663 204.757 156.391 205.04 156.055 205.312C155.725 205.577 155.317 205.796 154.83 205.968C154.35 206.132 153.774 206.215 153.101 206.215ZM165.347 203.744V189.5H167.237V206H165.508L165.347 203.744ZM158.848 200.747V199.662C158.848 198.702 158.941 197.879 159.127 197.191C159.313 196.497 159.578 195.927 159.922 195.483C160.266 195.032 160.677 194.699 161.157 194.484C161.637 194.27 162.167 194.162 162.747 194.162C163.349 194.162 163.864 194.284 164.294 194.527C164.731 194.771 165.096 195.125 165.39 195.591C165.683 196.049 165.912 196.608 166.077 197.267C166.249 197.918 166.364 198.656 166.421 199.479V200.93C166.356 201.746 166.238 202.48 166.066 203.132C165.902 203.784 165.673 204.339 165.379 204.797C165.085 205.255 164.72 205.606 164.283 205.85C163.846 206.093 163.327 206.215 162.726 206.215C162.153 206.215 161.63 206.104 161.157 205.882C160.685 205.653 160.273 205.312 159.922 204.861C159.578 204.403 159.313 203.834 159.127 203.153C158.941 202.466 158.848 201.664 158.848 200.747ZM160.749 199.662V200.747C160.749 201.392 160.796 201.954 160.889 202.434C160.982 202.906 161.129 203.3 161.329 203.615C161.53 203.923 161.784 204.152 162.092 204.303C162.407 204.453 162.783 204.528 163.22 204.528C163.75 204.528 164.183 204.399 164.52 204.142C164.856 203.884 165.125 203.544 165.325 203.121C165.533 202.691 165.698 202.229 165.819 201.735V198.685C165.748 198.319 165.644 197.968 165.508 197.632C165.372 197.288 165.2 196.984 164.992 196.719C164.792 196.447 164.545 196.232 164.251 196.074C163.965 195.917 163.628 195.838 163.241 195.838C162.804 195.838 162.425 195.917 162.103 196.074C161.787 196.232 161.53 196.468 161.329 196.783C161.136 197.098 160.989 197.496 160.889 197.976C160.796 198.455 160.749 199.018 160.749 199.662Z" fill="white"/>
<path d="M260 260H130C201.797 260 260 201.797 260 130C260 58.203 201.797 0 130 0C58.203 0 0 58.203 0 130C0 201.797 58.203 260 130 260H0V0H260V260Z" fill="black"/>
<circle cx="267.5" cy="129.5" r="22.5" fill="black"/>
<line x1="124" y1="140" x2="136" y2="140" stroke="black" stroke-width="6" stroke-linecap="round"/>
</g>
<defs>
<clipPath id="clip0_5_53">
<rect width="260" height="260" fill="white"/>
</clipPath>
</defs>
</svg>
