<svg width="260" height="260" viewBox="0 0 260 260" fill="none" xmlns="http://www.w3.org/2000/svg">
<g clip-path="url(#clip0_25_849)">
<rect width="260" height="260" fill="white"/>
<rect width="260" height="260" fill="black"/>
<circle cx="130" cy="130" r="130" fill="#FF9500"/>
<path d="M260 260H130C201.797 260 260 201.797 260 130C260 58.203 201.797 0 130 0C58.203 0 0 58.203 0 130C0 201.797 58.203 260 130 260H0V0H260V260Z" fill="black"/>
<path d="M24 0H242C251.941 0 260 8.05888 260 18V242C260 251.941 251.941 260 242 260H24V0Z" fill="black"/>
<path d="M46.6719 126.377V127.902H41.2471V126.377H46.6719ZM43.0195 123.552H44.9209V135.121C44.9209 135.515 44.9674 135.812 45.0605 136.013C45.1608 136.213 45.2861 136.346 45.4365 136.41C45.5869 136.475 45.748 136.507 45.9199 136.507C46.0488 136.507 46.1921 136.493 46.3496 136.464C46.5072 136.428 46.6146 136.399 46.6719 136.378L46.6611 138C46.5322 138.05 46.3604 138.097 46.1455 138.14C45.9307 138.19 45.6585 138.215 45.3291 138.215C44.9209 138.215 44.5413 138.118 44.1904 137.925C43.8395 137.731 43.5566 137.409 43.3418 136.958C43.127 136.5 43.0195 135.884 43.0195 135.11V123.552ZM48.3262 132.747V131.641C48.3262 130.738 48.4408 129.947 48.6699 129.267C48.8991 128.579 49.2178 128.006 49.626 127.548C50.0342 127.09 50.5104 126.746 51.0547 126.517C51.599 126.28 52.1826 126.162 52.8057 126.162C53.443 126.162 54.0339 126.28 54.5781 126.517C55.1224 126.746 55.5986 127.09 56.0068 127.548C56.4222 128.006 56.7445 128.579 56.9736 129.267C57.2028 129.947 57.3174 130.738 57.3174 131.641V132.747C57.3174 133.649 57.2028 134.444 56.9736 135.132C56.7445 135.812 56.4258 136.382 56.0176 136.84C55.6094 137.298 55.1331 137.642 54.5889 137.871C54.0446 138.1 53.4574 138.215 52.8271 138.215C52.1969 138.215 51.6097 138.1 51.0654 137.871C50.5212 137.642 50.0413 137.298 49.626 136.84C49.2178 136.382 48.8991 135.812 48.6699 135.132C48.4408 134.444 48.3262 133.649 48.3262 132.747ZM50.2275 131.641V132.747C50.2275 133.384 50.292 133.943 50.4209 134.423C50.5498 134.903 50.7324 135.304 50.9688 135.626C51.2051 135.948 51.4808 136.192 51.7959 136.356C52.111 136.514 52.4548 136.593 52.8271 136.593C53.2568 136.593 53.6328 136.514 53.9551 136.356C54.2845 136.192 54.5566 135.948 54.7715 135.626C54.9863 135.304 55.1475 134.903 55.2549 134.423C55.3623 133.943 55.416 133.384 55.416 132.747V131.641C55.416 131.003 55.3516 130.448 55.2227 129.976C55.0938 129.496 54.9111 129.095 54.6748 128.772C54.4385 128.443 54.1592 128.2 53.8369 128.042C53.5218 127.877 53.1781 127.795 52.8057 127.795C52.4404 127.795 52.1003 127.877 51.7852 128.042C51.4701 128.2 51.1943 128.443 50.958 128.772C50.7288 129.095 50.5498 129.496 50.4209 129.976C50.292 130.448 50.2275 131.003 50.2275 131.641ZM66.0615 126.377H67.7695V138.097C67.7695 139.121 67.5905 139.966 67.2324 140.632C66.8815 141.298 66.391 141.788 65.7607 142.104C65.1305 142.426 64.4036 142.587 63.5801 142.587C63.2865 142.587 62.9176 142.533 62.4736 142.426C62.0296 142.318 61.5856 142.154 61.1416 141.932C60.6976 141.717 60.3324 141.445 60.0459 141.115L60.8301 139.794C61.2383 140.209 61.6715 140.507 62.1299 140.686C62.5882 140.865 63.0251 140.954 63.4404 140.954C63.9346 140.954 64.3643 140.865 64.7295 140.686C65.0947 140.507 65.3776 140.213 65.5781 139.805C65.7786 139.404 65.8789 138.867 65.8789 138.193V128.934L66.0615 126.377ZM59.3799 132.747V131.662C59.3799 130.702 59.4694 129.879 59.6484 129.191C59.8275 128.497 60.0853 127.927 60.4219 127.483C60.7656 127.032 61.1774 126.699 61.6572 126.484C62.137 126.27 62.6742 126.162 63.2686 126.162C63.8701 126.162 64.3893 126.284 64.8262 126.527C65.263 126.771 65.6247 127.125 65.9111 127.591C66.2048 128.049 66.4339 128.608 66.5986 129.267C66.7705 129.918 66.8887 130.656 66.9531 131.479V132.93C66.8887 133.746 66.7705 134.48 66.5986 135.132C66.4339 135.784 66.2012 136.339 65.9004 136.797C65.6068 137.255 65.2415 137.606 64.8047 137.85C64.3678 138.093 63.8486 138.215 63.2471 138.215C62.6598 138.215 62.1299 138.104 61.6572 137.882C61.1846 137.653 60.7764 137.312 60.4326 136.861C60.096 136.403 59.8346 135.834 59.6484 135.153C59.4694 134.466 59.3799 133.664 59.3799 132.747ZM61.2812 131.662V132.747C61.2812 133.392 61.3278 133.954 61.4209 134.434C61.514 134.906 61.6572 135.3 61.8506 135.615C62.0511 135.923 62.3053 136.152 62.6133 136.303C62.9284 136.453 63.3044 136.528 63.7412 136.528C64.2712 136.528 64.7044 136.399 65.041 136.142C65.3776 135.884 65.6462 135.544 65.8467 135.121C66.0544 134.691 66.2191 134.229 66.3408 133.735V130.685C66.2692 130.319 66.1654 129.968 66.0293 129.632C65.9004 129.288 65.7321 128.984 65.5244 128.719C65.3167 128.447 65.0661 128.232 64.7725 128.074C64.486 127.917 64.1494 127.838 63.7627 127.838C63.3258 127.838 62.9499 127.917 62.6348 128.074C62.3197 128.232 62.0618 128.468 61.8613 128.783C61.6608 129.098 61.514 129.496 61.4209 129.976C61.3278 130.455 61.2812 131.018 61.2812 131.662ZM76.9111 126.377H78.6191V138.097C78.6191 139.121 78.4401 139.966 78.082 140.632C77.7311 141.298 77.2406 141.788 76.6104 142.104C75.9801 142.426 75.2533 142.587 74.4297 142.587C74.1361 142.587 73.7673 142.533 73.3232 142.426C72.8792 142.318 72.4352 142.154 71.9912 141.932C71.5472 141.717 71.182 141.445 70.8955 141.115L71.6797 139.794C72.0879 140.209 72.5212 140.507 72.9795 140.686C73.4378 140.865 73.8747 140.954 74.29 140.954C74.7842 140.954 75.2139 140.865 75.5791 140.686C75.9443 140.507 76.2272 140.213 76.4277 139.805C76.6283 139.404 76.7285 138.867 76.7285 138.193V128.934L76.9111 126.377ZM70.2295 132.747V131.662C70.2295 130.702 70.319 129.879 70.498 129.191C70.6771 128.497 70.9349 127.927 71.2715 127.483C71.6152 127.032 72.027 126.699 72.5068 126.484C72.9867 126.27 73.5238 126.162 74.1182 126.162C74.7197 126.162 75.2389 126.284 75.6758 126.527C76.1126 126.771 76.4743 127.125 76.7607 127.591C77.0544 128.049 77.2835 128.608 77.4482 129.267C77.6201 129.918 77.7383 130.656 77.8027 131.479V132.93C77.7383 133.746 77.6201 134.48 77.4482 135.132C77.2835 135.784 77.0508 136.339 76.75 136.797C76.4564 137.255 76.0911 137.606 75.6543 137.85C75.2174 138.093 74.6982 138.215 74.0967 138.215C73.5094 138.215 72.9795 138.104 72.5068 137.882C72.0342 137.653 71.626 137.312 71.2822 136.861C70.9456 136.403 70.6842 135.834 70.498 135.153C70.319 134.466 70.2295 133.664 70.2295 132.747ZM72.1309 131.662V132.747C72.1309 133.392 72.1774 133.954 72.2705 134.434C72.3636 134.906 72.5068 135.3 72.7002 135.615C72.9007 135.923 73.1549 136.152 73.4629 136.303C73.778 136.453 74.154 136.528 74.5908 136.528C75.1208 136.528 75.554 136.399 75.8906 136.142C76.2272 135.884 76.4958 135.544 76.6963 135.121C76.904 134.691 77.0687 134.229 77.1904 133.735V130.685C77.1188 130.319 77.015 129.968 76.8789 129.632C76.75 129.288 76.5817 128.984 76.374 128.719C76.1663 128.447 75.9157 128.232 75.6221 128.074C75.3356 127.917 74.999 127.838 74.6123 127.838C74.1755 127.838 73.7995 127.917 73.4844 128.074C73.1693 128.232 72.9115 128.468 72.7109 128.783C72.5104 129.098 72.3636 129.496 72.2705 129.976C72.1774 130.455 72.1309 131.018 72.1309 131.662ZM83.5068 121.5V138H81.6162V121.5H83.5068ZM90.6719 138.215C89.9772 138.215 89.3506 138.111 88.792 137.903C88.2334 137.696 87.7572 137.381 87.3633 136.958C86.9694 136.528 86.6686 135.988 86.4609 135.336C86.2533 134.684 86.1494 133.914 86.1494 133.026V131.716C86.1494 130.692 86.2676 129.825 86.5039 129.116C86.7474 128.407 87.0732 127.838 87.4814 127.408C87.8896 126.971 88.3516 126.656 88.8672 126.463C89.3828 126.262 89.9128 126.162 90.457 126.162C91.1875 126.162 91.8105 126.28 92.3262 126.517C92.8418 126.753 93.2607 127.104 93.583 127.569C93.9053 128.035 94.1416 128.608 94.292 129.288C94.4495 129.968 94.5283 130.753 94.5283 131.641V132.747H87.2666V131.125H92.627V130.856C92.5983 130.255 92.516 129.725 92.3799 129.267C92.251 128.808 92.0361 128.45 91.7354 128.192C91.4346 127.927 91.0085 127.795 90.457 127.795C90.1061 127.795 89.7803 127.856 89.4795 127.978C89.1859 128.092 88.9316 128.296 88.7168 128.59C88.5091 128.876 88.3444 129.274 88.2227 129.782C88.1081 130.291 88.0508 130.935 88.0508 131.716V133.026C88.0508 133.649 88.1081 134.187 88.2227 134.638C88.3444 135.082 88.5199 135.451 88.749 135.744C88.9854 136.031 89.2718 136.245 89.6084 136.389C89.9521 136.525 90.3424 136.593 90.7793 136.593C91.4167 136.593 91.943 136.471 92.3584 136.228C92.7738 135.977 93.1354 135.658 93.4434 135.271L94.4424 136.464C94.2347 136.757 93.9626 137.04 93.626 137.312C93.2965 137.577 92.8883 137.796 92.4014 137.968C91.9215 138.132 91.3451 138.215 90.6719 138.215ZM103.917 121.5V138H102.026V121.5H103.917ZM106.527 132.747V131.641C106.527 130.738 106.642 129.947 106.871 129.267C107.1 128.579 107.419 128.006 107.827 127.548C108.235 127.09 108.712 126.746 109.256 126.517C109.8 126.28 110.384 126.162 111.007 126.162C111.644 126.162 112.235 126.28 112.779 126.517C113.324 126.746 113.8 127.09 114.208 127.548C114.623 128.006 114.946 128.579 115.175 129.267C115.404 129.947 115.519 130.738 115.519 131.641V132.747C115.519 133.649 115.404 134.444 115.175 135.132C114.946 135.812 114.627 136.382 114.219 136.84C113.811 137.298 113.334 137.642 112.79 137.871C112.246 138.1 111.659 138.215 111.028 138.215C110.398 138.215 109.811 138.1 109.267 137.871C108.722 137.642 108.243 137.298 107.827 136.84C107.419 136.382 107.1 135.812 106.871 135.132C106.642 134.444 106.527 133.649 106.527 132.747ZM108.429 131.641V132.747C108.429 133.384 108.493 133.943 108.622 134.423C108.751 134.903 108.934 135.304 109.17 135.626C109.406 135.948 109.682 136.192 109.997 136.356C110.312 136.514 110.656 136.593 111.028 136.593C111.458 136.593 111.834 136.514 112.156 136.356C112.486 136.192 112.758 135.948 112.973 135.626C113.188 135.304 113.349 134.903 113.456 134.423C113.563 133.943 113.617 133.384 113.617 132.747V131.641C113.617 131.003 113.553 130.448 113.424 129.976C113.295 129.496 113.112 129.095 112.876 128.772C112.64 128.443 112.36 128.2 112.038 128.042C111.723 127.877 111.379 127.795 111.007 127.795C110.642 127.795 110.301 127.877 109.986 128.042C109.671 128.2 109.396 128.443 109.159 128.772C108.93 129.095 108.751 129.496 108.622 129.976C108.493 130.448 108.429 131.003 108.429 131.641ZM121.996 136.593C122.376 136.593 122.719 136.518 123.027 136.367C123.342 136.21 123.6 135.966 123.801 135.637C124.001 135.3 124.116 134.863 124.145 134.326H125.928C125.899 135.1 125.702 135.78 125.337 136.367C124.979 136.947 124.506 137.402 123.919 137.731C123.339 138.054 122.698 138.215 121.996 138.215C121.244 138.215 120.589 138.093 120.03 137.85C119.479 137.606 119.021 137.255 118.655 136.797C118.297 136.331 118.029 135.769 117.85 135.11C117.671 134.444 117.581 133.689 117.581 132.844V131.533C117.581 130.688 117.671 129.936 117.85 129.277C118.029 128.611 118.297 128.049 118.655 127.591C119.021 127.125 119.479 126.771 120.03 126.527C120.589 126.284 121.244 126.162 121.996 126.162C122.784 126.162 123.464 126.33 124.037 126.667C124.617 126.996 125.068 127.476 125.391 128.106C125.72 128.729 125.899 129.485 125.928 130.373H124.145C124.116 129.8 124.012 129.324 123.833 128.944C123.654 128.558 123.41 128.271 123.103 128.085C122.795 127.892 122.426 127.795 121.996 127.795C121.495 127.795 121.079 127.884 120.75 128.063C120.428 128.235 120.174 128.486 119.987 128.815C119.801 129.145 119.669 129.539 119.59 129.997C119.518 130.455 119.482 130.967 119.482 131.533V132.844C119.482 133.41 119.518 133.925 119.59 134.391C119.669 134.849 119.798 135.243 119.977 135.572C120.163 135.902 120.421 136.156 120.75 136.335C121.079 136.507 121.495 136.593 121.996 136.593ZM130.042 121.5V138H128.141V121.5H130.042ZM135.939 126.377L131.804 131.802L129.247 134.745L129.118 132.629L130.88 130.201L133.651 126.377H135.939ZM134.199 138L130.934 132.457L131.911 130.685L136.412 138H134.199Z" fill="white"/>
<circle cx="12" cy="130" r="6" fill="black"/>
</g>
<defs>
<clipPath id="clip0_25_849">
<rect width="260" height="260" fill="white"/>
</clipPath>
</defs>
</svg>
