<svg width="260" height="260" viewBox="0 0 260 260" fill="none" xmlns="http://www.w3.org/2000/svg">
<g clip-path="url(#clip0_22_508)">
<rect width="260" height="260" fill="white"/>
<rect width="260" height="260" fill="black"/>
<circle cx="130" cy="130" r="130" fill="#FF9500"/>
<path d="M145.031 208.747V207.641C145.031 206.738 145.146 205.947 145.375 205.267C145.604 204.579 145.923 204.006 146.331 203.548C146.739 203.09 147.215 202.746 147.76 202.517C148.304 202.28 148.888 202.162 149.511 202.162C150.148 202.162 150.739 202.28 151.283 202.517C151.827 202.746 152.304 203.09 152.712 203.548C153.127 204.006 153.45 204.579 153.679 205.267C153.908 205.947 154.022 206.738 154.022 207.641V208.747C154.022 209.649 153.908 210.444 153.679 211.132C153.45 211.812 153.131 212.382 152.723 212.84C152.314 213.298 151.838 213.642 151.294 213.871C150.75 214.1 150.162 214.215 149.532 214.215C148.902 214.215 148.315 214.1 147.771 213.871C147.226 213.642 146.746 213.298 146.331 212.84C145.923 212.382 145.604 211.812 145.375 211.132C145.146 210.444 145.031 209.649 145.031 208.747ZM146.933 207.641V208.747C146.933 209.384 146.997 209.943 147.126 210.423C147.255 210.903 147.438 211.304 147.674 211.626C147.91 211.948 148.186 212.192 148.501 212.356C148.816 212.514 149.16 212.593 149.532 212.593C149.962 212.593 150.338 212.514 150.66 212.356C150.99 212.192 151.262 211.948 151.477 211.626C151.691 211.304 151.853 210.903 151.96 210.423C152.067 209.943 152.121 209.384 152.121 208.747V207.641C152.121 207.003 152.057 206.448 151.928 205.976C151.799 205.496 151.616 205.095 151.38 204.772C151.144 204.443 150.864 204.2 150.542 204.042C150.227 203.877 149.883 203.795 149.511 203.795C149.146 203.795 148.805 203.877 148.49 204.042C148.175 204.2 147.899 204.443 147.663 204.772C147.434 205.095 147.255 205.496 147.126 205.976C146.997 206.448 146.933 207.003 146.933 207.641ZM162.348 211.314V202.377H164.249V214H162.444L162.348 211.314ZM162.702 208.865L163.454 208.844C163.454 209.617 163.386 210.333 163.25 210.992C163.121 211.644 162.906 212.21 162.605 212.689C162.312 213.169 161.922 213.545 161.435 213.817C160.948 214.082 160.35 214.215 159.641 214.215C159.161 214.215 158.724 214.132 158.33 213.968C157.943 213.803 157.607 213.549 157.32 213.205C157.041 212.861 156.823 212.414 156.665 211.862C156.515 211.311 156.439 210.648 156.439 209.875V202.377H158.33V209.896C158.33 210.419 158.377 210.853 158.47 211.196C158.563 211.533 158.688 211.801 158.846 212.002C159.003 212.195 159.179 212.331 159.372 212.41C159.565 212.489 159.762 212.528 159.963 212.528C160.636 212.528 161.173 212.367 161.574 212.045C161.975 211.715 162.262 211.275 162.434 210.724C162.613 210.165 162.702 209.546 162.702 208.865ZM171.35 202.377V203.902H165.925V202.377H171.35ZM167.697 199.552H169.599V211.121C169.599 211.515 169.645 211.812 169.738 212.013C169.839 212.213 169.964 212.346 170.114 212.41C170.265 212.475 170.426 212.507 170.598 212.507C170.727 212.507 170.87 212.493 171.027 212.464C171.185 212.428 171.292 212.399 171.35 212.378L171.339 214C171.21 214.05 171.038 214.097 170.823 214.14C170.608 214.19 170.336 214.215 170.007 214.215C169.599 214.215 169.219 214.118 168.868 213.925C168.517 213.731 168.234 213.409 168.02 212.958C167.805 212.5 167.697 211.884 167.697 211.11V199.552ZM179.256 211.024C179.256 210.731 179.184 210.473 179.041 210.251C178.898 210.029 178.661 209.814 178.332 209.606C178.01 209.399 177.573 209.177 177.021 208.94C176.484 208.718 176.001 208.5 175.571 208.285C175.149 208.063 174.791 207.823 174.497 207.565C174.203 207.308 173.978 207.01 173.82 206.674C173.67 206.33 173.595 205.925 173.595 205.46C173.595 204.994 173.681 204.565 173.853 204.171C174.032 203.77 174.282 203.419 174.604 203.118C174.927 202.817 175.313 202.585 175.765 202.42C176.216 202.248 176.721 202.162 177.279 202.162C178.074 202.162 178.751 202.316 179.31 202.624C179.868 202.932 180.294 203.354 180.588 203.892C180.889 204.422 181.039 205.02 181.039 205.686H179.148C179.148 205.363 179.077 205.059 178.934 204.772C178.79 204.486 178.579 204.253 178.3 204.074C178.021 203.888 177.68 203.795 177.279 203.795C176.857 203.795 176.513 203.87 176.248 204.021C175.983 204.171 175.79 204.368 175.668 204.611C175.553 204.848 175.496 205.109 175.496 205.396C175.496 205.61 175.525 205.797 175.582 205.954C175.646 206.104 175.754 206.248 175.904 206.384C176.055 206.513 176.259 206.649 176.517 206.792C176.782 206.928 177.118 207.086 177.526 207.265C178.314 207.573 178.977 207.884 179.514 208.199C180.051 208.514 180.459 208.883 180.738 209.306C181.018 209.728 181.157 210.251 181.157 210.874C181.157 211.382 181.064 211.844 180.878 212.26C180.699 212.668 180.441 213.019 180.104 213.312C179.768 213.606 179.363 213.832 178.891 213.989C178.425 214.14 177.902 214.215 177.322 214.215C176.449 214.215 175.707 214.043 175.099 213.699C174.497 213.348 174.039 212.894 173.724 212.335C173.416 211.769 173.262 211.164 173.262 210.52H175.163C175.185 211.064 175.306 211.486 175.528 211.787C175.757 212.088 176.033 212.296 176.355 212.41C176.678 212.525 177 212.582 177.322 212.582C177.745 212.582 178.099 212.521 178.386 212.399C178.672 212.271 178.887 212.088 179.03 211.852C179.181 211.615 179.256 211.34 179.256 211.024ZM185.69 202.377V214H183.8V202.377H185.69ZM183.692 199.294C183.692 198.972 183.782 198.7 183.961 198.478C184.14 198.256 184.409 198.145 184.767 198.145C185.125 198.145 185.393 198.256 185.572 198.478C185.758 198.7 185.852 198.972 185.852 199.294C185.852 199.602 185.758 199.867 185.572 200.089C185.393 200.304 185.125 200.411 184.767 200.411C184.409 200.411 184.14 200.304 183.961 200.089C183.782 199.867 183.692 199.602 183.692 199.294ZM194.789 211.744V197.5H196.68V214H194.95L194.789 211.744ZM188.29 208.747V207.662C188.29 206.702 188.383 205.879 188.569 205.191C188.756 204.497 189.021 203.927 189.364 203.483C189.708 203.032 190.12 202.699 190.6 202.484C191.079 202.27 191.609 202.162 192.189 202.162C192.791 202.162 193.307 202.284 193.736 202.527C194.173 202.771 194.538 203.125 194.832 203.591C195.126 204.049 195.355 204.608 195.52 205.267C195.691 205.918 195.806 206.656 195.863 207.479V208.93C195.799 209.746 195.681 210.48 195.509 211.132C195.344 211.784 195.115 212.339 194.821 212.797C194.528 213.255 194.162 213.606 193.726 213.85C193.289 214.093 192.77 214.215 192.168 214.215C191.595 214.215 191.072 214.104 190.6 213.882C190.127 213.653 189.715 213.312 189.364 212.861C189.021 212.403 188.756 211.834 188.569 211.153C188.383 210.466 188.29 209.664 188.29 208.747ZM190.191 207.662V208.747C190.191 209.392 190.238 209.954 190.331 210.434C190.424 210.906 190.571 211.3 190.771 211.615C190.972 211.923 191.226 212.152 191.534 212.303C191.849 212.453 192.225 212.528 192.662 212.528C193.192 212.528 193.625 212.399 193.962 212.142C194.299 211.884 194.567 211.544 194.768 211.121C194.975 210.691 195.14 210.229 195.262 209.735V206.685C195.19 206.319 195.086 205.968 194.95 205.632C194.814 205.288 194.642 204.984 194.435 204.719C194.234 204.447 193.987 204.232 193.693 204.074C193.407 203.917 193.07 203.838 192.684 203.838C192.247 203.838 191.867 203.917 191.545 204.074C191.23 204.232 190.972 204.468 190.771 204.783C190.578 205.098 190.431 205.496 190.331 205.976C190.238 206.455 190.191 207.018 190.191 207.662ZM203.77 214.215C203.075 214.215 202.448 214.111 201.89 213.903C201.331 213.696 200.855 213.381 200.461 212.958C200.067 212.528 199.766 211.988 199.559 211.336C199.351 210.684 199.247 209.914 199.247 209.026V207.716C199.247 206.692 199.365 205.825 199.602 205.116C199.845 204.407 200.171 203.838 200.579 203.408C200.987 202.971 201.449 202.656 201.965 202.463C202.48 202.262 203.01 202.162 203.555 202.162C204.285 202.162 204.908 202.28 205.424 202.517C205.939 202.753 206.358 203.104 206.681 203.569C207.003 204.035 207.239 204.608 207.39 205.288C207.547 205.968 207.626 206.753 207.626 207.641V208.747H200.364V207.125H205.725V206.856C205.696 206.255 205.614 205.725 205.478 205.267C205.349 204.808 205.134 204.45 204.833 204.192C204.532 203.927 204.106 203.795 203.555 203.795C203.204 203.795 202.878 203.856 202.577 203.978C202.284 204.092 202.029 204.296 201.814 204.59C201.607 204.876 201.442 205.274 201.32 205.782C201.206 206.291 201.148 206.935 201.148 207.716V209.026C201.148 209.649 201.206 210.187 201.32 210.638C201.442 211.082 201.618 211.451 201.847 211.744C202.083 212.031 202.369 212.245 202.706 212.389C203.05 212.525 203.44 212.593 203.877 212.593C204.514 212.593 205.041 212.471 205.456 212.228C205.871 211.977 206.233 211.658 206.541 211.271L207.54 212.464C207.332 212.757 207.06 213.04 206.724 213.312C206.394 213.577 205.986 213.796 205.499 213.968C205.019 214.132 204.443 214.215 203.77 214.215Z" fill="white"/>
<path d="M108.505 29.9243L107.473 29.646L107.927 24.3359H112.57V25.5884H109.018L108.769 28.4888C108.935 28.3765 109.135 28.2715 109.37 28.1738C109.604 28.0762 109.877 28.0273 110.19 28.0273C110.61 28.0273 110.983 28.1128 111.311 28.2837C111.643 28.4497 111.923 28.689 112.153 29.0015C112.382 29.314 112.558 29.6899 112.68 30.1294C112.802 30.5688 112.863 31.0596 112.863 31.6016C112.863 32.1143 112.802 32.5854 112.68 33.0151C112.563 33.4448 112.382 33.8208 112.138 34.1431C111.899 34.4604 111.596 34.707 111.23 34.8828C110.869 35.0586 110.446 35.1465 109.963 35.1465C109.602 35.1465 109.26 35.0879 108.938 34.9707C108.615 34.8486 108.325 34.6655 108.066 34.4214C107.812 34.1724 107.604 33.8647 107.443 33.4985C107.282 33.1274 107.182 32.6929 107.143 32.1948H108.366C108.415 32.5952 108.508 32.9321 108.645 33.2056C108.786 33.479 108.967 33.6865 109.187 33.8281C109.411 33.9648 109.67 34.0332 109.963 34.0332C110.212 34.0332 110.437 33.9771 110.637 33.8647C110.837 33.7524 111.005 33.5913 111.142 33.3813C111.279 33.1714 111.384 32.9175 111.457 32.6196C111.53 32.3218 111.567 31.9873 111.567 31.6162C111.567 31.2793 111.53 30.9668 111.457 30.6787C111.384 30.3906 111.274 30.1392 111.127 29.9243C110.981 29.7095 110.803 29.5435 110.593 29.4263C110.388 29.3042 110.148 29.2432 109.875 29.2432C109.509 29.2432 109.238 29.3042 109.062 29.4263C108.891 29.5483 108.706 29.7144 108.505 29.9243ZM114.504 34.2822C114.504 34.0527 114.575 33.8599 114.716 33.7036C114.863 33.5425 115.073 33.4619 115.346 33.4619C115.62 33.4619 115.827 33.5425 115.969 33.7036C116.115 33.8599 116.188 34.0527 116.188 34.2822C116.188 34.5068 116.115 34.6973 115.969 34.8535C115.827 35.0098 115.62 35.0879 115.346 35.0879C115.073 35.0879 114.863 35.0098 114.716 34.8535C114.575 34.6973 114.504 34.5068 114.504 34.2822ZM114.497 27.8149C114.497 27.5854 114.567 27.3926 114.709 27.2363C114.855 27.0752 115.065 26.9946 115.339 26.9946C115.612 26.9946 115.82 27.0752 115.961 27.2363C116.108 27.3926 116.181 27.5854 116.181 27.8149C116.181 28.0396 116.108 28.23 115.961 28.3862C115.82 28.5425 115.612 28.6206 115.339 28.6206C115.065 28.6206 114.855 28.5425 114.709 28.3862C114.567 28.23 114.497 28.0396 114.497 27.8149ZM123.813 33.8867V35H117.851V34.0259L120.788 30.1367C121.149 29.6582 121.425 29.2529 121.616 28.9209C121.806 28.584 121.938 28.2837 122.011 28.02C122.084 27.7515 122.121 27.478 122.121 27.1997C122.121 26.8481 122.065 26.5308 121.953 26.2476C121.84 25.9595 121.677 25.73 121.462 25.5591C121.247 25.3882 120.988 25.3027 120.686 25.3027C120.29 25.3027 119.965 25.3955 119.711 25.5811C119.462 25.7617 119.279 26.0156 119.162 26.3428C119.045 26.6699 118.986 27.0459 118.986 27.4707H117.69C117.69 26.8701 117.8 26.3208 118.02 25.8228C118.244 25.3247 118.579 24.9292 119.023 24.6362C119.467 24.3384 120.021 24.1895 120.686 24.1895C121.257 24.1895 121.745 24.3091 122.15 24.5483C122.561 24.7827 122.873 25.1147 123.088 25.5444C123.308 25.9692 123.417 26.4673 123.417 27.0386C123.417 27.3511 123.374 27.6685 123.286 27.9907C123.203 28.3081 123.085 28.6255 122.934 28.9429C122.788 29.2603 122.614 29.5728 122.414 29.8804C122.214 30.188 121.999 30.4907 121.77 30.7886L119.404 33.8867H123.813ZM126.435 33.8647H126.538C127.197 33.8647 127.727 33.7549 128.127 33.5352C128.527 33.3154 128.828 33.02 129.028 32.6489C129.233 32.2778 129.37 31.8604 129.438 31.3965C129.511 30.9277 129.548 30.4468 129.548 29.9536V28.3203C129.548 27.8369 129.501 27.4072 129.409 27.0312C129.321 26.6553 129.201 26.3403 129.05 26.0864C128.903 25.8325 128.735 25.6396 128.544 25.5078C128.359 25.376 128.168 25.3101 127.973 25.3101C127.724 25.3101 127.504 25.3735 127.314 25.5005C127.124 25.6226 126.962 25.7959 126.831 26.0205C126.704 26.2451 126.606 26.5088 126.538 26.8115C126.469 27.1143 126.435 27.4438 126.435 27.8003C126.435 28.1177 126.464 28.4253 126.523 28.7231C126.582 29.021 126.672 29.2896 126.794 29.5288C126.921 29.7681 127.077 29.9585 127.263 30.1001C127.453 30.2368 127.678 30.3052 127.937 30.3052C128.151 30.3052 128.359 30.2466 128.559 30.1294C128.764 30.0073 128.95 29.8438 129.116 29.6387C129.282 29.4287 129.418 29.1919 129.526 28.9282C129.633 28.6646 129.697 28.3887 129.716 28.1006H130.324C130.324 28.5059 130.258 28.9062 130.126 29.3018C130 29.6924 129.816 30.0488 129.577 30.3711C129.343 30.6934 129.067 30.9521 128.75 31.1475C128.437 31.3379 128.093 31.4331 127.717 31.4331C127.263 31.4331 126.875 31.3306 126.552 31.1255C126.23 30.9204 125.966 30.647 125.761 30.3052C125.561 29.9634 125.412 29.5825 125.314 29.1626C125.217 28.7378 125.168 28.3081 125.168 27.8735C125.168 27.3657 125.227 26.8896 125.344 26.4453C125.461 26.001 125.634 25.6104 125.864 25.2734C126.098 24.9316 126.391 24.6655 126.743 24.4751C127.094 24.2847 127.504 24.1895 127.973 24.1895C128.496 24.1895 128.94 24.3115 129.306 24.5557C129.672 24.7998 129.968 25.127 130.192 25.5371C130.417 25.9473 130.581 26.4087 130.683 26.9214C130.786 27.4341 130.837 27.9614 130.837 28.5034V28.9941C130.837 29.5459 130.81 30.1074 130.756 30.6787C130.708 31.2451 130.603 31.7871 130.441 32.3047C130.285 32.8223 130.051 33.2861 129.738 33.6963C129.426 34.1016 129.008 34.4238 128.486 34.6631C127.968 34.8975 127.319 35.0146 126.538 35.0146H126.442L126.435 33.8647ZM139.809 30.8179H137.48V29.668H139.809C140.249 29.668 140.603 29.5801 140.871 29.4043C141.145 29.2285 141.342 28.9844 141.464 28.6719C141.591 28.3594 141.655 28.0029 141.655 27.6025C141.655 27.2363 141.591 26.8921 141.464 26.5698C141.342 26.2476 141.145 25.9888 140.871 25.7935C140.603 25.5933 140.249 25.4932 139.809 25.4932H137.758V35H136.411V24.3359H139.809C140.498 24.3359 141.079 24.4751 141.552 24.7534C142.026 25.0317 142.385 25.4175 142.629 25.9106C142.878 26.3989 143.002 26.958 143.002 27.5879C143.002 28.2715 142.878 28.855 142.629 29.3384C142.385 29.8218 142.026 30.1904 141.552 30.4443C141.079 30.6934 140.498 30.8179 139.809 30.8179ZM145.156 24.3359H146.459L149.25 33.0298L152.033 24.3359H153.337L149.755 35H148.73L145.156 24.3359ZM144.731 24.3359H145.874L146.071 30.8398V35H144.731V24.3359ZM152.612 24.3359H153.754V35H152.414V30.8398L152.612 24.3359Z" fill="white"/>
<path d="M52.66 214V187.4H71.28V192.72H57.98V198.04H71.28V214H52.66ZM57.98 203.36V208.68H65.96V203.36H57.98ZM76.5955 214V187.4H95.2155V214H76.5955ZM81.9155 192.72V208.68H89.8955V192.72H81.9155ZM100.531 199.37V187.4H112.501V199.37H100.531ZM104.521 191.39V195.38H108.511V191.39H104.521ZM117.824 214V187.4H136.444V192.72H123.144V198.04H133.784V203.36H123.144V214H117.824Z" fill="white"/>
<line x1="52" y1="176" x2="208" y2="176" stroke="white" stroke-width="2"/>
<path d="M48.48 97V52.2H79.84V97H48.48ZM57.44 61.16V88.04H70.88V61.16H57.44ZM98.2005 52.2L114.073 82.024V52.2H122.393V97H112.793L97.1125 67.752V97H88.7925V52.2H98.2005Z" fill="white"/>
<path d="M52.457 119.593C52.8366 119.593 53.1803 119.518 53.4883 119.367C53.8034 119.21 54.0612 118.966 54.2617 118.637C54.4622 118.3 54.5768 117.863 54.6055 117.326H56.3887C56.36 118.1 56.1631 118.78 55.7979 119.367C55.4398 119.947 54.9671 120.402 54.3799 120.731C53.7998 121.054 53.1589 121.215 52.457 121.215C51.7051 121.215 51.0498 121.093 50.4912 120.85C49.9398 120.606 49.4814 120.255 49.1162 119.797C48.7581 119.331 48.4896 118.769 48.3105 118.11C48.1315 117.444 48.042 116.689 48.042 115.844V114.533C48.042 113.688 48.1315 112.936 48.3105 112.277C48.4896 111.611 48.7581 111.049 49.1162 110.591C49.4814 110.125 49.9398 109.771 50.4912 109.527C51.0498 109.284 51.7051 109.162 52.457 109.162C53.2448 109.162 53.9251 109.33 54.498 109.667C55.0781 109.996 55.5293 110.476 55.8516 111.106C56.181 111.729 56.36 112.485 56.3887 113.373H54.6055C54.5768 112.8 54.473 112.324 54.2939 111.944C54.1149 111.558 53.8714 111.271 53.5635 111.085C53.2555 110.892 52.8867 110.795 52.457 110.795C51.9557 110.795 51.5404 110.884 51.2109 111.063C50.8887 111.235 50.6344 111.486 50.4482 111.815C50.262 112.145 50.1296 112.539 50.0508 112.997C49.9792 113.455 49.9434 113.967 49.9434 114.533V115.844C49.9434 116.41 49.9792 116.925 50.0508 117.391C50.1296 117.849 50.2585 118.243 50.4375 118.572C50.6237 118.902 50.8815 119.156 51.2109 119.335C51.5404 119.507 51.9557 119.593 52.457 119.593ZM60.6318 104.5V121H58.7412V104.5H60.6318ZM65.6807 109.377V121H63.79V109.377H65.6807ZM63.6826 106.294C63.6826 105.972 63.7721 105.7 63.9512 105.478C64.1302 105.256 64.3988 105.145 64.7568 105.145C65.1149 105.145 65.3835 105.256 65.5625 105.478C65.7487 105.7 65.8418 105.972 65.8418 106.294C65.8418 106.602 65.7487 106.867 65.5625 107.089C65.3835 107.304 65.1149 107.411 64.7568 107.411C64.3988 107.411 64.1302 107.304 63.9512 107.089C63.7721 106.867 63.6826 106.602 63.6826 106.294ZM70.5898 111.687V121H68.6992V109.377H70.4824L70.5898 111.687ZM70.2031 114.748L69.3223 114.716C69.3151 113.921 69.3939 113.187 69.5586 112.514C69.7233 111.833 69.9704 111.243 70.2998 110.741C70.6364 110.24 71.0553 109.853 71.5566 109.581C72.0651 109.302 72.6559 109.162 73.3291 109.162C73.7731 109.162 74.1849 109.241 74.5645 109.398C74.9512 109.549 75.2878 109.789 75.5742 110.118C75.8607 110.448 76.0827 110.87 76.2402 111.386C76.4049 111.901 76.4873 112.524 76.4873 113.255V121H74.5859V113.352C74.5859 112.743 74.5036 112.256 74.3389 111.891C74.1813 111.525 73.9557 111.26 73.6621 111.096C73.3685 110.924 73.0176 110.838 72.6094 110.838C72.1439 110.838 71.7536 110.942 71.4385 111.149C71.1305 111.357 70.8835 111.644 70.6973 112.009C70.5182 112.374 70.3893 112.793 70.3105 113.266C70.2389 113.731 70.2031 114.225 70.2031 114.748ZM76.4658 113.652L75.1982 114.061C75.1911 113.423 75.2699 112.811 75.4346 112.224C75.5993 111.636 75.8428 111.114 76.165 110.655C76.4945 110.197 76.9027 109.835 77.3896 109.57C77.8766 109.298 78.4424 109.162 79.0869 109.162C79.6169 109.162 80.0859 109.244 80.4941 109.409C80.9023 109.574 81.2461 109.828 81.5254 110.172C81.8118 110.508 82.0267 110.942 82.1699 111.472C82.3132 112.002 82.3848 112.632 82.3848 113.362V121H80.4834V113.341C80.4834 112.689 80.401 112.184 80.2363 111.826C80.0788 111.461 79.8532 111.207 79.5596 111.063C79.266 110.913 78.915 110.838 78.5068 110.838C78.1774 110.838 77.8838 110.913 77.626 111.063C77.3753 111.214 77.1641 111.422 76.9922 111.687C76.8203 111.944 76.6878 112.242 76.5947 112.578C76.5088 112.915 76.4658 113.273 76.4658 113.652ZM90.9463 119.013V112.707C90.9463 112.249 90.8747 111.88 90.7314 111.601C90.5954 111.321 90.3877 111.117 90.1084 110.988C89.8363 110.859 89.4925 110.795 89.0771 110.795C88.6761 110.795 88.3288 110.877 88.0352 111.042C87.7487 111.207 87.5267 111.425 87.3691 111.697C87.2188 111.969 87.1436 112.27 87.1436 112.6H85.2422C85.2422 112.184 85.3317 111.772 85.5107 111.364C85.6969 110.956 85.9619 110.587 86.3057 110.258C86.6494 109.921 87.0612 109.656 87.541 109.463C88.028 109.262 88.5723 109.162 89.1738 109.162C89.89 109.162 90.5238 109.28 91.0752 109.517C91.6266 109.746 92.0599 110.122 92.375 110.645C92.6901 111.167 92.8477 111.862 92.8477 112.729V118.465C92.8477 118.852 92.8763 119.263 92.9336 119.7C92.998 120.137 93.0876 120.513 93.2021 120.828V121H91.2363C91.1432 120.771 91.0716 120.466 91.0215 120.087C90.9714 119.7 90.9463 119.342 90.9463 119.013ZM91.2471 113.953L91.2686 115.35H89.9473C89.4961 115.35 89.0843 115.4 88.7119 115.5C88.3467 115.6 88.0316 115.747 87.7666 115.94C87.5016 116.127 87.2975 116.359 87.1543 116.639C87.0182 116.918 86.9502 117.237 86.9502 117.595C86.9502 118.06 87.0146 118.433 87.1436 118.712C87.2725 118.984 87.4658 119.181 87.7236 119.303C87.9814 119.424 88.3073 119.485 88.7012 119.485C89.181 119.485 89.6035 119.374 89.9688 119.152C90.334 118.93 90.6169 118.662 90.8174 118.347C91.0251 118.032 91.1217 117.738 91.1074 117.466L91.5264 118.357C91.4977 118.637 91.4046 118.941 91.2471 119.271C91.0967 119.593 90.8854 119.904 90.6133 120.205C90.3411 120.499 90.0189 120.742 89.6465 120.936C89.2812 121.122 88.8695 121.215 88.4111 121.215C87.738 121.215 87.1471 121.086 86.6387 120.828C86.1374 120.57 85.7471 120.191 85.4678 119.689C85.1885 119.188 85.0488 118.569 85.0488 117.831C85.0488 117.272 85.1455 116.757 85.3389 116.284C85.5322 115.812 85.8187 115.403 86.1982 115.06C86.5778 114.709 87.054 114.437 87.627 114.243C88.207 114.05 88.8766 113.953 89.6357 113.953H91.2471ZM100.045 109.377V110.902H94.6201V109.377H100.045ZM96.3926 106.552H98.2939V118.121C98.2939 118.515 98.3405 118.812 98.4336 119.013C98.5339 119.213 98.6592 119.346 98.8096 119.41C98.96 119.475 99.1211 119.507 99.293 119.507C99.4219 119.507 99.5651 119.493 99.7227 119.464C99.8802 119.428 99.9876 119.399 100.045 119.378L100.034 121C99.9053 121.05 99.7334 121.097 99.5186 121.14C99.3037 121.19 99.0316 121.215 98.7021 121.215C98.2939 121.215 97.9144 121.118 97.5635 120.925C97.2126 120.731 96.9297 120.409 96.7148 119.958C96.5 119.5 96.3926 118.884 96.3926 118.11V106.552ZM106.469 121.215C105.774 121.215 105.147 121.111 104.589 120.903C104.03 120.696 103.554 120.381 103.16 119.958C102.766 119.528 102.465 118.988 102.258 118.336C102.05 117.684 101.946 116.914 101.946 116.026V114.716C101.946 113.692 102.064 112.825 102.301 112.116C102.544 111.407 102.87 110.838 103.278 110.408C103.687 109.971 104.148 109.656 104.664 109.463C105.18 109.262 105.71 109.162 106.254 109.162C106.984 109.162 107.607 109.28 108.123 109.517C108.639 109.753 109.058 110.104 109.38 110.569C109.702 111.035 109.938 111.608 110.089 112.288C110.246 112.968 110.325 113.753 110.325 114.641V115.747H103.063V114.125H108.424V113.856C108.395 113.255 108.313 112.725 108.177 112.267C108.048 111.808 107.833 111.45 107.532 111.192C107.231 110.927 106.805 110.795 106.254 110.795C105.903 110.795 105.577 110.856 105.276 110.978C104.983 111.092 104.729 111.296 104.514 111.59C104.306 111.876 104.141 112.274 104.02 112.782C103.905 113.291 103.848 113.935 103.848 114.716V116.026C103.848 116.649 103.905 117.187 104.02 117.638C104.141 118.082 104.317 118.451 104.546 118.744C104.782 119.031 105.069 119.245 105.405 119.389C105.749 119.525 106.139 119.593 106.576 119.593C107.214 119.593 107.74 119.471 108.155 119.228C108.571 118.977 108.932 118.658 109.24 118.271L110.239 119.464C110.032 119.757 109.759 120.04 109.423 120.312C109.093 120.577 108.685 120.796 108.198 120.968C107.718 121.132 107.142 121.215 106.469 121.215Z" fill="white"/>
<path d="M260 260H130C201.797 260 260 201.797 260 130C260 58.203 201.797 0 130 0C58.203 0 0 58.203 0 130C0 201.797 58.203 260 130 260H0V0H260V260Z" fill="black"/>
<circle cx="267.5" cy="129.5" r="22.5" fill="black"/>
</g>
<defs>
<clipPath id="clip0_22_508">
<rect width="260" height="260" fill="white"/>
</clipPath>
</defs>
</svg>
