<svg width="260" height="260" viewBox="0 0 260 260" fill="none" xmlns="http://www.w3.org/2000/svg">
<g clip-path="url(#clip0_5_67)">
<rect width="260" height="260" fill="white"/>
<rect width="260" height="260" fill="black"/>
<circle cx="130" cy="130" r="130" fill="#FF9500"/>
<path d="M48.48 97V52.2H79.84V97H48.48ZM70.88 79.08H57.44V88.04H70.88V79.08ZM57.44 70.12H70.88V61.16H57.44V70.12ZM88.7925 97V52.2H120.153V97H88.7925ZM97.7525 61.16V88.04H111.193V61.16H97.7525ZM143.525 97V84.436L134.741 97H129.701L136.721 86.92H127.145V71.8H138.485V84.436L147.305 71.8H152.345L145.289 81.88H154.865V97H143.525ZM147.305 85.66V93.22H151.085V85.66H147.305ZM130.925 75.58V83.14H134.705V75.58H130.925Z" fill="white"/>
<path d="M52.457 119.593C52.8366 119.593 53.1803 119.518 53.4883 119.367C53.8034 119.21 54.0612 118.966 54.2617 118.637C54.4622 118.3 54.5768 117.863 54.6055 117.326H56.3887C56.36 118.1 56.1631 118.78 55.7979 119.367C55.4398 119.947 54.9671 120.402 54.3799 120.731C53.7998 121.054 53.1589 121.215 52.457 121.215C51.7051 121.215 51.0498 121.093 50.4912 120.85C49.9398 120.606 49.4814 120.255 49.1162 119.797C48.7581 119.331 48.4896 118.769 48.3105 118.11C48.1315 117.444 48.042 116.689 48.042 115.844V114.533C48.042 113.688 48.1315 112.936 48.3105 112.277C48.4896 111.611 48.7581 111.049 49.1162 110.591C49.4814 110.125 49.9398 109.771 50.4912 109.527C51.0498 109.284 51.7051 109.162 52.457 109.162C53.2448 109.162 53.9251 109.33 54.498 109.667C55.0781 109.996 55.5293 110.476 55.8516 111.106C56.181 111.729 56.36 112.485 56.3887 113.373H54.6055C54.5768 112.8 54.473 112.324 54.2939 111.944C54.1149 111.558 53.8714 111.271 53.5635 111.085C53.2555 110.892 52.8867 110.795 52.457 110.795C51.9557 110.795 51.5404 110.884 51.2109 111.063C50.8887 111.235 50.6344 111.486 50.4482 111.815C50.262 112.145 50.1296 112.539 50.0508 112.997C49.9792 113.455 49.9434 113.967 49.9434 114.533V115.844C49.9434 116.41 49.9792 116.925 50.0508 117.391C50.1296 117.849 50.2585 118.243 50.4375 118.572C50.6237 118.902 50.8815 119.156 51.2109 119.335C51.5404 119.507 51.9557 119.593 52.457 119.593ZM60.4922 104.5V121H58.5908V104.5H60.4922ZM60.0303 114.748L59.2568 114.716C59.2497 113.921 59.3392 113.187 59.5254 112.514C59.7188 111.833 59.9909 111.243 60.3418 110.741C60.6999 110.24 61.126 109.853 61.6201 109.581C62.1143 109.302 62.6621 109.162 63.2637 109.162C63.7363 109.162 64.166 109.241 64.5527 109.398C64.9395 109.549 65.2689 109.792 65.541 110.129C65.8132 110.465 66.0208 110.902 66.1641 111.439C66.3145 111.969 66.3896 112.618 66.3896 113.384V121H64.4883V113.362C64.4883 112.754 64.4202 112.267 64.2842 111.901C64.1553 111.529 63.9548 111.26 63.6826 111.096C63.4176 110.924 63.0811 110.838 62.6729 110.838C62.3005 110.838 61.9531 110.942 61.6309 111.149C61.3086 111.357 61.0257 111.644 60.7822 112.009C60.5459 112.374 60.3597 112.793 60.2236 113.266C60.0947 113.731 60.0303 114.225 60.0303 114.748ZM74.9189 119.013V112.707C74.9189 112.249 74.8473 111.88 74.7041 111.601C74.568 111.321 74.3604 111.117 74.0811 110.988C73.8089 110.859 73.4652 110.795 73.0498 110.795C72.6488 110.795 72.3014 110.877 72.0078 111.042C71.7214 111.207 71.4993 111.425 71.3418 111.697C71.1914 111.969 71.1162 112.27 71.1162 112.6H69.2148C69.2148 112.184 69.3044 111.772 69.4834 111.364C69.6696 110.956 69.9346 110.587 70.2783 110.258C70.6221 109.921 71.0339 109.656 71.5137 109.463C72.0007 109.262 72.5449 109.162 73.1465 109.162C73.8626 109.162 74.4964 109.28 75.0479 109.517C75.5993 109.746 76.0326 110.122 76.3477 110.645C76.6628 111.167 76.8203 111.862 76.8203 112.729V118.465C76.8203 118.852 76.849 119.263 76.9062 119.7C76.9707 120.137 77.0602 120.513 77.1748 120.828V121H75.209C75.1159 120.771 75.0443 120.466 74.9941 120.087C74.944 119.7 74.9189 119.342 74.9189 119.013ZM75.2197 113.953L75.2412 115.35H73.9199C73.4688 115.35 73.057 115.4 72.6846 115.5C72.3193 115.6 72.0042 115.747 71.7393 115.94C71.4743 116.127 71.2702 116.359 71.127 116.639C70.9909 116.918 70.9229 117.237 70.9229 117.595C70.9229 118.06 70.9873 118.433 71.1162 118.712C71.2451 118.984 71.4385 119.181 71.6963 119.303C71.9541 119.424 72.2799 119.485 72.6738 119.485C73.1536 119.485 73.5762 119.374 73.9414 119.152C74.3066 118.93 74.5895 118.662 74.79 118.347C74.9977 118.032 75.0944 117.738 75.0801 117.466L75.499 118.357C75.4704 118.637 75.3773 118.941 75.2197 119.271C75.0693 119.593 74.8581 119.904 74.5859 120.205C74.3138 120.499 73.9915 120.742 73.6191 120.936C73.2539 121.122 72.8421 121.215 72.3838 121.215C71.7106 121.215 71.1198 121.086 70.6113 120.828C70.11 120.57 69.7197 120.191 69.4404 119.689C69.1611 119.188 69.0215 118.569 69.0215 117.831C69.0215 117.272 69.1182 116.757 69.3115 116.284C69.5049 115.812 69.7913 115.403 70.1709 115.06C70.5505 114.709 71.0267 114.437 71.5996 114.243C72.1797 114.05 72.8493 113.953 73.6084 113.953H75.2197ZM81.6758 111.203V121H79.7744V109.377H81.6113L81.6758 111.203ZM84.5654 109.312L84.5762 111.16C84.4186 111.124 84.2754 111.103 84.1465 111.096C84.0247 111.081 83.8815 111.074 83.7168 111.074C83.3587 111.074 83.0436 111.146 82.7715 111.289C82.5065 111.432 82.2773 111.633 82.084 111.891C81.8906 112.148 81.7367 112.456 81.6221 112.814C81.5075 113.165 81.4287 113.552 81.3857 113.975L80.8916 114.297C80.8916 113.595 80.9453 112.936 81.0527 112.32C81.1673 111.704 81.3428 111.16 81.5791 110.688C81.8154 110.208 82.1162 109.835 82.4814 109.57C82.8538 109.298 83.2979 109.162 83.8135 109.162C83.9281 109.162 84.0677 109.18 84.2324 109.216C84.4043 109.244 84.5153 109.277 84.5654 109.312ZM92.5791 109.377H94.2871V121.097C94.2871 122.121 94.1081 122.966 93.75 123.632C93.3991 124.298 92.9085 124.788 92.2783 125.104C91.6481 125.426 90.9212 125.587 90.0977 125.587C89.804 125.587 89.4352 125.533 88.9912 125.426C88.5472 125.318 88.1032 125.154 87.6592 124.932C87.2152 124.717 86.8499 124.445 86.5635 124.115L87.3477 122.794C87.7559 123.209 88.1891 123.507 88.6475 123.686C89.1058 123.865 89.5426 123.954 89.958 123.954C90.4521 123.954 90.8818 123.865 91.2471 123.686C91.6123 123.507 91.8952 123.213 92.0957 122.805C92.2962 122.404 92.3965 121.867 92.3965 121.193V111.934L92.5791 109.377ZM85.8975 115.747V114.662C85.8975 113.702 85.987 112.879 86.166 112.191C86.3451 111.497 86.6029 110.927 86.9395 110.483C87.2832 110.032 87.695 109.699 88.1748 109.484C88.6546 109.27 89.1917 109.162 89.7861 109.162C90.3877 109.162 90.9069 109.284 91.3438 109.527C91.7806 109.771 92.1423 110.125 92.4287 110.591C92.7223 111.049 92.9515 111.608 93.1162 112.267C93.2881 112.918 93.4062 113.656 93.4707 114.479V115.93C93.4062 116.746 93.2881 117.48 93.1162 118.132C92.9515 118.784 92.7188 119.339 92.418 119.797C92.1243 120.255 91.7591 120.606 91.3223 120.85C90.8854 121.093 90.3662 121.215 89.7646 121.215C89.1774 121.215 88.6475 121.104 88.1748 120.882C87.7021 120.653 87.2939 120.312 86.9502 119.861C86.6136 119.403 86.3522 118.834 86.166 118.153C85.987 117.466 85.8975 116.664 85.8975 115.747ZM87.7988 114.662V115.747C87.7988 116.392 87.8454 116.954 87.9385 117.434C88.0316 117.906 88.1748 118.3 88.3682 118.615C88.5687 118.923 88.8229 119.152 89.1309 119.303C89.446 119.453 89.8219 119.528 90.2588 119.528C90.7887 119.528 91.222 119.399 91.5586 119.142C91.8952 118.884 92.1637 118.544 92.3643 118.121C92.5719 117.691 92.7367 117.229 92.8584 116.735V113.685C92.7868 113.319 92.6829 112.968 92.5469 112.632C92.418 112.288 92.2497 111.984 92.042 111.719C91.8343 111.447 91.5837 111.232 91.29 111.074C91.0036 110.917 90.667 110.838 90.2803 110.838C89.8434 110.838 89.4674 110.917 89.1523 111.074C88.8372 111.232 88.5794 111.468 88.3789 111.783C88.1784 112.098 88.0316 112.496 87.9385 112.976C87.8454 113.455 87.7988 114.018 87.7988 114.662ZM101.291 121.215C100.596 121.215 99.9697 121.111 99.4111 120.903C98.8525 120.696 98.3763 120.381 97.9824 119.958C97.5885 119.528 97.2878 118.988 97.0801 118.336C96.8724 117.684 96.7686 116.914 96.7686 116.026V114.716C96.7686 113.692 96.8867 112.825 97.123 112.116C97.3665 111.407 97.6924 110.838 98.1006 110.408C98.5088 109.971 98.9707 109.656 99.4863 109.463C100.002 109.262 100.532 109.162 101.076 109.162C101.807 109.162 102.43 109.28 102.945 109.517C103.461 109.753 103.88 110.104 104.202 110.569C104.524 111.035 104.761 111.608 104.911 112.288C105.069 112.968 105.147 113.753 105.147 114.641V115.747H97.8857V114.125H103.246V113.856C103.217 113.255 103.135 112.725 102.999 112.267C102.87 111.808 102.655 111.45 102.354 111.192C102.054 110.927 101.628 110.795 101.076 110.795C100.725 110.795 100.399 110.856 100.099 110.978C99.805 111.092 99.5508 111.296 99.3359 111.59C99.1283 111.876 98.9635 112.274 98.8418 112.782C98.7272 113.291 98.6699 113.935 98.6699 114.716V116.026C98.6699 116.649 98.7272 117.187 98.8418 117.638C98.9635 118.082 99.139 118.451 99.3682 118.744C99.6045 119.031 99.891 119.245 100.228 119.389C100.571 119.525 100.962 119.593 101.398 119.593C102.036 119.593 102.562 119.471 102.978 119.228C103.393 118.977 103.755 118.658 104.062 118.271L105.062 119.464C104.854 119.757 104.582 120.04 104.245 120.312C103.916 120.577 103.507 120.796 103.021 120.968C102.541 121.132 101.964 121.215 101.291 121.215ZM113.537 118.744V104.5H115.428V121H113.698L113.537 118.744ZM107.038 115.747V114.662C107.038 113.702 107.131 112.879 107.317 112.191C107.504 111.497 107.769 110.927 108.112 110.483C108.456 110.032 108.868 109.699 109.348 109.484C109.827 109.27 110.357 109.162 110.938 109.162C111.539 109.162 112.055 109.284 112.484 109.527C112.921 109.771 113.286 110.125 113.58 110.591C113.874 111.049 114.103 111.608 114.268 112.267C114.439 112.918 114.554 113.656 114.611 114.479V115.93C114.547 116.746 114.429 117.48 114.257 118.132C114.092 118.784 113.863 119.339 113.569 119.797C113.276 120.255 112.91 120.606 112.474 120.85C112.037 121.093 111.518 121.215 110.916 121.215C110.343 121.215 109.82 121.104 109.348 120.882C108.875 120.653 108.463 120.312 108.112 119.861C107.769 119.403 107.504 118.834 107.317 118.153C107.131 117.466 107.038 116.664 107.038 115.747ZM108.939 114.662V115.747C108.939 116.392 108.986 116.954 109.079 117.434C109.172 117.906 109.319 118.3 109.52 118.615C109.72 118.923 109.974 119.152 110.282 119.303C110.597 119.453 110.973 119.528 111.41 119.528C111.94 119.528 112.373 119.399 112.71 119.142C113.047 118.884 113.315 118.544 113.516 118.121C113.723 117.691 113.888 117.229 114.01 116.735V113.685C113.938 113.319 113.834 112.968 113.698 112.632C113.562 112.288 113.39 111.984 113.183 111.719C112.982 111.447 112.735 111.232 112.441 111.074C112.155 110.917 111.818 110.838 111.432 110.838C110.995 110.838 110.615 110.917 110.293 111.074C109.978 111.232 109.72 111.468 109.52 111.783C109.326 112.098 109.179 112.496 109.079 112.976C108.986 113.455 108.939 114.018 108.939 114.662Z" fill="white"/>
<path d="M108.005 29.9243L106.973 29.646L107.427 24.3359H112.07V25.5884H108.518L108.269 28.4888C108.435 28.3765 108.635 28.2715 108.87 28.1738C109.104 28.0762 109.377 28.0273 109.69 28.0273C110.11 28.0273 110.483 28.1128 110.811 28.2837C111.143 28.4497 111.423 28.689 111.653 29.0015C111.882 29.314 112.058 29.6899 112.18 30.1294C112.302 30.5688 112.363 31.0596 112.363 31.6016C112.363 32.1143 112.302 32.5854 112.18 33.0151C112.063 33.4448 111.882 33.8208 111.638 34.1431C111.399 34.4604 111.096 34.707 110.73 34.8828C110.369 35.0586 109.946 35.1465 109.463 35.1465C109.102 35.1465 108.76 35.0879 108.438 34.9707C108.115 34.8486 107.825 34.6655 107.566 34.4214C107.312 34.1724 107.104 33.8647 106.943 33.4985C106.782 33.1274 106.682 32.6929 106.643 32.1948H107.866C107.915 32.5952 108.008 32.9321 108.145 33.2056C108.286 33.479 108.467 33.6865 108.687 33.8281C108.911 33.9648 109.17 34.0332 109.463 34.0332C109.712 34.0332 109.937 33.9771 110.137 33.8647C110.337 33.7524 110.505 33.5913 110.642 33.3813C110.779 33.1714 110.884 32.9175 110.957 32.6196C111.03 32.3218 111.067 31.9873 111.067 31.6162C111.067 31.2793 111.03 30.9668 110.957 30.6787C110.884 30.3906 110.774 30.1392 110.627 29.9243C110.481 29.7095 110.303 29.5435 110.093 29.4263C109.888 29.3042 109.648 29.2432 109.375 29.2432C109.009 29.2432 108.738 29.3042 108.562 29.4263C108.391 29.5483 108.206 29.7144 108.005 29.9243ZM114.004 34.2822C114.004 34.0527 114.075 33.8599 114.216 33.7036C114.363 33.5425 114.573 33.4619 114.846 33.4619C115.12 33.4619 115.327 33.5425 115.469 33.7036C115.615 33.8599 115.688 34.0527 115.688 34.2822C115.688 34.5068 115.615 34.6973 115.469 34.8535C115.327 35.0098 115.12 35.0879 114.846 35.0879C114.573 35.0879 114.363 35.0098 114.216 34.8535C114.075 34.6973 114.004 34.5068 114.004 34.2822ZM113.997 27.8149C113.997 27.5854 114.067 27.3926 114.209 27.2363C114.355 27.0752 114.565 26.9946 114.839 26.9946C115.112 26.9946 115.32 27.0752 115.461 27.2363C115.608 27.3926 115.681 27.5854 115.681 27.8149C115.681 28.0396 115.608 28.23 115.461 28.3862C115.32 28.5425 115.112 28.6206 114.839 28.6206C114.565 28.6206 114.355 28.5425 114.209 28.3862C114.067 28.23 113.997 28.0396 113.997 27.8149ZM123.313 33.8867V35H117.351V34.0259L120.288 30.1367C120.649 29.6582 120.925 29.2529 121.116 28.9209C121.306 28.584 121.438 28.2837 121.511 28.02C121.584 27.7515 121.621 27.478 121.621 27.1997C121.621 26.8481 121.565 26.5308 121.453 26.2476C121.34 25.9595 121.177 25.73 120.962 25.5591C120.747 25.3882 120.488 25.3027 120.186 25.3027C119.79 25.3027 119.465 25.3955 119.211 25.5811C118.962 25.7617 118.779 26.0156 118.662 26.3428C118.545 26.6699 118.486 27.0459 118.486 27.4707H117.19C117.19 26.8701 117.3 26.3208 117.52 25.8228C117.744 25.3247 118.079 24.9292 118.523 24.6362C118.967 24.3384 119.521 24.1895 120.186 24.1895C120.757 24.1895 121.245 24.3091 121.65 24.5483C122.061 24.7827 122.373 25.1147 122.588 25.5444C122.808 25.9692 122.917 26.4673 122.917 27.0386C122.917 27.3511 122.874 27.6685 122.786 27.9907C122.703 28.3081 122.585 28.6255 122.434 28.9429C122.288 29.2603 122.114 29.5728 121.914 29.8804C121.714 30.188 121.499 30.4907 121.27 30.7886L118.904 33.8867H123.313ZM125.935 33.8647H126.038C126.697 33.8647 127.227 33.7549 127.627 33.5352C128.027 33.3154 128.328 33.02 128.528 32.6489C128.733 32.2778 128.87 31.8604 128.938 31.3965C129.011 30.9277 129.048 30.4468 129.048 29.9536V28.3203C129.048 27.8369 129.001 27.4072 128.909 27.0312C128.821 26.6553 128.701 26.3403 128.55 26.0864C128.403 25.8325 128.235 25.6396 128.044 25.5078C127.859 25.376 127.668 25.3101 127.473 25.3101C127.224 25.3101 127.004 25.3735 126.814 25.5005C126.624 25.6226 126.462 25.7959 126.331 26.0205C126.204 26.2451 126.106 26.5088 126.038 26.8115C125.969 27.1143 125.935 27.4438 125.935 27.8003C125.935 28.1177 125.964 28.4253 126.023 28.7231C126.082 29.021 126.172 29.2896 126.294 29.5288C126.421 29.7681 126.577 29.9585 126.763 30.1001C126.953 30.2368 127.178 30.3052 127.437 30.3052C127.651 30.3052 127.859 30.2466 128.059 30.1294C128.264 30.0073 128.45 29.8438 128.616 29.6387C128.782 29.4287 128.918 29.1919 129.026 28.9282C129.133 28.6646 129.197 28.3887 129.216 28.1006H129.824C129.824 28.5059 129.758 28.9062 129.626 29.3018C129.5 29.6924 129.316 30.0488 129.077 30.3711C128.843 30.6934 128.567 30.9521 128.25 31.1475C127.937 31.3379 127.593 31.4331 127.217 31.4331C126.763 31.4331 126.375 31.3306 126.052 31.1255C125.73 30.9204 125.466 30.647 125.261 30.3052C125.061 29.9634 124.912 29.5825 124.814 29.1626C124.717 28.7378 124.668 28.3081 124.668 27.8735C124.668 27.3657 124.727 26.8896 124.844 26.4453C124.961 26.001 125.134 25.6104 125.364 25.2734C125.598 24.9316 125.891 24.6655 126.243 24.4751C126.594 24.2847 127.004 24.1895 127.473 24.1895C127.996 24.1895 128.44 24.3115 128.806 24.5557C129.172 24.7998 129.468 25.127 129.692 25.5371C129.917 25.9473 130.081 26.4087 130.183 26.9214C130.286 27.4341 130.337 27.9614 130.337 28.5034V28.9941C130.337 29.5459 130.31 30.1074 130.256 30.6787C130.208 31.2451 130.103 31.7871 129.941 32.3047C129.785 32.8223 129.551 33.2861 129.238 33.6963C128.926 34.1016 128.508 34.4238 127.986 34.6631C127.468 34.8975 126.819 35.0146 126.038 35.0146H125.942L125.935 33.8647ZM139.309 30.8179H136.98V29.668H139.309C139.749 29.668 140.103 29.5801 140.371 29.4043C140.645 29.2285 140.842 28.9844 140.964 28.6719C141.091 28.3594 141.155 28.0029 141.155 27.6025C141.155 27.2363 141.091 26.8921 140.964 26.5698C140.842 26.2476 140.645 25.9888 140.371 25.7935C140.103 25.5933 139.749 25.4932 139.309 25.4932H137.258V35H135.911V24.3359H139.309C139.998 24.3359 140.579 24.4751 141.052 24.7534C141.526 25.0317 141.885 25.4175 142.129 25.9106C142.378 26.3989 142.502 26.958 142.502 27.5879C142.502 28.2715 142.378 28.855 142.129 29.3384C141.885 29.8218 141.526 30.1904 141.052 30.4443C140.579 30.6934 139.998 30.8179 139.309 30.8179ZM144.656 24.3359H145.959L148.75 33.0298L151.533 24.3359H152.837L149.255 35H148.23L144.656 24.3359ZM144.231 24.3359H145.374L145.571 30.8398V35H144.231V24.3359ZM152.112 24.3359H153.254V35H151.914V30.8398L152.112 24.3359Z" fill="white"/>
<path d="M52.8499 206.876L51.5867 221.434C51.2483 225.334 53.7829 228.907 57.5764 229.876L79.4652 235.469C80.0962 235.63 80.7234 235.713 81.3746 235.717C116.609 235.935 186.597 236.229 192.193 235.711C196.819 235.283 201.234 233.803 203.758 232.742C204.681 232.355 205.53 231.76 205.99 230.871C207.835 227.307 206.781 221.466 205.757 216.875C205.363 215.105 204.39 213.494 202.838 212.558C193.918 207.173 177.078 204.225 167.796 203.215C166.621 203.087 165.487 202.724 164.467 202.127C156.054 197.202 140.87 188.578 136.892 187.351C131.598 185.717 103.947 185.39 93.0638 187.351C84.6871 188.86 69.8306 195.329 62.6912 198.727C62.1512 198.984 61.5894 199.182 61.0066 199.316L59.028 199.77C55.6454 200.548 53.1499 203.418 52.8499 206.876Z" fill="white" stroke="black" stroke-width="6"/>
<circle cx="83.5" cy="231.5" r="13.5" fill="white" stroke="black" stroke-width="6"/>
<circle cx="178.5" cy="231.5" r="13.5" fill="white" stroke="black" stroke-width="6"/>
<rect x="12" y="248" width="210" height="22" fill="white" stroke="black" stroke-width="6"/>
<path d="M260 260H130C201.797 260 260 201.797 260 130C260 58.203 201.797 0 130 0C58.203 0 0 58.203 0 130C0 201.797 58.203 260 130 260H0V0H260V260Z" fill="black"/>
</g>
<defs>
<clipPath id="clip0_5_67">
<rect width="260" height="260" fill="white"/>
</clipPath>
</defs>
</svg>
