<svg width="260" height="260" viewBox="0 0 260 260" fill="none" xmlns="http://www.w3.org/2000/svg">
<g clip-path="url(#clip0_25_859)">
<rect width="260" height="260" fill="white"/>
<rect width="260" height="260" fill="black"/>
<circle cx="130" cy="130" r="130" fill="#FF9500"/>
<path d="M260 260H130C201.797 260 260 201.797 260 130C260 58.203 201.797 0 130 0C58.203 0 0 58.203 0 130C0 201.797 58.203 260 130 260H0V0H260V260Z" fill="black"/>
<path d="M24 0H242C251.941 0 260 8.05888 260 18V242C260 251.941 251.941 260 242 260H24V0Z" fill="black"/>
<path d="M44.3301 121.5V138H42.4287V121.5H44.3301ZM43.8682 131.748L43.0947 131.716C43.0876 130.921 43.1771 130.187 43.3633 129.514C43.5566 128.833 43.8288 128.243 44.1797 127.741C44.5378 127.24 44.9639 126.853 45.458 126.581C45.9521 126.302 46.5 126.162 47.1016 126.162C47.5742 126.162 48.0039 126.241 48.3906 126.398C48.7773 126.549 49.1068 126.792 49.3789 127.129C49.651 127.465 49.8587 127.902 50.002 128.439C50.1523 128.969 50.2275 129.618 50.2275 130.384V138H48.3262V130.362C48.3262 129.754 48.2581 129.267 48.1221 128.901C47.9932 128.529 47.7926 128.26 47.5205 128.096C47.2555 127.924 46.9189 127.838 46.5107 127.838C46.1383 127.838 45.791 127.942 45.4688 128.149C45.1465 128.357 44.8636 128.644 44.6201 129.009C44.3838 129.374 44.1976 129.793 44.0615 130.266C43.9326 130.731 43.8682 131.225 43.8682 131.748ZM52.666 132.747V131.641C52.666 130.738 52.7806 129.947 53.0098 129.267C53.2389 128.579 53.5576 128.006 53.9658 127.548C54.374 127.09 54.8503 126.746 55.3945 126.517C55.9388 126.28 56.5225 126.162 57.1455 126.162C57.7829 126.162 58.3737 126.28 58.918 126.517C59.4622 126.746 59.9385 127.09 60.3467 127.548C60.762 128.006 61.0843 128.579 61.3135 129.267C61.5426 129.947 61.6572 130.738 61.6572 131.641V132.747C61.6572 133.649 61.5426 134.444 61.3135 135.132C61.0843 135.812 60.7656 136.382 60.3574 136.84C59.9492 137.298 59.473 137.642 58.9287 137.871C58.3844 138.1 57.7972 138.215 57.167 138.215C56.5368 138.215 55.9495 138.1 55.4053 137.871C54.861 137.642 54.3812 137.298 53.9658 136.84C53.5576 136.382 53.2389 135.812 53.0098 135.132C52.7806 134.444 52.666 133.649 52.666 132.747ZM54.5674 131.641V132.747C54.5674 133.384 54.6318 133.943 54.7607 134.423C54.8896 134.903 55.0723 135.304 55.3086 135.626C55.5449 135.948 55.8206 136.192 56.1357 136.356C56.4508 136.514 56.7946 136.593 57.167 136.593C57.5967 136.593 57.9727 136.514 58.2949 136.356C58.6243 136.192 58.8965 135.948 59.1113 135.626C59.3262 135.304 59.4873 134.903 59.5947 134.423C59.7021 133.943 59.7559 133.384 59.7559 132.747V131.641C59.7559 131.003 59.6914 130.448 59.5625 129.976C59.4336 129.496 59.251 129.095 59.0146 128.772C58.7783 128.443 58.499 128.2 58.1768 128.042C57.8617 127.877 57.5179 127.795 57.1455 127.795C56.7803 127.795 56.4401 127.877 56.125 128.042C55.8099 128.2 55.5342 128.443 55.2979 128.772C55.0687 129.095 54.8896 129.496 54.7607 129.976C54.6318 130.448 54.5674 131.003 54.5674 131.641ZM66.0078 128.858V138H64.1064V126.377H65.9004L66.0078 128.858ZM65.5459 131.748L64.7725 131.716C64.7653 130.921 64.8548 130.187 65.041 129.514C65.2344 128.833 65.5065 128.243 65.8574 127.741C66.2155 127.24 66.6416 126.853 67.1357 126.581C67.6299 126.302 68.1777 126.162 68.7793 126.162C69.252 126.162 69.6816 126.241 70.0684 126.398C70.4551 126.549 70.7845 126.792 71.0566 127.129C71.3288 127.465 71.5365 127.902 71.6797 128.439C71.8301 128.969 71.9053 129.618 71.9053 130.384V138H70.0039V130.362C70.0039 129.754 69.9359 129.267 69.7998 128.901C69.6709 128.529 69.4704 128.26 69.1982 128.096C68.9333 127.924 68.5967 127.838 68.1885 127.838C67.8161 127.838 67.4688 127.942 67.1465 128.149C66.8242 128.357 66.5413 128.644 66.2979 129.009C66.0615 129.374 65.8753 129.793 65.7393 130.266C65.6104 130.731 65.5459 131.225 65.5459 131.748ZM76.6748 121.5V138H74.7734V121.5H76.6748ZM82.5723 126.377L78.4365 131.802L75.8799 134.745L75.751 132.629L77.5127 130.201L80.2842 126.377H82.5723ZM80.832 138L77.5664 132.457L78.5439 130.685L83.0449 138H80.832ZM98.2451 129.61V131.479H89.2432V129.61H98.2451ZM94.7109 125.045V136.432H92.8096V125.045H94.7109ZM108.461 138H106.56V125.152C106.56 124.314 106.696 123.609 106.968 123.036C107.24 122.456 107.637 122.019 108.16 121.726C108.683 121.425 109.313 121.274 110.051 121.274C110.309 121.274 110.642 121.307 111.05 121.371C111.458 121.436 111.898 121.518 112.371 121.618C112.844 121.718 113.302 121.822 113.746 121.93L112.897 123.369C112.303 123.24 111.777 123.144 111.318 123.079C110.867 123.007 110.495 122.972 110.201 122.972C109.822 122.972 109.499 123.058 109.234 123.229C108.977 123.394 108.783 123.638 108.654 123.96C108.525 124.282 108.461 124.68 108.461 125.152V138ZM111.855 138V121.93H113.746V138H111.855ZM110.438 126.377V127.902H105.045V126.377H110.438ZM122.522 136.013V129.707C122.522 129.249 122.451 128.88 122.308 128.601C122.172 128.321 121.964 128.117 121.685 127.988C121.412 127.859 121.069 127.795 120.653 127.795C120.252 127.795 119.905 127.877 119.611 128.042C119.325 128.207 119.103 128.425 118.945 128.697C118.795 128.969 118.72 129.27 118.72 129.6H116.818C116.818 129.184 116.908 128.772 117.087 128.364C117.273 127.956 117.538 127.587 117.882 127.258C118.226 126.921 118.637 126.656 119.117 126.463C119.604 126.262 120.148 126.162 120.75 126.162C121.466 126.162 122.1 126.28 122.651 126.517C123.203 126.746 123.636 127.122 123.951 127.645C124.266 128.167 124.424 128.862 124.424 129.729V135.465C124.424 135.852 124.452 136.263 124.51 136.7C124.574 137.137 124.664 137.513 124.778 137.828V138H122.812C122.719 137.771 122.648 137.466 122.598 137.087C122.548 136.7 122.522 136.342 122.522 136.013ZM122.823 130.953L122.845 132.35H121.523C121.072 132.35 120.66 132.4 120.288 132.5C119.923 132.6 119.608 132.747 119.343 132.94C119.078 133.127 118.874 133.359 118.73 133.639C118.594 133.918 118.526 134.237 118.526 134.595C118.526 135.06 118.591 135.433 118.72 135.712C118.849 135.984 119.042 136.181 119.3 136.303C119.558 136.424 119.883 136.485 120.277 136.485C120.757 136.485 121.18 136.374 121.545 136.152C121.91 135.93 122.193 135.662 122.394 135.347C122.601 135.032 122.698 134.738 122.684 134.466L123.103 135.357C123.074 135.637 122.981 135.941 122.823 136.271C122.673 136.593 122.462 136.904 122.189 137.205C121.917 137.499 121.595 137.742 121.223 137.936C120.857 138.122 120.446 138.215 119.987 138.215C119.314 138.215 118.723 138.086 118.215 137.828C117.714 137.57 117.323 137.191 117.044 136.689C116.765 136.188 116.625 135.569 116.625 134.831C116.625 134.272 116.722 133.757 116.915 133.284C117.108 132.812 117.395 132.403 117.774 132.06C118.154 131.709 118.63 131.437 119.203 131.243C119.783 131.05 120.453 130.953 121.212 130.953H122.823ZM133.018 135.024C133.018 134.731 132.946 134.473 132.803 134.251C132.66 134.029 132.423 133.814 132.094 133.606C131.771 133.399 131.335 133.177 130.783 132.94C130.246 132.718 129.763 132.5 129.333 132.285C128.91 132.063 128.552 131.823 128.259 131.565C127.965 131.308 127.74 131.01 127.582 130.674C127.432 130.33 127.356 129.925 127.356 129.46C127.356 128.994 127.442 128.565 127.614 128.171C127.793 127.77 128.044 127.419 128.366 127.118C128.688 126.817 129.075 126.585 129.526 126.42C129.978 126.248 130.482 126.162 131.041 126.162C131.836 126.162 132.513 126.316 133.071 126.624C133.63 126.932 134.056 127.354 134.35 127.892C134.65 128.422 134.801 129.02 134.801 129.686H132.91C132.91 129.363 132.839 129.059 132.695 128.772C132.552 128.486 132.341 128.253 132.062 128.074C131.782 127.888 131.442 127.795 131.041 127.795C130.618 127.795 130.275 127.87 130.01 128.021C129.745 128.171 129.551 128.368 129.43 128.611C129.315 128.848 129.258 129.109 129.258 129.396C129.258 129.61 129.286 129.797 129.344 129.954C129.408 130.104 129.516 130.248 129.666 130.384C129.816 130.513 130.021 130.649 130.278 130.792C130.543 130.928 130.88 131.086 131.288 131.265C132.076 131.573 132.738 131.884 133.275 132.199C133.812 132.514 134.221 132.883 134.5 133.306C134.779 133.728 134.919 134.251 134.919 134.874C134.919 135.382 134.826 135.844 134.64 136.26C134.461 136.668 134.203 137.019 133.866 137.312C133.53 137.606 133.125 137.832 132.652 137.989C132.187 138.14 131.664 138.215 131.084 138.215C130.21 138.215 129.469 138.043 128.86 137.699C128.259 137.348 127.8 136.894 127.485 136.335C127.177 135.769 127.023 135.164 127.023 134.52H128.925C128.946 135.064 129.068 135.486 129.29 135.787C129.519 136.088 129.795 136.296 130.117 136.41C130.439 136.525 130.762 136.582 131.084 136.582C131.507 136.582 131.861 136.521 132.147 136.399C132.434 136.271 132.649 136.088 132.792 135.852C132.942 135.615 133.018 135.34 133.018 135.024ZM139.312 121.5V138H137.411V121.5H139.312ZM138.851 131.748L138.077 131.716C138.07 130.921 138.16 130.187 138.346 129.514C138.539 128.833 138.811 128.243 139.162 127.741C139.52 127.24 139.946 126.853 140.44 126.581C140.935 126.302 141.482 126.162 142.084 126.162C142.557 126.162 142.986 126.241 143.373 126.398C143.76 126.549 144.089 126.792 144.361 127.129C144.633 127.465 144.841 127.902 144.984 128.439C145.135 128.969 145.21 129.618 145.21 130.384V138H143.309V130.362C143.309 129.754 143.241 129.267 143.104 128.901C142.976 128.529 142.775 128.26 142.503 128.096C142.238 127.924 141.901 127.838 141.493 127.838C141.121 127.838 140.773 127.942 140.451 128.149C140.129 128.357 139.846 128.644 139.603 129.009C139.366 129.374 139.18 129.793 139.044 130.266C138.915 130.731 138.851 131.225 138.851 131.748Z" fill="white"/>
<circle cx="12" cy="130" r="6" fill="black"/>
</g>
<defs>
<clipPath id="clip0_25_859">
<rect width="260" height="260" fill="white"/>
</clipPath>
</defs>
</svg>
