<svg width="260" height="260" viewBox="0 0 260 260" fill="none" xmlns="http://www.w3.org/2000/svg">
<g clip-path="url(#clip0_22_748)">
<rect width="260" height="260" fill="white"/>
<rect width="260" height="260" fill="black"/>
<circle cx="130" cy="130" r="130" fill="#FF9500"/>
<path d="M65.28 52.4V79H46.66V73.68H59.96V68.36H46.66V52.4H65.28ZM51.98 57.72V63.04H59.96V57.72H51.98ZM89.2155 52.4V79H70.5955V73.68H83.8955V68.36H70.5955V52.4H89.2155ZM75.9155 57.72V63.04H83.8955V57.72H75.9155ZM113.151 52.4V79H94.5311V73.68H107.831V68.36H94.5311V52.4H113.151ZM99.8511 57.72V63.04H107.831V57.72H99.8511ZM137.087 52.4V79H118.467V73.68H131.767V68.36H118.467V52.4H137.087ZM123.787 57.72V63.04H131.767V57.72H123.787ZM161.022 52.4V79H142.402V73.68H155.702V68.36H142.402V52.4H161.022ZM147.722 57.72V63.04H155.702V57.72H147.722ZM184.958 52.4V79H166.338V73.68H179.638V68.36H166.338V52.4H184.958ZM171.658 57.72V63.04H179.638V57.72H171.658ZM208.893 52.4V79H190.273V73.68H203.573V68.36H190.273V52.4H208.893ZM195.593 57.72V63.04H203.573V57.72H195.593Z" fill="white"/>
<path d="M48.3408 86.5V103H46.4395V86.5H48.3408ZM54.2383 91.377L50.1025 96.8018L47.5459 99.7451L47.417 97.6289L49.1787 95.2012L51.9502 91.377H54.2383ZM52.498 103L49.2324 97.457L50.21 95.6846L54.7109 103H52.498ZM58.3955 91.377V103H56.5049V91.377H58.3955ZM56.3975 88.2939C56.3975 87.9717 56.487 87.6995 56.666 87.4775C56.8451 87.2555 57.1136 87.1445 57.4717 87.1445C57.8298 87.1445 58.0983 87.2555 58.2773 87.4775C58.4635 87.6995 58.5566 87.9717 58.5566 88.2939C58.5566 88.6019 58.4635 88.8669 58.2773 89.0889C58.0983 89.3037 57.8298 89.4111 57.4717 89.4111C57.1136 89.4111 56.8451 89.3037 56.666 89.0889C56.487 88.8669 56.3975 88.6019 56.3975 88.2939ZM63.4443 86.5V103H61.5537V86.5H63.4443ZM66.0547 97.7471V96.6406C66.0547 95.7383 66.1693 94.9469 66.3984 94.2666C66.6276 93.5791 66.9463 93.0062 67.3545 92.5479C67.7627 92.0895 68.2389 91.7458 68.7832 91.5166C69.3275 91.2803 69.9111 91.1621 70.5342 91.1621C71.1715 91.1621 71.7624 91.2803 72.3066 91.5166C72.8509 91.7458 73.3271 92.0895 73.7354 92.5479C74.1507 93.0062 74.473 93.5791 74.7021 94.2666C74.9313 94.9469 75.0459 95.7383 75.0459 96.6406V97.7471C75.0459 98.6494 74.9313 99.4443 74.7021 100.132C74.473 100.812 74.1543 101.382 73.7461 101.84C73.3379 102.298 72.8617 102.642 72.3174 102.871C71.7731 103.1 71.1859 103.215 70.5557 103.215C69.9255 103.215 69.3382 103.1 68.7939 102.871C68.2497 102.642 67.7699 102.298 67.3545 101.84C66.9463 101.382 66.6276 100.812 66.3984 100.132C66.1693 99.4443 66.0547 98.6494 66.0547 97.7471ZM67.9561 96.6406V97.7471C67.9561 98.3844 68.0205 98.943 68.1494 99.4229C68.2783 99.9027 68.4609 100.304 68.6973 100.626C68.9336 100.948 69.2093 101.192 69.5244 101.356C69.8395 101.514 70.1833 101.593 70.5557 101.593C70.9854 101.593 71.3613 101.514 71.6836 101.356C72.013 101.192 72.2852 100.948 72.5 100.626C72.7148 100.304 72.876 99.9027 72.9834 99.4229C73.0908 98.943 73.1445 98.3844 73.1445 97.7471V96.6406C73.1445 96.0033 73.0801 95.4482 72.9512 94.9756C72.8223 94.4958 72.6396 94.0947 72.4033 93.7725C72.167 93.443 71.8877 93.1995 71.5654 93.042C71.2503 92.8773 70.9066 92.7949 70.5342 92.7949C70.1689 92.7949 69.8288 92.8773 69.5137 93.042C69.1986 93.1995 68.9229 93.443 68.6865 93.7725C68.4574 94.0947 68.2783 94.4958 68.1494 94.9756C68.0205 95.4482 67.9561 96.0033 67.9561 96.6406ZM79.3965 93.6865V103H77.5059V91.377H79.2891L79.3965 93.6865ZM79.0098 96.748L78.1289 96.7158C78.1217 95.9209 78.2005 95.1868 78.3652 94.5137C78.5299 93.8333 78.777 93.2425 79.1064 92.7412C79.443 92.2399 79.862 91.8532 80.3633 91.5811C80.8717 91.3018 81.4626 91.1621 82.1357 91.1621C82.5798 91.1621 82.9915 91.2409 83.3711 91.3984C83.7578 91.5488 84.0944 91.7887 84.3809 92.1182C84.6673 92.4476 84.8893 92.8701 85.0469 93.3857C85.2116 93.9014 85.2939 94.5244 85.2939 95.2549V103H83.3926V95.3516C83.3926 94.7428 83.3102 94.2559 83.1455 93.8906C82.988 93.5254 82.7624 93.2604 82.4688 93.0957C82.1751 92.9238 81.8242 92.8379 81.416 92.8379C80.9505 92.8379 80.5602 92.9417 80.2451 93.1494C79.9372 93.3571 79.6901 93.6436 79.5039 94.0088C79.3249 94.374 79.196 94.793 79.1172 95.2656C79.0456 95.7311 79.0098 96.2253 79.0098 96.748ZM85.2725 95.6523L84.0049 96.0605C83.9977 95.4232 84.0765 94.8109 84.2412 94.2236C84.4059 93.6364 84.6494 93.1136 84.9717 92.6553C85.3011 92.1969 85.7093 91.8353 86.1963 91.5703C86.6833 91.2982 87.249 91.1621 87.8936 91.1621C88.4235 91.1621 88.8926 91.2445 89.3008 91.4092C89.709 91.5739 90.0527 91.8281 90.332 92.1719C90.6185 92.5085 90.8333 92.9417 90.9766 93.4717C91.1198 94.0016 91.1914 94.6318 91.1914 95.3623V103H89.29V95.3408C89.29 94.6891 89.2077 94.1842 89.043 93.8262C88.8854 93.4609 88.6598 93.2067 88.3662 93.0635C88.0726 92.9131 87.7217 92.8379 87.3135 92.8379C86.984 92.8379 86.6904 92.9131 86.4326 93.0635C86.182 93.2139 85.9707 93.4215 85.7988 93.6865C85.627 93.9443 85.4945 94.2415 85.4014 94.5781C85.3154 94.9147 85.2725 95.2728 85.2725 95.6523ZM98.2168 103.215C97.5221 103.215 96.8955 103.111 96.3369 102.903C95.7783 102.696 95.3021 102.381 94.9082 101.958C94.5143 101.528 94.2135 100.988 94.0059 100.336C93.7982 99.6842 93.6943 98.9144 93.6943 98.0264V96.7158C93.6943 95.6917 93.8125 94.8252 94.0488 94.1162C94.2923 93.4072 94.6182 92.8379 95.0264 92.4082C95.4346 91.9714 95.8965 91.6562 96.4121 91.4629C96.9277 91.2624 97.4577 91.1621 98.002 91.1621C98.7324 91.1621 99.3555 91.2803 99.8711 91.5166C100.387 91.7529 100.806 92.1038 101.128 92.5693C101.45 93.0348 101.687 93.6077 101.837 94.2881C101.994 94.9684 102.073 95.7526 102.073 96.6406V97.7471H94.8115V96.125H100.172V95.8564C100.143 95.2549 100.061 94.7249 99.9248 94.2666C99.7959 93.8083 99.5811 93.4502 99.2803 93.1924C98.9795 92.9274 98.5534 92.7949 98.002 92.7949C97.651 92.7949 97.3252 92.8558 97.0244 92.9775C96.7308 93.0921 96.4766 93.2962 96.2617 93.5898C96.054 93.8763 95.8893 94.2738 95.7676 94.7822C95.653 95.2907 95.5957 95.9352 95.5957 96.7158V98.0264C95.5957 98.6494 95.653 99.1865 95.7676 99.6377C95.8893 100.082 96.0648 100.451 96.2939 100.744C96.5303 101.031 96.8167 101.245 97.1533 101.389C97.4971 101.525 97.8874 101.593 98.3242 101.593C98.9616 101.593 99.488 101.471 99.9033 101.228C100.319 100.977 100.68 100.658 100.988 100.271L101.987 101.464C101.78 101.757 101.507 102.04 101.171 102.312C100.841 102.577 100.433 102.796 99.9463 102.968C99.4665 103.132 98.89 103.215 98.2168 103.215ZM108.615 91.377V92.9023H103.19V91.377H108.615ZM104.963 88.5518H106.864V100.121C106.864 100.515 106.911 100.812 107.004 101.013C107.104 101.213 107.229 101.346 107.38 101.41C107.53 101.475 107.691 101.507 107.863 101.507C107.992 101.507 108.135 101.493 108.293 101.464C108.451 101.428 108.558 101.399 108.615 101.378L108.604 103C108.476 103.05 108.304 103.097 108.089 103.14C107.874 103.19 107.602 103.215 107.272 103.215C106.864 103.215 106.485 103.118 106.134 102.925C105.783 102.731 105.5 102.409 105.285 101.958C105.07 101.5 104.963 100.884 104.963 100.11V88.5518ZM115.039 103.215C114.344 103.215 113.718 103.111 113.159 102.903C112.601 102.696 112.124 102.381 111.73 101.958C111.337 101.528 111.036 100.988 110.828 100.336C110.62 99.6842 110.517 98.9144 110.517 98.0264V96.7158C110.517 95.6917 110.635 94.8252 110.871 94.1162C111.115 93.4072 111.44 92.8379 111.849 92.4082C112.257 91.9714 112.719 91.6562 113.234 91.4629C113.75 91.2624 114.28 91.1621 114.824 91.1621C115.555 91.1621 116.178 91.2803 116.693 91.5166C117.209 91.7529 117.628 92.1038 117.95 92.5693C118.272 93.0348 118.509 93.6077 118.659 94.2881C118.817 94.9684 118.896 95.7526 118.896 96.6406V97.7471H111.634V96.125H116.994V95.8564C116.965 95.2549 116.883 94.7249 116.747 94.2666C116.618 93.8083 116.403 93.4502 116.103 93.1924C115.802 92.9274 115.376 92.7949 114.824 92.7949C114.473 92.7949 114.147 92.8558 113.847 92.9775C113.553 93.0921 113.299 93.2962 113.084 93.5898C112.876 93.8763 112.712 94.2738 112.59 94.7822C112.475 95.2907 112.418 95.9352 112.418 96.7158V98.0264C112.418 98.6494 112.475 99.1865 112.59 99.6377C112.712 100.082 112.887 100.451 113.116 100.744C113.353 101.031 113.639 101.245 113.976 101.389C114.319 101.525 114.71 101.593 115.146 101.593C115.784 101.593 116.31 101.471 116.726 101.228C117.141 100.977 117.503 100.658 117.811 100.271L118.81 101.464C118.602 101.757 118.33 102.04 117.993 102.312C117.664 102.577 117.256 102.796 116.769 102.968C116.289 103.132 115.712 103.215 115.039 103.215ZM123.096 93.2031V103H121.194V91.377H123.031L123.096 93.2031ZM125.985 91.3125L125.996 93.1602C125.839 93.1243 125.695 93.1029 125.566 93.0957C125.445 93.0814 125.301 93.0742 125.137 93.0742C124.779 93.0742 124.464 93.1458 124.191 93.2891C123.926 93.4323 123.697 93.6328 123.504 93.8906C123.311 94.1484 123.157 94.4564 123.042 94.8145C122.927 95.1654 122.849 95.5521 122.806 95.9746L122.312 96.2969C122.312 95.5951 122.365 94.9362 122.473 94.3203C122.587 93.7044 122.763 93.1602 122.999 92.6875C123.235 92.2077 123.536 91.8353 123.901 91.5703C124.274 91.2982 124.718 91.1621 125.233 91.1621C125.348 91.1621 125.488 91.18 125.652 91.2158C125.824 91.2445 125.935 91.2767 125.985 91.3125ZM133.537 100.024C133.537 99.7308 133.465 99.473 133.322 99.251C133.179 99.029 132.943 98.8141 132.613 98.6064C132.291 98.3988 131.854 98.1768 131.303 97.9404C130.766 97.7184 130.282 97.5 129.853 97.2852C129.43 97.0632 129.072 96.8232 128.778 96.5654C128.485 96.3076 128.259 96.0104 128.102 95.6738C127.951 95.3301 127.876 94.9255 127.876 94.46C127.876 93.9945 127.962 93.5648 128.134 93.1709C128.313 92.7699 128.563 92.4189 128.886 92.1182C129.208 91.8174 129.595 91.5846 130.046 91.4199C130.497 91.248 131.002 91.1621 131.561 91.1621C132.355 91.1621 133.032 91.3161 133.591 91.624C134.149 91.932 134.576 92.3545 134.869 92.8916C135.17 93.4215 135.32 94.0195 135.32 94.6855H133.43C133.43 94.3633 133.358 94.0589 133.215 93.7725C133.072 93.486 132.86 93.2533 132.581 93.0742C132.302 92.888 131.962 92.7949 131.561 92.7949C131.138 92.7949 130.794 92.8701 130.529 93.0205C130.264 93.1709 130.071 93.3678 129.949 93.6113C129.835 93.8477 129.777 94.109 129.777 94.3955C129.777 94.6104 129.806 94.7965 129.863 94.9541C129.928 95.1045 130.035 95.2477 130.186 95.3838C130.336 95.5127 130.54 95.6488 130.798 95.792C131.063 95.9281 131.399 96.0856 131.808 96.2646C132.595 96.5726 133.258 96.8841 133.795 97.1992C134.332 97.5143 134.74 97.8831 135.02 98.3057C135.299 98.7282 135.438 99.251 135.438 99.874C135.438 100.382 135.345 100.844 135.159 101.26C134.98 101.668 134.722 102.019 134.386 102.312C134.049 102.606 133.645 102.832 133.172 102.989C132.706 103.14 132.184 103.215 131.604 103.215C130.73 103.215 129.989 103.043 129.38 102.699C128.778 102.348 128.32 101.894 128.005 101.335C127.697 100.769 127.543 100.164 127.543 99.5195H129.444C129.466 100.064 129.588 100.486 129.81 100.787C130.039 101.088 130.314 101.296 130.637 101.41C130.959 101.525 131.281 101.582 131.604 101.582C132.026 101.582 132.381 101.521 132.667 101.399C132.953 101.271 133.168 101.088 133.312 100.852C133.462 100.615 133.537 100.34 133.537 100.024ZM52.5195 122.744V108.5H54.4102V125H52.6807L52.5195 122.744ZM46.0205 119.747V118.662C46.0205 117.702 46.1136 116.879 46.2998 116.191C46.486 115.497 46.751 114.927 47.0947 114.483C47.4385 114.032 47.8503 113.699 48.3301 113.484C48.8099 113.27 49.3398 113.162 49.9199 113.162C50.5215 113.162 51.0371 113.284 51.4668 113.527C51.9036 113.771 52.2689 114.125 52.5625 114.591C52.8561 115.049 53.0853 115.608 53.25 116.267C53.4219 116.918 53.5365 117.656 53.5938 118.479V119.93C53.5293 120.746 53.4111 121.48 53.2393 122.132C53.0745 122.784 52.8454 123.339 52.5518 123.797C52.2581 124.255 51.8929 124.606 51.4561 124.85C51.0192 125.093 50.5 125.215 49.8984 125.215C49.3255 125.215 48.8027 125.104 48.3301 124.882C47.8574 124.653 47.4456 124.312 47.0947 123.861C46.751 123.403 46.486 122.834 46.2998 122.153C46.1136 121.466 46.0205 120.664 46.0205 119.747ZM47.9219 118.662V119.747C47.9219 120.392 47.9684 120.954 48.0615 121.434C48.1546 121.906 48.3014 122.3 48.502 122.615C48.7025 122.923 48.9567 123.152 49.2646 123.303C49.5798 123.453 49.9557 123.528 50.3926 123.528C50.9225 123.528 51.3558 123.399 51.6924 123.142C52.029 122.884 52.2975 122.544 52.498 122.121C52.7057 121.691 52.8704 121.229 52.9922 120.735V117.685C52.9206 117.319 52.8167 116.968 52.6807 116.632C52.5446 116.288 52.3727 115.984 52.165 115.719C51.9645 115.447 51.7174 115.232 51.4238 115.074C51.1374 114.917 50.8008 114.838 50.4141 114.838C49.9772 114.838 49.5977 114.917 49.2754 115.074C48.9603 115.232 48.7025 115.468 48.502 115.783C48.3086 116.098 48.1618 116.496 48.0615 116.976C47.9684 117.455 47.9219 118.018 47.9219 118.662ZM59.2441 115.203V125H57.3428V113.377H59.1797L59.2441 115.203ZM62.1338 113.312L62.1445 115.16C61.987 115.124 61.8438 115.103 61.7148 115.096C61.5931 115.081 61.4499 115.074 61.2852 115.074C60.9271 115.074 60.612 115.146 60.3398 115.289C60.0749 115.432 59.8457 115.633 59.6523 115.891C59.459 116.148 59.305 116.456 59.1904 116.814C59.0758 117.165 58.9971 117.552 58.9541 117.975L58.46 118.297C58.46 117.595 58.5137 116.936 58.6211 116.32C58.7357 115.704 58.9111 115.16 59.1475 114.688C59.3838 114.208 59.6846 113.835 60.0498 113.57C60.4222 113.298 60.8662 113.162 61.3818 113.162C61.4964 113.162 61.6361 113.18 61.8008 113.216C61.9727 113.244 62.0837 113.277 62.1338 113.312ZM66.0869 113.377V125H64.1963V113.377H66.0869ZM64.0889 110.294C64.0889 109.972 64.1784 109.7 64.3574 109.478C64.5365 109.256 64.805 109.145 65.1631 109.145C65.5212 109.145 65.7897 109.256 65.9688 109.478C66.1549 109.7 66.248 109.972 66.248 110.294C66.248 110.602 66.1549 110.867 65.9688 111.089C65.7897 111.304 65.5212 111.411 65.1631 111.411C64.805 111.411 64.5365 111.304 64.3574 111.089C64.1784 110.867 64.0889 110.602 64.0889 110.294ZM72.1025 123.206L74.5947 113.377H76.5283L73.0801 125H71.8232L72.1025 123.206ZM70.0938 113.377L72.6934 123.26L72.8975 125H71.6514L68.1602 113.377H70.0938ZM82.5332 125.215C81.8385 125.215 81.2119 125.111 80.6533 124.903C80.0947 124.696 79.6185 124.381 79.2246 123.958C78.8307 123.528 78.5299 122.988 78.3223 122.336C78.1146 121.684 78.0107 120.914 78.0107 120.026V118.716C78.0107 117.692 78.1289 116.825 78.3652 116.116C78.6087 115.407 78.9346 114.838 79.3428 114.408C79.751 113.971 80.2129 113.656 80.7285 113.463C81.2441 113.262 81.7741 113.162 82.3184 113.162C83.0488 113.162 83.6719 113.28 84.1875 113.517C84.7031 113.753 85.1221 114.104 85.4443 114.569C85.7666 115.035 86.0029 115.608 86.1533 116.288C86.3109 116.968 86.3896 117.753 86.3896 118.641V119.747H79.1279V118.125H84.4883V117.856C84.4596 117.255 84.3773 116.725 84.2412 116.267C84.1123 115.808 83.8975 115.45 83.5967 115.192C83.2959 114.927 82.8698 114.795 82.3184 114.795C81.9674 114.795 81.6416 114.856 81.3408 114.978C81.0472 115.092 80.793 115.296 80.5781 115.59C80.3704 115.876 80.2057 116.274 80.084 116.782C79.9694 117.291 79.9121 117.935 79.9121 118.716V120.026C79.9121 120.649 79.9694 121.187 80.084 121.638C80.2057 122.082 80.3812 122.451 80.6104 122.744C80.8467 123.031 81.1331 123.245 81.4697 123.389C81.8135 123.525 82.2038 123.593 82.6406 123.593C83.278 123.593 83.8044 123.471 84.2197 123.228C84.6351 122.977 84.9967 122.658 85.3047 122.271L86.3037 123.464C86.096 123.757 85.8239 124.04 85.4873 124.312C85.1579 124.577 84.7497 124.796 84.2627 124.968C83.7829 125.132 83.2064 125.215 82.5332 125.215ZM90.5898 115.858V125H88.6885V113.377H90.4824L90.5898 115.858ZM90.1279 118.748L89.3545 118.716C89.3473 117.921 89.4368 117.187 89.623 116.514C89.8164 115.833 90.0885 115.243 90.4395 114.741C90.7975 114.24 91.2236 113.853 91.7178 113.581C92.2119 113.302 92.7598 113.162 93.3613 113.162C93.834 113.162 94.2637 113.241 94.6504 113.398C95.0371 113.549 95.3665 113.792 95.6387 114.129C95.9108 114.465 96.1185 114.902 96.2617 115.439C96.4121 115.969 96.4873 116.618 96.4873 117.384V125H94.5859V117.362C94.5859 116.754 94.5179 116.267 94.3818 115.901C94.2529 115.529 94.0524 115.26 93.7803 115.096C93.5153 114.924 93.1787 114.838 92.7705 114.838C92.3981 114.838 92.0508 114.942 91.7285 115.149C91.4062 115.357 91.1234 115.644 90.8799 116.009C90.6436 116.374 90.4574 116.793 90.3213 117.266C90.1924 117.731 90.1279 118.225 90.1279 118.748Z" fill="white"/>
<path d="M108.005 29.9243L106.973 29.646L107.427 24.3359H112.07V25.5884H108.518L108.269 28.4888C108.435 28.3765 108.635 28.2715 108.87 28.1738C109.104 28.0762 109.377 28.0273 109.69 28.0273C110.11 28.0273 110.483 28.1128 110.811 28.2837C111.143 28.4497 111.423 28.689 111.653 29.0015C111.882 29.314 112.058 29.6899 112.18 30.1294C112.302 30.5688 112.363 31.0596 112.363 31.6016C112.363 32.1143 112.302 32.5854 112.18 33.0151C112.063 33.4448 111.882 33.8208 111.638 34.1431C111.399 34.4604 111.096 34.707 110.73 34.8828C110.369 35.0586 109.946 35.1465 109.463 35.1465C109.102 35.1465 108.76 35.0879 108.438 34.9707C108.115 34.8486 107.825 34.6655 107.566 34.4214C107.312 34.1724 107.104 33.8647 106.943 33.4985C106.782 33.1274 106.682 32.6929 106.643 32.1948H107.866C107.915 32.5952 108.008 32.9321 108.145 33.2056C108.286 33.479 108.467 33.6865 108.687 33.8281C108.911 33.9648 109.17 34.0332 109.463 34.0332C109.712 34.0332 109.937 33.9771 110.137 33.8647C110.337 33.7524 110.505 33.5913 110.642 33.3813C110.779 33.1714 110.884 32.9175 110.957 32.6196C111.03 32.3218 111.067 31.9873 111.067 31.6162C111.067 31.2793 111.03 30.9668 110.957 30.6787C110.884 30.3906 110.774 30.1392 110.627 29.9243C110.481 29.7095 110.303 29.5435 110.093 29.4263C109.888 29.3042 109.648 29.2432 109.375 29.2432C109.009 29.2432 108.738 29.3042 108.562 29.4263C108.391 29.5483 108.206 29.7144 108.005 29.9243ZM114.004 34.2822C114.004 34.0527 114.075 33.8599 114.216 33.7036C114.363 33.5425 114.573 33.4619 114.846 33.4619C115.12 33.4619 115.327 33.5425 115.469 33.7036C115.615 33.8599 115.688 34.0527 115.688 34.2822C115.688 34.5068 115.615 34.6973 115.469 34.8535C115.327 35.0098 115.12 35.0879 114.846 35.0879C114.573 35.0879 114.363 35.0098 114.216 34.8535C114.075 34.6973 114.004 34.5068 114.004 34.2822ZM113.997 27.8149C113.997 27.5854 114.067 27.3926 114.209 27.2363C114.355 27.0752 114.565 26.9946 114.839 26.9946C115.112 26.9946 115.32 27.0752 115.461 27.2363C115.608 27.3926 115.681 27.5854 115.681 27.8149C115.681 28.0396 115.608 28.23 115.461 28.3862C115.32 28.5425 115.112 28.6206 114.839 28.6206C114.565 28.6206 114.355 28.5425 114.209 28.3862C114.067 28.23 113.997 28.0396 113.997 27.8149ZM123.313 33.8867V35H117.351V34.0259L120.288 30.1367C120.649 29.6582 120.925 29.2529 121.116 28.9209C121.306 28.584 121.438 28.2837 121.511 28.02C121.584 27.7515 121.621 27.478 121.621 27.1997C121.621 26.8481 121.565 26.5308 121.453 26.2476C121.34 25.9595 121.177 25.73 120.962 25.5591C120.747 25.3882 120.488 25.3027 120.186 25.3027C119.79 25.3027 119.465 25.3955 119.211 25.5811C118.962 25.7617 118.779 26.0156 118.662 26.3428C118.545 26.6699 118.486 27.0459 118.486 27.4707H117.19C117.19 26.8701 117.3 26.3208 117.52 25.8228C117.744 25.3247 118.079 24.9292 118.523 24.6362C118.967 24.3384 119.521 24.1895 120.186 24.1895C120.757 24.1895 121.245 24.3091 121.65 24.5483C122.061 24.7827 122.373 25.1147 122.588 25.5444C122.808 25.9692 122.917 26.4673 122.917 27.0386C122.917 27.3511 122.874 27.6685 122.786 27.9907C122.703 28.3081 122.585 28.6255 122.434 28.9429C122.288 29.2603 122.114 29.5728 121.914 29.8804C121.714 30.188 121.499 30.4907 121.27 30.7886L118.904 33.8867H123.313ZM125.935 33.8647H126.038C126.697 33.8647 127.227 33.7549 127.627 33.5352C128.027 33.3154 128.328 33.02 128.528 32.6489C128.733 32.2778 128.87 31.8604 128.938 31.3965C129.011 30.9277 129.048 30.4468 129.048 29.9536V28.3203C129.048 27.8369 129.001 27.4072 128.909 27.0312C128.821 26.6553 128.701 26.3403 128.55 26.0864C128.403 25.8325 128.235 25.6396 128.044 25.5078C127.859 25.376 127.668 25.3101 127.473 25.3101C127.224 25.3101 127.004 25.3735 126.814 25.5005C126.624 25.6226 126.462 25.7959 126.331 26.0205C126.204 26.2451 126.106 26.5088 126.038 26.8115C125.969 27.1143 125.935 27.4438 125.935 27.8003C125.935 28.1177 125.964 28.4253 126.023 28.7231C126.082 29.021 126.172 29.2896 126.294 29.5288C126.421 29.7681 126.577 29.9585 126.763 30.1001C126.953 30.2368 127.178 30.3052 127.437 30.3052C127.651 30.3052 127.859 30.2466 128.059 30.1294C128.264 30.0073 128.45 29.8438 128.616 29.6387C128.782 29.4287 128.918 29.1919 129.026 28.9282C129.133 28.6646 129.197 28.3887 129.216 28.1006H129.824C129.824 28.5059 129.758 28.9062 129.626 29.3018C129.5 29.6924 129.316 30.0488 129.077 30.3711C128.843 30.6934 128.567 30.9521 128.25 31.1475C127.937 31.3379 127.593 31.4331 127.217 31.4331C126.763 31.4331 126.375 31.3306 126.052 31.1255C125.73 30.9204 125.466 30.647 125.261 30.3052C125.061 29.9634 124.912 29.5825 124.814 29.1626C124.717 28.7378 124.668 28.3081 124.668 27.8735C124.668 27.3657 124.727 26.8896 124.844 26.4453C124.961 26.001 125.134 25.6104 125.364 25.2734C125.598 24.9316 125.891 24.6655 126.243 24.4751C126.594 24.2847 127.004 24.1895 127.473 24.1895C127.996 24.1895 128.44 24.3115 128.806 24.5557C129.172 24.7998 129.468 25.127 129.692 25.5371C129.917 25.9473 130.081 26.4087 130.183 26.9214C130.286 27.4341 130.337 27.9614 130.337 28.5034V28.9941C130.337 29.5459 130.31 30.1074 130.256 30.6787C130.208 31.2451 130.103 31.7871 129.941 32.3047C129.785 32.8223 129.551 33.2861 129.238 33.6963C128.926 34.1016 128.508 34.4238 127.986 34.6631C127.468 34.8975 126.819 35.0146 126.038 35.0146H125.942L125.935 33.8647ZM139.309 30.8179H136.98V29.668H139.309C139.749 29.668 140.103 29.5801 140.371 29.4043C140.645 29.2285 140.842 28.9844 140.964 28.6719C141.091 28.3594 141.155 28.0029 141.155 27.6025C141.155 27.2363 141.091 26.8921 140.964 26.5698C140.842 26.2476 140.645 25.9888 140.371 25.7935C140.103 25.5933 139.749 25.4932 139.309 25.4932H137.258V35H135.911V24.3359H139.309C139.998 24.3359 140.579 24.4751 141.052 24.7534C141.526 25.0317 141.885 25.4175 142.129 25.9106C142.378 26.3989 142.502 26.958 142.502 27.5879C142.502 28.2715 142.378 28.855 142.129 29.3384C141.885 29.8218 141.526 30.1904 141.052 30.4443C140.579 30.6934 139.998 30.8179 139.309 30.8179ZM144.656 24.3359H145.959L148.75 33.0298L151.533 24.3359H152.837L149.255 35H148.23L144.656 24.3359ZM144.231 24.3359H145.374L145.571 30.8398V35H144.231V24.3359ZM152.112 24.3359H153.254V35H151.914V30.8398L152.112 24.3359Z" fill="white"/>
<path d="M173.692 119C173.985 119 174.276 119.004 174.567 119.012C176.39 119.06 176.938 121.432 175.605 122.677C170.413 127.529 167.168 134.436 167.168 142.103C167.168 156.783 179.068 168.684 193.749 168.685C195.013 168.685 196.256 168.596 197.472 168.425C199.279 168.17 200.783 170.086 199.674 171.536C193.7 179.346 184.285 184.385 173.692 184.385C155.637 184.385 141 169.748 141 151.692C141 133.637 155.637 119 173.692 119Z" fill="white"/>
<path d="M173.692 119V116H173.692L173.692 119ZM167.168 142.103H164.168V142.103L167.168 142.103ZM193.749 168.685L193.749 171.685H193.749V168.685ZM173.692 184.385L173.692 187.385H173.692V184.385ZM141 151.692H138V151.692L141 151.692ZM197.472 168.425L197.054 165.454L197.472 168.425ZM199.674 171.536L197.291 169.713L199.674 171.536ZM175.605 122.677L173.556 120.485L175.605 122.677ZM173.692 119V122C173.958 122 174.223 122.004 174.487 122.01L174.567 119.012L174.646 116.013C174.329 116.004 174.011 116 173.692 116V119ZM175.605 122.677L173.556 120.485C167.783 125.88 164.168 133.571 164.168 142.103H167.168H170.168C170.168 135.302 173.043 129.177 177.653 124.869L175.605 122.677ZM167.168 142.103L164.168 142.103C164.168 158.44 177.411 171.684 193.749 171.685L193.749 168.685L193.749 165.685C180.725 165.684 170.168 155.126 170.168 142.103L167.168 142.103ZM193.749 168.685V171.685C195.153 171.685 196.536 171.586 197.89 171.395L197.472 168.425L197.054 165.454C195.975 165.606 194.872 165.685 193.749 165.685V168.685ZM199.674 171.536L197.291 169.713C191.86 176.814 183.311 181.385 173.692 181.385V184.385V187.385C185.259 187.385 195.54 181.879 202.057 173.359L199.674 171.536ZM173.692 184.385L173.692 181.385C157.294 181.385 144 168.091 144 151.692L141 151.692L138 151.692C138 171.405 153.98 187.385 173.692 187.385L173.692 184.385ZM141 151.692H144C144 135.294 157.294 122 173.692 122L173.692 119L173.692 116C153.98 116 138 131.98 138 151.692H141ZM197.472 168.425L197.89 171.395C197.624 171.433 197.394 171.314 197.252 171.121C197.169 171.01 197.064 170.804 197.054 170.508C197.042 170.18 197.154 169.893 197.291 169.713L199.674 171.536L202.057 173.359C203.552 171.404 203.202 169.082 202.081 167.561C201.013 166.112 199.127 165.162 197.054 165.454L197.472 168.425ZM174.567 119.012L174.487 122.01C174.261 122.005 173.968 121.911 173.721 121.697C173.497 121.503 173.403 121.292 173.368 121.157C173.307 120.925 173.359 120.67 173.556 120.485L175.605 122.677L177.653 124.869C179.183 123.439 179.628 121.376 179.171 119.634C178.691 117.806 177.104 116.078 174.646 116.013L174.567 119.012Z" fill="black"/>
<circle cx="188.5" cy="326.5" r="148.5" fill="white" stroke="black" stroke-width="6"/>
<path d="M97 210.223C106.899 206.282 130.818 200.764 147.303 210.223C154.245 214.206 158.278 217.77 160.47 220.738C163.681 225.086 163.952 232.241 166.986 236.714L170.939 242.541L177 252" stroke="black" stroke-width="6" stroke-linecap="round"/>
<path d="M79.5841 195.479L80.6578 198.369C82.0216 202.039 85.8415 204.182 89.6848 203.435L97.0346 202.004C97.6738 201.88 98.2842 201.683 98.8744 201.408C115.057 193.864 146.351 179.2 148.759 177.774C150.436 176.781 151.889 175.486 152.857 174.489C153.555 173.771 154.091 172.846 153.933 171.857C153.701 170.409 152.73 168.822 151.707 167.413C150.641 165.947 149.032 164.918 147.22 164.894C142.365 164.831 135.697 166.598 131.534 167.978C130.412 168.35 129.233 168.51 128.055 168.41C123.069 167.987 115.193 167.426 113.243 167.707C110.487 168.104 97.8598 173.903 93.339 177.134C89.8986 179.594 84.6243 185.617 82.0786 188.729C81.8308 189.032 81.5544 189.306 81.2473 189.548C79.4649 190.955 78.7932 193.351 79.5841 195.479Z" fill="white" stroke="black" stroke-width="6"/>
<circle cx="98.261" cy="199.076" r="6.31653" transform="rotate(-25.3442 98.261 199.076)" fill="white" stroke="black" stroke-width="6"/>
<circle cx="141.147" cy="179.764" r="6.28564" transform="rotate(-25.3442 141.147 179.764)" fill="white" stroke="black" stroke-width="6"/>
<path d="M184.5 181C183.5 194.5 167.5 192 184.5 201.5C201.5 211 211.5 197 217.5 205C222.3 211.4 232.5 215.333 237 216.5" stroke="black" stroke-width="6" stroke-linecap="round"/>
<path d="M260 260H130C201.797 260 260 201.797 260 130C260 58.203 201.797 0 130 0C58.203 0 0 58.203 0 130C0 201.797 58.203 260 130 260H0V0H260V260Z" fill="black"/>
</g>
<defs>
<clipPath id="clip0_22_748">
<rect width="260" height="260" fill="white"/>
</clipPath>
</defs>
</svg>
