<svg width="260" height="260" viewBox="0 0 260 260" fill="none" xmlns="http://www.w3.org/2000/svg">
<g clip-path="url(#clip0_25_831)">
<rect width="260" height="260" fill="white"/>
<rect width="260" height="260" fill="black"/>
<circle cx="130" cy="130" r="130" fill="#FF9500"/>
<path d="M260 260H130C201.797 260 260 201.797 260 130C260 58.203 201.797 0 130 0C58.203 0 0 58.203 0 130C0 201.797 58.203 260 130 260H0V0H260V260Z" fill="black"/>
<path d="M24 0H242C251.941 0 260 8.05888 260 18V242C260 251.941 251.941 260 242 260H24V0Z" fill="black"/>
<path d="M46.6719 126.377V127.902H41.2471V126.377H46.6719ZM43.0195 123.552H44.9209V135.121C44.9209 135.515 44.9674 135.812 45.0605 136.013C45.1608 136.213 45.2861 136.346 45.4365 136.41C45.5869 136.475 45.748 136.507 45.9199 136.507C46.0488 136.507 46.1921 136.493 46.3496 136.464C46.5072 136.428 46.6146 136.399 46.6719 136.378L46.6611 138C46.5322 138.05 46.3604 138.097 46.1455 138.14C45.9307 138.19 45.6585 138.215 45.3291 138.215C44.9209 138.215 44.5413 138.118 44.1904 137.925C43.8395 137.731 43.5566 137.409 43.3418 136.958C43.127 136.5 43.0195 135.884 43.0195 135.11V123.552ZM48.3262 132.747V131.641C48.3262 130.738 48.4408 129.947 48.6699 129.267C48.8991 128.579 49.2178 128.006 49.626 127.548C50.0342 127.09 50.5104 126.746 51.0547 126.517C51.599 126.28 52.1826 126.162 52.8057 126.162C53.443 126.162 54.0339 126.28 54.5781 126.517C55.1224 126.746 55.5986 127.09 56.0068 127.548C56.4222 128.006 56.7445 128.579 56.9736 129.267C57.2028 129.947 57.3174 130.738 57.3174 131.641V132.747C57.3174 133.649 57.2028 134.444 56.9736 135.132C56.7445 135.812 56.4258 136.382 56.0176 136.84C55.6094 137.298 55.1331 137.642 54.5889 137.871C54.0446 138.1 53.4574 138.215 52.8271 138.215C52.1969 138.215 51.6097 138.1 51.0654 137.871C50.5212 137.642 50.0413 137.298 49.626 136.84C49.2178 136.382 48.8991 135.812 48.6699 135.132C48.4408 134.444 48.3262 133.649 48.3262 132.747ZM50.2275 131.641V132.747C50.2275 133.384 50.292 133.943 50.4209 134.423C50.5498 134.903 50.7324 135.304 50.9688 135.626C51.2051 135.948 51.4808 136.192 51.7959 136.356C52.111 136.514 52.4548 136.593 52.8271 136.593C53.2568 136.593 53.6328 136.514 53.9551 136.356C54.2845 136.192 54.5566 135.948 54.7715 135.626C54.9863 135.304 55.1475 134.903 55.2549 134.423C55.3623 133.943 55.416 133.384 55.416 132.747V131.641C55.416 131.003 55.3516 130.448 55.2227 129.976C55.0938 129.496 54.9111 129.095 54.6748 128.772C54.4385 128.443 54.1592 128.2 53.8369 128.042C53.5218 127.877 53.1781 127.795 52.8057 127.795C52.4404 127.795 52.1003 127.877 51.7852 128.042C51.4701 128.2 51.1943 128.443 50.958 128.772C50.7288 129.095 50.5498 129.496 50.4209 129.976C50.292 130.448 50.2275 131.003 50.2275 131.641ZM66.0615 126.377H67.7695V138.097C67.7695 139.121 67.5905 139.966 67.2324 140.632C66.8815 141.298 66.391 141.788 65.7607 142.104C65.1305 142.426 64.4036 142.587 63.5801 142.587C63.2865 142.587 62.9176 142.533 62.4736 142.426C62.0296 142.318 61.5856 142.154 61.1416 141.932C60.6976 141.717 60.3324 141.445 60.0459 141.115L60.8301 139.794C61.2383 140.209 61.6715 140.507 62.1299 140.686C62.5882 140.865 63.0251 140.954 63.4404 140.954C63.9346 140.954 64.3643 140.865 64.7295 140.686C65.0947 140.507 65.3776 140.213 65.5781 139.805C65.7786 139.404 65.8789 138.867 65.8789 138.193V128.934L66.0615 126.377ZM59.3799 132.747V131.662C59.3799 130.702 59.4694 129.879 59.6484 129.191C59.8275 128.497 60.0853 127.927 60.4219 127.483C60.7656 127.032 61.1774 126.699 61.6572 126.484C62.137 126.27 62.6742 126.162 63.2686 126.162C63.8701 126.162 64.3893 126.284 64.8262 126.527C65.263 126.771 65.6247 127.125 65.9111 127.591C66.2048 128.049 66.4339 128.608 66.5986 129.267C66.7705 129.918 66.8887 130.656 66.9531 131.479V132.93C66.8887 133.746 66.7705 134.48 66.5986 135.132C66.4339 135.784 66.2012 136.339 65.9004 136.797C65.6068 137.255 65.2415 137.606 64.8047 137.85C64.3678 138.093 63.8486 138.215 63.2471 138.215C62.6598 138.215 62.1299 138.104 61.6572 137.882C61.1846 137.653 60.7764 137.312 60.4326 136.861C60.096 136.403 59.8346 135.834 59.6484 135.153C59.4694 134.466 59.3799 133.664 59.3799 132.747ZM61.2812 131.662V132.747C61.2812 133.392 61.3278 133.954 61.4209 134.434C61.514 134.906 61.6572 135.3 61.8506 135.615C62.0511 135.923 62.3053 136.152 62.6133 136.303C62.9284 136.453 63.3044 136.528 63.7412 136.528C64.2712 136.528 64.7044 136.399 65.041 136.142C65.3776 135.884 65.6462 135.544 65.8467 135.121C66.0544 134.691 66.2191 134.229 66.3408 133.735V130.685C66.2692 130.319 66.1654 129.968 66.0293 129.632C65.9004 129.288 65.7321 128.984 65.5244 128.719C65.3167 128.447 65.0661 128.232 64.7725 128.074C64.486 127.917 64.1494 127.838 63.7627 127.838C63.3258 127.838 62.9499 127.917 62.6348 128.074C62.3197 128.232 62.0618 128.468 61.8613 128.783C61.6608 129.098 61.514 129.496 61.4209 129.976C61.3278 130.455 61.2812 131.018 61.2812 131.662ZM76.9111 126.377H78.6191V138.097C78.6191 139.121 78.4401 139.966 78.082 140.632C77.7311 141.298 77.2406 141.788 76.6104 142.104C75.9801 142.426 75.2533 142.587 74.4297 142.587C74.1361 142.587 73.7673 142.533 73.3232 142.426C72.8792 142.318 72.4352 142.154 71.9912 141.932C71.5472 141.717 71.182 141.445 70.8955 141.115L71.6797 139.794C72.0879 140.209 72.5212 140.507 72.9795 140.686C73.4378 140.865 73.8747 140.954 74.29 140.954C74.7842 140.954 75.2139 140.865 75.5791 140.686C75.9443 140.507 76.2272 140.213 76.4277 139.805C76.6283 139.404 76.7285 138.867 76.7285 138.193V128.934L76.9111 126.377ZM70.2295 132.747V131.662C70.2295 130.702 70.319 129.879 70.498 129.191C70.6771 128.497 70.9349 127.927 71.2715 127.483C71.6152 127.032 72.027 126.699 72.5068 126.484C72.9867 126.27 73.5238 126.162 74.1182 126.162C74.7197 126.162 75.2389 126.284 75.6758 126.527C76.1126 126.771 76.4743 127.125 76.7607 127.591C77.0544 128.049 77.2835 128.608 77.4482 129.267C77.6201 129.918 77.7383 130.656 77.8027 131.479V132.93C77.7383 133.746 77.6201 134.48 77.4482 135.132C77.2835 135.784 77.0508 136.339 76.75 136.797C76.4564 137.255 76.0911 137.606 75.6543 137.85C75.2174 138.093 74.6982 138.215 74.0967 138.215C73.5094 138.215 72.9795 138.104 72.5068 137.882C72.0342 137.653 71.626 137.312 71.2822 136.861C70.9456 136.403 70.6842 135.834 70.498 135.153C70.319 134.466 70.2295 133.664 70.2295 132.747ZM72.1309 131.662V132.747C72.1309 133.392 72.1774 133.954 72.2705 134.434C72.3636 134.906 72.5068 135.3 72.7002 135.615C72.9007 135.923 73.1549 136.152 73.4629 136.303C73.778 136.453 74.154 136.528 74.5908 136.528C75.1208 136.528 75.554 136.399 75.8906 136.142C76.2272 135.884 76.4958 135.544 76.6963 135.121C76.904 134.691 77.0687 134.229 77.1904 133.735V130.685C77.1188 130.319 77.015 129.968 76.8789 129.632C76.75 129.288 76.5817 128.984 76.374 128.719C76.1663 128.447 75.9157 128.232 75.6221 128.074C75.3356 127.917 74.999 127.838 74.6123 127.838C74.1755 127.838 73.7995 127.917 73.4844 128.074C73.1693 128.232 72.9115 128.468 72.7109 128.783C72.5104 129.098 72.3636 129.496 72.2705 129.976C72.1774 130.455 72.1309 131.018 72.1309 131.662ZM83.5068 121.5V138H81.6162V121.5H83.5068ZM90.6719 138.215C89.9772 138.215 89.3506 138.111 88.792 137.903C88.2334 137.696 87.7572 137.381 87.3633 136.958C86.9694 136.528 86.6686 135.988 86.4609 135.336C86.2533 134.684 86.1494 133.914 86.1494 133.026V131.716C86.1494 130.692 86.2676 129.825 86.5039 129.116C86.7474 128.407 87.0732 127.838 87.4814 127.408C87.8896 126.971 88.3516 126.656 88.8672 126.463C89.3828 126.262 89.9128 126.162 90.457 126.162C91.1875 126.162 91.8105 126.28 92.3262 126.517C92.8418 126.753 93.2607 127.104 93.583 127.569C93.9053 128.035 94.1416 128.608 94.292 129.288C94.4495 129.968 94.5283 130.753 94.5283 131.641V132.747H87.2666V131.125H92.627V130.856C92.5983 130.255 92.516 129.725 92.3799 129.267C92.251 128.808 92.0361 128.45 91.7354 128.192C91.4346 127.927 91.0085 127.795 90.457 127.795C90.1061 127.795 89.7803 127.856 89.4795 127.978C89.1859 128.092 88.9316 128.296 88.7168 128.59C88.5091 128.876 88.3444 129.274 88.2227 129.782C88.1081 130.291 88.0508 130.935 88.0508 131.716V133.026C88.0508 133.649 88.1081 134.187 88.2227 134.638C88.3444 135.082 88.5199 135.451 88.749 135.744C88.9854 136.031 89.2718 136.245 89.6084 136.389C89.9521 136.525 90.3424 136.593 90.7793 136.593C91.4167 136.593 91.943 136.471 92.3584 136.228C92.7738 135.977 93.1354 135.658 93.4434 135.271L94.4424 136.464C94.2347 136.757 93.9626 137.04 93.626 137.312C93.2965 137.577 92.8883 137.796 92.4014 137.968C91.9215 138.132 91.3451 138.215 90.6719 138.215ZM105.904 136.593C106.284 136.593 106.628 136.518 106.936 136.367C107.251 136.21 107.508 135.966 107.709 135.637C107.91 135.3 108.024 134.863 108.053 134.326H109.836C109.807 135.1 109.61 135.78 109.245 136.367C108.887 136.947 108.414 137.402 107.827 137.731C107.247 138.054 106.606 138.215 105.904 138.215C105.152 138.215 104.497 138.093 103.938 137.85C103.387 137.606 102.929 137.255 102.563 136.797C102.205 136.331 101.937 135.769 101.758 135.11C101.579 134.444 101.489 133.689 101.489 132.844V131.533C101.489 130.688 101.579 129.936 101.758 129.277C101.937 128.611 102.205 128.049 102.563 127.591C102.929 127.125 103.387 126.771 103.938 126.527C104.497 126.284 105.152 126.162 105.904 126.162C106.692 126.162 107.372 126.33 107.945 126.667C108.525 126.996 108.977 127.476 109.299 128.106C109.628 128.729 109.807 129.485 109.836 130.373H108.053C108.024 129.8 107.92 129.324 107.741 128.944C107.562 128.558 107.319 128.271 107.011 128.085C106.703 127.892 106.334 127.795 105.904 127.795C105.403 127.795 104.988 127.884 104.658 128.063C104.336 128.235 104.082 128.486 103.896 128.815C103.709 129.145 103.577 129.539 103.498 129.997C103.426 130.455 103.391 130.967 103.391 131.533V132.844C103.391 133.41 103.426 133.925 103.498 134.391C103.577 134.849 103.706 135.243 103.885 135.572C104.071 135.902 104.329 136.156 104.658 136.335C104.988 136.507 105.403 136.593 105.904 136.593ZM114.079 121.5V138H112.188V121.5H114.079ZM119.128 126.377V138H117.237V126.377H119.128ZM117.13 123.294C117.13 122.972 117.219 122.7 117.398 122.478C117.577 122.256 117.846 122.145 118.204 122.145C118.562 122.145 118.831 122.256 119.01 122.478C119.196 122.7 119.289 122.972 119.289 123.294C119.289 123.602 119.196 123.867 119.01 124.089C118.831 124.304 118.562 124.411 118.204 124.411C117.846 124.411 117.577 124.304 117.398 124.089C117.219 123.867 117.13 123.602 117.13 123.294ZM124.037 128.687V138H122.146V126.377H123.93L124.037 128.687ZM123.65 131.748L122.77 131.716C122.762 130.921 122.841 130.187 123.006 129.514C123.171 128.833 123.418 128.243 123.747 127.741C124.084 127.24 124.503 126.853 125.004 126.581C125.512 126.302 126.103 126.162 126.776 126.162C127.22 126.162 127.632 126.241 128.012 126.398C128.398 126.549 128.735 126.789 129.021 127.118C129.308 127.448 129.53 127.87 129.688 128.386C129.852 128.901 129.935 129.524 129.935 130.255V138H128.033V130.352C128.033 129.743 127.951 129.256 127.786 128.891C127.629 128.525 127.403 128.26 127.109 128.096C126.816 127.924 126.465 127.838 126.057 127.838C125.591 127.838 125.201 127.942 124.886 128.149C124.578 128.357 124.331 128.644 124.145 129.009C123.965 129.374 123.837 129.793 123.758 130.266C123.686 130.731 123.65 131.225 123.65 131.748ZM129.913 130.652L128.646 131.061C128.638 130.423 128.717 129.811 128.882 129.224C129.047 128.636 129.29 128.114 129.612 127.655C129.942 127.197 130.35 126.835 130.837 126.57C131.324 126.298 131.89 126.162 132.534 126.162C133.064 126.162 133.533 126.244 133.941 126.409C134.35 126.574 134.693 126.828 134.973 127.172C135.259 127.508 135.474 127.942 135.617 128.472C135.76 129.002 135.832 129.632 135.832 130.362V138H133.931V130.341C133.931 129.689 133.848 129.184 133.684 128.826C133.526 128.461 133.3 128.207 133.007 128.063C132.713 127.913 132.362 127.838 131.954 127.838C131.625 127.838 131.331 127.913 131.073 128.063C130.823 128.214 130.611 128.422 130.439 128.687C130.268 128.944 130.135 129.242 130.042 129.578C129.956 129.915 129.913 130.273 129.913 130.652ZM144.394 136.013V129.707C144.394 129.249 144.322 128.88 144.179 128.601C144.043 128.321 143.835 128.117 143.556 127.988C143.284 127.859 142.94 127.795 142.524 127.795C142.123 127.795 141.776 127.877 141.482 128.042C141.196 128.207 140.974 128.425 140.816 128.697C140.666 128.969 140.591 129.27 140.591 129.6H138.689C138.689 129.184 138.779 128.772 138.958 128.364C139.144 127.956 139.409 127.587 139.753 127.258C140.097 126.921 140.508 126.656 140.988 126.463C141.475 126.262 142.02 126.162 142.621 126.162C143.337 126.162 143.971 126.28 144.522 126.517C145.074 126.746 145.507 127.122 145.822 127.645C146.137 128.167 146.295 128.862 146.295 129.729V135.465C146.295 135.852 146.324 136.263 146.381 136.7C146.445 137.137 146.535 137.513 146.649 137.828V138H144.684C144.59 137.771 144.519 137.466 144.469 137.087C144.419 136.7 144.394 136.342 144.394 136.013ZM144.694 130.953L144.716 132.35H143.395C142.943 132.35 142.532 132.4 142.159 132.5C141.794 132.6 141.479 132.747 141.214 132.94C140.949 133.127 140.745 133.359 140.602 133.639C140.465 133.918 140.397 134.237 140.397 134.595C140.397 135.06 140.462 135.433 140.591 135.712C140.72 135.984 140.913 136.181 141.171 136.303C141.429 136.424 141.755 136.485 142.148 136.485C142.628 136.485 143.051 136.374 143.416 136.152C143.781 135.93 144.064 135.662 144.265 135.347C144.472 135.032 144.569 134.738 144.555 134.466L144.974 135.357C144.945 135.637 144.852 135.941 144.694 136.271C144.544 136.593 144.333 136.904 144.061 137.205C143.788 137.499 143.466 137.742 143.094 137.936C142.729 138.122 142.317 138.215 141.858 138.215C141.185 138.215 140.594 138.086 140.086 137.828C139.585 137.57 139.194 137.191 138.915 136.689C138.636 136.188 138.496 135.569 138.496 134.831C138.496 134.272 138.593 133.757 138.786 133.284C138.979 132.812 139.266 132.403 139.646 132.06C140.025 131.709 140.501 131.437 141.074 131.243C141.654 131.05 142.324 130.953 143.083 130.953H144.694ZM153.492 126.377V127.902H148.067V126.377H153.492ZM149.84 123.552H151.741V135.121C151.741 135.515 151.788 135.812 151.881 136.013C151.981 136.213 152.106 136.346 152.257 136.41C152.407 136.475 152.568 136.507 152.74 136.507C152.869 136.507 153.012 136.493 153.17 136.464C153.327 136.428 153.435 136.399 153.492 136.378L153.481 138C153.353 138.05 153.181 138.097 152.966 138.14C152.751 138.19 152.479 138.215 152.149 138.215C151.741 138.215 151.362 138.118 151.011 137.925C150.66 137.731 150.377 137.409 150.162 136.958C149.947 136.5 149.84 135.884 149.84 135.11V123.552ZM159.916 138.215C159.221 138.215 158.595 138.111 158.036 137.903C157.478 137.696 157.001 137.381 156.607 136.958C156.214 136.528 155.913 135.988 155.705 135.336C155.497 134.684 155.394 133.914 155.394 133.026V131.716C155.394 130.692 155.512 129.825 155.748 129.116C155.992 128.407 156.317 127.838 156.726 127.408C157.134 126.971 157.596 126.656 158.111 126.463C158.627 126.262 159.157 126.162 159.701 126.162C160.432 126.162 161.055 126.28 161.57 126.517C162.086 126.753 162.505 127.104 162.827 127.569C163.149 128.035 163.386 128.608 163.536 129.288C163.694 129.968 163.772 130.753 163.772 131.641V132.747H156.511V131.125H161.871V130.856C161.842 130.255 161.76 129.725 161.624 129.267C161.495 128.808 161.28 128.45 160.979 128.192C160.679 127.927 160.253 127.795 159.701 127.795C159.35 127.795 159.024 127.856 158.724 127.978C158.43 128.092 158.176 128.296 157.961 128.59C157.753 128.876 157.589 129.274 157.467 129.782C157.352 130.291 157.295 130.935 157.295 131.716V133.026C157.295 133.649 157.352 134.187 157.467 134.638C157.589 135.082 157.764 135.451 157.993 135.744C158.229 136.031 158.516 136.245 158.853 136.389C159.196 136.525 159.587 136.593 160.023 136.593C160.661 136.593 161.187 136.471 161.603 136.228C162.018 135.977 162.38 135.658 162.688 135.271L163.687 136.464C163.479 136.757 163.207 137.04 162.87 137.312C162.541 137.577 162.132 137.796 161.646 137.968C161.166 138.132 160.589 138.215 159.916 138.215Z" fill="white"/>
<circle cx="12" cy="130" r="6" fill="black"/>
</g>
<defs>
<clipPath id="clip0_25_831">
<rect width="260" height="260" fill="white"/>
</clipPath>
</defs>
</svg>
