<svg width="200" height="228" viewBox="0 0 200 228" fill="none" xmlns="http://www.w3.org/2000/svg">
<g clip-path="url(#clip0_22_501)">
<rect width="200" height="228" fill="white"/>
<rect width="200" height="228" fill="black"/>
<rect width="200" height="228" rx="18" fill="#FF9500"/>
<path d="M25 0H182C191.941 0 200 8.05887 200 18V210C200 219.941 191.941 228 182 228H25V0Z" fill="black"/>
<path d="M45.3301 104.5V121H43.4287V104.5H45.3301ZM44.8682 114.748L44.0947 114.716C44.0876 113.921 44.1771 113.187 44.3633 112.514C44.5566 111.833 44.8288 111.243 45.1797 110.741C45.5378 110.24 45.9639 109.853 46.458 109.581C46.9521 109.302 47.5 109.162 48.1016 109.162C48.5742 109.162 49.0039 109.241 49.3906 109.398C49.7773 109.549 50.1068 109.792 50.3789 110.129C50.651 110.465 50.8587 110.902 51.002 111.439C51.1523 111.969 51.2275 112.618 51.2275 113.384V121H49.3262V113.362C49.3262 112.754 49.2581 112.267 49.1221 111.901C48.9932 111.529 48.7926 111.26 48.5205 111.096C48.2555 110.924 47.9189 110.838 47.5107 110.838C47.1383 110.838 46.791 110.942 46.4688 111.149C46.1465 111.357 45.8636 111.644 45.6201 112.009C45.3838 112.374 45.1976 112.793 45.0615 113.266C44.9326 113.731 44.8682 114.225 44.8682 114.748ZM53.666 115.747V114.641C53.666 113.738 53.7806 112.947 54.0098 112.267C54.2389 111.579 54.5576 111.006 54.9658 110.548C55.374 110.09 55.8503 109.746 56.3945 109.517C56.9388 109.28 57.5225 109.162 58.1455 109.162C58.7829 109.162 59.3737 109.28 59.918 109.517C60.4622 109.746 60.9385 110.09 61.3467 110.548C61.762 111.006 62.0843 111.579 62.3135 112.267C62.5426 112.947 62.6572 113.738 62.6572 114.641V115.747C62.6572 116.649 62.5426 117.444 62.3135 118.132C62.0843 118.812 61.7656 119.382 61.3574 119.84C60.9492 120.298 60.473 120.642 59.9287 120.871C59.3844 121.1 58.7972 121.215 58.167 121.215C57.5368 121.215 56.9495 121.1 56.4053 120.871C55.861 120.642 55.3812 120.298 54.9658 119.84C54.5576 119.382 54.2389 118.812 54.0098 118.132C53.7806 117.444 53.666 116.649 53.666 115.747ZM55.5674 114.641V115.747C55.5674 116.384 55.6318 116.943 55.7607 117.423C55.8896 117.903 56.0723 118.304 56.3086 118.626C56.5449 118.948 56.8206 119.192 57.1357 119.356C57.4508 119.514 57.7946 119.593 58.167 119.593C58.5967 119.593 58.9727 119.514 59.2949 119.356C59.6243 119.192 59.8965 118.948 60.1113 118.626C60.3262 118.304 60.4873 117.903 60.5947 117.423C60.7021 116.943 60.7559 116.384 60.7559 115.747V114.641C60.7559 114.003 60.6914 113.448 60.5625 112.976C60.4336 112.496 60.251 112.095 60.0146 111.772C59.7783 111.443 59.499 111.2 59.1768 111.042C58.8617 110.877 58.5179 110.795 58.1455 110.795C57.7803 110.795 57.4401 110.877 57.125 111.042C56.8099 111.2 56.5342 111.443 56.2979 111.772C56.0687 112.095 55.8896 112.496 55.7607 112.976C55.6318 113.448 55.5674 114.003 55.5674 114.641ZM67.0078 111.858V121H65.1064V109.377H66.9004L67.0078 111.858ZM66.5459 114.748L65.7725 114.716C65.7653 113.921 65.8548 113.187 66.041 112.514C66.2344 111.833 66.5065 111.243 66.8574 110.741C67.2155 110.24 67.6416 109.853 68.1357 109.581C68.6299 109.302 69.1777 109.162 69.7793 109.162C70.252 109.162 70.6816 109.241 71.0684 109.398C71.4551 109.549 71.7845 109.792 72.0566 110.129C72.3288 110.465 72.5365 110.902 72.6797 111.439C72.8301 111.969 72.9053 112.618 72.9053 113.384V121H71.0039V113.362C71.0039 112.754 70.9359 112.267 70.7998 111.901C70.6709 111.529 70.4704 111.26 70.1982 111.096C69.9333 110.924 69.5967 110.838 69.1885 110.838C68.8161 110.838 68.4688 110.942 68.1465 111.149C67.8242 111.357 67.5413 111.644 67.2979 112.009C67.0615 112.374 66.8753 112.793 66.7393 113.266C66.6104 113.731 66.5459 114.225 66.5459 114.748ZM77.6748 104.5V121H75.7734V104.5H77.6748ZM83.5723 109.377L79.4365 114.802L76.8799 117.745L76.751 115.629L78.5127 113.201L81.2842 109.377H83.5723ZM81.832 121L78.5664 115.457L79.5439 113.685L84.0449 121H81.832ZM99.2451 112.61V114.479H90.2432V112.61H99.2451ZM95.7109 108.045V119.432H93.8096V108.045H95.7109ZM109.461 121H107.56V108.152C107.56 107.314 107.696 106.609 107.968 106.036C108.24 105.456 108.637 105.019 109.16 104.726C109.683 104.425 110.313 104.274 111.051 104.274C111.309 104.274 111.642 104.307 112.05 104.371C112.458 104.436 112.898 104.518 113.371 104.618C113.844 104.718 114.302 104.822 114.746 104.93L113.897 106.369C113.303 106.24 112.777 106.144 112.318 106.079C111.867 106.007 111.495 105.972 111.201 105.972C110.822 105.972 110.499 106.058 110.234 106.229C109.977 106.394 109.783 106.638 109.654 106.96C109.525 107.282 109.461 107.68 109.461 108.152V121ZM112.855 121V104.93H114.746V121H112.855ZM111.438 109.377V110.902H106.045V109.377H111.438ZM123.522 119.013V112.707C123.522 112.249 123.451 111.88 123.308 111.601C123.172 111.321 122.964 111.117 122.685 110.988C122.412 110.859 122.069 110.795 121.653 110.795C121.252 110.795 120.905 110.877 120.611 111.042C120.325 111.207 120.103 111.425 119.945 111.697C119.795 111.969 119.72 112.27 119.72 112.6H117.818C117.818 112.184 117.908 111.772 118.087 111.364C118.273 110.956 118.538 110.587 118.882 110.258C119.226 109.921 119.637 109.656 120.117 109.463C120.604 109.262 121.148 109.162 121.75 109.162C122.466 109.162 123.1 109.28 123.651 109.517C124.203 109.746 124.636 110.122 124.951 110.645C125.266 111.167 125.424 111.862 125.424 112.729V118.465C125.424 118.852 125.452 119.263 125.51 119.7C125.574 120.137 125.664 120.513 125.778 120.828V121H123.812C123.719 120.771 123.648 120.466 123.598 120.087C123.548 119.7 123.522 119.342 123.522 119.013ZM123.823 113.953L123.845 115.35H122.523C122.072 115.35 121.66 115.4 121.288 115.5C120.923 115.6 120.608 115.747 120.343 115.94C120.078 116.127 119.874 116.359 119.73 116.639C119.594 116.918 119.526 117.237 119.526 117.595C119.526 118.06 119.591 118.433 119.72 118.712C119.849 118.984 120.042 119.181 120.3 119.303C120.558 119.424 120.883 119.485 121.277 119.485C121.757 119.485 122.18 119.374 122.545 119.152C122.91 118.93 123.193 118.662 123.394 118.347C123.601 118.032 123.698 117.738 123.684 117.466L124.103 118.357C124.074 118.637 123.981 118.941 123.823 119.271C123.673 119.593 123.462 119.904 123.189 120.205C122.917 120.499 122.595 120.742 122.223 120.936C121.857 121.122 121.446 121.215 120.987 121.215C120.314 121.215 119.723 121.086 119.215 120.828C118.714 120.57 118.323 120.191 118.044 119.689C117.765 119.188 117.625 118.569 117.625 117.831C117.625 117.272 117.722 116.757 117.915 116.284C118.108 115.812 118.395 115.403 118.774 115.06C119.154 114.709 119.63 114.437 120.203 114.243C120.783 114.05 121.453 113.953 122.212 113.953H123.823ZM134.018 118.024C134.018 117.731 133.946 117.473 133.803 117.251C133.66 117.029 133.423 116.814 133.094 116.606C132.771 116.399 132.335 116.177 131.783 115.94C131.246 115.718 130.763 115.5 130.333 115.285C129.91 115.063 129.552 114.823 129.259 114.565C128.965 114.308 128.74 114.01 128.582 113.674C128.432 113.33 128.356 112.925 128.356 112.46C128.356 111.994 128.442 111.565 128.614 111.171C128.793 110.77 129.044 110.419 129.366 110.118C129.688 109.817 130.075 109.585 130.526 109.42C130.978 109.248 131.482 109.162 132.041 109.162C132.836 109.162 133.513 109.316 134.071 109.624C134.63 109.932 135.056 110.354 135.35 110.892C135.65 111.422 135.801 112.02 135.801 112.686H133.91C133.91 112.363 133.839 112.059 133.695 111.772C133.552 111.486 133.341 111.253 133.062 111.074C132.782 110.888 132.442 110.795 132.041 110.795C131.618 110.795 131.275 110.87 131.01 111.021C130.745 111.171 130.551 111.368 130.43 111.611C130.315 111.848 130.258 112.109 130.258 112.396C130.258 112.61 130.286 112.797 130.344 112.954C130.408 113.104 130.516 113.248 130.666 113.384C130.816 113.513 131.021 113.649 131.278 113.792C131.543 113.928 131.88 114.086 132.288 114.265C133.076 114.573 133.738 114.884 134.275 115.199C134.812 115.514 135.221 115.883 135.5 116.306C135.779 116.728 135.919 117.251 135.919 117.874C135.919 118.382 135.826 118.844 135.64 119.26C135.461 119.668 135.203 120.019 134.866 120.312C134.53 120.606 134.125 120.832 133.652 120.989C133.187 121.14 132.664 121.215 132.084 121.215C131.21 121.215 130.469 121.043 129.86 120.699C129.259 120.348 128.8 119.894 128.485 119.335C128.177 118.769 128.023 118.164 128.023 117.52H129.925C129.946 118.064 130.068 118.486 130.29 118.787C130.519 119.088 130.795 119.296 131.117 119.41C131.439 119.525 131.762 119.582 132.084 119.582C132.507 119.582 132.861 119.521 133.147 119.399C133.434 119.271 133.649 119.088 133.792 118.852C133.942 118.615 134.018 118.34 134.018 118.024ZM140.312 104.5V121H138.411V104.5H140.312ZM139.851 114.748L139.077 114.716C139.07 113.921 139.16 113.187 139.346 112.514C139.539 111.833 139.811 111.243 140.162 110.741C140.52 110.24 140.946 109.853 141.44 109.581C141.935 109.302 142.482 109.162 143.084 109.162C143.557 109.162 143.986 109.241 144.373 109.398C144.76 109.549 145.089 109.792 145.361 110.129C145.633 110.465 145.841 110.902 145.984 111.439C146.135 111.969 146.21 112.618 146.21 113.384V121H144.309V113.362C144.309 112.754 144.241 112.267 144.104 111.901C143.976 111.529 143.775 111.26 143.503 111.096C143.238 110.924 142.901 110.838 142.493 110.838C142.121 110.838 141.773 110.942 141.451 111.149C141.129 111.357 140.846 111.644 140.603 112.009C140.366 112.374 140.18 112.793 140.044 113.266C139.915 113.731 139.851 114.225 139.851 114.748Z" fill="white"/>
<circle cx="13" cy="114" r="6" fill="black"/>
</g>
<defs>
<clipPath id="clip0_22_501">
<rect width="200" height="228" fill="white"/>
</clipPath>
</defs>
</svg>
