<svg width="200" height="228" viewBox="0 0 200 228" fill="none" xmlns="http://www.w3.org/2000/svg">
<g clip-path="url(#clip0_22_494)">
<rect width="200" height="228" fill="white"/>
<rect width="200" height="228" fill="black"/>
<rect width="200" height="228" rx="18" fill="#FF9500"/>
<path d="M25 0H182C191.941 0 200 8.05887 200 18V210C200 219.941 191.941 228 182 228H25V0Z" fill="black"/>
<path d="M47.6719 109.377V110.902H42.2471V109.377H47.6719ZM44.0195 106.552H45.9209V118.121C45.9209 118.515 45.9674 118.812 46.0605 119.013C46.1608 119.213 46.2861 119.346 46.4365 119.41C46.5869 119.475 46.748 119.507 46.9199 119.507C47.0488 119.507 47.1921 119.493 47.3496 119.464C47.5072 119.428 47.6146 119.399 47.6719 119.378L47.6611 121C47.5322 121.05 47.3604 121.097 47.1455 121.14C46.9307 121.19 46.6585 121.215 46.3291 121.215C45.9209 121.215 45.5413 121.118 45.1904 120.925C44.8395 120.731 44.5566 120.409 44.3418 119.958C44.127 119.5 44.0195 118.884 44.0195 118.11V106.552ZM49.3262 115.747V114.641C49.3262 113.738 49.4408 112.947 49.6699 112.267C49.8991 111.579 50.2178 111.006 50.626 110.548C51.0342 110.09 51.5104 109.746 52.0547 109.517C52.599 109.28 53.1826 109.162 53.8057 109.162C54.443 109.162 55.0339 109.28 55.5781 109.517C56.1224 109.746 56.5986 110.09 57.0068 110.548C57.4222 111.006 57.7445 111.579 57.9736 112.267C58.2028 112.947 58.3174 113.738 58.3174 114.641V115.747C58.3174 116.649 58.2028 117.444 57.9736 118.132C57.7445 118.812 57.4258 119.382 57.0176 119.84C56.6094 120.298 56.1331 120.642 55.5889 120.871C55.0446 121.1 54.4574 121.215 53.8271 121.215C53.1969 121.215 52.6097 121.1 52.0654 120.871C51.5212 120.642 51.0413 120.298 50.626 119.84C50.2178 119.382 49.8991 118.812 49.6699 118.132C49.4408 117.444 49.3262 116.649 49.3262 115.747ZM51.2275 114.641V115.747C51.2275 116.384 51.292 116.943 51.4209 117.423C51.5498 117.903 51.7324 118.304 51.9688 118.626C52.2051 118.948 52.4808 119.192 52.7959 119.356C53.111 119.514 53.4548 119.593 53.8271 119.593C54.2568 119.593 54.6328 119.514 54.9551 119.356C55.2845 119.192 55.5566 118.948 55.7715 118.626C55.9863 118.304 56.1475 117.903 56.2549 117.423C56.3623 116.943 56.416 116.384 56.416 115.747V114.641C56.416 114.003 56.3516 113.448 56.2227 112.976C56.0938 112.496 55.9111 112.095 55.6748 111.772C55.4385 111.443 55.1592 111.2 54.8369 111.042C54.5218 110.877 54.1781 110.795 53.8057 110.795C53.4404 110.795 53.1003 110.877 52.7852 111.042C52.4701 111.2 52.1943 111.443 51.958 111.772C51.7288 112.095 51.5498 112.496 51.4209 112.976C51.292 113.448 51.2275 114.003 51.2275 114.641ZM67.0615 109.377H68.7695V121.097C68.7695 122.121 68.5905 122.966 68.2324 123.632C67.8815 124.298 67.391 124.788 66.7607 125.104C66.1305 125.426 65.4036 125.587 64.5801 125.587C64.2865 125.587 63.9176 125.533 63.4736 125.426C63.0296 125.318 62.5856 125.154 62.1416 124.932C61.6976 124.717 61.3324 124.445 61.0459 124.115L61.8301 122.794C62.2383 123.209 62.6715 123.507 63.1299 123.686C63.5882 123.865 64.0251 123.954 64.4404 123.954C64.9346 123.954 65.3643 123.865 65.7295 123.686C66.0947 123.507 66.3776 123.213 66.5781 122.805C66.7786 122.404 66.8789 121.867 66.8789 121.193V111.934L67.0615 109.377ZM60.3799 115.747V114.662C60.3799 113.702 60.4694 112.879 60.6484 112.191C60.8275 111.497 61.0853 110.927 61.4219 110.483C61.7656 110.032 62.1774 109.699 62.6572 109.484C63.137 109.27 63.6742 109.162 64.2686 109.162C64.8701 109.162 65.3893 109.284 65.8262 109.527C66.263 109.771 66.6247 110.125 66.9111 110.591C67.2048 111.049 67.4339 111.608 67.5986 112.267C67.7705 112.918 67.8887 113.656 67.9531 114.479V115.93C67.8887 116.746 67.7705 117.48 67.5986 118.132C67.4339 118.784 67.2012 119.339 66.9004 119.797C66.6068 120.255 66.2415 120.606 65.8047 120.85C65.3678 121.093 64.8486 121.215 64.2471 121.215C63.6598 121.215 63.1299 121.104 62.6572 120.882C62.1846 120.653 61.7764 120.312 61.4326 119.861C61.096 119.403 60.8346 118.834 60.6484 118.153C60.4694 117.466 60.3799 116.664 60.3799 115.747ZM62.2812 114.662V115.747C62.2812 116.392 62.3278 116.954 62.4209 117.434C62.514 117.906 62.6572 118.3 62.8506 118.615C63.0511 118.923 63.3053 119.152 63.6133 119.303C63.9284 119.453 64.3044 119.528 64.7412 119.528C65.2712 119.528 65.7044 119.399 66.041 119.142C66.3776 118.884 66.6462 118.544 66.8467 118.121C67.0544 117.691 67.2191 117.229 67.3408 116.735V113.685C67.2692 113.319 67.1654 112.968 67.0293 112.632C66.9004 112.288 66.7321 111.984 66.5244 111.719C66.3167 111.447 66.0661 111.232 65.7725 111.074C65.486 110.917 65.1494 110.838 64.7627 110.838C64.3258 110.838 63.9499 110.917 63.6348 111.074C63.3197 111.232 63.0618 111.468 62.8613 111.783C62.6608 112.098 62.514 112.496 62.4209 112.976C62.3278 113.455 62.2812 114.018 62.2812 114.662ZM77.9111 109.377H79.6191V121.097C79.6191 122.121 79.4401 122.966 79.082 123.632C78.7311 124.298 78.2406 124.788 77.6104 125.104C76.9801 125.426 76.2533 125.587 75.4297 125.587C75.1361 125.587 74.7673 125.533 74.3232 125.426C73.8792 125.318 73.4352 125.154 72.9912 124.932C72.5472 124.717 72.182 124.445 71.8955 124.115L72.6797 122.794C73.0879 123.209 73.5212 123.507 73.9795 123.686C74.4378 123.865 74.8747 123.954 75.29 123.954C75.7842 123.954 76.2139 123.865 76.5791 123.686C76.9443 123.507 77.2272 123.213 77.4277 122.805C77.6283 122.404 77.7285 121.867 77.7285 121.193V111.934L77.9111 109.377ZM71.2295 115.747V114.662C71.2295 113.702 71.319 112.879 71.498 112.191C71.6771 111.497 71.9349 110.927 72.2715 110.483C72.6152 110.032 73.027 109.699 73.5068 109.484C73.9867 109.27 74.5238 109.162 75.1182 109.162C75.7197 109.162 76.2389 109.284 76.6758 109.527C77.1126 109.771 77.4743 110.125 77.7607 110.591C78.0544 111.049 78.2835 111.608 78.4482 112.267C78.6201 112.918 78.7383 113.656 78.8027 114.479V115.93C78.7383 116.746 78.6201 117.48 78.4482 118.132C78.2835 118.784 78.0508 119.339 77.75 119.797C77.4564 120.255 77.0911 120.606 76.6543 120.85C76.2174 121.093 75.6982 121.215 75.0967 121.215C74.5094 121.215 73.9795 121.104 73.5068 120.882C73.0342 120.653 72.626 120.312 72.2822 119.861C71.9456 119.403 71.6842 118.834 71.498 118.153C71.319 117.466 71.2295 116.664 71.2295 115.747ZM73.1309 114.662V115.747C73.1309 116.392 73.1774 116.954 73.2705 117.434C73.3636 117.906 73.5068 118.3 73.7002 118.615C73.9007 118.923 74.1549 119.152 74.4629 119.303C74.778 119.453 75.154 119.528 75.5908 119.528C76.1208 119.528 76.554 119.399 76.8906 119.142C77.2272 118.884 77.4958 118.544 77.6963 118.121C77.904 117.691 78.0687 117.229 78.1904 116.735V113.685C78.1188 113.319 78.015 112.968 77.8789 112.632C77.75 112.288 77.5817 111.984 77.374 111.719C77.1663 111.447 76.9157 111.232 76.6221 111.074C76.3356 110.917 75.999 110.838 75.6123 110.838C75.1755 110.838 74.7995 110.917 74.4844 111.074C74.1693 111.232 73.9115 111.468 73.7109 111.783C73.5104 112.098 73.3636 112.496 73.2705 112.976C73.1774 113.455 73.1309 114.018 73.1309 114.662ZM84.5068 104.5V121H82.6162V104.5H84.5068ZM91.6719 121.215C90.9772 121.215 90.3506 121.111 89.792 120.903C89.2334 120.696 88.7572 120.381 88.3633 119.958C87.9694 119.528 87.6686 118.988 87.4609 118.336C87.2533 117.684 87.1494 116.914 87.1494 116.026V114.716C87.1494 113.692 87.2676 112.825 87.5039 112.116C87.7474 111.407 88.0732 110.838 88.4814 110.408C88.8896 109.971 89.3516 109.656 89.8672 109.463C90.3828 109.262 90.9128 109.162 91.457 109.162C92.1875 109.162 92.8105 109.28 93.3262 109.517C93.8418 109.753 94.2607 110.104 94.583 110.569C94.9053 111.035 95.1416 111.608 95.292 112.288C95.4495 112.968 95.5283 113.753 95.5283 114.641V115.747H88.2666V114.125H93.627V113.856C93.5983 113.255 93.516 112.725 93.3799 112.267C93.251 111.808 93.0361 111.45 92.7354 111.192C92.4346 110.927 92.0085 110.795 91.457 110.795C91.1061 110.795 90.7803 110.856 90.4795 110.978C90.1859 111.092 89.9316 111.296 89.7168 111.59C89.5091 111.876 89.3444 112.274 89.2227 112.782C89.1081 113.291 89.0508 113.935 89.0508 114.716V116.026C89.0508 116.649 89.1081 117.187 89.2227 117.638C89.3444 118.082 89.5199 118.451 89.749 118.744C89.9854 119.031 90.2718 119.245 90.6084 119.389C90.9521 119.525 91.3424 119.593 91.7793 119.593C92.4167 119.593 92.943 119.471 93.3584 119.228C93.7738 118.977 94.1354 118.658 94.4434 118.271L95.4424 119.464C95.2347 119.757 94.9626 120.04 94.626 120.312C94.2965 120.577 93.8883 120.796 93.4014 120.968C92.9215 121.132 92.3451 121.215 91.6719 121.215ZM106.904 119.593C107.284 119.593 107.628 119.518 107.936 119.367C108.251 119.21 108.508 118.966 108.709 118.637C108.91 118.3 109.024 117.863 109.053 117.326H110.836C110.807 118.1 110.61 118.78 110.245 119.367C109.887 119.947 109.414 120.402 108.827 120.731C108.247 121.054 107.606 121.215 106.904 121.215C106.152 121.215 105.497 121.093 104.938 120.85C104.387 120.606 103.929 120.255 103.563 119.797C103.205 119.331 102.937 118.769 102.758 118.11C102.579 117.444 102.489 116.689 102.489 115.844V114.533C102.489 113.688 102.579 112.936 102.758 112.277C102.937 111.611 103.205 111.049 103.563 110.591C103.929 110.125 104.387 109.771 104.938 109.527C105.497 109.284 106.152 109.162 106.904 109.162C107.692 109.162 108.372 109.33 108.945 109.667C109.525 109.996 109.977 110.476 110.299 111.106C110.628 111.729 110.807 112.485 110.836 113.373H109.053C109.024 112.8 108.92 112.324 108.741 111.944C108.562 111.558 108.319 111.271 108.011 111.085C107.703 110.892 107.334 110.795 106.904 110.795C106.403 110.795 105.988 110.884 105.658 111.063C105.336 111.235 105.082 111.486 104.896 111.815C104.709 112.145 104.577 112.539 104.498 112.997C104.426 113.455 104.391 113.967 104.391 114.533V115.844C104.391 116.41 104.426 116.925 104.498 117.391C104.577 117.849 104.706 118.243 104.885 118.572C105.071 118.902 105.329 119.156 105.658 119.335C105.988 119.507 106.403 119.593 106.904 119.593ZM115.079 104.5V121H113.188V104.5H115.079ZM120.128 109.377V121H118.237V109.377H120.128ZM118.13 106.294C118.13 105.972 118.219 105.7 118.398 105.478C118.577 105.256 118.846 105.145 119.204 105.145C119.562 105.145 119.831 105.256 120.01 105.478C120.196 105.7 120.289 105.972 120.289 106.294C120.289 106.602 120.196 106.867 120.01 107.089C119.831 107.304 119.562 107.411 119.204 107.411C118.846 107.411 118.577 107.304 118.398 107.089C118.219 106.867 118.13 106.602 118.13 106.294ZM125.037 111.687V121H123.146V109.377H124.93L125.037 111.687ZM124.65 114.748L123.77 114.716C123.762 113.921 123.841 113.187 124.006 112.514C124.171 111.833 124.418 111.243 124.747 110.741C125.084 110.24 125.503 109.853 126.004 109.581C126.512 109.302 127.103 109.162 127.776 109.162C128.22 109.162 128.632 109.241 129.012 109.398C129.398 109.549 129.735 109.789 130.021 110.118C130.308 110.448 130.53 110.87 130.688 111.386C130.852 111.901 130.935 112.524 130.935 113.255V121H129.033V113.352C129.033 112.743 128.951 112.256 128.786 111.891C128.629 111.525 128.403 111.26 128.109 111.096C127.816 110.924 127.465 110.838 127.057 110.838C126.591 110.838 126.201 110.942 125.886 111.149C125.578 111.357 125.331 111.644 125.145 112.009C124.965 112.374 124.837 112.793 124.758 113.266C124.686 113.731 124.65 114.225 124.65 114.748ZM130.913 113.652L129.646 114.061C129.638 113.423 129.717 112.811 129.882 112.224C130.047 111.636 130.29 111.114 130.612 110.655C130.942 110.197 131.35 109.835 131.837 109.57C132.324 109.298 132.89 109.162 133.534 109.162C134.064 109.162 134.533 109.244 134.941 109.409C135.35 109.574 135.693 109.828 135.973 110.172C136.259 110.508 136.474 110.942 136.617 111.472C136.76 112.002 136.832 112.632 136.832 113.362V121H134.931V113.341C134.931 112.689 134.848 112.184 134.684 111.826C134.526 111.461 134.3 111.207 134.007 111.063C133.713 110.913 133.362 110.838 132.954 110.838C132.625 110.838 132.331 110.913 132.073 111.063C131.823 111.214 131.611 111.422 131.439 111.687C131.268 111.944 131.135 112.242 131.042 112.578C130.956 112.915 130.913 113.273 130.913 113.652ZM145.394 119.013V112.707C145.394 112.249 145.322 111.88 145.179 111.601C145.043 111.321 144.835 111.117 144.556 110.988C144.284 110.859 143.94 110.795 143.524 110.795C143.123 110.795 142.776 110.877 142.482 111.042C142.196 111.207 141.974 111.425 141.816 111.697C141.666 111.969 141.591 112.27 141.591 112.6H139.689C139.689 112.184 139.779 111.772 139.958 111.364C140.144 110.956 140.409 110.587 140.753 110.258C141.097 109.921 141.508 109.656 141.988 109.463C142.475 109.262 143.02 109.162 143.621 109.162C144.337 109.162 144.971 109.28 145.522 109.517C146.074 109.746 146.507 110.122 146.822 110.645C147.137 111.167 147.295 111.862 147.295 112.729V118.465C147.295 118.852 147.324 119.263 147.381 119.7C147.445 120.137 147.535 120.513 147.649 120.828V121H145.684C145.59 120.771 145.519 120.466 145.469 120.087C145.419 119.7 145.394 119.342 145.394 119.013ZM145.694 113.953L145.716 115.35H144.395C143.943 115.35 143.532 115.4 143.159 115.5C142.794 115.6 142.479 115.747 142.214 115.94C141.949 116.127 141.745 116.359 141.602 116.639C141.465 116.918 141.397 117.237 141.397 117.595C141.397 118.06 141.462 118.433 141.591 118.712C141.72 118.984 141.913 119.181 142.171 119.303C142.429 119.424 142.755 119.485 143.148 119.485C143.628 119.485 144.051 119.374 144.416 119.152C144.781 118.93 145.064 118.662 145.265 118.347C145.472 118.032 145.569 117.738 145.555 117.466L145.974 118.357C145.945 118.637 145.852 118.941 145.694 119.271C145.544 119.593 145.333 119.904 145.061 120.205C144.788 120.499 144.466 120.742 144.094 120.936C143.729 121.122 143.317 121.215 142.858 121.215C142.185 121.215 141.594 121.086 141.086 120.828C140.585 120.57 140.194 120.191 139.915 119.689C139.636 119.188 139.496 118.569 139.496 117.831C139.496 117.272 139.593 116.757 139.786 116.284C139.979 115.812 140.266 115.403 140.646 115.06C141.025 114.709 141.501 114.437 142.074 114.243C142.654 114.05 143.324 113.953 144.083 113.953H145.694ZM154.492 109.377V110.902H149.067V109.377H154.492ZM150.84 106.552H152.741V118.121C152.741 118.515 152.788 118.812 152.881 119.013C152.981 119.213 153.106 119.346 153.257 119.41C153.407 119.475 153.568 119.507 153.74 119.507C153.869 119.507 154.012 119.493 154.17 119.464C154.327 119.428 154.435 119.399 154.492 119.378L154.481 121C154.353 121.05 154.181 121.097 153.966 121.14C153.751 121.19 153.479 121.215 153.149 121.215C152.741 121.215 152.362 121.118 152.011 120.925C151.66 120.731 151.377 120.409 151.162 119.958C150.947 119.5 150.84 118.884 150.84 118.11V106.552ZM160.916 121.215C160.221 121.215 159.595 121.111 159.036 120.903C158.478 120.696 158.001 120.381 157.607 119.958C157.214 119.528 156.913 118.988 156.705 118.336C156.497 117.684 156.394 116.914 156.394 116.026V114.716C156.394 113.692 156.512 112.825 156.748 112.116C156.992 111.407 157.317 110.838 157.726 110.408C158.134 109.971 158.596 109.656 159.111 109.463C159.627 109.262 160.157 109.162 160.701 109.162C161.432 109.162 162.055 109.28 162.57 109.517C163.086 109.753 163.505 110.104 163.827 110.569C164.149 111.035 164.386 111.608 164.536 112.288C164.694 112.968 164.772 113.753 164.772 114.641V115.747H157.511V114.125H162.871V113.856C162.842 113.255 162.76 112.725 162.624 112.267C162.495 111.808 162.28 111.45 161.979 111.192C161.679 110.927 161.253 110.795 160.701 110.795C160.35 110.795 160.024 110.856 159.724 110.978C159.43 111.092 159.176 111.296 158.961 111.59C158.753 111.876 158.589 112.274 158.467 112.782C158.352 113.291 158.295 113.935 158.295 114.716V116.026C158.295 116.649 158.352 117.187 158.467 117.638C158.589 118.082 158.764 118.451 158.993 118.744C159.229 119.031 159.516 119.245 159.853 119.389C160.196 119.525 160.587 119.593 161.023 119.593C161.661 119.593 162.187 119.471 162.603 119.228C163.018 118.977 163.38 118.658 163.688 118.271L164.687 119.464C164.479 119.757 164.207 120.04 163.87 120.312C163.541 120.577 163.132 120.796 162.646 120.968C162.166 121.132 161.589 121.215 160.916 121.215Z" fill="white"/>
<circle cx="13" cy="114" r="6" fill="black"/>
</g>
<defs>
<clipPath id="clip0_22_494">
<rect width="200" height="228" fill="white"/>
</clipPath>
</defs>
</svg>
