<svg width="200" height="228" viewBox="0 0 200 228" fill="none" xmlns="http://www.w3.org/2000/svg">
<g clip-path="url(#clip0_73_1935)">
<rect width="200" height="228" fill="white"/>
<rect width="200" height="228" fill="black"/>
<rect width="200" height="228" rx="18" fill="#FF9500"/>
<path d="M78.0054 13.9243L76.9727 13.646L77.4268 8.33594H82.0703V9.58838H78.5181L78.269 12.4888C78.4351 12.3765 78.6353 12.2715 78.8696 12.1738C79.104 12.0762 79.3774 12.0273 79.6899 12.0273C80.1099 12.0273 80.4834 12.1128 80.8105 12.2837C81.1426 12.4497 81.4233 12.689 81.6528 13.0015C81.8823 13.314 82.0581 13.6899 82.1802 14.1294C82.3022 14.5688 82.3633 15.0596 82.3633 15.6016C82.3633 16.1143 82.3022 16.5854 82.1802 17.0151C82.063 17.4448 81.8823 17.8208 81.6382 18.1431C81.3989 18.4604 81.0962 18.707 80.73 18.8828C80.3687 19.0586 79.9463 19.1465 79.4629 19.1465C79.1016 19.1465 78.7598 19.0879 78.4375 18.9707C78.1152 18.8486 77.8247 18.6655 77.5659 18.4214C77.312 18.1724 77.1045 17.8647 76.9434 17.4985C76.7822 17.1274 76.6821 16.6929 76.6431 16.1948H77.8662C77.915 16.5952 78.0078 16.9321 78.1445 17.2056C78.2861 17.479 78.4668 17.6865 78.6865 17.8281C78.9111 17.9648 79.1699 18.0332 79.4629 18.0332C79.7119 18.0332 79.9365 17.9771 80.1367 17.8647C80.3369 17.7524 80.5054 17.5913 80.6421 17.3813C80.7788 17.1714 80.8838 16.9175 80.957 16.6196C81.0303 16.3218 81.0669 15.9873 81.0669 15.6162C81.0669 15.2793 81.0303 14.9668 80.957 14.6787C80.8838 14.3906 80.7739 14.1392 80.6274 13.9243C80.481 13.7095 80.3027 13.5435 80.0928 13.4263C79.8877 13.3042 79.6484 13.2432 79.375 13.2432C79.0088 13.2432 78.7378 13.3042 78.562 13.4263C78.3911 13.5483 78.2056 13.7144 78.0054 13.9243ZM84.0039 18.2822C84.0039 18.0527 84.0747 17.8599 84.2163 17.7036C84.3628 17.5425 84.5728 17.4619 84.8462 17.4619C85.1196 17.4619 85.3271 17.5425 85.4688 17.7036C85.6152 17.8599 85.6885 18.0527 85.6885 18.2822C85.6885 18.5068 85.6152 18.6973 85.4688 18.8535C85.3271 19.0098 85.1196 19.0879 84.8462 19.0879C84.5728 19.0879 84.3628 19.0098 84.2163 18.8535C84.0747 18.6973 84.0039 18.5068 84.0039 18.2822ZM83.9966 11.8149C83.9966 11.5854 84.0674 11.3926 84.209 11.2363C84.3555 11.0752 84.5654 10.9946 84.8389 10.9946C85.1123 10.9946 85.3198 11.0752 85.4614 11.2363C85.6079 11.3926 85.6812 11.5854 85.6812 11.8149C85.6812 12.0396 85.6079 12.23 85.4614 12.3862C85.3198 12.5425 85.1123 12.6206 84.8389 12.6206C84.5654 12.6206 84.3555 12.5425 84.209 12.3862C84.0674 12.23 83.9966 12.0396 83.9966 11.8149ZM93.313 17.8867V19H87.3511V18.0259L90.2881 14.1367C90.6494 13.6582 90.9253 13.2529 91.1157 12.9209C91.3062 12.584 91.438 12.2837 91.5112 12.02C91.5845 11.7515 91.6211 11.478 91.6211 11.1997C91.6211 10.8481 91.5649 10.5308 91.4526 10.2476C91.3403 9.95947 91.1768 9.72998 90.9619 9.55908C90.7471 9.38818 90.4883 9.30273 90.1855 9.30273C89.79 9.30273 89.4653 9.39551 89.2114 9.58105C88.9624 9.76172 88.7793 10.0156 88.6621 10.3428C88.5449 10.6699 88.4863 11.0459 88.4863 11.4707H87.1899C87.1899 10.8701 87.2998 10.3208 87.5195 9.82275C87.7441 9.32471 88.0786 8.9292 88.5229 8.63623C88.9673 8.33838 89.5215 8.18945 90.1855 8.18945C90.7568 8.18945 91.2451 8.30908 91.6504 8.54834C92.0605 8.78271 92.373 9.11475 92.5879 9.54443C92.8076 9.96924 92.9175 10.4673 92.9175 11.0386C92.9175 11.3511 92.8735 11.6685 92.7856 11.9907C92.7026 12.3081 92.5854 12.6255 92.4341 12.9429C92.2876 13.2603 92.1143 13.5728 91.9141 13.8804C91.7139 14.188 91.499 14.4907 91.2695 14.7886L88.9038 17.8867H93.313ZM95.9351 17.8647H96.0376C96.6968 17.8647 97.2266 17.7549 97.627 17.5352C98.0273 17.3154 98.3276 17.02 98.5278 16.6489C98.7329 16.2778 98.8696 15.8604 98.938 15.3965C99.0112 14.9277 99.0479 14.4468 99.0479 13.9536V12.3203C99.0479 11.8369 99.0015 11.4072 98.9087 11.0312C98.8208 10.6553 98.7012 10.3403 98.5498 10.0864C98.4033 9.83252 98.2349 9.63965 98.0444 9.50781C97.8589 9.37598 97.6685 9.31006 97.4731 9.31006C97.2241 9.31006 97.0044 9.37354 96.814 9.50049C96.6235 9.62256 96.4624 9.7959 96.3306 10.0205C96.2036 10.2451 96.106 10.5088 96.0376 10.8115C95.9692 11.1143 95.9351 11.4438 95.9351 11.8003C95.9351 12.1177 95.9644 12.4253 96.0229 12.7231C96.0815 13.021 96.1719 13.2896 96.2939 13.5288C96.4209 13.7681 96.5771 13.9585 96.7627 14.1001C96.9531 14.2368 97.1777 14.3052 97.4365 14.3052C97.6514 14.3052 97.8589 14.2466 98.0591 14.1294C98.2642 14.0073 98.4497 13.8438 98.6157 13.6387C98.7817 13.4287 98.9185 13.1919 99.0259 12.9282C99.1333 12.6646 99.1968 12.3887 99.2163 12.1006H99.8242C99.8242 12.5059 99.7583 12.9062 99.6265 13.3018C99.4995 13.6924 99.3164 14.0488 99.0771 14.3711C98.8428 14.6934 98.5669 14.9521 98.2495 15.1475C97.937 15.3379 97.5928 15.4331 97.2168 15.4331C96.7627 15.4331 96.3745 15.3306 96.0522 15.1255C95.73 14.9204 95.4663 14.647 95.2612 14.3052C95.061 13.9634 94.9121 13.5825 94.8145 13.1626C94.7168 12.7378 94.668 12.3081 94.668 11.8735C94.668 11.3657 94.7266 10.8896 94.8438 10.4453C94.9609 10.001 95.1343 9.61035 95.3638 9.27344C95.5981 8.93164 95.8911 8.66553 96.2427 8.4751C96.5942 8.28467 97.0044 8.18945 97.4731 8.18945C97.9956 8.18945 98.4399 8.31152 98.8062 8.55566C99.1724 8.7998 99.4678 9.12695 99.6924 9.53711C99.917 9.94727 100.081 10.4087 100.183 10.9214C100.286 11.4341 100.337 11.9614 100.337 12.5034V12.9941C100.337 13.5459 100.31 14.1074 100.256 14.6787C100.208 15.2451 100.103 15.7871 99.9414 16.3047C99.7852 16.8223 99.5508 17.2861 99.2383 17.6963C98.9258 18.1016 98.5083 18.4238 97.9858 18.6631C97.4683 18.8975 96.8188 19.0146 96.0376 19.0146H95.9424L95.9351 17.8647ZM109.309 14.8179H106.98V13.668H109.309C109.749 13.668 110.103 13.5801 110.371 13.4043C110.645 13.2285 110.842 12.9844 110.964 12.6719C111.091 12.3594 111.155 12.0029 111.155 11.6025C111.155 11.2363 111.091 10.8921 110.964 10.5698C110.842 10.2476 110.645 9.98877 110.371 9.79346C110.103 9.59326 109.749 9.49316 109.309 9.49316H107.258V19H105.911V8.33594H109.309C109.998 8.33594 110.579 8.4751 111.052 8.75342C111.526 9.03174 111.885 9.41748 112.129 9.91064C112.378 10.3989 112.502 10.958 112.502 11.5879C112.502 12.2715 112.378 12.855 112.129 13.3384C111.885 13.8218 111.526 14.1904 111.052 14.4443C110.579 14.6934 109.998 14.8179 109.309 14.8179ZM114.656 8.33594H115.959L118.75 17.0298L121.533 8.33594H122.837L119.255 19H118.23L114.656 8.33594ZM114.231 8.33594H115.374L115.571 14.8398V19H114.231V8.33594ZM122.112 8.33594H123.254V19H121.914V14.8398L122.112 8.33594Z" fill="white"/>
<path d="M27.888 36.2L43.76 66.024V36.2H52.08V81H42.48L26.8 51.752V81H18.48V36.2H27.888ZM61.0425 81V36.2H92.4025V81H61.0425ZM70.0025 45.16V72.04H83.4425V45.16H70.0025ZM99.115 45.16V36.2H130.475V45.16H119.275V81H110.315V45.16H99.115Z" fill="white"/>
<path d="M22.457 102.593C22.8366 102.593 23.1803 102.518 23.4883 102.367C23.8034 102.21 24.0612 101.966 24.2617 101.637C24.4622 101.3 24.5768 100.863 24.6055 100.326H26.3887C26.36 101.1 26.1631 101.78 25.7979 102.367C25.4398 102.947 24.9671 103.402 24.3799 103.731C23.7998 104.054 23.1589 104.215 22.457 104.215C21.7051 104.215 21.0498 104.093 20.4912 103.85C19.9398 103.606 19.4814 103.255 19.1162 102.797C18.7581 102.331 18.4896 101.769 18.3105 101.11C18.1315 100.444 18.042 99.6888 18.042 98.8438V97.5332C18.042 96.6882 18.1315 95.9362 18.3105 95.2773C18.4896 94.6113 18.7581 94.0492 19.1162 93.5908C19.4814 93.1253 19.9398 92.7708 20.4912 92.5273C21.0498 92.2839 21.7051 92.1621 22.457 92.1621C23.2448 92.1621 23.9251 92.3304 24.498 92.667C25.0781 92.9964 25.5293 93.4762 25.8516 94.1064C26.181 94.7295 26.36 95.485 26.3887 96.373H24.6055C24.5768 95.8001 24.473 95.3239 24.2939 94.9443C24.1149 94.5576 23.8714 94.2712 23.5635 94.085C23.2555 93.8916 22.8867 93.7949 22.457 93.7949C21.9557 93.7949 21.5404 93.8844 21.2109 94.0635C20.8887 94.2354 20.6344 94.486 20.4482 94.8154C20.262 95.1449 20.1296 95.5387 20.0508 95.9971C19.9792 96.4554 19.9434 96.9674 19.9434 97.5332V98.8438C19.9434 99.4095 19.9792 99.9251 20.0508 100.391C20.1296 100.849 20.2585 101.243 20.4375 101.572C20.6237 101.902 20.8815 102.156 21.2109 102.335C21.5404 102.507 21.9557 102.593 22.457 102.593ZM30.4922 87.5V104H28.5908V87.5H30.4922ZM30.0303 97.748L29.2568 97.7158C29.2497 96.9209 29.3392 96.1868 29.5254 95.5137C29.7188 94.8333 29.9909 94.2425 30.3418 93.7412C30.6999 93.2399 31.126 92.8532 31.6201 92.5811C32.1143 92.3018 32.6621 92.1621 33.2637 92.1621C33.7363 92.1621 34.166 92.2409 34.5527 92.3984C34.9395 92.5488 35.2689 92.7923 35.541 93.1289C35.8132 93.4655 36.0208 93.9023 36.1641 94.4395C36.3145 94.9694 36.3896 95.6175 36.3896 96.3838V104H34.4883V96.3623C34.4883 95.7536 34.4202 95.2666 34.2842 94.9014C34.1553 94.529 33.9548 94.2604 33.6826 94.0957C33.4176 93.9238 33.0811 93.8379 32.6729 93.8379C32.3005 93.8379 31.9531 93.9417 31.6309 94.1494C31.3086 94.3571 31.0257 94.6436 30.7822 95.0088C30.5459 95.374 30.3597 95.793 30.2236 96.2656C30.0947 96.7311 30.0303 97.2253 30.0303 97.748ZM44.9189 102.013V95.707C44.9189 95.2487 44.8473 94.8799 44.7041 94.6006C44.568 94.3213 44.3604 94.1172 44.0811 93.9883C43.8089 93.8594 43.4652 93.7949 43.0498 93.7949C42.6488 93.7949 42.3014 93.8773 42.0078 94.042C41.7214 94.2067 41.4993 94.4251 41.3418 94.6973C41.1914 94.9694 41.1162 95.2702 41.1162 95.5996H39.2148C39.2148 95.1842 39.3044 94.7725 39.4834 94.3643C39.6696 93.9561 39.9346 93.5872 40.2783 93.2578C40.6221 92.9212 41.0339 92.6562 41.5137 92.4629C42.0007 92.2624 42.5449 92.1621 43.1465 92.1621C43.8626 92.1621 44.4964 92.2803 45.0479 92.5166C45.5993 92.7458 46.0326 93.1217 46.3477 93.6445C46.6628 94.1673 46.8203 94.862 46.8203 95.7285V101.465C46.8203 101.852 46.849 102.263 46.9062 102.7C46.9707 103.137 47.0602 103.513 47.1748 103.828V104H45.209C45.1159 103.771 45.0443 103.466 44.9941 103.087C44.944 102.7 44.9189 102.342 44.9189 102.013ZM45.2197 96.9531L45.2412 98.3496H43.9199C43.4688 98.3496 43.057 98.3997 42.6846 98.5C42.3193 98.6003 42.0042 98.7471 41.7393 98.9404C41.4743 99.1266 41.2702 99.3594 41.127 99.6387C40.9909 99.918 40.9229 100.237 40.9229 100.595C40.9229 101.06 40.9873 101.433 41.1162 101.712C41.2451 101.984 41.4385 102.181 41.6963 102.303C41.9541 102.424 42.2799 102.485 42.6738 102.485C43.1536 102.485 43.5762 102.374 43.9414 102.152C44.3066 101.93 44.5895 101.662 44.79 101.347C44.9977 101.032 45.0944 100.738 45.0801 100.466L45.499 101.357C45.4704 101.637 45.3773 101.941 45.2197 102.271C45.0693 102.593 44.8581 102.904 44.5859 103.205C44.3138 103.499 43.9915 103.742 43.6191 103.936C43.2539 104.122 42.8421 104.215 42.3838 104.215C41.7106 104.215 41.1198 104.086 40.6113 103.828C40.11 103.57 39.7197 103.191 39.4404 102.689C39.1611 102.188 39.0215 101.569 39.0215 100.831C39.0215 100.272 39.1182 99.7568 39.3115 99.2842C39.5049 98.8115 39.7913 98.4033 40.1709 98.0596C40.5505 97.7087 41.0267 97.4365 41.5996 97.2432C42.1797 97.0498 42.8493 96.9531 43.6084 96.9531H45.2197ZM51.6758 94.2031V104H49.7744V92.377H51.6113L51.6758 94.2031ZM54.5654 92.3125L54.5762 94.1602C54.4186 94.1243 54.2754 94.1029 54.1465 94.0957C54.0247 94.0814 53.8815 94.0742 53.7168 94.0742C53.3587 94.0742 53.0436 94.1458 52.7715 94.2891C52.5065 94.4323 52.2773 94.6328 52.084 94.8906C51.8906 95.1484 51.7367 95.4564 51.6221 95.8145C51.5075 96.1654 51.4287 96.5521 51.3857 96.9746L50.8916 97.2969C50.8916 96.5951 50.9453 95.9362 51.0527 95.3203C51.1673 94.7044 51.3428 94.1602 51.5791 93.6875C51.8154 93.2077 52.1162 92.8353 52.4814 92.5703C52.8538 92.2982 53.2979 92.1621 53.8135 92.1621C53.9281 92.1621 54.0677 92.18 54.2324 92.2158C54.4043 92.2445 54.5153 92.2767 54.5654 92.3125ZM62.5791 92.377H64.2871V104.097C64.2871 105.121 64.1081 105.966 63.75 106.632C63.3991 107.298 62.9085 107.788 62.2783 108.104C61.6481 108.426 60.9212 108.587 60.0977 108.587C59.804 108.587 59.4352 108.533 58.9912 108.426C58.5472 108.318 58.1032 108.154 57.6592 107.932C57.2152 107.717 56.8499 107.445 56.5635 107.115L57.3477 105.794C57.7559 106.209 58.1891 106.507 58.6475 106.686C59.1058 106.865 59.5426 106.954 59.958 106.954C60.4521 106.954 60.8818 106.865 61.2471 106.686C61.6123 106.507 61.8952 106.213 62.0957 105.805C62.2962 105.404 62.3965 104.867 62.3965 104.193V94.9336L62.5791 92.377ZM55.8975 98.7471V97.6621C55.8975 96.7025 55.987 95.8789 56.166 95.1914C56.3451 94.4967 56.6029 93.9274 56.9395 93.4834C57.2832 93.0322 57.695 92.6992 58.1748 92.4844C58.6546 92.2695 59.1917 92.1621 59.7861 92.1621C60.3877 92.1621 60.9069 92.2839 61.3438 92.5273C61.7806 92.7708 62.1423 93.1253 62.4287 93.5908C62.7223 94.0492 62.9515 94.6077 63.1162 95.2666C63.2881 95.9183 63.4062 96.6559 63.4707 97.4795V98.9297C63.4062 99.7461 63.2881 100.48 63.1162 101.132C62.9515 101.784 62.7188 102.339 62.418 102.797C62.1243 103.255 61.7591 103.606 61.3223 103.85C60.8854 104.093 60.3662 104.215 59.7646 104.215C59.1774 104.215 58.6475 104.104 58.1748 103.882C57.7021 103.653 57.2939 103.312 56.9502 102.861C56.6136 102.403 56.3522 101.834 56.166 101.153C55.987 100.466 55.8975 99.6637 55.8975 98.7471ZM57.7988 97.6621V98.7471C57.7988 99.3916 57.8454 99.9538 57.9385 100.434C58.0316 100.906 58.1748 101.3 58.3682 101.615C58.5687 101.923 58.8229 102.152 59.1309 102.303C59.446 102.453 59.8219 102.528 60.2588 102.528C60.7887 102.528 61.222 102.399 61.5586 102.142C61.8952 101.884 62.1637 101.544 62.3643 101.121C62.5719 100.691 62.7367 100.229 62.8584 99.7354V96.6846C62.7868 96.3193 62.6829 95.9684 62.5469 95.6318C62.418 95.2881 62.2497 94.9837 62.042 94.7188C61.8343 94.4466 61.5837 94.2318 61.29 94.0742C61.0036 93.9167 60.667 93.8379 60.2803 93.8379C59.8434 93.8379 59.4674 93.9167 59.1523 94.0742C58.8372 94.2318 58.5794 94.4681 58.3789 94.7832C58.1784 95.0983 58.0316 95.4958 57.9385 95.9756C57.8454 96.4554 57.7988 97.0176 57.7988 97.6621ZM69.1748 92.377V104H67.2842V92.377H69.1748ZM67.1768 89.2939C67.1768 88.9717 67.2663 88.6995 67.4453 88.4775C67.6243 88.2555 67.8929 88.1445 68.251 88.1445C68.609 88.1445 68.8776 88.2555 69.0566 88.4775C69.2428 88.6995 69.3359 88.9717 69.3359 89.2939C69.3359 89.6019 69.2428 89.8669 69.0566 90.0889C68.8776 90.3037 68.609 90.4111 68.251 90.4111C67.8929 90.4111 67.6243 90.3037 67.4453 90.0889C67.2663 89.8669 67.1768 89.6019 67.1768 89.2939ZM74.084 94.8584V104H72.1826V92.377H73.9766L74.084 94.8584ZM73.6221 97.748L72.8486 97.7158C72.8415 96.9209 72.931 96.1868 73.1172 95.5137C73.3105 94.8333 73.5827 94.2425 73.9336 93.7412C74.2917 93.2399 74.7178 92.8532 75.2119 92.5811C75.7061 92.3018 76.2539 92.1621 76.8555 92.1621C77.3281 92.1621 77.7578 92.2409 78.1445 92.3984C78.5312 92.5488 78.8607 92.7923 79.1328 93.1289C79.4049 93.4655 79.6126 93.9023 79.7559 94.4395C79.9062 94.9694 79.9814 95.6175 79.9814 96.3838V104H78.0801V96.3623C78.0801 95.7536 78.012 95.2666 77.876 94.9014C77.7471 94.529 77.5465 94.2604 77.2744 94.0957C77.0094 93.9238 76.6729 93.8379 76.2646 93.8379C75.8923 93.8379 75.5449 93.9417 75.2227 94.1494C74.9004 94.3571 74.6175 94.6436 74.374 95.0088C74.1377 95.374 73.9515 95.793 73.8154 96.2656C73.6865 96.7311 73.6221 97.2253 73.6221 97.748ZM89.1338 92.377H90.8418V104.097C90.8418 105.121 90.6628 105.966 90.3047 106.632C89.9538 107.298 89.4632 107.788 88.833 108.104C88.2028 108.426 87.4759 108.587 86.6523 108.587C86.3587 108.587 85.9899 108.533 85.5459 108.426C85.1019 108.318 84.6579 108.154 84.2139 107.932C83.7699 107.717 83.4046 107.445 83.1182 107.115L83.9023 105.794C84.3105 106.209 84.7438 106.507 85.2021 106.686C85.6605 106.865 86.0973 106.954 86.5127 106.954C87.0068 106.954 87.4365 106.865 87.8018 106.686C88.167 106.507 88.4499 106.213 88.6504 105.805C88.8509 105.404 88.9512 104.867 88.9512 104.193V94.9336L89.1338 92.377ZM82.4521 98.7471V97.6621C82.4521 96.7025 82.5417 95.8789 82.7207 95.1914C82.8997 94.4967 83.1576 93.9274 83.4941 93.4834C83.8379 93.0322 84.2497 92.6992 84.7295 92.4844C85.2093 92.2695 85.7464 92.1621 86.3408 92.1621C86.9424 92.1621 87.4616 92.2839 87.8984 92.5273C88.3353 92.7708 88.6969 93.1253 88.9834 93.5908C89.277 94.0492 89.5062 94.6077 89.6709 95.2666C89.8428 95.9183 89.9609 96.6559 90.0254 97.4795V98.9297C89.9609 99.7461 89.8428 100.48 89.6709 101.132C89.5062 101.784 89.2734 102.339 88.9727 102.797C88.679 103.255 88.3138 103.606 87.877 103.85C87.4401 104.093 86.9209 104.215 86.3193 104.215C85.7321 104.215 85.2021 104.104 84.7295 103.882C84.2568 103.653 83.8486 103.312 83.5049 102.861C83.1683 102.403 82.9069 101.834 82.7207 101.153C82.5417 100.466 82.4521 99.6637 82.4521 98.7471ZM84.3535 97.6621V98.7471C84.3535 99.3916 84.4001 99.9538 84.4932 100.434C84.5863 100.906 84.7295 101.3 84.9229 101.615C85.1234 101.923 85.3776 102.152 85.6855 102.303C86.0007 102.453 86.3766 102.528 86.8135 102.528C87.3434 102.528 87.7767 102.399 88.1133 102.142C88.4499 101.884 88.7184 101.544 88.9189 101.121C89.1266 100.691 89.2913 100.229 89.4131 99.7354V96.6846C89.3415 96.3193 89.2376 95.9684 89.1016 95.6318C88.9727 95.2881 88.8044 94.9837 88.5967 94.7188C88.389 94.4466 88.1383 94.2318 87.8447 94.0742C87.5583 93.9167 87.2217 93.8379 86.835 93.8379C86.3981 93.8379 86.0221 93.9167 85.707 94.0742C85.3919 94.2318 85.1341 94.4681 84.9336 94.7832C84.7331 95.0983 84.5863 95.4958 84.4932 95.9756C84.4001 96.4554 84.3535 97.0176 84.3535 97.6621Z" fill="white"/>
<path d="M78.0054 13.9243L76.9727 13.646L77.4268 8.33594H82.0703V9.58838H78.5181L78.269 12.4888C78.4351 12.3765 78.6353 12.2715 78.8696 12.1738C79.104 12.0762 79.3774 12.0273 79.6899 12.0273C80.1099 12.0273 80.4834 12.1128 80.8105 12.2837C81.1426 12.4497 81.4233 12.689 81.6528 13.0015C81.8823 13.314 82.0581 13.6899 82.1802 14.1294C82.3022 14.5688 82.3633 15.0596 82.3633 15.6016C82.3633 16.1143 82.3022 16.5854 82.1802 17.0151C82.063 17.4448 81.8823 17.8208 81.6382 18.1431C81.3989 18.4604 81.0962 18.707 80.73 18.8828C80.3687 19.0586 79.9463 19.1465 79.4629 19.1465C79.1016 19.1465 78.7598 19.0879 78.4375 18.9707C78.1152 18.8486 77.8247 18.6655 77.5659 18.4214C77.312 18.1724 77.1045 17.8647 76.9434 17.4985C76.7822 17.1274 76.6821 16.6929 76.6431 16.1948H77.8662C77.915 16.5952 78.0078 16.9321 78.1445 17.2056C78.2861 17.479 78.4668 17.6865 78.6865 17.8281C78.9111 17.9648 79.1699 18.0332 79.4629 18.0332C79.7119 18.0332 79.9365 17.9771 80.1367 17.8647C80.3369 17.7524 80.5054 17.5913 80.6421 17.3813C80.7788 17.1714 80.8838 16.9175 80.957 16.6196C81.0303 16.3218 81.0669 15.9873 81.0669 15.6162C81.0669 15.2793 81.0303 14.9668 80.957 14.6787C80.8838 14.3906 80.7739 14.1392 80.6274 13.9243C80.481 13.7095 80.3027 13.5435 80.0928 13.4263C79.8877 13.3042 79.6484 13.2432 79.375 13.2432C79.0088 13.2432 78.7378 13.3042 78.562 13.4263C78.3911 13.5483 78.2056 13.7144 78.0054 13.9243ZM84.0039 18.2822C84.0039 18.0527 84.0747 17.8599 84.2163 17.7036C84.3628 17.5425 84.5728 17.4619 84.8462 17.4619C85.1196 17.4619 85.3271 17.5425 85.4688 17.7036C85.6152 17.8599 85.6885 18.0527 85.6885 18.2822C85.6885 18.5068 85.6152 18.6973 85.4688 18.8535C85.3271 19.0098 85.1196 19.0879 84.8462 19.0879C84.5728 19.0879 84.3628 19.0098 84.2163 18.8535C84.0747 18.6973 84.0039 18.5068 84.0039 18.2822ZM83.9966 11.8149C83.9966 11.5854 84.0674 11.3926 84.209 11.2363C84.3555 11.0752 84.5654 10.9946 84.8389 10.9946C85.1123 10.9946 85.3198 11.0752 85.4614 11.2363C85.6079 11.3926 85.6812 11.5854 85.6812 11.8149C85.6812 12.0396 85.6079 12.23 85.4614 12.3862C85.3198 12.5425 85.1123 12.6206 84.8389 12.6206C84.5654 12.6206 84.3555 12.5425 84.209 12.3862C84.0674 12.23 83.9966 12.0396 83.9966 11.8149ZM93.313 17.8867V19H87.3511V18.0259L90.2881 14.1367C90.6494 13.6582 90.9253 13.2529 91.1157 12.9209C91.3062 12.584 91.438 12.2837 91.5112 12.02C91.5845 11.7515 91.6211 11.478 91.6211 11.1997C91.6211 10.8481 91.5649 10.5308 91.4526 10.2476C91.3403 9.95947 91.1768 9.72998 90.9619 9.55908C90.7471 9.38818 90.4883 9.30273 90.1855 9.30273C89.79 9.30273 89.4653 9.39551 89.2114 9.58105C88.9624 9.76172 88.7793 10.0156 88.6621 10.3428C88.5449 10.6699 88.4863 11.0459 88.4863 11.4707H87.1899C87.1899 10.8701 87.2998 10.3208 87.5195 9.82275C87.7441 9.32471 88.0786 8.9292 88.5229 8.63623C88.9673 8.33838 89.5215 8.18945 90.1855 8.18945C90.7568 8.18945 91.2451 8.30908 91.6504 8.54834C92.0605 8.78271 92.373 9.11475 92.5879 9.54443C92.8076 9.96924 92.9175 10.4673 92.9175 11.0386C92.9175 11.3511 92.8735 11.6685 92.7856 11.9907C92.7026 12.3081 92.5854 12.6255 92.4341 12.9429C92.2876 13.2603 92.1143 13.5728 91.9141 13.8804C91.7139 14.188 91.499 14.4907 91.2695 14.7886L88.9038 17.8867H93.313ZM95.9351 17.8647H96.0376C96.6968 17.8647 97.2266 17.7549 97.627 17.5352C98.0273 17.3154 98.3276 17.02 98.5278 16.6489C98.7329 16.2778 98.8696 15.8604 98.938 15.3965C99.0112 14.9277 99.0479 14.4468 99.0479 13.9536V12.3203C99.0479 11.8369 99.0015 11.4072 98.9087 11.0312C98.8208 10.6553 98.7012 10.3403 98.5498 10.0864C98.4033 9.83252 98.2349 9.63965 98.0444 9.50781C97.8589 9.37598 97.6685 9.31006 97.4731 9.31006C97.2241 9.31006 97.0044 9.37354 96.814 9.50049C96.6235 9.62256 96.4624 9.7959 96.3306 10.0205C96.2036 10.2451 96.106 10.5088 96.0376 10.8115C95.9692 11.1143 95.9351 11.4438 95.9351 11.8003C95.9351 12.1177 95.9644 12.4253 96.0229 12.7231C96.0815 13.021 96.1719 13.2896 96.2939 13.5288C96.4209 13.7681 96.5771 13.9585 96.7627 14.1001C96.9531 14.2368 97.1777 14.3052 97.4365 14.3052C97.6514 14.3052 97.8589 14.2466 98.0591 14.1294C98.2642 14.0073 98.4497 13.8438 98.6157 13.6387C98.7817 13.4287 98.9185 13.1919 99.0259 12.9282C99.1333 12.6646 99.1968 12.3887 99.2163 12.1006H99.8242C99.8242 12.5059 99.7583 12.9062 99.6265 13.3018C99.4995 13.6924 99.3164 14.0488 99.0771 14.3711C98.8428 14.6934 98.5669 14.9521 98.2495 15.1475C97.937 15.3379 97.5928 15.4331 97.2168 15.4331C96.7627 15.4331 96.3745 15.3306 96.0522 15.1255C95.73 14.9204 95.4663 14.647 95.2612 14.3052C95.061 13.9634 94.9121 13.5825 94.8145 13.1626C94.7168 12.7378 94.668 12.3081 94.668 11.8735C94.668 11.3657 94.7266 10.8896 94.8438 10.4453C94.9609 10.001 95.1343 9.61035 95.3638 9.27344C95.5981 8.93164 95.8911 8.66553 96.2427 8.4751C96.5942 8.28467 97.0044 8.18945 97.4731 8.18945C97.9956 8.18945 98.4399 8.31152 98.8062 8.55566C99.1724 8.7998 99.4678 9.12695 99.6924 9.53711C99.917 9.94727 100.081 10.4087 100.183 10.9214C100.286 11.4341 100.337 11.9614 100.337 12.5034V12.9941C100.337 13.5459 100.31 14.1074 100.256 14.6787C100.208 15.2451 100.103 15.7871 99.9414 16.3047C99.7852 16.8223 99.5508 17.2861 99.2383 17.6963C98.9258 18.1016 98.5083 18.4238 97.9858 18.6631C97.4683 18.8975 96.8188 19.0146 96.0376 19.0146H95.9424L95.9351 17.8647ZM109.309 14.8179H106.98V13.668H109.309C109.749 13.668 110.103 13.5801 110.371 13.4043C110.645 13.2285 110.842 12.9844 110.964 12.6719C111.091 12.3594 111.155 12.0029 111.155 11.6025C111.155 11.2363 111.091 10.8921 110.964 10.5698C110.842 10.2476 110.645 9.98877 110.371 9.79346C110.103 9.59326 109.749 9.49316 109.309 9.49316H107.258V19H105.911V8.33594H109.309C109.998 8.33594 110.579 8.4751 111.052 8.75342C111.526 9.03174 111.885 9.41748 112.129 9.91064C112.378 10.3989 112.502 10.958 112.502 11.5879C112.502 12.2715 112.378 12.855 112.129 13.3384C111.885 13.8218 111.526 14.1904 111.052 14.4443C110.579 14.6934 109.998 14.8179 109.309 14.8179ZM114.656 8.33594H115.959L118.75 17.0298L121.533 8.33594H122.837L119.255 19H118.23L114.656 8.33594ZM114.231 8.33594H115.374L115.571 14.8398V19H114.231V8.33594ZM122.112 8.33594H123.254V19H121.914V14.8398L122.112 8.33594Z" fill="white"/>
<path d="M73.5271 163.726L70.5829 197.825C70.2465 201.721 72.776 205.29 76.5637 206.262L119.391 217.258C120.025 217.421 120.651 217.505 121.306 217.509C181.384 217.884 302.042 218.398 311.657 217.503C320.219 216.707 328.36 213.794 332.441 211.967C333.355 211.557 334.183 210.957 334.728 210.116C338.936 203.63 336.371 191.655 334.429 183.133C334.027 181.369 333.066 179.772 331.567 178.76C316.449 168.55 284.795 163.135 268.638 161.475C267.457 161.354 266.326 160.99 265.304 160.387C251.172 152.049 223.994 136.489 217.008 134.323C207.946 131.513 160.621 130.951 141.994 134.323C127.427 136.96 101.411 148.404 89.4326 154.167C88.8917 154.428 88.3325 154.624 87.7476 154.759L79.6971 156.619C76.3172 157.4 73.8255 160.269 73.5271 163.726Z" fill="white" stroke="black" stroke-width="6"/>
<circle cx="126" cy="208" r="20" fill="white" stroke="black" stroke-width="6"/>
<path d="M168.824 13.0015H169.659C170.03 13.0015 170.338 12.9233 170.582 12.7671C170.826 12.606 171.007 12.3887 171.124 12.1152C171.246 11.8369 171.307 11.5244 171.307 11.1777C171.307 10.7676 171.253 10.4233 171.146 10.145C171.039 9.8667 170.877 9.65674 170.663 9.51514C170.453 9.37354 170.187 9.30273 169.864 9.30273C169.562 9.30273 169.298 9.37842 169.073 9.52979C168.849 9.67627 168.675 9.88623 168.553 10.1597C168.431 10.4331 168.37 10.7554 168.37 11.1265H167.081C167.081 10.5845 167.193 10.0913 167.418 9.64697C167.647 9.20264 167.97 8.84863 168.385 8.58496C168.805 8.32129 169.298 8.18945 169.864 8.18945C170.406 8.18945 170.882 8.3042 171.292 8.53369C171.703 8.7583 172.022 9.09521 172.252 9.54443C172.486 9.98877 172.604 10.543 172.604 11.207C172.604 11.4756 172.552 11.7637 172.45 12.0713C172.352 12.374 172.193 12.6572 171.974 12.9209C171.759 13.1846 171.476 13.4019 171.124 13.5728C170.777 13.7388 170.353 13.8218 169.85 13.8218H168.824V13.0015ZM168.824 14.1147V13.3018H169.85C170.445 13.3018 170.931 13.3823 171.307 13.5435C171.683 13.7046 171.974 13.9194 172.179 14.188C172.384 14.4565 172.525 14.752 172.604 15.0742C172.687 15.3916 172.728 15.709 172.728 16.0264C172.728 16.5244 172.655 16.9663 172.508 17.3521C172.367 17.7378 172.164 18.0649 171.9 18.3335C171.642 18.6021 171.339 18.8047 170.992 18.9414C170.646 19.0781 170.267 19.1465 169.857 19.1465C169.457 19.1465 169.085 19.0806 168.744 18.9487C168.402 18.8169 168.102 18.6265 167.843 18.3774C167.584 18.1235 167.381 17.8135 167.235 17.4473C167.093 17.0762 167.022 16.6538 167.022 16.1802H168.319C168.319 16.5513 168.38 16.876 168.502 17.1543C168.624 17.4326 168.8 17.6499 169.029 17.8062C169.259 17.9575 169.535 18.0332 169.857 18.0332C170.179 18.0332 170.458 17.9624 170.692 17.8208C170.926 17.6743 171.107 17.4546 171.234 17.1616C171.366 16.8687 171.432 16.5 171.432 16.0557C171.432 15.6113 171.358 15.2476 171.212 14.9644C171.07 14.6763 170.868 14.4639 170.604 14.3271C170.34 14.1855 170.025 14.1147 169.659 14.1147H168.824ZM180.278 8.33594L176.542 19.9155H175.451L179.194 8.33594H180.278ZM189.029 8.33594V9.09766L185.359 19H183.997L187.667 9.44922H182.913V8.33594H189.029Z" fill="white"/>
</g>
<defs>
<clipPath id="clip0_73_1935">
<rect width="200" height="228" fill="white"/>
</clipPath>
</defs>
</svg>
