<svg width="200" height="228" viewBox="0 0 200 228" fill="none" xmlns="http://www.w3.org/2000/svg">
<g clip-path="url(#clip0_6_96)">
<rect width="200" height="228" fill="#FF9500"/>
<rect width="200" height="228" fill="black"/>
<rect width="200" height="228" rx="18" fill="#FF9500"/>
<path d="M78.0054 13.9243L76.9727 13.646L77.4268 8.33594H82.0703V9.58838H78.5181L78.269 12.4888C78.4351 12.3765 78.6353 12.2715 78.8696 12.1738C79.104 12.0762 79.3774 12.0273 79.6899 12.0273C80.1099 12.0273 80.4834 12.1128 80.8105 12.2837C81.1426 12.4497 81.4233 12.689 81.6528 13.0015C81.8823 13.314 82.0581 13.6899 82.1802 14.1294C82.3022 14.5688 82.3633 15.0596 82.3633 15.6016C82.3633 16.1143 82.3022 16.5854 82.1802 17.0151C82.063 17.4448 81.8823 17.8208 81.6382 18.1431C81.3989 18.4604 81.0962 18.707 80.73 18.8828C80.3687 19.0586 79.9463 19.1465 79.4629 19.1465C79.1016 19.1465 78.7598 19.0879 78.4375 18.9707C78.1152 18.8486 77.8247 18.6655 77.5659 18.4214C77.312 18.1724 77.1045 17.8647 76.9434 17.4985C76.7822 17.1274 76.6821 16.6929 76.6431 16.1948H77.8662C77.915 16.5952 78.0078 16.9321 78.1445 17.2056C78.2861 17.479 78.4668 17.6865 78.6865 17.8281C78.9111 17.9648 79.1699 18.0332 79.4629 18.0332C79.7119 18.0332 79.9365 17.9771 80.1367 17.8647C80.3369 17.7524 80.5054 17.5913 80.6421 17.3813C80.7788 17.1714 80.8838 16.9175 80.957 16.6196C81.0303 16.3218 81.0669 15.9873 81.0669 15.6162C81.0669 15.2793 81.0303 14.9668 80.957 14.6787C80.8838 14.3906 80.7739 14.1392 80.6274 13.9243C80.481 13.7095 80.3027 13.5435 80.0928 13.4263C79.8877 13.3042 79.6484 13.2432 79.375 13.2432C79.0088 13.2432 78.7378 13.3042 78.562 13.4263C78.3911 13.5483 78.2056 13.7144 78.0054 13.9243ZM84.0039 18.2822C84.0039 18.0527 84.0747 17.8599 84.2163 17.7036C84.3628 17.5425 84.5728 17.4619 84.8462 17.4619C85.1196 17.4619 85.3271 17.5425 85.4688 17.7036C85.6152 17.8599 85.6885 18.0527 85.6885 18.2822C85.6885 18.5068 85.6152 18.6973 85.4688 18.8535C85.3271 19.0098 85.1196 19.0879 84.8462 19.0879C84.5728 19.0879 84.3628 19.0098 84.2163 18.8535C84.0747 18.6973 84.0039 18.5068 84.0039 18.2822ZM83.9966 11.8149C83.9966 11.5854 84.0674 11.3926 84.209 11.2363C84.3555 11.0752 84.5654 10.9946 84.8389 10.9946C85.1123 10.9946 85.3198 11.0752 85.4614 11.2363C85.6079 11.3926 85.6812 11.5854 85.6812 11.8149C85.6812 12.0396 85.6079 12.23 85.4614 12.3862C85.3198 12.5425 85.1123 12.6206 84.8389 12.6206C84.5654 12.6206 84.3555 12.5425 84.209 12.3862C84.0674 12.23 83.9966 12.0396 83.9966 11.8149ZM93.313 17.8867V19H87.3511V18.0259L90.2881 14.1367C90.6494 13.6582 90.9253 13.2529 91.1157 12.9209C91.3062 12.584 91.438 12.2837 91.5112 12.02C91.5845 11.7515 91.6211 11.478 91.6211 11.1997C91.6211 10.8481 91.5649 10.5308 91.4526 10.2476C91.3403 9.95947 91.1768 9.72998 90.9619 9.55908C90.7471 9.38818 90.4883 9.30273 90.1855 9.30273C89.79 9.30273 89.4653 9.39551 89.2114 9.58105C88.9624 9.76172 88.7793 10.0156 88.6621 10.3428C88.5449 10.6699 88.4863 11.0459 88.4863 11.4707H87.1899C87.1899 10.8701 87.2998 10.3208 87.5195 9.82275C87.7441 9.32471 88.0786 8.9292 88.5229 8.63623C88.9673 8.33838 89.5215 8.18945 90.1855 8.18945C90.7568 8.18945 91.2451 8.30908 91.6504 8.54834C92.0605 8.78271 92.373 9.11475 92.5879 9.54443C92.8076 9.96924 92.9175 10.4673 92.9175 11.0386C92.9175 11.3511 92.8735 11.6685 92.7856 11.9907C92.7026 12.3081 92.5854 12.6255 92.4341 12.9429C92.2876 13.2603 92.1143 13.5728 91.9141 13.8804C91.7139 14.188 91.499 14.4907 91.2695 14.7886L88.9038 17.8867H93.313ZM95.9351 17.8647H96.0376C96.6968 17.8647 97.2266 17.7549 97.627 17.5352C98.0273 17.3154 98.3276 17.02 98.5278 16.6489C98.7329 16.2778 98.8696 15.8604 98.938 15.3965C99.0112 14.9277 99.0479 14.4468 99.0479 13.9536V12.3203C99.0479 11.8369 99.0015 11.4072 98.9087 11.0312C98.8208 10.6553 98.7012 10.3403 98.5498 10.0864C98.4033 9.83252 98.2349 9.63965 98.0444 9.50781C97.8589 9.37598 97.6685 9.31006 97.4731 9.31006C97.2241 9.31006 97.0044 9.37354 96.814 9.50049C96.6235 9.62256 96.4624 9.7959 96.3306 10.0205C96.2036 10.2451 96.106 10.5088 96.0376 10.8115C95.9692 11.1143 95.9351 11.4438 95.9351 11.8003C95.9351 12.1177 95.9644 12.4253 96.0229 12.7231C96.0815 13.021 96.1719 13.2896 96.2939 13.5288C96.4209 13.7681 96.5771 13.9585 96.7627 14.1001C96.9531 14.2368 97.1777 14.3052 97.4365 14.3052C97.6514 14.3052 97.8589 14.2466 98.0591 14.1294C98.2642 14.0073 98.4497 13.8438 98.6157 13.6387C98.7817 13.4287 98.9185 13.1919 99.0259 12.9282C99.1333 12.6646 99.1968 12.3887 99.2163 12.1006H99.8242C99.8242 12.5059 99.7583 12.9062 99.6265 13.3018C99.4995 13.6924 99.3164 14.0488 99.0771 14.3711C98.8428 14.6934 98.5669 14.9521 98.2495 15.1475C97.937 15.3379 97.5928 15.4331 97.2168 15.4331C96.7627 15.4331 96.3745 15.3306 96.0522 15.1255C95.73 14.9204 95.4663 14.647 95.2612 14.3052C95.061 13.9634 94.9121 13.5825 94.8145 13.1626C94.7168 12.7378 94.668 12.3081 94.668 11.8735C94.668 11.3657 94.7266 10.8896 94.8438 10.4453C94.9609 10.001 95.1343 9.61035 95.3638 9.27344C95.5981 8.93164 95.8911 8.66553 96.2427 8.4751C96.5942 8.28467 97.0044 8.18945 97.4731 8.18945C97.9956 8.18945 98.4399 8.31152 98.8062 8.55566C99.1724 8.7998 99.4678 9.12695 99.6924 9.53711C99.917 9.94727 100.081 10.4087 100.183 10.9214C100.286 11.4341 100.337 11.9614 100.337 12.5034V12.9941C100.337 13.5459 100.31 14.1074 100.256 14.6787C100.208 15.2451 100.103 15.7871 99.9414 16.3047C99.7852 16.8223 99.5508 17.2861 99.2383 17.6963C98.9258 18.1016 98.5083 18.4238 97.9858 18.6631C97.4683 18.8975 96.8188 19.0146 96.0376 19.0146H95.9424L95.9351 17.8647ZM109.309 14.8179H106.98V13.668H109.309C109.749 13.668 110.103 13.5801 110.371 13.4043C110.645 13.2285 110.842 12.9844 110.964 12.6719C111.091 12.3594 111.155 12.0029 111.155 11.6025C111.155 11.2363 111.091 10.8921 110.964 10.5698C110.842 10.2476 110.645 9.98877 110.371 9.79346C110.103 9.59326 109.749 9.49316 109.309 9.49316H107.258V19H105.911V8.33594H109.309C109.998 8.33594 110.579 8.4751 111.052 8.75342C111.526 9.03174 111.885 9.41748 112.129 9.91064C112.378 10.3989 112.502 10.958 112.502 11.5879C112.502 12.2715 112.378 12.855 112.129 13.3384C111.885 13.8218 111.526 14.1904 111.052 14.4443C110.579 14.6934 109.998 14.8179 109.309 14.8179ZM114.656 8.33594H115.959L118.75 17.0298L121.533 8.33594H122.837L119.255 19H118.23L114.656 8.33594ZM114.231 8.33594H115.374L115.571 14.8398V19H114.231V8.33594ZM122.112 8.33594H123.254V19H121.914V14.8398L122.112 8.33594Z" fill="white"/>
<path d="M173.124 17.8867V19H167.162V18.0259L170.099 14.1367C170.46 13.6582 170.736 13.2529 170.926 12.9209C171.117 12.584 171.249 12.2837 171.322 12.02C171.395 11.7515 171.432 11.478 171.432 11.1997C171.432 10.8481 171.375 10.5308 171.263 10.2476C171.151 9.95947 170.987 9.72998 170.772 9.55908C170.558 9.38818 170.299 9.30273 169.996 9.30273C169.601 9.30273 169.276 9.39551 169.022 9.58105C168.773 9.76172 168.59 10.0156 168.473 10.3428C168.355 10.6699 168.297 11.0459 168.297 11.4707H167C167 10.8701 167.11 10.3208 167.33 9.82275C167.555 9.32471 167.889 8.9292 168.333 8.63623C168.778 8.33838 169.332 8.18945 169.996 8.18945C170.567 8.18945 171.056 8.30908 171.461 8.54834C171.871 8.78271 172.184 9.11475 172.398 9.54443C172.618 9.96924 172.728 10.4673 172.728 11.0386C172.728 11.3511 172.684 11.6685 172.596 11.9907C172.513 12.3081 172.396 12.6255 172.245 12.9429C172.098 13.2603 171.925 13.5728 171.725 13.8804C171.524 14.188 171.31 14.4907 171.08 14.7886L168.714 17.8867H173.124ZM180.278 8.33594L176.542 19.9155H175.451L179.194 8.33594H180.278ZM189.029 8.33594V9.09766L185.359 19H183.997L187.667 9.44922H182.913V8.33594H189.029Z" fill="white"/>
<path d="M100.024 48.3982C106.138 48.3983 112.011 50.8093 116.349 55.1169C120.688 59.4265 123.136 65.2825 123.136 71.3982V71.4011L123.114 92.8123C130.237 93.1037 136 98.9406 136 106.2V142.599C136 150.048 129.933 156 122.556 156H77.4443C70.0671 156 64 150.048 64 142.599V106.2C64.0001 98.9386 69.7666 93.0998 76.8916 92.8113L76.9131 71.3953C76.9139 65.2806 79.3605 59.4258 83.6992 55.1169C88.0371 50.8091 93.9109 48.3982 100.024 48.3982ZM100.024 62.3982C97.5927 62.3982 95.2696 63.3582 93.5645 65.0515C91.861 66.7433 90.9131 69.0274 90.9131 71.3982V71.4011L90.8916 92.7996H109.114L109.123 83.5964L109.136 71.3982L109.124 70.9548C109.014 68.7442 108.08 66.6376 106.483 65.0515C104.778 63.3583 102.456 62.3983 100.024 62.3982Z" fill="white" stroke="black" stroke-width="6" stroke-linecap="round" stroke-linejoin="round"/>
<rect x="94" y="78" width="33" height="12" fill="#FF9500"/>
<rect x="107" y="72" width="18" height="6" fill="black"/>
<rect x="107" y="90" width="14" height="6" fill="black"/>
<path d="M67.5635 187.314V178.377H69.4648V190H67.6602L67.5635 187.314ZM67.918 184.865L68.6699 184.844C68.6699 185.617 68.6019 186.333 68.4658 186.992C68.3369 187.644 68.1221 188.21 67.8213 188.689C67.5277 189.169 67.1374 189.545 66.6504 189.817C66.1634 190.082 65.5654 190.215 64.8564 190.215C64.3766 190.215 63.9398 190.132 63.5459 189.968C63.1592 189.803 62.8226 189.549 62.5361 189.205C62.2568 188.861 62.0384 188.414 61.8809 187.862C61.7305 187.311 61.6553 186.648 61.6553 185.875V178.377H63.5459V185.896C63.5459 186.419 63.5924 186.853 63.6855 187.196C63.7786 187.533 63.904 187.801 64.0615 188.002C64.2191 188.195 64.3945 188.331 64.5879 188.41C64.7812 188.489 64.9782 188.528 65.1787 188.528C65.8519 188.528 66.389 188.367 66.79 188.045C67.1911 187.715 67.4775 187.275 67.6494 186.724C67.8285 186.165 67.918 185.546 67.918 184.865ZM74.2236 180.858V190H72.3223V178.377H74.1162L74.2236 180.858ZM73.7617 183.748L72.9883 183.716C72.9811 182.921 73.0706 182.187 73.2568 181.514C73.4502 180.833 73.7223 180.243 74.0732 179.741C74.4313 179.24 74.8574 178.853 75.3516 178.581C75.8457 178.302 76.3936 178.162 76.9951 178.162C77.4678 178.162 77.8975 178.241 78.2842 178.398C78.6709 178.549 79.0003 178.792 79.2725 179.129C79.5446 179.465 79.7523 179.902 79.8955 180.439C80.0459 180.969 80.1211 181.618 80.1211 182.384V190H78.2197V182.362C78.2197 181.754 78.1517 181.267 78.0156 180.901C77.8867 180.529 77.6862 180.26 77.4141 180.096C77.1491 179.924 76.8125 179.838 76.4043 179.838C76.0319 179.838 75.6846 179.942 75.3623 180.149C75.04 180.357 74.7572 180.644 74.5137 181.009C74.2773 181.374 74.0911 181.793 73.9551 182.266C73.8262 182.731 73.7617 183.225 73.7617 183.748ZM85.0195 173.5V190H83.1289V173.5H85.0195ZM87.6299 184.747V183.641C87.6299 182.738 87.7445 181.947 87.9736 181.267C88.2028 180.579 88.5215 180.006 88.9297 179.548C89.3379 179.09 89.8141 178.746 90.3584 178.517C90.9027 178.28 91.4863 178.162 92.1094 178.162C92.7467 178.162 93.3376 178.28 93.8818 178.517C94.4261 178.746 94.9023 179.09 95.3105 179.548C95.7259 180.006 96.0482 180.579 96.2773 181.267C96.5065 181.947 96.6211 182.738 96.6211 183.641V184.747C96.6211 185.649 96.5065 186.444 96.2773 187.132C96.0482 187.812 95.7295 188.382 95.3213 188.84C94.9131 189.298 94.4368 189.642 93.8926 189.871C93.3483 190.1 92.7611 190.215 92.1309 190.215C91.5007 190.215 90.9134 190.1 90.3691 189.871C89.8249 189.642 89.3451 189.298 88.9297 188.84C88.5215 188.382 88.2028 187.812 87.9736 187.132C87.7445 186.444 87.6299 185.649 87.6299 184.747ZM89.5312 183.641V184.747C89.5312 185.384 89.5957 185.943 89.7246 186.423C89.8535 186.903 90.0361 187.304 90.2725 187.626C90.5088 187.948 90.7845 188.192 91.0996 188.356C91.4147 188.514 91.7585 188.593 92.1309 188.593C92.5605 188.593 92.9365 188.514 93.2588 188.356C93.5882 188.192 93.8604 187.948 94.0752 187.626C94.29 187.304 94.4512 186.903 94.5586 186.423C94.666 185.943 94.7197 185.384 94.7197 184.747V183.641C94.7197 183.003 94.6553 182.448 94.5264 181.976C94.3975 181.496 94.2148 181.095 93.9785 180.772C93.7422 180.443 93.4629 180.2 93.1406 180.042C92.8255 179.877 92.4818 179.795 92.1094 179.795C91.7441 179.795 91.404 179.877 91.0889 180.042C90.7738 180.2 90.498 180.443 90.2617 180.772C90.0326 181.095 89.8535 181.496 89.7246 181.976C89.5957 182.448 89.5312 183.003 89.5312 183.641ZM103.099 188.593C103.478 188.593 103.822 188.518 104.13 188.367C104.445 188.21 104.703 187.966 104.903 187.637C105.104 187.3 105.218 186.863 105.247 186.326H107.03C107.002 187.1 106.805 187.78 106.439 188.367C106.081 188.947 105.609 189.402 105.021 189.731C104.441 190.054 103.8 190.215 103.099 190.215C102.347 190.215 101.691 190.093 101.133 189.85C100.581 189.606 100.123 189.255 99.7578 188.797C99.3997 188.331 99.1312 187.769 98.9521 187.11C98.7731 186.444 98.6836 185.689 98.6836 184.844V183.533C98.6836 182.688 98.7731 181.936 98.9521 181.277C99.1312 180.611 99.3997 180.049 99.7578 179.591C100.123 179.125 100.581 178.771 101.133 178.527C101.691 178.284 102.347 178.162 103.099 178.162C103.886 178.162 104.567 178.33 105.14 178.667C105.72 178.996 106.171 179.476 106.493 180.106C106.823 180.729 107.002 181.485 107.03 182.373H105.247C105.218 181.8 105.115 181.324 104.936 180.944C104.757 180.558 104.513 180.271 104.205 180.085C103.897 179.892 103.528 179.795 103.099 179.795C102.597 179.795 102.182 179.884 101.853 180.063C101.53 180.235 101.276 180.486 101.09 180.815C100.904 181.145 100.771 181.539 100.692 181.997C100.621 182.455 100.585 182.967 100.585 183.533V184.844C100.585 185.41 100.621 185.925 100.692 186.391C100.771 186.849 100.9 187.243 101.079 187.572C101.265 187.902 101.523 188.156 101.853 188.335C102.182 188.507 102.597 188.593 103.099 188.593ZM111.145 173.5V190H109.243V173.5H111.145ZM117.042 178.377L112.906 183.802L110.35 186.745L110.221 184.629L111.982 182.201L114.754 178.377H117.042ZM115.302 190L112.036 184.457L113.014 182.685L117.515 190H115.302ZM123.101 190.215C122.406 190.215 121.779 190.111 121.221 189.903C120.662 189.696 120.186 189.381 119.792 188.958C119.398 188.528 119.097 187.988 118.89 187.336C118.682 186.684 118.578 185.914 118.578 185.026V183.716C118.578 182.692 118.696 181.825 118.933 181.116C119.176 180.407 119.502 179.838 119.91 179.408C120.318 178.971 120.78 178.656 121.296 178.463C121.812 178.262 122.341 178.162 122.886 178.162C123.616 178.162 124.239 178.28 124.755 178.517C125.271 178.753 125.689 179.104 126.012 179.569C126.334 180.035 126.57 180.608 126.721 181.288C126.878 181.968 126.957 182.753 126.957 183.641V184.747H119.695V183.125H125.056V182.856C125.027 182.255 124.945 181.725 124.809 181.267C124.68 180.808 124.465 180.45 124.164 180.192C123.863 179.927 123.437 179.795 122.886 179.795C122.535 179.795 122.209 179.856 121.908 179.978C121.615 180.092 121.36 180.296 121.146 180.59C120.938 180.876 120.773 181.274 120.651 181.782C120.537 182.291 120.479 182.935 120.479 183.716V185.026C120.479 185.649 120.537 186.187 120.651 186.638C120.773 187.082 120.949 187.451 121.178 187.744C121.414 188.031 121.701 188.245 122.037 188.389C122.381 188.525 122.771 188.593 123.208 188.593C123.845 188.593 124.372 188.471 124.787 188.228C125.202 187.977 125.564 187.658 125.872 187.271L126.871 188.464C126.663 188.757 126.391 189.04 126.055 189.312C125.725 189.577 125.317 189.796 124.83 189.968C124.35 190.132 123.774 190.215 123.101 190.215ZM135.347 187.744V173.5H137.237V190H135.508L135.347 187.744ZM128.848 184.747V183.662C128.848 182.702 128.941 181.879 129.127 181.191C129.313 180.497 129.578 179.927 129.922 179.483C130.266 179.032 130.677 178.699 131.157 178.484C131.637 178.27 132.167 178.162 132.747 178.162C133.349 178.162 133.864 178.284 134.294 178.527C134.731 178.771 135.096 179.125 135.39 179.591C135.683 180.049 135.912 180.608 136.077 181.267C136.249 181.918 136.364 182.656 136.421 183.479V184.93C136.356 185.746 136.238 186.48 136.066 187.132C135.902 187.784 135.673 188.339 135.379 188.797C135.085 189.255 134.72 189.606 134.283 189.85C133.846 190.093 133.327 190.215 132.726 190.215C132.153 190.215 131.63 190.104 131.157 189.882C130.685 189.653 130.273 189.312 129.922 188.861C129.578 188.403 129.313 187.834 129.127 187.153C128.941 186.466 128.848 185.664 128.848 184.747ZM130.749 183.662V184.747C130.749 185.392 130.796 185.954 130.889 186.434C130.982 186.906 131.129 187.3 131.329 187.615C131.53 187.923 131.784 188.152 132.092 188.303C132.407 188.453 132.783 188.528 133.22 188.528C133.75 188.528 134.183 188.399 134.52 188.142C134.856 187.884 135.125 187.544 135.325 187.121C135.533 186.691 135.698 186.229 135.819 185.735V182.685C135.748 182.319 135.644 181.968 135.508 181.632C135.372 181.288 135.2 180.984 134.992 180.719C134.792 180.447 134.545 180.232 134.251 180.074C133.965 179.917 133.628 179.838 133.241 179.838C132.804 179.838 132.425 179.917 132.103 180.074C131.787 180.232 131.53 180.468 131.329 180.783C131.136 181.098 130.989 181.496 130.889 181.976C130.796 182.455 130.749 183.018 130.749 183.662Z" fill="white"/>
<line x1="94" y1="125" x2="106" y2="125" stroke="black" stroke-width="6" stroke-linecap="round"/>
<circle cx="209.5" cy="114.5" r="22.5" fill="black"/>
</g>
<defs>
<clipPath id="clip0_6_96">
<rect width="200" height="228" fill="white"/>
</clipPath>
</defs>
</svg>
