<svg width="200" height="228" viewBox="0 0 200 228" fill="none" xmlns="http://www.w3.org/2000/svg">
<g clip-path="url(#clip0_22_558)">
<rect width="200" height="228" fill="white"/>
<rect width="200" height="228" fill="black"/>
<rect width="200" height="228" rx="18" fill="#FF9500"/>
<path d="M18.48 46.16V37.2H36.4V73.04H45.36V82H18.48V73.04H27.44V46.16H18.48ZM52.105 82V37.2H83.465V82H52.105ZM74.505 64.08H61.065V73.04H74.505V64.08ZM61.065 55.12H74.505V46.16H61.065V55.12ZM92.4175 82V37.2H123.778V82H92.4175ZM101.378 46.16V73.04H114.818V46.16H101.378Z" fill="white"/>
<path d="M21.3408 92.5V109H19.4395V92.5H21.3408ZM27.2383 97.377L23.1025 102.802L20.5459 105.745L20.417 103.629L22.1787 101.201L24.9502 97.377H27.2383ZM25.498 109L22.2324 103.457L23.21 101.685L27.7109 109H25.498ZM31.3955 97.377V109H29.5049V97.377H31.3955ZM29.3975 94.2939C29.3975 93.9717 29.487 93.6995 29.666 93.4775C29.8451 93.2555 30.1136 93.1445 30.4717 93.1445C30.8298 93.1445 31.0983 93.2555 31.2773 93.4775C31.4635 93.6995 31.5566 93.9717 31.5566 94.2939C31.5566 94.6019 31.4635 94.8669 31.2773 95.0889C31.0983 95.3037 30.8298 95.4111 30.4717 95.4111C30.1136 95.4111 29.8451 95.3037 29.666 95.0889C29.487 94.8669 29.3975 94.6019 29.3975 94.2939ZM36.4443 92.5V109H34.5537V92.5H36.4443ZM39.0547 103.747V102.641C39.0547 101.738 39.1693 100.947 39.3984 100.267C39.6276 99.5791 39.9463 99.0062 40.3545 98.5479C40.7627 98.0895 41.2389 97.7458 41.7832 97.5166C42.3275 97.2803 42.9111 97.1621 43.5342 97.1621C44.1715 97.1621 44.7624 97.2803 45.3066 97.5166C45.8509 97.7458 46.3271 98.0895 46.7354 98.5479C47.1507 99.0062 47.473 99.5791 47.7021 100.267C47.9313 100.947 48.0459 101.738 48.0459 102.641V103.747C48.0459 104.649 47.9313 105.444 47.7021 106.132C47.473 106.812 47.1543 107.382 46.7461 107.84C46.3379 108.298 45.8617 108.642 45.3174 108.871C44.7731 109.1 44.1859 109.215 43.5557 109.215C42.9255 109.215 42.3382 109.1 41.7939 108.871C41.2497 108.642 40.7699 108.298 40.3545 107.84C39.9463 107.382 39.6276 106.812 39.3984 106.132C39.1693 105.444 39.0547 104.649 39.0547 103.747ZM40.9561 102.641V103.747C40.9561 104.384 41.0205 104.943 41.1494 105.423C41.2783 105.903 41.4609 106.304 41.6973 106.626C41.9336 106.948 42.2093 107.192 42.5244 107.356C42.8395 107.514 43.1833 107.593 43.5557 107.593C43.9854 107.593 44.3613 107.514 44.6836 107.356C45.013 107.192 45.2852 106.948 45.5 106.626C45.7148 106.304 45.876 105.903 45.9834 105.423C46.0908 104.943 46.1445 104.384 46.1445 103.747V102.641C46.1445 102.003 46.0801 101.448 45.9512 100.976C45.8223 100.496 45.6396 100.095 45.4033 99.7725C45.167 99.443 44.8877 99.1995 44.5654 99.042C44.2503 98.8773 43.9066 98.7949 43.5342 98.7949C43.1689 98.7949 42.8288 98.8773 42.5137 99.042C42.1986 99.1995 41.9229 99.443 41.6865 99.7725C41.4574 100.095 41.2783 100.496 41.1494 100.976C41.0205 101.448 40.9561 102.003 40.9561 102.641ZM52.3965 99.6865V109H50.5059V97.377H52.2891L52.3965 99.6865ZM52.0098 102.748L51.1289 102.716C51.1217 101.921 51.2005 101.187 51.3652 100.514C51.5299 99.8333 51.777 99.2425 52.1064 98.7412C52.443 98.2399 52.862 97.8532 53.3633 97.5811C53.8717 97.3018 54.4626 97.1621 55.1357 97.1621C55.5798 97.1621 55.9915 97.2409 56.3711 97.3984C56.7578 97.5488 57.0944 97.7887 57.3809 98.1182C57.6673 98.4476 57.8893 98.8701 58.0469 99.3857C58.2116 99.9014 58.2939 100.524 58.2939 101.255V109H56.3926V101.352C56.3926 100.743 56.3102 100.256 56.1455 99.8906C55.988 99.5254 55.7624 99.2604 55.4688 99.0957C55.1751 98.9238 54.8242 98.8379 54.416 98.8379C53.9505 98.8379 53.5602 98.9417 53.2451 99.1494C52.9372 99.3571 52.6901 99.6436 52.5039 100.009C52.3249 100.374 52.196 100.793 52.1172 101.266C52.0456 101.731 52.0098 102.225 52.0098 102.748ZM58.2725 101.652L57.0049 102.061C56.9977 101.423 57.0765 100.811 57.2412 100.224C57.4059 99.6364 57.6494 99.1136 57.9717 98.6553C58.3011 98.1969 58.7093 97.8353 59.1963 97.5703C59.6833 97.2982 60.249 97.1621 60.8936 97.1621C61.4235 97.1621 61.8926 97.2445 62.3008 97.4092C62.709 97.5739 63.0527 97.8281 63.332 98.1719C63.6185 98.5085 63.8333 98.9417 63.9766 99.4717C64.1198 100.002 64.1914 100.632 64.1914 101.362V109H62.29V101.341C62.29 100.689 62.2077 100.184 62.043 99.8262C61.8854 99.4609 61.6598 99.2067 61.3662 99.0635C61.0726 98.9131 60.7217 98.8379 60.3135 98.8379C59.984 98.8379 59.6904 98.9131 59.4326 99.0635C59.182 99.2139 58.9707 99.4215 58.7988 99.6865C58.627 99.9443 58.4945 100.242 58.4014 100.578C58.3154 100.915 58.2725 101.273 58.2725 101.652ZM71.2168 109.215C70.5221 109.215 69.8955 109.111 69.3369 108.903C68.7783 108.696 68.3021 108.381 67.9082 107.958C67.5143 107.528 67.2135 106.988 67.0059 106.336C66.7982 105.684 66.6943 104.914 66.6943 104.026V102.716C66.6943 101.692 66.8125 100.825 67.0488 100.116C67.2923 99.4072 67.6182 98.8379 68.0264 98.4082C68.4346 97.9714 68.8965 97.6562 69.4121 97.4629C69.9277 97.2624 70.4577 97.1621 71.002 97.1621C71.7324 97.1621 72.3555 97.2803 72.8711 97.5166C73.3867 97.7529 73.8057 98.1038 74.1279 98.5693C74.4502 99.0348 74.6865 99.6077 74.8369 100.288C74.9945 100.968 75.0732 101.753 75.0732 102.641V103.747H67.8115V102.125H73.1719V101.856C73.1432 101.255 73.0609 100.725 72.9248 100.267C72.7959 99.8083 72.5811 99.4502 72.2803 99.1924C71.9795 98.9274 71.5534 98.7949 71.002 98.7949C70.651 98.7949 70.3252 98.8558 70.0244 98.9775C69.7308 99.0921 69.4766 99.2962 69.2617 99.5898C69.054 99.8763 68.8893 100.274 68.7676 100.782C68.653 101.291 68.5957 101.935 68.5957 102.716V104.026C68.5957 104.649 68.653 105.187 68.7676 105.638C68.8893 106.082 69.0648 106.451 69.2939 106.744C69.5303 107.031 69.8167 107.245 70.1533 107.389C70.4971 107.525 70.8874 107.593 71.3242 107.593C71.9616 107.593 72.488 107.471 72.9033 107.228C73.3187 106.977 73.6803 106.658 73.9883 106.271L74.9873 107.464C74.7796 107.757 74.5075 108.04 74.1709 108.312C73.8415 108.577 73.4333 108.796 72.9463 108.968C72.4665 109.132 71.89 109.215 71.2168 109.215ZM81.6152 97.377V98.9023H76.1904V97.377H81.6152ZM77.9629 94.5518H79.8643V106.121C79.8643 106.515 79.9108 106.812 80.0039 107.013C80.1042 107.213 80.2295 107.346 80.3799 107.41C80.5303 107.475 80.6914 107.507 80.8633 107.507C80.9922 107.507 81.1354 107.493 81.293 107.464C81.4505 107.428 81.5579 107.399 81.6152 107.378L81.6045 109C81.4756 109.05 81.3037 109.097 81.0889 109.14C80.874 109.19 80.6019 109.215 80.2725 109.215C79.8643 109.215 79.4847 109.118 79.1338 108.925C78.7829 108.731 78.5 108.409 78.2852 107.958C78.0703 107.5 77.9629 106.884 77.9629 106.11V94.5518ZM88.0391 109.215C87.3444 109.215 86.7178 109.111 86.1592 108.903C85.6006 108.696 85.1243 108.381 84.7305 107.958C84.3366 107.528 84.0358 106.988 83.8281 106.336C83.6204 105.684 83.5166 104.914 83.5166 104.026V102.716C83.5166 101.692 83.6348 100.825 83.8711 100.116C84.1146 99.4072 84.4404 98.8379 84.8486 98.4082C85.2568 97.9714 85.7188 97.6562 86.2344 97.4629C86.75 97.2624 87.2799 97.1621 87.8242 97.1621C88.5547 97.1621 89.1777 97.2803 89.6934 97.5166C90.209 97.7529 90.6279 98.1038 90.9502 98.5693C91.2725 99.0348 91.5088 99.6077 91.6592 100.288C91.8167 100.968 91.8955 101.753 91.8955 102.641V103.747H84.6338V102.125H89.9941V101.856C89.9655 101.255 89.8831 100.725 89.7471 100.267C89.6182 99.8083 89.4033 99.4502 89.1025 99.1924C88.8018 98.9274 88.3757 98.7949 87.8242 98.7949C87.4733 98.7949 87.1475 98.8558 86.8467 98.9775C86.5531 99.0921 86.2988 99.2962 86.084 99.5898C85.8763 99.8763 85.7116 100.274 85.5898 100.782C85.4753 101.291 85.418 101.935 85.418 102.716V104.026C85.418 104.649 85.4753 105.187 85.5898 105.638C85.7116 106.082 85.887 106.451 86.1162 106.744C86.3525 107.031 86.639 107.245 86.9756 107.389C87.3193 107.525 87.7096 107.593 88.1465 107.593C88.7839 107.593 89.3102 107.471 89.7256 107.228C90.141 106.977 90.5026 106.658 90.8105 106.271L91.8096 107.464C91.6019 107.757 91.3298 108.04 90.9932 108.312C90.6637 108.577 90.2555 108.796 89.7686 108.968C89.2887 109.132 88.7122 109.215 88.0391 109.215ZM96.0957 99.2031V109H94.1943V97.377H96.0312L96.0957 99.2031ZM98.9854 97.3125L98.9961 99.1602C98.8385 99.1243 98.6953 99.1029 98.5664 99.0957C98.4447 99.0814 98.3014 99.0742 98.1367 99.0742C97.7786 99.0742 97.4635 99.1458 97.1914 99.2891C96.9264 99.4323 96.6973 99.6328 96.5039 99.8906C96.3105 100.148 96.1566 100.456 96.042 100.814C95.9274 101.165 95.8486 101.552 95.8057 101.975L95.3115 102.297C95.3115 101.595 95.3652 100.936 95.4727 100.32C95.5872 99.7044 95.7627 99.1602 95.999 98.6875C96.2354 98.2077 96.5361 97.8353 96.9014 97.5703C97.2738 97.2982 97.7178 97.1621 98.2334 97.1621C98.348 97.1621 98.4876 97.18 98.6523 97.2158C98.8242 97.2445 98.9352 97.2767 98.9854 97.3125ZM21.3301 121.203V131H19.4287V119.377H21.2656L21.3301 121.203ZM24.2197 119.312L24.2305 121.16C24.0729 121.124 23.9297 121.103 23.8008 121.096C23.679 121.081 23.5358 121.074 23.3711 121.074C23.013 121.074 22.6979 121.146 22.4258 121.289C22.1608 121.432 21.9316 121.633 21.7383 121.891C21.5449 122.148 21.391 122.456 21.2764 122.814C21.1618 123.165 21.083 123.552 21.04 123.975L20.5459 124.297C20.5459 123.595 20.5996 122.936 20.707 122.32C20.8216 121.704 20.9971 121.16 21.2334 120.688C21.4697 120.208 21.7705 119.835 22.1357 119.57C22.5081 119.298 22.9521 119.162 23.4678 119.162C23.5824 119.162 23.722 119.18 23.8867 119.216C24.0586 119.244 24.1696 119.277 24.2197 119.312ZM31.3955 129.013V122.707C31.3955 122.249 31.3239 121.88 31.1807 121.601C31.0446 121.321 30.8369 121.117 30.5576 120.988C30.2855 120.859 29.9417 120.795 29.5264 120.795C29.1253 120.795 28.778 120.877 28.4844 121.042C28.1979 121.207 27.9759 121.425 27.8184 121.697C27.668 121.969 27.5928 122.27 27.5928 122.6H25.6914C25.6914 122.184 25.7809 121.772 25.96 121.364C26.1462 120.956 26.4111 120.587 26.7549 120.258C27.0986 119.921 27.5104 119.656 27.9902 119.463C28.4772 119.262 29.0215 119.162 29.623 119.162C30.3392 119.162 30.973 119.28 31.5244 119.517C32.0758 119.746 32.5091 120.122 32.8242 120.645C33.1393 121.167 33.2969 121.862 33.2969 122.729V128.465C33.2969 128.852 33.3255 129.263 33.3828 129.7C33.4473 130.137 33.5368 130.513 33.6514 130.828V131H31.6855C31.5924 130.771 31.5208 130.466 31.4707 130.087C31.4206 129.7 31.3955 129.342 31.3955 129.013ZM31.6963 123.953L31.7178 125.35H30.3965C29.9453 125.35 29.5335 125.4 29.1611 125.5C28.7959 125.6 28.4808 125.747 28.2158 125.94C27.9508 126.127 27.7467 126.359 27.6035 126.639C27.4674 126.918 27.3994 127.237 27.3994 127.595C27.3994 128.06 27.4639 128.433 27.5928 128.712C27.7217 128.984 27.915 129.181 28.1729 129.303C28.4307 129.424 28.7565 129.485 29.1504 129.485C29.6302 129.485 30.0527 129.374 30.418 129.152C30.7832 128.93 31.0661 128.662 31.2666 128.347C31.4743 128.032 31.571 127.738 31.5566 127.466L31.9756 128.357C31.9469 128.637 31.8538 128.941 31.6963 129.271C31.5459 129.593 31.3346 129.904 31.0625 130.205C30.7904 130.499 30.4681 130.742 30.0957 130.936C29.7305 131.122 29.3187 131.215 28.8604 131.215C28.1872 131.215 27.5964 131.086 27.0879 130.828C26.5866 130.57 26.1963 130.191 25.917 129.689C25.6377 129.188 25.498 128.569 25.498 127.831C25.498 127.272 25.5947 126.757 25.7881 126.284C25.9814 125.812 26.2679 125.403 26.6475 125.06C27.027 124.709 27.5033 124.437 28.0762 124.243C28.6562 124.05 29.3258 123.953 30.085 123.953H31.6963ZM38.1523 121.858V131H36.251V119.377H38.0449L38.1523 121.858ZM37.6904 124.748L36.917 124.716C36.9098 123.921 36.9993 123.187 37.1855 122.514C37.3789 121.833 37.651 121.243 38.002 120.741C38.36 120.24 38.7861 119.853 39.2803 119.581C39.7744 119.302 40.3223 119.162 40.9238 119.162C41.3965 119.162 41.8262 119.241 42.2129 119.398C42.5996 119.549 42.929 119.792 43.2012 120.129C43.4733 120.465 43.681 120.902 43.8242 121.439C43.9746 121.969 44.0498 122.618 44.0498 123.384V131H42.1484V123.362C42.1484 122.754 42.0804 122.267 41.9443 121.901C41.8154 121.529 41.6149 121.26 41.3428 121.096C41.0778 120.924 40.7412 120.838 40.333 120.838C39.9606 120.838 39.6133 120.942 39.291 121.149C38.9688 121.357 38.6859 121.644 38.4424 122.009C38.2061 122.374 38.0199 122.793 37.8838 123.266C37.7549 123.731 37.6904 124.225 37.6904 124.748ZM53.2021 119.377H54.9102V131.097C54.9102 132.121 54.7311 132.966 54.373 133.632C54.0221 134.298 53.5316 134.788 52.9014 135.104C52.2712 135.426 51.5443 135.587 50.7207 135.587C50.4271 135.587 50.0583 135.533 49.6143 135.426C49.1702 135.318 48.7262 135.154 48.2822 134.932C47.8382 134.717 47.473 134.445 47.1865 134.115L47.9707 132.794C48.3789 133.209 48.8122 133.507 49.2705 133.686C49.7288 133.865 50.1657 133.954 50.5811 133.954C51.0752 133.954 51.5049 133.865 51.8701 133.686C52.2354 133.507 52.5182 133.213 52.7188 132.805C52.9193 132.404 53.0195 131.867 53.0195 131.193V121.934L53.2021 119.377ZM46.5205 125.747V124.662C46.5205 123.702 46.61 122.879 46.7891 122.191C46.9681 121.497 47.2259 120.927 47.5625 120.483C47.9062 120.032 48.318 119.699 48.7979 119.484C49.2777 119.27 49.8148 119.162 50.4092 119.162C51.0107 119.162 51.5299 119.284 51.9668 119.527C52.4036 119.771 52.7653 120.125 53.0518 120.591C53.3454 121.049 53.5745 121.608 53.7393 122.267C53.9111 122.918 54.0293 123.656 54.0938 124.479V125.93C54.0293 126.746 53.9111 127.48 53.7393 128.132C53.5745 128.784 53.3418 129.339 53.041 129.797C52.7474 130.255 52.3822 130.606 51.9453 130.85C51.5085 131.093 50.9893 131.215 50.3877 131.215C49.8005 131.215 49.2705 131.104 48.7979 130.882C48.3252 130.653 47.917 130.312 47.5732 129.861C47.2367 129.403 46.9753 128.834 46.7891 128.153C46.61 127.466 46.5205 126.664 46.5205 125.747ZM48.4219 124.662V125.747C48.4219 126.392 48.4684 126.954 48.5615 127.434C48.6546 127.906 48.7979 128.3 48.9912 128.615C49.1917 128.923 49.446 129.152 49.7539 129.303C50.069 129.453 50.445 129.528 50.8818 129.528C51.4118 129.528 51.8451 129.399 52.1816 129.142C52.5182 128.884 52.7868 128.544 52.9873 128.121C53.195 127.691 53.3597 127.229 53.4814 126.735V123.685C53.4098 123.319 53.306 122.968 53.1699 122.632C53.041 122.288 52.8727 121.984 52.665 121.719C52.4574 121.447 52.2067 121.232 51.9131 121.074C51.6266 120.917 51.29 120.838 50.9033 120.838C50.4665 120.838 50.0905 120.917 49.7754 121.074C49.4603 121.232 49.2025 121.468 49.002 121.783C48.8014 122.098 48.6546 122.496 48.5615 122.976C48.4684 123.455 48.4219 124.018 48.4219 124.662ZM61.9141 131.215C61.2194 131.215 60.5928 131.111 60.0342 130.903C59.4756 130.696 58.9993 130.381 58.6055 129.958C58.2116 129.528 57.9108 128.988 57.7031 128.336C57.4954 127.684 57.3916 126.914 57.3916 126.026V124.716C57.3916 123.692 57.5098 122.825 57.7461 122.116C57.9896 121.407 58.3154 120.838 58.7236 120.408C59.1318 119.971 59.5938 119.656 60.1094 119.463C60.625 119.262 61.1549 119.162 61.6992 119.162C62.4297 119.162 63.0527 119.28 63.5684 119.517C64.084 119.753 64.5029 120.104 64.8252 120.569C65.1475 121.035 65.3838 121.608 65.5342 122.288C65.6917 122.968 65.7705 123.753 65.7705 124.641V125.747H58.5088V124.125H63.8691V123.856C63.8405 123.255 63.7581 122.725 63.6221 122.267C63.4932 121.808 63.2783 121.45 62.9775 121.192C62.6768 120.927 62.2507 120.795 61.6992 120.795C61.3483 120.795 61.0225 120.856 60.7217 120.978C60.4281 121.092 60.1738 121.296 59.959 121.59C59.7513 121.876 59.5866 122.274 59.4648 122.782C59.3503 123.291 59.293 123.935 59.293 124.716V126.026C59.293 126.649 59.3503 127.187 59.4648 127.638C59.5866 128.082 59.762 128.451 59.9912 128.744C60.2275 129.031 60.514 129.245 60.8506 129.389C61.1943 129.525 61.5846 129.593 62.0215 129.593C62.6589 129.593 63.1852 129.471 63.6006 129.228C64.016 128.977 64.3776 128.658 64.6855 128.271L65.6846 129.464C65.4769 129.757 65.2048 130.04 64.8682 130.312C64.5387 130.577 64.1305 130.796 63.6436 130.968C63.1637 131.132 62.5872 131.215 61.9141 131.215Z" fill="white"/>
<path d="M78.0054 13.9243L76.9727 13.646L77.4268 8.33594H82.0703V9.58838H78.5181L78.269 12.4888C78.4351 12.3765 78.6353 12.2715 78.8696 12.1738C79.104 12.0762 79.3774 12.0273 79.6899 12.0273C80.1099 12.0273 80.4834 12.1128 80.8105 12.2837C81.1426 12.4497 81.4233 12.689 81.6528 13.0015C81.8823 13.314 82.0581 13.6899 82.1802 14.1294C82.3022 14.5688 82.3633 15.0596 82.3633 15.6016C82.3633 16.1143 82.3022 16.5854 82.1802 17.0151C82.063 17.4448 81.8823 17.8208 81.6382 18.1431C81.3989 18.4604 81.0962 18.707 80.73 18.8828C80.3687 19.0586 79.9463 19.1465 79.4629 19.1465C79.1016 19.1465 78.7598 19.0879 78.4375 18.9707C78.1152 18.8486 77.8247 18.6655 77.5659 18.4214C77.312 18.1724 77.1045 17.8647 76.9434 17.4985C76.7822 17.1274 76.6821 16.6929 76.6431 16.1948H77.8662C77.915 16.5952 78.0078 16.9321 78.1445 17.2056C78.2861 17.479 78.4668 17.6865 78.6865 17.8281C78.9111 17.9648 79.1699 18.0332 79.4629 18.0332C79.7119 18.0332 79.9365 17.9771 80.1367 17.8647C80.3369 17.7524 80.5054 17.5913 80.6421 17.3813C80.7788 17.1714 80.8838 16.9175 80.957 16.6196C81.0303 16.3218 81.0669 15.9873 81.0669 15.6162C81.0669 15.2793 81.0303 14.9668 80.957 14.6787C80.8838 14.3906 80.7739 14.1392 80.6274 13.9243C80.481 13.7095 80.3027 13.5435 80.0928 13.4263C79.8877 13.3042 79.6484 13.2432 79.375 13.2432C79.0088 13.2432 78.7378 13.3042 78.562 13.4263C78.3911 13.5483 78.2056 13.7144 78.0054 13.9243ZM84.0039 18.2822C84.0039 18.0527 84.0747 17.8599 84.2163 17.7036C84.3628 17.5425 84.5728 17.4619 84.8462 17.4619C85.1196 17.4619 85.3271 17.5425 85.4688 17.7036C85.6152 17.8599 85.6885 18.0527 85.6885 18.2822C85.6885 18.5068 85.6152 18.6973 85.4688 18.8535C85.3271 19.0098 85.1196 19.0879 84.8462 19.0879C84.5728 19.0879 84.3628 19.0098 84.2163 18.8535C84.0747 18.6973 84.0039 18.5068 84.0039 18.2822ZM83.9966 11.8149C83.9966 11.5854 84.0674 11.3926 84.209 11.2363C84.3555 11.0752 84.5654 10.9946 84.8389 10.9946C85.1123 10.9946 85.3198 11.0752 85.4614 11.2363C85.6079 11.3926 85.6812 11.5854 85.6812 11.8149C85.6812 12.0396 85.6079 12.23 85.4614 12.3862C85.3198 12.5425 85.1123 12.6206 84.8389 12.6206C84.5654 12.6206 84.3555 12.5425 84.209 12.3862C84.0674 12.23 83.9966 12.0396 83.9966 11.8149ZM93.313 17.8867V19H87.3511V18.0259L90.2881 14.1367C90.6494 13.6582 90.9253 13.2529 91.1157 12.9209C91.3062 12.584 91.438 12.2837 91.5112 12.02C91.5845 11.7515 91.6211 11.478 91.6211 11.1997C91.6211 10.8481 91.5649 10.5308 91.4526 10.2476C91.3403 9.95947 91.1768 9.72998 90.9619 9.55908C90.7471 9.38818 90.4883 9.30273 90.1855 9.30273C89.79 9.30273 89.4653 9.39551 89.2114 9.58105C88.9624 9.76172 88.7793 10.0156 88.6621 10.3428C88.5449 10.6699 88.4863 11.0459 88.4863 11.4707H87.1899C87.1899 10.8701 87.2998 10.3208 87.5195 9.82275C87.7441 9.32471 88.0786 8.9292 88.5229 8.63623C88.9673 8.33838 89.5215 8.18945 90.1855 8.18945C90.7568 8.18945 91.2451 8.30908 91.6504 8.54834C92.0605 8.78271 92.373 9.11475 92.5879 9.54443C92.8076 9.96924 92.9175 10.4673 92.9175 11.0386C92.9175 11.3511 92.8735 11.6685 92.7856 11.9907C92.7026 12.3081 92.5854 12.6255 92.4341 12.9429C92.2876 13.2603 92.1143 13.5728 91.9141 13.8804C91.7139 14.188 91.499 14.4907 91.2695 14.7886L88.9038 17.8867H93.313ZM95.9351 17.8647H96.0376C96.6968 17.8647 97.2266 17.7549 97.627 17.5352C98.0273 17.3154 98.3276 17.02 98.5278 16.6489C98.7329 16.2778 98.8696 15.8604 98.938 15.3965C99.0112 14.9277 99.0479 14.4468 99.0479 13.9536V12.3203C99.0479 11.8369 99.0015 11.4072 98.9087 11.0312C98.8208 10.6553 98.7012 10.3403 98.5498 10.0864C98.4033 9.83252 98.2349 9.63965 98.0444 9.50781C97.8589 9.37598 97.6685 9.31006 97.4731 9.31006C97.2241 9.31006 97.0044 9.37354 96.814 9.50049C96.6235 9.62256 96.4624 9.7959 96.3306 10.0205C96.2036 10.2451 96.106 10.5088 96.0376 10.8115C95.9692 11.1143 95.9351 11.4438 95.9351 11.8003C95.9351 12.1177 95.9644 12.4253 96.0229 12.7231C96.0815 13.021 96.1719 13.2896 96.2939 13.5288C96.4209 13.7681 96.5771 13.9585 96.7627 14.1001C96.9531 14.2368 97.1777 14.3052 97.4365 14.3052C97.6514 14.3052 97.8589 14.2466 98.0591 14.1294C98.2642 14.0073 98.4497 13.8438 98.6157 13.6387C98.7817 13.4287 98.9185 13.1919 99.0259 12.9282C99.1333 12.6646 99.1968 12.3887 99.2163 12.1006H99.8242C99.8242 12.5059 99.7583 12.9062 99.6265 13.3018C99.4995 13.6924 99.3164 14.0488 99.0771 14.3711C98.8428 14.6934 98.5669 14.9521 98.2495 15.1475C97.937 15.3379 97.5928 15.4331 97.2168 15.4331C96.7627 15.4331 96.3745 15.3306 96.0522 15.1255C95.73 14.9204 95.4663 14.647 95.2612 14.3052C95.061 13.9634 94.9121 13.5825 94.8145 13.1626C94.7168 12.7378 94.668 12.3081 94.668 11.8735C94.668 11.3657 94.7266 10.8896 94.8438 10.4453C94.9609 10.001 95.1343 9.61035 95.3638 9.27344C95.5981 8.93164 95.8911 8.66553 96.2427 8.4751C96.5942 8.28467 97.0044 8.18945 97.4731 8.18945C97.9956 8.18945 98.4399 8.31152 98.8062 8.55566C99.1724 8.7998 99.4678 9.12695 99.6924 9.53711C99.917 9.94727 100.081 10.4087 100.183 10.9214C100.286 11.4341 100.337 11.9614 100.337 12.5034V12.9941C100.337 13.5459 100.31 14.1074 100.256 14.6787C100.208 15.2451 100.103 15.7871 99.9414 16.3047C99.7852 16.8223 99.5508 17.2861 99.2383 17.6963C98.9258 18.1016 98.5083 18.4238 97.9858 18.6631C97.4683 18.8975 96.8188 19.0146 96.0376 19.0146H95.9424L95.9351 17.8647ZM109.309 14.8179H106.98V13.668H109.309C109.749 13.668 110.103 13.5801 110.371 13.4043C110.645 13.2285 110.842 12.9844 110.964 12.6719C111.091 12.3594 111.155 12.0029 111.155 11.6025C111.155 11.2363 111.091 10.8921 110.964 10.5698C110.842 10.2476 110.645 9.98877 110.371 9.79346C110.103 9.59326 109.749 9.49316 109.309 9.49316H107.258V19H105.911V8.33594H109.309C109.998 8.33594 110.579 8.4751 111.052 8.75342C111.526 9.03174 111.885 9.41748 112.129 9.91064C112.378 10.3989 112.502 10.958 112.502 11.5879C112.502 12.2715 112.378 12.855 112.129 13.3384C111.885 13.8218 111.526 14.1904 111.052 14.4443C110.579 14.6934 109.998 14.8179 109.309 14.8179ZM114.656 8.33594H115.959L118.75 17.0298L121.533 8.33594H122.837L119.255 19H118.23L114.656 8.33594ZM114.231 8.33594H115.374L115.571 14.8398V19H114.231V8.33594ZM122.112 8.33594H123.254V19H121.914V14.8398L122.112 8.33594Z" fill="white"/>
<mask id="path-6-outside-1_22_558" maskUnits="userSpaceOnUse" x="127" y="123.595" width="66" height="116" fill="black">
<rect fill="white" x="127" y="123.595" width="66" height="116"/>
<path fill-rule="evenodd" clip-rule="evenodd" d="M159.495 129.595C164.077 129.595 167.794 133.295 167.821 137.871C167.821 137.871 167.822 137.871 167.822 137.871C167.822 137.871 167.822 137.871 167.822 137.872V199.163C167.822 200.861 169.3 202.271 170.796 201.469C172.923 200.329 174.373 198.093 174.393 195.516C174.393 195.516 174.393 195.516 174.393 195.516C174.393 195.516 174.394 195.515 174.394 195.515V195.106C174.394 195.103 174.391 195.101 174.388 195.101C174.385 195.101 174.383 195.098 174.383 195.095V174.107C174.383 174.107 174.383 174.106 174.383 174.106C174.384 174.106 174.384 174.106 174.384 174.106C174.384 174.09 174.383 174.073 174.383 174.057C174.383 170.851 176.981 168.253 180.187 168.253C183.391 168.253 185.99 170.852 185.99 174.057C185.99 174.073 185.989 174.09 185.989 174.106C185.989 174.106 185.989 174.106 185.99 174.106C185.99 174.106 185.99 174.107 185.99 174.107V194.896C185.996 195.084 186.001 195.275 186.001 195.465C186 204.55 179.422 212.097 170.769 213.607C169.152 213.89 167.822 215.201 167.822 216.842V230.455C167.822 232.112 166.479 233.455 164.822 233.455H154.168C152.511 233.455 151.168 232.112 151.168 230.455V207.758C151.168 206.117 149.84 204.806 148.223 204.523C139.575 203.009 133.002 195.464 133.001 186.382C133.001 186.192 133.006 186 133.012 185.812V178.543C133.005 178.427 133 178.311 133 178.193C133 174.988 135.599 172.39 138.804 172.39C141.956 172.39 144.519 174.903 144.603 178.034C144.603 178.039 144.607 178.042 144.611 178.042C144.616 178.042 144.619 178.046 144.619 178.05V186.011C144.619 186.014 144.617 186.017 144.614 186.017C144.611 186.017 144.608 186.019 144.608 186.022V186.432C144.608 186.432 144.609 186.433 144.609 186.433C144.609 186.433 144.609 186.433 144.609 186.433C144.629 189.005 146.073 191.236 148.191 192.378C149.687 193.185 151.168 191.774 151.168 190.074V137.872C151.168 137.871 151.168 137.871 151.168 137.871C151.169 137.871 151.169 137.871 151.169 137.871C151.196 133.295 154.913 129.595 159.495 129.595Z"/>
</mask>
<path fill-rule="evenodd" clip-rule="evenodd" d="M159.495 129.595C164.077 129.595 167.794 133.295 167.821 137.871C167.821 137.871 167.822 137.871 167.822 137.871C167.822 137.871 167.822 137.871 167.822 137.872V199.163C167.822 200.861 169.3 202.271 170.796 201.469C172.923 200.329 174.373 198.093 174.393 195.516C174.393 195.516 174.393 195.516 174.393 195.516C174.393 195.516 174.394 195.515 174.394 195.515V195.106C174.394 195.103 174.391 195.101 174.388 195.101C174.385 195.101 174.383 195.098 174.383 195.095V174.107C174.383 174.107 174.383 174.106 174.383 174.106C174.384 174.106 174.384 174.106 174.384 174.106C174.384 174.09 174.383 174.073 174.383 174.057C174.383 170.851 176.981 168.253 180.187 168.253C183.391 168.253 185.99 170.852 185.99 174.057C185.99 174.073 185.989 174.09 185.989 174.106C185.989 174.106 185.989 174.106 185.99 174.106C185.99 174.106 185.99 174.107 185.99 174.107V194.896C185.996 195.084 186.001 195.275 186.001 195.465C186 204.55 179.422 212.097 170.769 213.607C169.152 213.89 167.822 215.201 167.822 216.842V230.455C167.822 232.112 166.479 233.455 164.822 233.455H154.168C152.511 233.455 151.168 232.112 151.168 230.455V207.758C151.168 206.117 149.84 204.806 148.223 204.523C139.575 203.009 133.002 195.464 133.001 186.382C133.001 186.192 133.006 186 133.012 185.812V178.543C133.005 178.427 133 178.311 133 178.193C133 174.988 135.599 172.39 138.804 172.39C141.956 172.39 144.519 174.903 144.603 178.034C144.603 178.039 144.607 178.042 144.611 178.042C144.616 178.042 144.619 178.046 144.619 178.05V186.011C144.619 186.014 144.617 186.017 144.614 186.017C144.611 186.017 144.608 186.019 144.608 186.022V186.432C144.608 186.432 144.609 186.433 144.609 186.433C144.609 186.433 144.609 186.433 144.609 186.433C144.629 189.005 146.073 191.236 148.191 192.378C149.687 193.185 151.168 191.774 151.168 190.074V137.872C151.168 137.871 151.168 137.871 151.168 137.871C151.169 137.871 151.169 137.871 151.169 137.871C151.196 133.295 154.913 129.595 159.495 129.595Z" fill="white"/>
<path d="M159.495 129.595L159.495 123.595H159.495V129.595ZM174.383 174.057L168.383 174.057L168.383 174.068L174.383 174.057ZM180.187 168.253L180.187 162.253H180.186L180.187 168.253ZM185.99 174.057L191.99 174.067V174.057L185.99 174.057ZM185.99 194.896H179.99V194.987L179.993 195.078L185.99 194.896ZM186.001 195.465L192.001 195.465V195.465L186.001 195.465ZM133.001 186.382L127.001 186.382V186.382L133.001 186.382ZM133.012 185.812L139.009 185.994L139.012 185.903V185.812H133.012ZM133.012 178.543H139.012V178.365L139.001 178.187L133.012 178.543ZM133 178.193L127 178.193V178.193H133ZM138.804 172.39L138.804 166.39H138.804V172.39ZM151.169 137.871L145.169 137.835L151.169 137.871ZM148.223 204.523L149.257 198.613L148.223 204.523ZM170.769 213.607L169.737 207.697L170.769 213.607ZM174.384 174.106L168.384 174.162L174.384 174.106ZM144.609 186.433L138.61 186.479L144.609 186.433ZM174.393 195.516L168.393 195.471L174.393 195.516ZM144.603 178.034L138.605 178.196L144.603 178.034ZM185.989 174.106L179.99 174.05L185.989 174.106ZM167.821 137.871L173.821 137.835L167.821 137.871ZM159.495 129.595L159.495 135.595C160.775 135.595 161.814 136.629 161.821 137.907L167.821 137.871L173.821 137.835C173.774 129.962 167.379 123.595 159.495 123.595L159.495 129.595ZM167.822 137.872H161.822V199.163H167.822H173.822V137.872H167.822ZM170.796 201.469L173.632 206.757C177.616 204.621 180.356 200.419 180.392 195.561L174.393 195.516L168.393 195.471C168.391 195.768 168.23 196.037 167.961 196.181L170.796 201.469ZM174.394 195.515H180.394V195.106H174.394H168.394V195.515H174.394ZM174.383 195.095H180.383V174.107H174.383H168.383V195.095H174.383ZM174.384 174.106L180.384 174.05C180.383 174.029 180.383 174.01 180.383 173.994C180.382 173.978 180.382 173.964 180.382 173.954C180.382 173.944 180.381 173.935 180.381 173.93C180.381 173.928 180.381 173.925 180.381 173.924C180.381 173.922 180.381 173.922 180.381 173.922C180.381 173.921 180.381 173.924 180.381 173.929C180.381 173.933 180.382 173.941 180.382 173.951C180.382 173.961 180.382 173.974 180.382 173.99C180.383 174.006 180.383 174.024 180.383 174.046L174.383 174.057L168.383 174.068C168.383 174.118 168.384 174.159 168.384 174.187C168.385 174.213 168.385 174.235 168.385 174.241C168.385 174.242 168.385 174.244 168.385 174.245C168.386 174.246 168.385 174.245 168.385 174.245C168.385 174.244 168.385 174.24 168.385 174.233C168.385 174.222 168.384 174.196 168.384 174.162L174.384 174.106ZM174.383 174.057L180.383 174.057C180.383 174.073 180.378 174.103 180.365 174.135C180.353 174.163 180.339 174.182 180.325 174.196C180.312 174.209 180.293 174.223 180.265 174.235C180.233 174.248 180.203 174.253 180.187 174.253L180.187 168.253L180.186 162.253C173.668 162.253 168.383 167.538 168.383 174.057L174.383 174.057ZM180.187 168.253L180.186 174.253C180.17 174.253 180.139 174.248 180.108 174.235C180.08 174.223 180.061 174.209 180.048 174.196C180.034 174.183 180.02 174.163 180.008 174.135C179.995 174.104 179.99 174.073 179.99 174.057L185.99 174.057L191.99 174.057C191.99 167.537 186.705 162.254 180.187 162.253L180.187 168.253ZM185.99 174.057L179.99 174.046C179.99 174.024 179.99 174.006 179.991 173.99C179.991 173.974 179.991 173.961 179.991 173.951C179.991 173.941 179.992 173.933 179.992 173.929C179.992 173.924 179.992 173.921 179.992 173.922C179.992 173.922 179.992 173.922 179.992 173.924C179.992 173.925 179.992 173.928 179.992 173.93C179.992 173.935 179.991 173.944 179.991 173.954C179.991 173.964 179.991 173.978 179.99 173.994C179.99 174.01 179.99 174.029 179.99 174.05L185.989 174.106L191.989 174.162C191.989 174.196 191.988 174.222 191.988 174.233C191.988 174.24 191.988 174.244 191.988 174.245C191.988 174.245 191.988 174.246 191.988 174.245C191.988 174.244 191.988 174.242 191.988 174.241C191.988 174.235 191.988 174.213 191.989 174.187C191.989 174.159 191.99 174.118 191.99 174.067L185.99 174.057ZM185.99 174.107H179.99V194.896H185.99H191.99V174.107H185.99ZM185.99 194.896L179.993 195.078C179.998 195.258 180.001 195.372 180.001 195.465L186.001 195.465L192.001 195.465C192.001 195.178 191.993 194.91 191.987 194.713L185.99 194.896ZM186.001 195.465L180.001 195.464C180.001 201.583 175.568 206.679 169.737 207.697L170.769 213.607L171.8 219.518C183.275 217.516 192 207.517 192.001 195.465L186.001 195.465ZM167.822 216.842H161.822V230.455H167.822H173.822V216.842H167.822ZM164.822 233.455V227.455H154.168V233.455V239.455H164.822V233.455ZM151.168 230.455H157.168V207.758H151.168H145.168V230.455H151.168ZM148.223 204.523L149.257 198.613C143.43 197.593 139.001 192.499 139.001 186.381L133.001 186.382L127.001 186.382C127.002 198.429 135.719 208.426 147.189 210.433L148.223 204.523ZM133.001 186.382L139.001 186.382C139.001 186.288 139.003 186.174 139.009 185.994L133.012 185.812L127.014 185.629C127.008 185.827 127.001 186.095 127.001 186.382L133.001 186.382ZM133.012 185.812H139.012V178.543H133.012H127.012V185.812H133.012ZM133.012 178.543L139.001 178.187C139 178.165 138.999 178.155 138.999 178.156C139 178.156 139 178.17 139 178.193H133H127C127 178.472 127.011 178.716 127.022 178.899L133.012 178.543ZM133 178.193L139 178.194C139 178.21 138.996 178.24 138.982 178.272C138.97 178.3 138.956 178.319 138.943 178.332C138.929 178.346 138.91 178.36 138.882 178.372C138.85 178.385 138.82 178.39 138.804 178.39V172.39V166.39C132.284 166.39 127 171.675 127 178.193L133 178.193ZM138.804 172.39L138.804 178.39C138.788 178.39 138.758 178.385 138.726 178.372C138.697 178.36 138.678 178.346 138.664 178.333C138.651 178.32 138.637 178.301 138.625 178.275C138.612 178.245 138.606 178.215 138.605 178.196L144.603 178.034L150.601 177.872C150.429 171.503 145.218 166.39 138.804 166.39L138.804 172.39ZM144.619 178.05H138.619V186.011H144.619H150.619V178.05H144.619ZM144.608 186.022H138.608V186.432H144.608H150.608V186.022H144.608ZM144.609 186.433L138.61 186.479C138.646 191.325 141.373 195.519 145.343 197.659L148.191 192.378L151.038 187.097C150.772 186.953 150.611 186.685 150.609 186.387L144.609 186.433ZM151.168 190.074H157.168V137.872H151.168H145.168V190.074H151.168ZM151.169 137.871L157.169 137.907C157.177 136.628 158.215 135.595 159.495 135.595V129.595V123.595C151.611 123.595 145.216 129.962 145.169 137.835L151.169 137.871ZM151.168 137.871V143.871C154.513 143.871 157.149 141.162 157.169 137.907L151.169 137.871L145.169 137.835C145.189 134.58 147.825 131.871 151.168 131.871V137.871ZM151.168 137.872H157.168C157.168 141.213 154.453 143.871 151.168 143.871V137.871V131.871C147.883 131.871 145.168 134.529 145.168 137.872H151.168ZM151.168 207.758H157.168C157.168 202.639 153.152 199.295 149.257 198.613L148.223 204.523L147.189 210.433C146.747 210.356 146.304 210.138 145.93 209.741C145.532 209.318 145.168 208.623 145.168 207.758H151.168ZM154.168 233.455V227.455C155.825 227.455 157.168 228.798 157.168 230.455H151.168H145.168C145.168 235.426 149.197 239.455 154.168 239.455V233.455ZM167.822 230.455H161.822C161.822 228.798 163.165 227.455 164.822 227.455V233.455V239.455C169.793 239.455 173.822 235.426 173.822 230.455H167.822ZM170.769 213.607L169.737 207.697C165.841 208.377 161.822 211.722 161.822 216.842H167.822H173.822C173.822 217.708 173.458 218.403 173.06 218.826C172.686 219.223 172.242 219.441 171.8 219.518L170.769 213.607ZM148.191 192.378L145.343 197.659C148.491 199.356 151.862 198.625 154.081 196.775C156.096 195.097 157.168 192.585 157.168 190.074H151.168H145.168C145.168 189.263 145.5 188.306 146.4 187.556C146.882 187.155 147.596 186.767 148.514 186.647C149.472 186.523 150.36 186.731 151.038 187.097L148.191 192.378ZM174.383 174.106V180.106C177.706 180.106 180.415 177.398 180.384 174.05L174.384 174.106L168.384 174.162C168.353 170.814 171.061 168.106 174.383 168.106V174.106ZM144.609 186.433V192.433C141.27 192.433 138.634 189.731 138.61 186.479L144.609 186.433L150.609 186.387C150.584 183.135 147.948 180.433 144.609 180.433V186.433ZM174.383 174.107H180.383C180.383 177.411 177.706 180.106 174.383 180.106V174.106V168.106C171.06 168.106 168.383 170.802 168.383 174.107H174.383ZM144.608 186.432H138.608C138.608 189.746 141.295 192.433 144.609 192.433V186.433V180.433C147.922 180.433 150.608 183.119 150.608 186.432H144.608ZM174.388 195.101V189.101C177.699 189.101 180.383 191.784 180.383 195.095H174.383H168.383C168.383 198.412 171.072 201.101 174.388 201.101V195.101ZM144.614 186.017V180.017C141.297 180.017 138.608 182.705 138.608 186.022H144.608H150.608C150.608 189.333 147.925 192.017 144.614 192.017V186.017ZM174.394 195.106H180.394C180.394 191.789 177.705 189.101 174.388 189.101V195.101V201.101C171.077 201.101 168.394 198.417 168.394 195.106H174.394ZM144.619 186.011H138.619C138.619 182.701 141.303 180.017 144.614 180.017V186.017V192.017C147.931 192.017 150.619 189.328 150.619 186.011H144.619ZM174.393 195.516V201.516C177.707 201.516 180.394 198.829 180.394 195.515H174.394H168.394C168.394 192.202 171.08 189.516 174.393 189.516V195.516ZM144.611 178.042V184.042C141.302 184.042 138.619 181.359 138.619 178.05H144.619H150.619C150.619 174.732 147.929 172.042 144.611 172.042V178.042ZM174.393 195.516L180.392 195.561C180.368 198.812 177.733 201.516 174.393 201.516V195.516V189.516C171.052 189.516 168.417 192.219 168.393 195.471L174.393 195.516ZM185.99 174.106V180.106C182.676 180.106 179.99 177.42 179.99 174.107H185.99H191.99C191.99 170.793 189.304 168.106 185.99 168.106V174.106ZM144.603 178.034L138.605 178.196C138.692 181.405 141.311 184.042 144.611 184.042V178.042V172.042C147.903 172.042 150.515 174.672 150.601 177.872L144.603 178.034ZM167.822 199.163H161.822C161.822 201.671 162.892 204.181 164.903 205.859C167.118 207.709 170.484 208.445 173.632 206.757L170.796 201.469L167.961 196.181C168.64 195.817 169.527 195.611 170.483 195.737C171.4 195.858 172.112 196.246 172.593 196.647C173.491 197.397 173.822 198.352 173.822 199.163H167.822ZM185.989 174.106L179.99 174.05C179.958 177.399 182.667 180.106 185.99 180.106V174.106V168.106C189.312 168.106 192.02 170.814 191.989 174.162L185.989 174.106ZM167.822 137.871V143.871C164.508 143.871 161.822 141.185 161.822 137.872H167.822H173.822C173.822 134.558 171.136 131.871 167.822 131.871V137.871ZM167.821 137.871L161.821 137.907C161.841 141.168 164.483 143.871 167.822 143.871V137.871V131.871C171.16 131.871 173.802 134.574 173.821 137.835L167.821 137.871Z" fill="black" mask="url(#path-6-outside-1_22_558)"/>
<path d="M31.3813 198.862L30.588 207.991C30.2489 211.893 32.7851 215.467 36.5806 216.435L52.6213 220.527C53.2513 220.688 53.8797 220.771 54.5299 220.775C82.8237 220.949 138.661 221.183 143.135 220.769C146.677 220.442 150.065 219.346 152.123 218.509C153.05 218.132 153.911 217.537 154.322 216.625C155.551 213.901 154.876 209.71 154.125 206.248C153.74 204.475 152.758 202.859 151.181 201.963C144.038 197.9 131.272 195.635 123.937 194.81C122.764 194.679 121.635 194.319 120.616 193.724C113.819 189.758 101.964 183.048 98.8241 182.081C94.5815 180.773 72.4258 180.512 63.7049 182.081C57.0545 183.277 45.3069 188.368 39.5272 191.106C38.9874 191.362 38.427 191.559 37.8449 191.692L37.5621 191.757C34.1786 192.534 31.6819 195.403 31.3813 198.862Z" fill="white" stroke="black" stroke-width="6"/>
<circle cx="56.5" cy="217.5" r="11.5" fill="white" stroke="black" stroke-width="6"/>
<circle cx="132.5" cy="217.5" r="11.5" fill="white" stroke="black" stroke-width="6"/>
<path d="M168.729 13.9243L167.696 13.646L168.15 8.33594H172.794V9.58838H169.242L168.993 12.4888C169.159 12.3765 169.359 12.2715 169.593 12.1738C169.828 12.0762 170.101 12.0273 170.414 12.0273C170.833 12.0273 171.207 12.1128 171.534 12.2837C171.866 12.4497 172.147 12.689 172.376 13.0015C172.606 13.314 172.782 13.6899 172.904 14.1294C173.026 14.5688 173.087 15.0596 173.087 15.6016C173.087 16.1143 173.026 16.5854 172.904 17.0151C172.787 17.4448 172.606 17.8208 172.362 18.1431C172.123 18.4604 171.82 18.707 171.454 18.8828C171.092 19.0586 170.67 19.1465 170.187 19.1465C169.825 19.1465 169.483 19.0879 169.161 18.9707C168.839 18.8486 168.548 18.6655 168.29 18.4214C168.036 18.1724 167.828 17.8647 167.667 17.4985C167.506 17.1274 167.406 16.6929 167.367 16.1948H168.59C168.639 16.5952 168.731 16.9321 168.868 17.2056C169.01 17.479 169.19 17.6865 169.41 17.8281C169.635 17.9648 169.894 18.0332 170.187 18.0332C170.436 18.0332 170.66 17.9771 170.86 17.8647C171.061 17.7524 171.229 17.5913 171.366 17.3813C171.502 17.1714 171.607 16.9175 171.681 16.6196C171.754 16.3218 171.791 15.9873 171.791 15.6162C171.791 15.2793 171.754 14.9668 171.681 14.6787C171.607 14.3906 171.498 14.1392 171.351 13.9243C171.205 13.7095 171.026 13.5435 170.816 13.4263C170.611 13.3042 170.372 13.2432 170.099 13.2432C169.732 13.2432 169.461 13.3042 169.286 13.4263C169.115 13.5483 168.929 13.7144 168.729 13.9243ZM180.278 8.33594L176.542 19.9155H175.451L179.194 8.33594H180.278ZM189.029 8.33594V9.09766L185.359 19H183.997L187.667 9.44922H182.913V8.33594H189.029Z" fill="white"/>
<path fill-rule="evenodd" clip-rule="evenodd" d="M0 210C0 219.941 8.05888 228 18 228H0V210ZM200 228H182C191.941 228 200 219.941 200 210V228ZM18 0C8.05888 4.76837e-07 0 8.05888 0 18V0H18ZM200 18C200 8.05888 191.941 0 182 0H200V18Z" fill="black"/>
<mask id="path-13-outside-2_22_558" maskUnits="userSpaceOnUse" x="10" y="158" width="50" height="79" fill="black">
<rect fill="white" x="10" y="158" width="50" height="79"/>
<path d="M34.6367 164C37.8715 164 40.494 166.623 40.4941 169.857C40.4941 169.869 40.4933 169.881 40.4932 169.893C40.4932 169.893 40.4934 169.894 40.4937 169.894C40.4939 169.894 40.4941 169.894 40.4941 169.894V205.411C40.4941 207.109 42.0356 208.517 43.3516 207.444C44.42 206.573 45.1053 205.25 45.1162 203.767V203.479C45.1162 203.477 45.1145 203.476 45.1123 203.476C45.1101 203.476 45.1084 203.474 45.1084 203.472V188.708C45.1084 188.708 45.1086 188.708 45.1089 188.708C45.1092 188.708 45.1094 188.708 45.1094 188.708C45.1092 188.696 45.1084 188.683 45.1084 188.672C45.1088 186.418 46.9371 184.59 49.1914 184.59C51.4456 184.59 53.2731 186.418 53.2734 188.672C53.2734 188.683 53.2726 188.696 53.2725 188.708C53.2725 188.708 53.2727 188.708 53.273 188.708C53.2732 188.708 53.2734 188.708 53.2734 188.708V203.323C53.2776 203.459 53.2812 203.595 53.2812 203.731C53.281 209.818 49.0841 214.923 43.4266 216.313C41.8322 216.705 40.4941 218.005 40.4941 219.647V227.455C40.4941 229.112 39.151 230.455 37.4941 230.455H31.7793C30.1224 230.455 28.7793 229.112 28.7793 227.455V213.256C28.7793 211.615 27.4423 210.314 25.8487 209.922C20.1941 208.53 16.0003 203.426 16 197.342C16 197.205 16.0036 197.069 16.0078 196.934V182.319C16.0078 182.319 16.008 182.318 16.0083 182.318C16.0086 182.318 16.0088 182.318 16.0088 182.318C16.0087 182.306 16.0078 182.294 16.0078 182.282C16.0081 180.028 17.8355 178.2 20.0898 178.2C22.3441 178.2 24.1726 180.028 24.1729 182.282C24.1728 182.294 24.172 182.306 24.1719 182.318C24.1719 182.318 24.1721 182.318 24.1724 182.318C24.1726 182.318 24.1729 182.319 24.1729 182.319V197.082C24.1729 197.084 24.1711 197.086 24.1689 197.086C24.1668 197.086 24.165 197.088 24.165 197.09V197.377C24.1759 198.856 24.857 200.176 25.9199 201.047C27.2344 202.124 28.7793 200.716 28.7793 199.017V169.894C28.7793 169.894 28.7795 169.894 28.7798 169.894C28.7801 169.894 28.7803 169.893 28.7803 169.893C28.7802 169.881 28.7793 169.869 28.7793 169.857C28.7794 166.623 31.4018 164 34.6367 164Z"/>
</mask>
<path d="M34.6367 164C37.8715 164 40.494 166.623 40.4941 169.857C40.4941 169.869 40.4933 169.881 40.4932 169.893C40.4932 169.893 40.4934 169.894 40.4937 169.894C40.4939 169.894 40.4941 169.894 40.4941 169.894V205.411C40.4941 207.109 42.0356 208.517 43.3516 207.444C44.42 206.573 45.1053 205.25 45.1162 203.767V203.479C45.1162 203.477 45.1145 203.476 45.1123 203.476C45.1101 203.476 45.1084 203.474 45.1084 203.472V188.708C45.1084 188.708 45.1086 188.708 45.1089 188.708C45.1092 188.708 45.1094 188.708 45.1094 188.708C45.1092 188.696 45.1084 188.683 45.1084 188.672C45.1088 186.418 46.9371 184.59 49.1914 184.59C51.4456 184.59 53.2731 186.418 53.2734 188.672C53.2734 188.683 53.2726 188.696 53.2725 188.708C53.2725 188.708 53.2727 188.708 53.273 188.708C53.2732 188.708 53.2734 188.708 53.2734 188.708V203.323C53.2776 203.459 53.2812 203.595 53.2812 203.731C53.281 209.818 49.0841 214.923 43.4266 216.313C41.8322 216.705 40.4941 218.005 40.4941 219.647V227.455C40.4941 229.112 39.151 230.455 37.4941 230.455H31.7793C30.1224 230.455 28.7793 229.112 28.7793 227.455V213.256C28.7793 211.615 27.4423 210.314 25.8487 209.922C20.1941 208.53 16.0003 203.426 16 197.342C16 197.205 16.0036 197.069 16.0078 196.934V182.319C16.0078 182.319 16.008 182.318 16.0083 182.318C16.0086 182.318 16.0088 182.318 16.0088 182.318C16.0087 182.306 16.0078 182.294 16.0078 182.282C16.0081 180.028 17.8355 178.2 20.0898 178.2C22.3441 178.2 24.1726 180.028 24.1729 182.282C24.1728 182.294 24.172 182.306 24.1719 182.318C24.1719 182.318 24.1721 182.318 24.1724 182.318C24.1726 182.318 24.1729 182.319 24.1729 182.319V197.082C24.1729 197.084 24.1711 197.086 24.1689 197.086C24.1668 197.086 24.165 197.088 24.165 197.09V197.377C24.1759 198.856 24.857 200.176 25.9199 201.047C27.2344 202.124 28.7793 200.716 28.7793 199.017V169.894C28.7793 169.894 28.7795 169.894 28.7798 169.894C28.7801 169.894 28.7803 169.893 28.7803 169.893C28.7802 169.881 28.7793 169.869 28.7793 169.857C28.7794 166.623 31.4018 164 34.6367 164Z" fill="white"/>
<path d="M34.6367 164L34.6369 158H34.6367V164ZM40.4941 169.857H46.4941V169.857L40.4941 169.857ZM45.1162 203.767L51.1161 203.811L51.1162 203.789V203.767H45.1162ZM45.1084 188.672L39.1084 188.671L39.1084 188.682L45.1084 188.672ZM49.1914 184.59L49.192 178.59H49.1911L49.1914 184.59ZM53.2734 188.672L59.2734 188.682V188.671L53.2734 188.672ZM53.2734 203.323H47.2734V203.416L47.2763 203.509L53.2734 203.323ZM53.2812 203.731L59.2812 203.732V203.731L53.2812 203.731ZM16 197.342L10 197.342V197.342L16 197.342ZM16.0078 196.934L22.0049 197.119L22.0078 197.026V196.934H16.0078ZM16.0078 182.282L10.0078 182.281L10.0078 182.292L16.0078 182.282ZM20.0898 178.2L20.0905 172.2H20.0895L20.0898 178.2ZM24.1729 182.282L30.1729 182.292L30.1729 182.281L24.1729 182.282ZM24.165 197.377H18.165V197.399L18.1652 197.421L24.165 197.377ZM28.7793 169.857L22.7793 169.857V169.857H28.7793ZM28.7803 169.893L34.7801 169.846L28.7803 169.893ZM24.1719 182.318L18.1722 182.253L24.1719 182.318ZM16.0088 182.318L22.0084 182.253L16.0088 182.318ZM25.8487 209.922L27.2829 204.096L25.8487 209.922ZM45.1094 188.708L51.109 188.638L45.1094 188.708ZM43.4266 216.313L41.995 210.486L43.4266 216.313ZM53.2725 188.708L47.2729 188.638L53.2725 188.708ZM40.4932 169.893L34.4934 169.846L40.4932 169.893ZM34.6367 164L34.6366 170C34.6278 170 34.6045 169.997 34.5791 169.986C34.5578 169.977 34.5443 169.967 34.5358 169.958C34.5273 169.95 34.5168 169.936 34.5078 169.915C34.4971 169.89 34.4941 169.866 34.4941 169.858L40.4941 169.857L46.4941 169.857C46.4939 163.309 41.1853 158 34.6369 158L34.6367 164ZM40.4941 169.857H34.4941C34.4941 169.822 34.4945 169.79 34.4949 169.764C34.4953 169.737 34.4959 169.715 34.4964 169.697C34.4969 169.679 34.4974 169.665 34.4977 169.656C34.4978 169.652 34.498 169.648 34.4981 169.646C34.4982 169.644 34.4982 169.642 34.4982 169.642C34.4982 169.642 34.4982 169.642 34.4982 169.642C34.4982 169.643 34.4982 169.644 34.4981 169.645C34.4981 169.646 34.4979 169.65 34.4978 169.654C34.4975 169.661 34.497 169.675 34.4965 169.691C34.4959 169.708 34.4953 169.73 34.4947 169.755C34.4942 169.781 34.4936 169.811 34.4934 169.846L40.4932 169.893L46.493 169.94C46.4925 170.002 46.4911 170.051 46.4903 170.077C46.4898 170.091 46.4894 170.101 46.4893 170.106C46.4891 170.109 46.4889 170.114 46.4892 170.108C46.4893 170.106 46.4896 170.097 46.49 170.085C46.4904 170.073 46.491 170.056 46.4916 170.036C46.4927 169.996 46.4941 169.933 46.4941 169.857H40.4941ZM40.4941 169.894H34.4941V205.411H40.4941H46.4941V169.894H40.4941ZM43.3516 207.444L47.143 212.094C49.5381 210.142 51.0915 207.157 51.1161 203.811L45.1162 203.767L39.1164 203.723C39.1191 203.344 39.3019 203.004 39.5603 202.794L43.3516 207.444ZM45.1162 203.767H51.1162V203.479H45.1162H39.1162V203.767H45.1162ZM45.1084 203.472H51.1084V188.708H45.1084H39.1084V203.472H45.1084ZM45.1094 188.708L51.109 188.638C51.1086 188.608 51.1081 188.581 51.1076 188.56C51.1071 188.538 51.1065 188.52 51.1061 188.506C51.1056 188.493 51.1052 188.482 51.105 188.475C51.1049 188.472 51.1048 188.47 51.1048 188.469C51.1047 188.468 51.1047 188.467 51.1047 188.467C51.1047 188.467 51.1047 188.467 51.1047 188.467C51.1047 188.467 51.1049 188.473 51.1052 188.481C51.1055 188.488 51.1059 188.501 51.1063 188.516C51.1067 188.532 51.1072 188.552 51.1076 188.576C51.108 188.6 51.1083 188.629 51.1084 188.662L45.1084 188.672L39.1084 188.682C39.1085 188.752 39.1098 188.809 39.1108 188.845C39.1117 188.879 39.1128 188.908 39.113 188.912C39.1132 188.919 39.113 188.914 39.113 188.913C39.1129 188.91 39.1126 188.902 39.1123 188.891C39.1116 188.871 39.1104 188.83 39.1098 188.777L45.1094 188.708ZM45.1084 188.672L51.1084 188.673C51.1082 189.733 50.2497 190.59 49.1917 190.59L49.1914 184.59L49.1911 178.59C43.6245 178.59 39.1093 183.103 39.1084 188.671L45.1084 188.672ZM49.1914 184.59L49.1909 190.59C48.1314 190.59 47.2736 189.731 47.2734 188.673L53.2734 188.672L59.2734 188.671C59.2725 183.104 54.7599 178.59 49.192 178.59L49.1914 184.59ZM53.2734 188.672L47.2734 188.662C47.2735 188.629 47.2738 188.6 47.2742 188.576C47.2746 188.552 47.2751 188.532 47.2755 188.517C47.276 188.501 47.2764 188.488 47.2766 188.481C47.2769 188.473 47.2771 188.467 47.2771 188.467C47.2771 188.467 47.2771 188.467 47.2771 188.467C47.2771 188.467 47.2771 188.468 47.2771 188.469C47.277 188.47 47.2769 188.472 47.2768 188.475C47.2766 188.482 47.2762 188.493 47.2758 188.506C47.2753 188.52 47.2748 188.538 47.2743 188.56C47.2737 188.581 47.2732 188.608 47.2729 188.638L53.2725 188.708L59.2721 188.777C59.2715 188.83 59.2702 188.872 59.2696 188.891C59.2692 188.902 59.2689 188.91 59.2688 188.913C59.2688 188.914 59.2686 188.919 59.2689 188.912C59.269 188.908 59.2701 188.879 59.271 188.845C59.272 188.809 59.2733 188.752 59.2734 188.682L53.2734 188.672ZM53.2734 188.708H47.2734V203.323H53.2734H59.2734V188.708H53.2734ZM53.2734 203.323L47.2763 203.509C47.2802 203.634 47.2812 203.693 47.2812 203.732L53.2812 203.731L59.2812 203.731C59.2812 203.497 59.2751 203.283 59.2706 203.138L53.2734 203.323ZM53.2812 203.731L47.2812 203.731C47.2811 206.991 45.0336 209.74 41.995 210.486L43.4266 216.313L44.8581 222.14C53.1347 220.106 59.2809 212.645 59.2812 203.732L53.2812 203.731ZM40.4941 219.647H34.4941V227.455H40.4941H46.4941V219.647H40.4941ZM37.4941 230.455V224.455H31.7793V230.455V236.455H37.4941V230.455ZM28.7793 227.455H34.7793V213.256H28.7793H22.7793V227.455H28.7793ZM25.8487 209.922L27.2829 204.096C24.2461 203.348 22.0001 200.6 22 197.342L16 197.342L10 197.342C10.0004 206.252 16.142 213.712 24.4145 215.748L25.8487 209.922ZM16 197.342L22 197.342C22 197.304 22.0011 197.245 22.0049 197.119L16.0078 196.934L10.0107 196.748C10.0062 196.893 10 197.107 10 197.342L16 197.342ZM16.0078 196.934H22.0078V182.319H16.0078H10.0078V196.934H16.0078ZM16.0088 182.318L22.0084 182.253C22.0081 182.222 22.0076 182.195 22.007 182.172C22.0065 182.15 22.006 182.131 22.0055 182.117C22.0051 182.103 22.0046 182.091 22.0044 182.085C22.0043 182.082 22.0042 182.079 22.0041 182.077C22.0041 182.077 22.0041 182.076 22.0041 182.076C22.0041 182.076 22.0041 182.076 22.0041 182.076C22.0041 182.076 22.0043 182.081 22.0045 182.089C22.0048 182.097 22.0052 182.11 22.0057 182.126C22.0061 182.141 22.0066 182.162 22.007 182.186C22.0074 182.21 22.0078 182.239 22.0078 182.272L16.0078 182.282L10.0078 182.292C10.0079 182.363 10.0092 182.42 10.0102 182.457C10.0112 182.492 10.0123 182.52 10.0125 182.524C10.0127 182.53 10.0125 182.526 10.0125 182.524C10.0123 182.521 10.012 182.512 10.0117 182.501C10.011 182.48 10.0097 182.437 10.0091 182.382L16.0088 182.318ZM16.0078 182.282L22.0078 182.283C22.0077 183.341 21.1497 184.2 20.0901 184.2L20.0898 178.2L20.0895 172.2C14.5212 172.2 10.0085 176.714 10.0078 182.281L16.0078 182.282ZM20.0898 178.2L20.0892 184.2C19.0321 184.2 18.173 183.344 18.1729 182.283L24.1729 182.282L30.1729 182.281C30.1722 176.712 25.6562 172.201 20.0905 172.2L20.0898 178.2ZM24.1729 182.282L18.1729 182.272C18.1729 182.239 18.1732 182.21 18.1737 182.186C18.1741 182.162 18.1746 182.141 18.175 182.126C18.1754 182.11 18.1758 182.097 18.1761 182.089C18.1764 182.082 18.1766 182.076 18.1766 182.076C18.1766 182.076 18.1766 182.076 18.1766 182.076C18.1766 182.076 18.1766 182.077 18.1765 182.077C18.1765 182.079 18.1764 182.082 18.1763 182.085C18.176 182.091 18.1756 182.103 18.1752 182.117C18.1747 182.131 18.1741 182.15 18.1736 182.172C18.1731 182.195 18.1726 182.222 18.1722 182.253L24.1719 182.318L30.1715 182.383C30.1709 182.437 30.1697 182.48 30.169 182.501C30.1686 182.512 30.1683 182.521 30.1682 182.524C30.1682 182.526 30.168 182.53 30.1682 182.524C30.1684 182.52 30.1695 182.491 30.1704 182.457C30.1714 182.42 30.1727 182.363 30.1728 182.292L24.1729 182.282ZM24.1729 182.319H18.1729V197.082H24.1729H30.1729V182.319H24.1729ZM24.165 197.09H18.165V197.377H24.165H30.165V197.09H24.165ZM24.165 197.377L18.1652 197.421C18.1896 200.757 19.7334 203.734 22.1163 205.687L25.9199 201.047L29.7235 196.407C29.9807 196.617 30.1621 196.956 30.1649 197.333L24.165 197.377ZM28.7793 199.017H34.7793V169.894H28.7793H22.7793V199.017H28.7793ZM28.7803 169.893L34.7801 169.846C34.7798 169.811 34.7793 169.781 34.7787 169.755C34.7782 169.73 34.7775 169.708 34.777 169.691C34.7764 169.675 34.776 169.661 34.7757 169.654C34.7755 169.65 34.7754 169.646 34.7753 169.645C34.7753 169.644 34.7752 169.643 34.7752 169.642C34.7752 169.642 34.7752 169.642 34.7752 169.642C34.7752 169.642 34.7753 169.644 34.7754 169.646C34.7755 169.648 34.7756 169.652 34.7757 169.656C34.7761 169.665 34.7765 169.679 34.777 169.697C34.7775 169.715 34.7781 169.737 34.7785 169.764C34.779 169.79 34.7793 169.822 34.7793 169.857H28.7793H22.7793C22.7793 169.933 22.7807 169.996 22.7818 170.036C22.7824 170.056 22.783 170.073 22.7834 170.085C22.7838 170.097 22.7842 170.106 22.7843 170.108C22.7845 170.114 22.7843 170.109 22.7842 170.106C22.784 170.101 22.7836 170.091 22.7832 170.077C22.7823 170.051 22.7809 170.002 22.7805 169.94L28.7803 169.893ZM28.7793 169.857L34.7793 169.858C34.7793 169.866 34.7764 169.89 34.7656 169.915C34.7566 169.936 34.7461 169.95 34.7376 169.958C34.7291 169.967 34.7156 169.977 34.6942 169.986C34.6688 169.997 34.6454 170 34.6367 170V164V158C28.088 158 22.7795 163.309 22.7793 169.857L28.7793 169.857ZM28.7798 169.894V175.894C32.1028 175.894 34.8064 173.188 34.7801 169.846L28.7803 169.893L22.7805 169.94C22.7541 166.599 25.4574 163.894 28.7798 163.894V169.894ZM28.7793 169.894H34.7793C34.7793 173.188 32.1125 175.894 28.7798 175.894V169.894V163.894C25.4466 163.894 22.7793 166.599 22.7793 169.894H28.7793ZM25.9199 201.047L22.1163 205.687C23.436 206.769 25.1465 207.463 27.0495 207.422C28.888 207.383 30.4232 206.67 31.5349 205.803C33.66 204.143 34.7793 201.559 34.7793 199.017H28.7793H22.7793C22.7793 198.174 23.1261 197.143 24.1503 196.344C24.7114 195.906 25.6139 195.45 26.793 195.425C28.0367 195.398 29.061 195.864 29.7235 196.407L25.9199 201.047ZM24.1719 182.318L18.1722 182.253C18.136 185.609 20.8502 188.318 24.1724 188.318V182.318V176.318C27.4939 176.318 30.2078 179.027 30.1715 182.383L24.1719 182.318ZM16.0083 182.318V188.318C19.3305 188.318 22.0446 185.609 22.0084 182.253L16.0088 182.318L10.0091 182.382C9.973 179.027 12.6866 176.318 16.0083 176.318V182.318ZM16.0078 182.319H22.0078C22.0078 185.632 19.3221 188.318 16.0083 188.318V182.318V176.318C12.694 176.318 10.0078 179.005 10.0078 182.319H16.0078ZM28.7793 213.256H34.7793C34.7793 208.087 30.734 204.945 27.2829 204.096L25.8487 209.922L24.4145 215.748C24.1347 215.679 23.8092 215.523 23.4979 215.185C23.1578 214.816 22.7793 214.144 22.7793 213.256H28.7793ZM31.7793 230.455V224.455C33.4362 224.455 34.7793 225.798 34.7793 227.455H28.7793H22.7793C22.7793 232.426 26.8087 236.455 31.7793 236.455V230.455ZM45.1089 188.708V194.708C48.4307 194.708 51.1476 191.998 51.109 188.638L45.1094 188.708L39.1098 188.777C39.0711 185.417 41.7877 182.708 45.1089 182.708V188.708ZM24.1689 197.086V191.086C20.8531 191.086 18.165 193.774 18.165 197.09H24.165H30.165C30.165 200.401 27.4805 203.086 24.1689 203.086V197.086ZM45.1084 188.708H51.1084C51.1084 192.036 48.4081 194.708 45.1089 194.708V188.708V182.708C41.8092 182.708 39.1084 185.38 39.1084 188.708H45.1084ZM43.4266 216.313L41.995 210.486C38.5424 211.334 34.4941 214.476 34.4941 219.647H40.4941H46.4941C46.4941 220.536 46.1154 221.207 45.7751 221.577C45.4637 221.915 45.1381 222.071 44.8581 222.14L43.4266 216.313ZM24.1724 182.318V188.318C20.8589 188.318 18.1729 185.632 18.1729 182.319H24.1729H30.1729C30.1729 179.005 27.4863 176.318 24.1724 176.318V182.318ZM45.1162 203.479H51.1162C51.1162 200.164 48.4282 197.476 45.1123 197.476V203.476V209.476C41.8007 209.476 39.1162 206.791 39.1162 203.479H45.1162ZM40.4941 205.411H34.4941C34.4941 207.95 35.6108 210.533 37.7324 212.192C38.8422 213.06 40.3745 213.774 42.2104 213.816C44.1106 213.86 45.8211 213.172 47.143 212.094L43.3516 207.444L39.5603 202.794C40.2242 202.253 41.2484 201.791 42.4896 201.819C43.6663 201.847 44.5665 202.303 45.1264 202.741C46.1482 203.54 46.4941 204.57 46.4941 205.411H40.4941ZM53.273 188.708V194.708C49.9595 194.708 47.2734 192.022 47.2734 188.708H53.2734H59.2734C59.2734 185.395 56.5869 182.708 53.273 182.708V188.708ZM40.4937 169.894V175.894C37.1802 175.894 34.4941 173.207 34.4941 169.894H40.4941H46.4941C46.4941 166.58 43.8076 163.894 40.4937 163.894V169.894ZM40.4941 227.455H34.4941C34.4941 225.798 35.8373 224.455 37.4941 224.455V230.455V236.455C42.4647 236.455 46.4941 232.426 46.4941 227.455H40.4941ZM24.1729 197.082H18.1729C18.1729 193.771 20.8571 191.086 24.1689 191.086V197.086V203.086C27.4851 203.086 30.1729 200.398 30.1729 197.082H24.1729ZM45.1123 203.476V197.476C48.4239 197.476 51.1084 200.16 51.1084 203.472H45.1084H39.1084C39.1084 206.788 41.7964 209.476 45.1123 209.476V203.476ZM53.2725 188.708L47.2729 188.638C47.2341 191.998 49.9511 194.708 53.273 194.708V188.708V182.708C56.5943 182.708 59.3108 185.417 59.2721 188.777L53.2725 188.708ZM40.4932 169.893L34.4934 169.846C34.467 173.188 37.1707 175.894 40.4937 175.894V169.894V163.894C43.8161 163.894 46.5193 166.599 46.493 169.94L40.4932 169.893Z" fill="black" mask="url(#path-13-outside-2_22_558)"/>
</g>
<defs>
<clipPath id="clip0_22_558">
<rect width="200" height="228" fill="white"/>
</clipPath>
</defs>
</svg>
