<svg width="200" height="228" viewBox="0 0 200 228" fill="none" xmlns="http://www.w3.org/2000/svg">
<g clip-path="url(#clip0_2_2)">
<rect width="200" height="228" fill="white"/>
<rect width="200" height="228" fill="black"/>
<rect width="200" height="228" rx="18" fill="#FF9500"/>
<path d="M18.48 81V36.2H49.84V81H18.48ZM40.88 63.08H27.44V72.04H40.88V63.08ZM27.44 54.12H40.88V45.16H27.44V54.12ZM58.7925 81V36.2H90.1525V81H58.7925ZM67.7525 45.16V72.04H81.1925V45.16H67.7525ZM113.525 81V68.436L104.741 81H99.701L106.721 70.92H97.145V55.8H108.485V68.436L117.305 55.8H122.345L115.289 65.88H124.865V81H113.525ZM117.305 69.66V77.22H121.085V69.66H117.305ZM100.925 59.58V67.14H104.705V59.58H100.925Z" fill="white"/>
<path d="M22.457 103.593C22.8366 103.593 23.1803 103.518 23.4883 103.367C23.8034 103.21 24.0612 102.966 24.2617 102.637C24.4622 102.3 24.5768 101.863 24.6055 101.326H26.3887C26.36 102.1 26.1631 102.78 25.7979 103.367C25.4398 103.947 24.9671 104.402 24.3799 104.731C23.7998 105.054 23.1589 105.215 22.457 105.215C21.7051 105.215 21.0498 105.093 20.4912 104.85C19.9398 104.606 19.4814 104.255 19.1162 103.797C18.7581 103.331 18.4896 102.769 18.3105 102.11C18.1315 101.444 18.042 100.689 18.042 99.8438V98.5332C18.042 97.6882 18.1315 96.9362 18.3105 96.2773C18.4896 95.6113 18.7581 95.0492 19.1162 94.5908C19.4814 94.1253 19.9398 93.7708 20.4912 93.5273C21.0498 93.2839 21.7051 93.1621 22.457 93.1621C23.2448 93.1621 23.9251 93.3304 24.498 93.667C25.0781 93.9964 25.5293 94.4762 25.8516 95.1064C26.181 95.7295 26.36 96.485 26.3887 97.373H24.6055C24.5768 96.8001 24.473 96.3239 24.2939 95.9443C24.1149 95.5576 23.8714 95.2712 23.5635 95.085C23.2555 94.8916 22.8867 94.7949 22.457 94.7949C21.9557 94.7949 21.5404 94.8844 21.2109 95.0635C20.8887 95.2354 20.6344 95.486 20.4482 95.8154C20.262 96.1449 20.1296 96.5387 20.0508 96.9971C19.9792 97.4554 19.9434 97.9674 19.9434 98.5332V99.8438C19.9434 100.41 19.9792 100.925 20.0508 101.391C20.1296 101.849 20.2585 102.243 20.4375 102.572C20.6237 102.902 20.8815 103.156 21.2109 103.335C21.5404 103.507 21.9557 103.593 22.457 103.593ZM30.4922 88.5V105H28.5908V88.5H30.4922ZM30.0303 98.748L29.2568 98.7158C29.2497 97.9209 29.3392 97.1868 29.5254 96.5137C29.7188 95.8333 29.9909 95.2425 30.3418 94.7412C30.6999 94.2399 31.126 93.8532 31.6201 93.5811C32.1143 93.3018 32.6621 93.1621 33.2637 93.1621C33.7363 93.1621 34.166 93.2409 34.5527 93.3984C34.9395 93.5488 35.2689 93.7923 35.541 94.1289C35.8132 94.4655 36.0208 94.9023 36.1641 95.4395C36.3145 95.9694 36.3896 96.6175 36.3896 97.3838V105H34.4883V97.3623C34.4883 96.7536 34.4202 96.2666 34.2842 95.9014C34.1553 95.529 33.9548 95.2604 33.6826 95.0957C33.4176 94.9238 33.0811 94.8379 32.6729 94.8379C32.3005 94.8379 31.9531 94.9417 31.6309 95.1494C31.3086 95.3571 31.0257 95.6436 30.7822 96.0088C30.5459 96.374 30.3597 96.793 30.2236 97.2656C30.0947 97.7311 30.0303 98.2253 30.0303 98.748ZM44.9189 103.013V96.707C44.9189 96.2487 44.8473 95.8799 44.7041 95.6006C44.568 95.3213 44.3604 95.1172 44.0811 94.9883C43.8089 94.8594 43.4652 94.7949 43.0498 94.7949C42.6488 94.7949 42.3014 94.8773 42.0078 95.042C41.7214 95.2067 41.4993 95.4251 41.3418 95.6973C41.1914 95.9694 41.1162 96.2702 41.1162 96.5996H39.2148C39.2148 96.1842 39.3044 95.7725 39.4834 95.3643C39.6696 94.9561 39.9346 94.5872 40.2783 94.2578C40.6221 93.9212 41.0339 93.6562 41.5137 93.4629C42.0007 93.2624 42.5449 93.1621 43.1465 93.1621C43.8626 93.1621 44.4964 93.2803 45.0479 93.5166C45.5993 93.7458 46.0326 94.1217 46.3477 94.6445C46.6628 95.1673 46.8203 95.862 46.8203 96.7285V102.465C46.8203 102.852 46.849 103.263 46.9062 103.7C46.9707 104.137 47.0602 104.513 47.1748 104.828V105H45.209C45.1159 104.771 45.0443 104.466 44.9941 104.087C44.944 103.7 44.9189 103.342 44.9189 103.013ZM45.2197 97.9531L45.2412 99.3496H43.9199C43.4688 99.3496 43.057 99.3997 42.6846 99.5C42.3193 99.6003 42.0042 99.7471 41.7393 99.9404C41.4743 100.127 41.2702 100.359 41.127 100.639C40.9909 100.918 40.9229 101.237 40.9229 101.595C40.9229 102.06 40.9873 102.433 41.1162 102.712C41.2451 102.984 41.4385 103.181 41.6963 103.303C41.9541 103.424 42.2799 103.485 42.6738 103.485C43.1536 103.485 43.5762 103.374 43.9414 103.152C44.3066 102.93 44.5895 102.662 44.79 102.347C44.9977 102.032 45.0944 101.738 45.0801 101.466L45.499 102.357C45.4704 102.637 45.3773 102.941 45.2197 103.271C45.0693 103.593 44.8581 103.904 44.5859 104.205C44.3138 104.499 43.9915 104.742 43.6191 104.936C43.2539 105.122 42.8421 105.215 42.3838 105.215C41.7106 105.215 41.1198 105.086 40.6113 104.828C40.11 104.57 39.7197 104.191 39.4404 103.689C39.1611 103.188 39.0215 102.569 39.0215 101.831C39.0215 101.272 39.1182 100.757 39.3115 100.284C39.5049 99.8115 39.7913 99.4033 40.1709 99.0596C40.5505 98.7087 41.0267 98.4365 41.5996 98.2432C42.1797 98.0498 42.8493 97.9531 43.6084 97.9531H45.2197ZM51.6758 95.2031V105H49.7744V93.377H51.6113L51.6758 95.2031ZM54.5654 93.3125L54.5762 95.1602C54.4186 95.1243 54.2754 95.1029 54.1465 95.0957C54.0247 95.0814 53.8815 95.0742 53.7168 95.0742C53.3587 95.0742 53.0436 95.1458 52.7715 95.2891C52.5065 95.4323 52.2773 95.6328 52.084 95.8906C51.8906 96.1484 51.7367 96.4564 51.6221 96.8145C51.5075 97.1654 51.4287 97.5521 51.3857 97.9746L50.8916 98.2969C50.8916 97.5951 50.9453 96.9362 51.0527 96.3203C51.1673 95.7044 51.3428 95.1602 51.5791 94.6875C51.8154 94.2077 52.1162 93.8353 52.4814 93.5703C52.8538 93.2982 53.2979 93.1621 53.8135 93.1621C53.9281 93.1621 54.0677 93.18 54.2324 93.2158C54.4043 93.2445 54.5153 93.2767 54.5654 93.3125ZM62.5791 93.377H64.2871V105.097C64.2871 106.121 64.1081 106.966 63.75 107.632C63.3991 108.298 62.9085 108.788 62.2783 109.104C61.6481 109.426 60.9212 109.587 60.0977 109.587C59.804 109.587 59.4352 109.533 58.9912 109.426C58.5472 109.318 58.1032 109.154 57.6592 108.932C57.2152 108.717 56.8499 108.445 56.5635 108.115L57.3477 106.794C57.7559 107.209 58.1891 107.507 58.6475 107.686C59.1058 107.865 59.5426 107.954 59.958 107.954C60.4521 107.954 60.8818 107.865 61.2471 107.686C61.6123 107.507 61.8952 107.213 62.0957 106.805C62.2962 106.404 62.3965 105.867 62.3965 105.193V95.9336L62.5791 93.377ZM55.8975 99.7471V98.6621C55.8975 97.7025 55.987 96.8789 56.166 96.1914C56.3451 95.4967 56.6029 94.9274 56.9395 94.4834C57.2832 94.0322 57.695 93.6992 58.1748 93.4844C58.6546 93.2695 59.1917 93.1621 59.7861 93.1621C60.3877 93.1621 60.9069 93.2839 61.3438 93.5273C61.7806 93.7708 62.1423 94.1253 62.4287 94.5908C62.7223 95.0492 62.9515 95.6077 63.1162 96.2666C63.2881 96.9183 63.4062 97.6559 63.4707 98.4795V99.9297C63.4062 100.746 63.2881 101.48 63.1162 102.132C62.9515 102.784 62.7188 103.339 62.418 103.797C62.1243 104.255 61.7591 104.606 61.3223 104.85C60.8854 105.093 60.3662 105.215 59.7646 105.215C59.1774 105.215 58.6475 105.104 58.1748 104.882C57.7021 104.653 57.2939 104.312 56.9502 103.861C56.6136 103.403 56.3522 102.834 56.166 102.153C55.987 101.466 55.8975 100.664 55.8975 99.7471ZM57.7988 98.6621V99.7471C57.7988 100.392 57.8454 100.954 57.9385 101.434C58.0316 101.906 58.1748 102.3 58.3682 102.615C58.5687 102.923 58.8229 103.152 59.1309 103.303C59.446 103.453 59.8219 103.528 60.2588 103.528C60.7887 103.528 61.222 103.399 61.5586 103.142C61.8952 102.884 62.1637 102.544 62.3643 102.121C62.5719 101.691 62.7367 101.229 62.8584 100.735V97.6846C62.7868 97.3193 62.6829 96.9684 62.5469 96.6318C62.418 96.2881 62.2497 95.9837 62.042 95.7188C61.8343 95.4466 61.5837 95.2318 61.29 95.0742C61.0036 94.9167 60.667 94.8379 60.2803 94.8379C59.8434 94.8379 59.4674 94.9167 59.1523 95.0742C58.8372 95.2318 58.5794 95.4681 58.3789 95.7832C58.1784 96.0983 58.0316 96.4958 57.9385 96.9756C57.8454 97.4554 57.7988 98.0176 57.7988 98.6621ZM71.291 105.215C70.5964 105.215 69.9697 105.111 69.4111 104.903C68.8525 104.696 68.3763 104.381 67.9824 103.958C67.5885 103.528 67.2878 102.988 67.0801 102.336C66.8724 101.684 66.7686 100.914 66.7686 100.026V98.7158C66.7686 97.6917 66.8867 96.8252 67.123 96.1162C67.3665 95.4072 67.6924 94.8379 68.1006 94.4082C68.5088 93.9714 68.9707 93.6562 69.4863 93.4629C70.002 93.2624 70.5319 93.1621 71.0762 93.1621C71.8066 93.1621 72.4297 93.2803 72.9453 93.5166C73.4609 93.7529 73.8799 94.1038 74.2021 94.5693C74.5244 95.0348 74.7607 95.6077 74.9111 96.2881C75.0687 96.9684 75.1475 97.7526 75.1475 98.6406V99.7471H67.8857V98.125H73.2461V97.8564C73.2174 97.2549 73.1351 96.7249 72.999 96.2666C72.8701 95.8083 72.6553 95.4502 72.3545 95.1924C72.0537 94.9274 71.6276 94.7949 71.0762 94.7949C70.7253 94.7949 70.3994 94.8558 70.0986 94.9775C69.805 95.0921 69.5508 95.2962 69.3359 95.5898C69.1283 95.8763 68.9635 96.2738 68.8418 96.7822C68.7272 97.2907 68.6699 97.9352 68.6699 98.7158V100.026C68.6699 100.649 68.7272 101.187 68.8418 101.638C68.9635 102.082 69.139 102.451 69.3682 102.744C69.6045 103.031 69.891 103.245 70.2275 103.389C70.5713 103.525 70.9616 103.593 71.3984 103.593C72.0358 103.593 72.5622 103.471 72.9775 103.228C73.3929 102.977 73.7546 102.658 74.0625 102.271L75.0615 103.464C74.8538 103.757 74.5817 104.04 74.2451 104.312C73.9157 104.577 73.5075 104.796 73.0205 104.968C72.5407 105.132 71.9642 105.215 71.291 105.215ZM83.5371 102.744V88.5H85.4277V105H83.6982L83.5371 102.744ZM77.0381 99.7471V98.6621C77.0381 97.7025 77.1312 96.8789 77.3174 96.1914C77.5036 95.4967 77.7686 94.9274 78.1123 94.4834C78.4561 94.0322 78.8678 93.6992 79.3477 93.4844C79.8275 93.2695 80.3574 93.1621 80.9375 93.1621C81.5391 93.1621 82.0547 93.2839 82.4844 93.5273C82.9212 93.7708 83.2865 94.1253 83.5801 94.5908C83.8737 95.0492 84.1029 95.6077 84.2676 96.2666C84.4395 96.9183 84.554 97.6559 84.6113 98.4795V99.9297C84.5469 100.746 84.4287 101.48 84.2568 102.132C84.0921 102.784 83.863 103.339 83.5693 103.797C83.2757 104.255 82.9105 104.606 82.4736 104.85C82.0368 105.093 81.5176 105.215 80.916 105.215C80.3431 105.215 79.8203 105.104 79.3477 104.882C78.875 104.653 78.4632 104.312 78.1123 103.861C77.7686 103.403 77.5036 102.834 77.3174 102.153C77.1312 101.466 77.0381 100.664 77.0381 99.7471ZM78.9395 98.6621V99.7471C78.9395 100.392 78.986 100.954 79.0791 101.434C79.1722 101.906 79.319 102.3 79.5195 102.615C79.7201 102.923 79.9743 103.152 80.2822 103.303C80.5973 103.453 80.9733 103.528 81.4102 103.528C81.9401 103.528 82.3734 103.399 82.71 103.142C83.0465 102.884 83.3151 102.544 83.5156 102.121C83.7233 101.691 83.888 101.229 84.0098 100.735V97.6846C83.9382 97.3193 83.8343 96.9684 83.6982 96.6318C83.5622 96.2881 83.3903 95.9837 83.1826 95.7188C82.9821 95.4466 82.735 95.2318 82.4414 95.0742C82.1549 94.9167 81.8184 94.8379 81.4316 94.8379C80.9948 94.8379 80.6152 94.9167 80.293 95.0742C79.9779 95.2318 79.7201 95.4681 79.5195 95.7832C79.3262 96.0983 79.1794 96.4958 79.0791 96.9756C78.986 97.4554 78.9395 98.0176 78.9395 98.6621Z" fill="white"/>
<path d="M78.0054 13.9243L76.9727 13.646L77.4268 8.33594H82.0703V9.58838H78.5181L78.269 12.4888C78.4351 12.3765 78.6353 12.2715 78.8696 12.1738C79.104 12.0762 79.3774 12.0273 79.6899 12.0273C80.1099 12.0273 80.4834 12.1128 80.8105 12.2837C81.1426 12.4497 81.4233 12.689 81.6528 13.0015C81.8823 13.314 82.0581 13.6899 82.1802 14.1294C82.3022 14.5688 82.3633 15.0596 82.3633 15.6016C82.3633 16.1143 82.3022 16.5854 82.1802 17.0151C82.063 17.4448 81.8823 17.8208 81.6382 18.1431C81.3989 18.4604 81.0962 18.707 80.73 18.8828C80.3687 19.0586 79.9463 19.1465 79.4629 19.1465C79.1016 19.1465 78.7598 19.0879 78.4375 18.9707C78.1152 18.8486 77.8247 18.6655 77.5659 18.4214C77.312 18.1724 77.1045 17.8647 76.9434 17.4985C76.7822 17.1274 76.6821 16.6929 76.6431 16.1948H77.8662C77.915 16.5952 78.0078 16.9321 78.1445 17.2056C78.2861 17.479 78.4668 17.6865 78.6865 17.8281C78.9111 17.9648 79.1699 18.0332 79.4629 18.0332C79.7119 18.0332 79.9365 17.9771 80.1367 17.8647C80.3369 17.7524 80.5054 17.5913 80.6421 17.3813C80.7788 17.1714 80.8838 16.9175 80.957 16.6196C81.0303 16.3218 81.0669 15.9873 81.0669 15.6162C81.0669 15.2793 81.0303 14.9668 80.957 14.6787C80.8838 14.3906 80.7739 14.1392 80.6274 13.9243C80.481 13.7095 80.3027 13.5435 80.0928 13.4263C79.8877 13.3042 79.6484 13.2432 79.375 13.2432C79.0088 13.2432 78.7378 13.3042 78.562 13.4263C78.3911 13.5483 78.2056 13.7144 78.0054 13.9243ZM84.0039 18.2822C84.0039 18.0527 84.0747 17.8599 84.2163 17.7036C84.3628 17.5425 84.5728 17.4619 84.8462 17.4619C85.1196 17.4619 85.3271 17.5425 85.4688 17.7036C85.6152 17.8599 85.6885 18.0527 85.6885 18.2822C85.6885 18.5068 85.6152 18.6973 85.4688 18.8535C85.3271 19.0098 85.1196 19.0879 84.8462 19.0879C84.5728 19.0879 84.3628 19.0098 84.2163 18.8535C84.0747 18.6973 84.0039 18.5068 84.0039 18.2822ZM83.9966 11.8149C83.9966 11.5854 84.0674 11.3926 84.209 11.2363C84.3555 11.0752 84.5654 10.9946 84.8389 10.9946C85.1123 10.9946 85.3198 11.0752 85.4614 11.2363C85.6079 11.3926 85.6812 11.5854 85.6812 11.8149C85.6812 12.0396 85.6079 12.23 85.4614 12.3862C85.3198 12.5425 85.1123 12.6206 84.8389 12.6206C84.5654 12.6206 84.3555 12.5425 84.209 12.3862C84.0674 12.23 83.9966 12.0396 83.9966 11.8149ZM93.313 17.8867V19H87.3511V18.0259L90.2881 14.1367C90.6494 13.6582 90.9253 13.2529 91.1157 12.9209C91.3062 12.584 91.438 12.2837 91.5112 12.02C91.5845 11.7515 91.6211 11.478 91.6211 11.1997C91.6211 10.8481 91.5649 10.5308 91.4526 10.2476C91.3403 9.95947 91.1768 9.72998 90.9619 9.55908C90.7471 9.38818 90.4883 9.30273 90.1855 9.30273C89.79 9.30273 89.4653 9.39551 89.2114 9.58105C88.9624 9.76172 88.7793 10.0156 88.6621 10.3428C88.5449 10.6699 88.4863 11.0459 88.4863 11.4707H87.1899C87.1899 10.8701 87.2998 10.3208 87.5195 9.82275C87.7441 9.32471 88.0786 8.9292 88.5229 8.63623C88.9673 8.33838 89.5215 8.18945 90.1855 8.18945C90.7568 8.18945 91.2451 8.30908 91.6504 8.54834C92.0605 8.78271 92.373 9.11475 92.5879 9.54443C92.8076 9.96924 92.9175 10.4673 92.9175 11.0386C92.9175 11.3511 92.8735 11.6685 92.7856 11.9907C92.7026 12.3081 92.5854 12.6255 92.4341 12.9429C92.2876 13.2603 92.1143 13.5728 91.9141 13.8804C91.7139 14.188 91.499 14.4907 91.2695 14.7886L88.9038 17.8867H93.313ZM95.9351 17.8647H96.0376C96.6968 17.8647 97.2266 17.7549 97.627 17.5352C98.0273 17.3154 98.3276 17.02 98.5278 16.6489C98.7329 16.2778 98.8696 15.8604 98.938 15.3965C99.0112 14.9277 99.0479 14.4468 99.0479 13.9536V12.3203C99.0479 11.8369 99.0015 11.4072 98.9087 11.0312C98.8208 10.6553 98.7012 10.3403 98.5498 10.0864C98.4033 9.83252 98.2349 9.63965 98.0444 9.50781C97.8589 9.37598 97.6685 9.31006 97.4731 9.31006C97.2241 9.31006 97.0044 9.37354 96.814 9.50049C96.6235 9.62256 96.4624 9.7959 96.3306 10.0205C96.2036 10.2451 96.106 10.5088 96.0376 10.8115C95.9692 11.1143 95.9351 11.4438 95.9351 11.8003C95.9351 12.1177 95.9644 12.4253 96.0229 12.7231C96.0815 13.021 96.1719 13.2896 96.2939 13.5288C96.4209 13.7681 96.5771 13.9585 96.7627 14.1001C96.9531 14.2368 97.1777 14.3052 97.4365 14.3052C97.6514 14.3052 97.8589 14.2466 98.0591 14.1294C98.2642 14.0073 98.4497 13.8438 98.6157 13.6387C98.7817 13.4287 98.9185 13.1919 99.0259 12.9282C99.1333 12.6646 99.1968 12.3887 99.2163 12.1006H99.8242C99.8242 12.5059 99.7583 12.9062 99.6265 13.3018C99.4995 13.6924 99.3164 14.0488 99.0771 14.3711C98.8428 14.6934 98.5669 14.9521 98.2495 15.1475C97.937 15.3379 97.5928 15.4331 97.2168 15.4331C96.7627 15.4331 96.3745 15.3306 96.0522 15.1255C95.73 14.9204 95.4663 14.647 95.2612 14.3052C95.061 13.9634 94.9121 13.5825 94.8145 13.1626C94.7168 12.7378 94.668 12.3081 94.668 11.8735C94.668 11.3657 94.7266 10.8896 94.8438 10.4453C94.9609 10.001 95.1343 9.61035 95.3638 9.27344C95.5981 8.93164 95.8911 8.66553 96.2427 8.4751C96.5942 8.28467 97.0044 8.18945 97.4731 8.18945C97.9956 8.18945 98.4399 8.31152 98.8062 8.55566C99.1724 8.7998 99.4678 9.12695 99.6924 9.53711C99.917 9.94727 100.081 10.4087 100.183 10.9214C100.286 11.4341 100.337 11.9614 100.337 12.5034V12.9941C100.337 13.5459 100.31 14.1074 100.256 14.6787C100.208 15.2451 100.103 15.7871 99.9414 16.3047C99.7852 16.8223 99.5508 17.2861 99.2383 17.6963C98.9258 18.1016 98.5083 18.4238 97.9858 18.6631C97.4683 18.8975 96.8188 19.0146 96.0376 19.0146H95.9424L95.9351 17.8647ZM109.309 14.8179H106.98V13.668H109.309C109.749 13.668 110.103 13.5801 110.371 13.4043C110.645 13.2285 110.842 12.9844 110.964 12.6719C111.091 12.3594 111.155 12.0029 111.155 11.6025C111.155 11.2363 111.091 10.8921 110.964 10.5698C110.842 10.2476 110.645 9.98877 110.371 9.79346C110.103 9.59326 109.749 9.49316 109.309 9.49316H107.258V19H105.911V8.33594H109.309C109.998 8.33594 110.579 8.4751 111.052 8.75342C111.526 9.03174 111.885 9.41748 112.129 9.91064C112.378 10.3989 112.502 10.958 112.502 11.5879C112.502 12.2715 112.378 12.855 112.129 13.3384C111.885 13.8218 111.526 14.1904 111.052 14.4443C110.579 14.6934 109.998 14.8179 109.309 14.8179ZM114.656 8.33594H115.959L118.75 17.0298L121.533 8.33594H122.837L119.255 19H118.23L114.656 8.33594ZM114.231 8.33594H115.374L115.571 14.8398V19H114.231V8.33594ZM122.112 8.33594H123.254V19H121.914V14.8398L122.112 8.33594Z" fill="white"/>
<path d="M22.8499 190.876L21.5867 205.434C21.2483 209.334 23.7829 212.907 27.5764 213.876L49.4652 219.469C50.0962 219.63 50.7234 219.713 51.3746 219.717C86.6088 219.935 156.597 220.229 162.193 219.711C166.819 219.283 171.234 217.803 173.758 216.742C174.681 216.355 175.53 215.76 175.99 214.871C177.835 211.307 176.781 205.466 175.757 200.875C175.363 199.105 174.39 197.494 172.838 196.558C163.918 191.173 147.078 188.225 137.796 187.215C136.621 187.087 135.487 186.724 134.467 186.127C126.054 181.202 110.87 172.578 106.892 171.351C101.598 169.717 73.9474 169.39 63.0638 171.351C54.6871 172.86 39.8306 179.329 32.6912 182.727C32.1512 182.984 31.5894 183.182 31.0066 183.316L29.028 183.77C25.6454 184.548 23.1499 187.418 22.8499 190.876Z" fill="white" stroke="black" stroke-width="6"/>
<circle cx="53.5" cy="215.5" r="13.5" fill="white" stroke="black" stroke-width="6"/>
<circle cx="148.5" cy="215.5" r="13.5" fill="white" stroke="black" stroke-width="6"/>
<path d="M173.263 15.4111V16.5244H166.744V15.7261L170.707 8.33594H171.747L170.707 10.4746L168.187 15.4111H173.263ZM172.076 8.33594V19H170.78V8.33594H172.076ZM180.278 8.33594L176.542 19.9155H175.451L179.194 8.33594H180.278ZM189.029 8.33594V9.09766L185.359 19H183.997L187.667 9.44922H182.913V8.33594H189.029Z" fill="white"/>
</g>
<defs>
<clipPath id="clip0_2_2">
<rect width="200" height="228" fill="white"/>
</clipPath>
</defs>
</svg>
