<svg width="200" height="228" viewBox="0 0 200 228" fill="none" xmlns="http://www.w3.org/2000/svg">
<g clip-path="url(#clip0_22_476)">
<rect width="200" height="228" fill="white"/>
<rect width="200" height="228" fill="black"/>
<rect width="200" height="228" rx="18" fill="#FF9500"/>
<path d="M25 0H182C191.941 0 200 8.05887 200 18V210C200 219.941 191.941 228 182 228H25V0Z" fill="black"/>
<path d="M47.6719 109.377V110.902H42.2471V109.377H47.6719ZM44.0195 106.552H45.9209V118.121C45.9209 118.515 45.9674 118.812 46.0605 119.013C46.1608 119.213 46.2861 119.346 46.4365 119.41C46.5869 119.475 46.748 119.507 46.9199 119.507C47.0488 119.507 47.1921 119.493 47.3496 119.464C47.5072 119.428 47.6146 119.399 47.6719 119.378L47.6611 121C47.5322 121.05 47.3604 121.097 47.1455 121.14C46.9307 121.19 46.6585 121.215 46.3291 121.215C45.9209 121.215 45.5413 121.118 45.1904 120.925C44.8395 120.731 44.5566 120.409 44.3418 119.958C44.127 119.5 44.0195 118.884 44.0195 118.11V106.552ZM49.3262 115.747V114.641C49.3262 113.738 49.4408 112.947 49.6699 112.267C49.8991 111.579 50.2178 111.006 50.626 110.548C51.0342 110.09 51.5104 109.746 52.0547 109.517C52.599 109.28 53.1826 109.162 53.8057 109.162C54.443 109.162 55.0339 109.28 55.5781 109.517C56.1224 109.746 56.5986 110.09 57.0068 110.548C57.4222 111.006 57.7445 111.579 57.9736 112.267C58.2028 112.947 58.3174 113.738 58.3174 114.641V115.747C58.3174 116.649 58.2028 117.444 57.9736 118.132C57.7445 118.812 57.4258 119.382 57.0176 119.84C56.6094 120.298 56.1331 120.642 55.5889 120.871C55.0446 121.1 54.4574 121.215 53.8271 121.215C53.1969 121.215 52.6097 121.1 52.0654 120.871C51.5212 120.642 51.0413 120.298 50.626 119.84C50.2178 119.382 49.8991 118.812 49.6699 118.132C49.4408 117.444 49.3262 116.649 49.3262 115.747ZM51.2275 114.641V115.747C51.2275 116.384 51.292 116.943 51.4209 117.423C51.5498 117.903 51.7324 118.304 51.9688 118.626C52.2051 118.948 52.4808 119.192 52.7959 119.356C53.111 119.514 53.4548 119.593 53.8271 119.593C54.2568 119.593 54.6328 119.514 54.9551 119.356C55.2845 119.192 55.5566 118.948 55.7715 118.626C55.9863 118.304 56.1475 117.903 56.2549 117.423C56.3623 116.943 56.416 116.384 56.416 115.747V114.641C56.416 114.003 56.3516 113.448 56.2227 112.976C56.0938 112.496 55.9111 112.095 55.6748 111.772C55.4385 111.443 55.1592 111.2 54.8369 111.042C54.5218 110.877 54.1781 110.795 53.8057 110.795C53.4404 110.795 53.1003 110.877 52.7852 111.042C52.4701 111.2 52.1943 111.443 51.958 111.772C51.7288 112.095 51.5498 112.496 51.4209 112.976C51.292 113.448 51.2275 114.003 51.2275 114.641ZM67.0615 109.377H68.7695V121.097C68.7695 122.121 68.5905 122.966 68.2324 123.632C67.8815 124.298 67.391 124.788 66.7607 125.104C66.1305 125.426 65.4036 125.587 64.5801 125.587C64.2865 125.587 63.9176 125.533 63.4736 125.426C63.0296 125.318 62.5856 125.154 62.1416 124.932C61.6976 124.717 61.3324 124.445 61.0459 124.115L61.8301 122.794C62.2383 123.209 62.6715 123.507 63.1299 123.686C63.5882 123.865 64.0251 123.954 64.4404 123.954C64.9346 123.954 65.3643 123.865 65.7295 123.686C66.0947 123.507 66.3776 123.213 66.5781 122.805C66.7786 122.404 66.8789 121.867 66.8789 121.193V111.934L67.0615 109.377ZM60.3799 115.747V114.662C60.3799 113.702 60.4694 112.879 60.6484 112.191C60.8275 111.497 61.0853 110.927 61.4219 110.483C61.7656 110.032 62.1774 109.699 62.6572 109.484C63.137 109.27 63.6742 109.162 64.2686 109.162C64.8701 109.162 65.3893 109.284 65.8262 109.527C66.263 109.771 66.6247 110.125 66.9111 110.591C67.2048 111.049 67.4339 111.608 67.5986 112.267C67.7705 112.918 67.8887 113.656 67.9531 114.479V115.93C67.8887 116.746 67.7705 117.48 67.5986 118.132C67.4339 118.784 67.2012 119.339 66.9004 119.797C66.6068 120.255 66.2415 120.606 65.8047 120.85C65.3678 121.093 64.8486 121.215 64.2471 121.215C63.6598 121.215 63.1299 121.104 62.6572 120.882C62.1846 120.653 61.7764 120.312 61.4326 119.861C61.096 119.403 60.8346 118.834 60.6484 118.153C60.4694 117.466 60.3799 116.664 60.3799 115.747ZM62.2812 114.662V115.747C62.2812 116.392 62.3278 116.954 62.4209 117.434C62.514 117.906 62.6572 118.3 62.8506 118.615C63.0511 118.923 63.3053 119.152 63.6133 119.303C63.9284 119.453 64.3044 119.528 64.7412 119.528C65.2712 119.528 65.7044 119.399 66.041 119.142C66.3776 118.884 66.6462 118.544 66.8467 118.121C67.0544 117.691 67.2191 117.229 67.3408 116.735V113.685C67.2692 113.319 67.1654 112.968 67.0293 112.632C66.9004 112.288 66.7321 111.984 66.5244 111.719C66.3167 111.447 66.0661 111.232 65.7725 111.074C65.486 110.917 65.1494 110.838 64.7627 110.838C64.3258 110.838 63.9499 110.917 63.6348 111.074C63.3197 111.232 63.0618 111.468 62.8613 111.783C62.6608 112.098 62.514 112.496 62.4209 112.976C62.3278 113.455 62.2812 114.018 62.2812 114.662ZM77.9111 109.377H79.6191V121.097C79.6191 122.121 79.4401 122.966 79.082 123.632C78.7311 124.298 78.2406 124.788 77.6104 125.104C76.9801 125.426 76.2533 125.587 75.4297 125.587C75.1361 125.587 74.7673 125.533 74.3232 125.426C73.8792 125.318 73.4352 125.154 72.9912 124.932C72.5472 124.717 72.182 124.445 71.8955 124.115L72.6797 122.794C73.0879 123.209 73.5212 123.507 73.9795 123.686C74.4378 123.865 74.8747 123.954 75.29 123.954C75.7842 123.954 76.2139 123.865 76.5791 123.686C76.9443 123.507 77.2272 123.213 77.4277 122.805C77.6283 122.404 77.7285 121.867 77.7285 121.193V111.934L77.9111 109.377ZM71.2295 115.747V114.662C71.2295 113.702 71.319 112.879 71.498 112.191C71.6771 111.497 71.9349 110.927 72.2715 110.483C72.6152 110.032 73.027 109.699 73.5068 109.484C73.9867 109.27 74.5238 109.162 75.1182 109.162C75.7197 109.162 76.2389 109.284 76.6758 109.527C77.1126 109.771 77.4743 110.125 77.7607 110.591C78.0544 111.049 78.2835 111.608 78.4482 112.267C78.6201 112.918 78.7383 113.656 78.8027 114.479V115.93C78.7383 116.746 78.6201 117.48 78.4482 118.132C78.2835 118.784 78.0508 119.339 77.75 119.797C77.4564 120.255 77.0911 120.606 76.6543 120.85C76.2174 121.093 75.6982 121.215 75.0967 121.215C74.5094 121.215 73.9795 121.104 73.5068 120.882C73.0342 120.653 72.626 120.312 72.2822 119.861C71.9456 119.403 71.6842 118.834 71.498 118.153C71.319 117.466 71.2295 116.664 71.2295 115.747ZM73.1309 114.662V115.747C73.1309 116.392 73.1774 116.954 73.2705 117.434C73.3636 117.906 73.5068 118.3 73.7002 118.615C73.9007 118.923 74.1549 119.152 74.4629 119.303C74.778 119.453 75.154 119.528 75.5908 119.528C76.1208 119.528 76.554 119.399 76.8906 119.142C77.2272 118.884 77.4958 118.544 77.6963 118.121C77.904 117.691 78.0687 117.229 78.1904 116.735V113.685C78.1188 113.319 78.015 112.968 77.8789 112.632C77.75 112.288 77.5817 111.984 77.374 111.719C77.1663 111.447 76.9157 111.232 76.6221 111.074C76.3356 110.917 75.999 110.838 75.6123 110.838C75.1755 110.838 74.7995 110.917 74.4844 111.074C74.1693 111.232 73.9115 111.468 73.7109 111.783C73.5104 112.098 73.3636 112.496 73.2705 112.976C73.1774 113.455 73.1309 114.018 73.1309 114.662ZM84.5068 104.5V121H82.6162V104.5H84.5068ZM91.6719 121.215C90.9772 121.215 90.3506 121.111 89.792 120.903C89.2334 120.696 88.7572 120.381 88.3633 119.958C87.9694 119.528 87.6686 118.988 87.4609 118.336C87.2533 117.684 87.1494 116.914 87.1494 116.026V114.716C87.1494 113.692 87.2676 112.825 87.5039 112.116C87.7474 111.407 88.0732 110.838 88.4814 110.408C88.8896 109.971 89.3516 109.656 89.8672 109.463C90.3828 109.262 90.9128 109.162 91.457 109.162C92.1875 109.162 92.8105 109.28 93.3262 109.517C93.8418 109.753 94.2607 110.104 94.583 110.569C94.9053 111.035 95.1416 111.608 95.292 112.288C95.4495 112.968 95.5283 113.753 95.5283 114.641V115.747H88.2666V114.125H93.627V113.856C93.5983 113.255 93.516 112.725 93.3799 112.267C93.251 111.808 93.0361 111.45 92.7354 111.192C92.4346 110.927 92.0085 110.795 91.457 110.795C91.1061 110.795 90.7803 110.856 90.4795 110.978C90.1859 111.092 89.9316 111.296 89.7168 111.59C89.5091 111.876 89.3444 112.274 89.2227 112.782C89.1081 113.291 89.0508 113.935 89.0508 114.716V116.026C89.0508 116.649 89.1081 117.187 89.2227 117.638C89.3444 118.082 89.5199 118.451 89.749 118.744C89.9854 119.031 90.2718 119.245 90.6084 119.389C90.9521 119.525 91.3424 119.593 91.7793 119.593C92.4167 119.593 92.943 119.471 93.3584 119.228C93.7738 118.977 94.1354 118.658 94.4434 118.271L95.4424 119.464C95.2347 119.757 94.9626 120.04 94.626 120.312C94.2965 120.577 93.8883 120.796 93.4014 120.968C92.9215 121.132 92.3451 121.215 91.6719 121.215ZM104.917 104.5V121H103.026V104.5H104.917ZM107.527 115.747V114.641C107.527 113.738 107.642 112.947 107.871 112.267C108.1 111.579 108.419 111.006 108.827 110.548C109.235 110.09 109.712 109.746 110.256 109.517C110.8 109.28 111.384 109.162 112.007 109.162C112.644 109.162 113.235 109.28 113.779 109.517C114.324 109.746 114.8 110.09 115.208 110.548C115.623 111.006 115.946 111.579 116.175 112.267C116.404 112.947 116.519 113.738 116.519 114.641V115.747C116.519 116.649 116.404 117.444 116.175 118.132C115.946 118.812 115.627 119.382 115.219 119.84C114.811 120.298 114.334 120.642 113.79 120.871C113.246 121.1 112.659 121.215 112.028 121.215C111.398 121.215 110.811 121.1 110.267 120.871C109.722 120.642 109.243 120.298 108.827 119.84C108.419 119.382 108.1 118.812 107.871 118.132C107.642 117.444 107.527 116.649 107.527 115.747ZM109.429 114.641V115.747C109.429 116.384 109.493 116.943 109.622 117.423C109.751 117.903 109.934 118.304 110.17 118.626C110.406 118.948 110.682 119.192 110.997 119.356C111.312 119.514 111.656 119.593 112.028 119.593C112.458 119.593 112.834 119.514 113.156 119.356C113.486 119.192 113.758 118.948 113.973 118.626C114.188 118.304 114.349 117.903 114.456 117.423C114.563 116.943 114.617 116.384 114.617 115.747V114.641C114.617 114.003 114.553 113.448 114.424 112.976C114.295 112.496 114.112 112.095 113.876 111.772C113.64 111.443 113.36 111.2 113.038 111.042C112.723 110.877 112.379 110.795 112.007 110.795C111.642 110.795 111.301 110.877 110.986 111.042C110.671 111.2 110.396 111.443 110.159 111.772C109.93 112.095 109.751 112.496 109.622 112.976C109.493 113.448 109.429 114.003 109.429 114.641ZM122.996 119.593C123.376 119.593 123.719 119.518 124.027 119.367C124.342 119.21 124.6 118.966 124.801 118.637C125.001 118.3 125.116 117.863 125.145 117.326H126.928C126.899 118.1 126.702 118.78 126.337 119.367C125.979 119.947 125.506 120.402 124.919 120.731C124.339 121.054 123.698 121.215 122.996 121.215C122.244 121.215 121.589 121.093 121.03 120.85C120.479 120.606 120.021 120.255 119.655 119.797C119.297 119.331 119.029 118.769 118.85 118.11C118.671 117.444 118.581 116.689 118.581 115.844V114.533C118.581 113.688 118.671 112.936 118.85 112.277C119.029 111.611 119.297 111.049 119.655 110.591C120.021 110.125 120.479 109.771 121.03 109.527C121.589 109.284 122.244 109.162 122.996 109.162C123.784 109.162 124.464 109.33 125.037 109.667C125.617 109.996 126.068 110.476 126.391 111.106C126.72 111.729 126.899 112.485 126.928 113.373H125.145C125.116 112.8 125.012 112.324 124.833 111.944C124.654 111.558 124.41 111.271 124.103 111.085C123.795 110.892 123.426 110.795 122.996 110.795C122.495 110.795 122.079 110.884 121.75 111.063C121.428 111.235 121.174 111.486 120.987 111.815C120.801 112.145 120.669 112.539 120.59 112.997C120.518 113.455 120.482 113.967 120.482 114.533V115.844C120.482 116.41 120.518 116.925 120.59 117.391C120.669 117.849 120.798 118.243 120.977 118.572C121.163 118.902 121.421 119.156 121.75 119.335C122.079 119.507 122.495 119.593 122.996 119.593ZM131.042 104.5V121H129.141V104.5H131.042ZM136.939 109.377L132.804 114.802L130.247 117.745L130.118 115.629L131.88 113.201L134.651 109.377H136.939ZM135.199 121L131.934 115.457L132.911 113.685L137.412 121H135.199Z" fill="white"/>
<circle cx="13" cy="114" r="6" fill="black"/>
</g>
<defs>
<clipPath id="clip0_22_476">
<rect width="200" height="228" fill="white"/>
</clipPath>
</defs>
</svg>
