<svg width="200" height="228" viewBox="0 0 200 228" fill="none" xmlns="http://www.w3.org/2000/svg">
<g clip-path="url(#clip0_4_2)">
<rect width="200" height="228" fill="white"/>
<rect width="200" height="228" fill="black"/>
<rect width="200" height="228" rx="18" fill="#FF9500"/>
<path d="M78.0054 13.9243L76.9727 13.646L77.4268 8.33594H82.0703V9.58838H78.5181L78.269 12.4888C78.4351 12.3765 78.6353 12.2715 78.8696 12.1738C79.104 12.0762 79.3774 12.0273 79.6899 12.0273C80.1099 12.0273 80.4834 12.1128 80.8105 12.2837C81.1426 12.4497 81.4233 12.689 81.6528 13.0015C81.8823 13.314 82.0581 13.6899 82.1802 14.1294C82.3022 14.5688 82.3633 15.0596 82.3633 15.6016C82.3633 16.1143 82.3022 16.5854 82.1802 17.0151C82.063 17.4448 81.8823 17.8208 81.6382 18.1431C81.3989 18.4604 81.0962 18.707 80.73 18.8828C80.3687 19.0586 79.9463 19.1465 79.4629 19.1465C79.1016 19.1465 78.7598 19.0879 78.4375 18.9707C78.1152 18.8486 77.8247 18.6655 77.5659 18.4214C77.312 18.1724 77.1045 17.8647 76.9434 17.4985C76.7822 17.1274 76.6821 16.6929 76.6431 16.1948H77.8662C77.915 16.5952 78.0078 16.9321 78.1445 17.2056C78.2861 17.479 78.4668 17.6865 78.6865 17.8281C78.9111 17.9648 79.1699 18.0332 79.4629 18.0332C79.7119 18.0332 79.9365 17.9771 80.1367 17.8647C80.3369 17.7524 80.5054 17.5913 80.6421 17.3813C80.7788 17.1714 80.8838 16.9175 80.957 16.6196C81.0303 16.3218 81.0669 15.9873 81.0669 15.6162C81.0669 15.2793 81.0303 14.9668 80.957 14.6787C80.8838 14.3906 80.7739 14.1392 80.6274 13.9243C80.481 13.7095 80.3027 13.5435 80.0928 13.4263C79.8877 13.3042 79.6484 13.2432 79.375 13.2432C79.0088 13.2432 78.7378 13.3042 78.562 13.4263C78.3911 13.5483 78.2056 13.7144 78.0054 13.9243ZM84.0039 18.2822C84.0039 18.0527 84.0747 17.8599 84.2163 17.7036C84.3628 17.5425 84.5728 17.4619 84.8462 17.4619C85.1196 17.4619 85.3271 17.5425 85.4688 17.7036C85.6152 17.8599 85.6885 18.0527 85.6885 18.2822C85.6885 18.5068 85.6152 18.6973 85.4688 18.8535C85.3271 19.0098 85.1196 19.0879 84.8462 19.0879C84.5728 19.0879 84.3628 19.0098 84.2163 18.8535C84.0747 18.6973 84.0039 18.5068 84.0039 18.2822ZM83.9966 11.8149C83.9966 11.5854 84.0674 11.3926 84.209 11.2363C84.3555 11.0752 84.5654 10.9946 84.8389 10.9946C85.1123 10.9946 85.3198 11.0752 85.4614 11.2363C85.6079 11.3926 85.6812 11.5854 85.6812 11.8149C85.6812 12.0396 85.6079 12.23 85.4614 12.3862C85.3198 12.5425 85.1123 12.6206 84.8389 12.6206C84.5654 12.6206 84.3555 12.5425 84.209 12.3862C84.0674 12.23 83.9966 12.0396 83.9966 11.8149ZM93.313 17.8867V19H87.3511V18.0259L90.2881 14.1367C90.6494 13.6582 90.9253 13.2529 91.1157 12.9209C91.3062 12.584 91.438 12.2837 91.5112 12.02C91.5845 11.7515 91.6211 11.478 91.6211 11.1997C91.6211 10.8481 91.5649 10.5308 91.4526 10.2476C91.3403 9.95947 91.1768 9.72998 90.9619 9.55908C90.7471 9.38818 90.4883 9.30273 90.1855 9.30273C89.79 9.30273 89.4653 9.39551 89.2114 9.58105C88.9624 9.76172 88.7793 10.0156 88.6621 10.3428C88.5449 10.6699 88.4863 11.0459 88.4863 11.4707H87.1899C87.1899 10.8701 87.2998 10.3208 87.5195 9.82275C87.7441 9.32471 88.0786 8.9292 88.5229 8.63623C88.9673 8.33838 89.5215 8.18945 90.1855 8.18945C90.7568 8.18945 91.2451 8.30908 91.6504 8.54834C92.0605 8.78271 92.373 9.11475 92.5879 9.54443C92.8076 9.96924 92.9175 10.4673 92.9175 11.0386C92.9175 11.3511 92.8735 11.6685 92.7856 11.9907C92.7026 12.3081 92.5854 12.6255 92.4341 12.9429C92.2876 13.2603 92.1143 13.5728 91.9141 13.8804C91.7139 14.188 91.499 14.4907 91.2695 14.7886L88.9038 17.8867H93.313ZM95.9351 17.8647H96.0376C96.6968 17.8647 97.2266 17.7549 97.627 17.5352C98.0273 17.3154 98.3276 17.02 98.5278 16.6489C98.7329 16.2778 98.8696 15.8604 98.938 15.3965C99.0112 14.9277 99.0479 14.4468 99.0479 13.9536V12.3203C99.0479 11.8369 99.0015 11.4072 98.9087 11.0312C98.8208 10.6553 98.7012 10.3403 98.5498 10.0864C98.4033 9.83252 98.2349 9.63965 98.0444 9.50781C97.8589 9.37598 97.6685 9.31006 97.4731 9.31006C97.2241 9.31006 97.0044 9.37354 96.814 9.50049C96.6235 9.62256 96.4624 9.7959 96.3306 10.0205C96.2036 10.2451 96.106 10.5088 96.0376 10.8115C95.9692 11.1143 95.9351 11.4438 95.9351 11.8003C95.9351 12.1177 95.9644 12.4253 96.0229 12.7231C96.0815 13.021 96.1719 13.2896 96.2939 13.5288C96.4209 13.7681 96.5771 13.9585 96.7627 14.1001C96.9531 14.2368 97.1777 14.3052 97.4365 14.3052C97.6514 14.3052 97.8589 14.2466 98.0591 14.1294C98.2642 14.0073 98.4497 13.8438 98.6157 13.6387C98.7817 13.4287 98.9185 13.1919 99.0259 12.9282C99.1333 12.6646 99.1968 12.3887 99.2163 12.1006H99.8242C99.8242 12.5059 99.7583 12.9062 99.6265 13.3018C99.4995 13.6924 99.3164 14.0488 99.0771 14.3711C98.8428 14.6934 98.5669 14.9521 98.2495 15.1475C97.937 15.3379 97.5928 15.4331 97.2168 15.4331C96.7627 15.4331 96.3745 15.3306 96.0522 15.1255C95.73 14.9204 95.4663 14.647 95.2612 14.3052C95.061 13.9634 94.9121 13.5825 94.8145 13.1626C94.7168 12.7378 94.668 12.3081 94.668 11.8735C94.668 11.3657 94.7266 10.8896 94.8438 10.4453C94.9609 10.001 95.1343 9.61035 95.3638 9.27344C95.5981 8.93164 95.8911 8.66553 96.2427 8.4751C96.5942 8.28467 97.0044 8.18945 97.4731 8.18945C97.9956 8.18945 98.4399 8.31152 98.8062 8.55566C99.1724 8.7998 99.4678 9.12695 99.6924 9.53711C99.917 9.94727 100.081 10.4087 100.183 10.9214C100.286 11.4341 100.337 11.9614 100.337 12.5034V12.9941C100.337 13.5459 100.31 14.1074 100.256 14.6787C100.208 15.2451 100.103 15.7871 99.9414 16.3047C99.7852 16.8223 99.5508 17.2861 99.2383 17.6963C98.9258 18.1016 98.5083 18.4238 97.9858 18.6631C97.4683 18.8975 96.8188 19.0146 96.0376 19.0146H95.9424L95.9351 17.8647ZM109.309 14.8179H106.98V13.668H109.309C109.749 13.668 110.103 13.5801 110.371 13.4043C110.645 13.2285 110.842 12.9844 110.964 12.6719C111.091 12.3594 111.155 12.0029 111.155 11.6025C111.155 11.2363 111.091 10.8921 110.964 10.5698C110.842 10.2476 110.645 9.98877 110.371 9.79346C110.103 9.59326 109.749 9.49316 109.309 9.49316H107.258V19H105.911V8.33594H109.309C109.998 8.33594 110.579 8.4751 111.052 8.75342C111.526 9.03174 111.885 9.41748 112.129 9.91064C112.378 10.3989 112.502 10.958 112.502 11.5879C112.502 12.2715 112.378 12.855 112.129 13.3384C111.885 13.8218 111.526 14.1904 111.052 14.4443C110.579 14.6934 109.998 14.8179 109.309 14.8179ZM114.656 8.33594H115.959L118.75 17.0298L121.533 8.33594H122.837L119.255 19H118.23L114.656 8.33594ZM114.231 8.33594H115.374L115.571 14.8398V19H114.231V8.33594ZM122.112 8.33594H123.254V19H121.914V14.8398L122.112 8.33594Z" fill="white"/>
<path d="M18.48 49.64V36.2H49.84V63.08H27.44V72.04H49.84V81H18.48V54.12H40.88V45.16H27.44V49.64H18.48ZM58.7925 81V67.56H67.7525V72.04H81.1925V63.08H58.7925V36.2H90.1525V45.16H67.7525V54.12H90.1525V81H58.7925Z" fill="white"/>
<path d="M20.3301 94.6865V104H18.4395V92.377H20.2227L20.3301 94.6865ZM19.9434 97.748L19.0625 97.7158C19.0553 96.9209 19.1341 96.1868 19.2988 95.5137C19.4635 94.8333 19.7106 94.2425 20.04 93.7412C20.3766 93.2399 20.7956 92.8532 21.2969 92.5811C21.8053 92.3018 22.3962 92.1621 23.0693 92.1621C23.5133 92.1621 23.9251 92.2409 24.3047 92.3984C24.6914 92.5488 25.028 92.7887 25.3145 93.1182C25.6009 93.4476 25.8229 93.8701 25.9805 94.3857C26.1452 94.9014 26.2275 95.5244 26.2275 96.2549V104H24.3262V96.3516C24.3262 95.7428 24.2438 95.2559 24.0791 94.8906C23.9215 94.5254 23.696 94.2604 23.4023 94.0957C23.1087 93.9238 22.7578 93.8379 22.3496 93.8379C21.8841 93.8379 21.4938 93.9417 21.1787 94.1494C20.8708 94.3571 20.6237 94.6436 20.4375 95.0088C20.2585 95.374 20.1296 95.793 20.0508 96.2656C19.9792 96.7311 19.9434 97.2253 19.9434 97.748ZM26.2061 96.6523L24.9385 97.0605C24.9313 96.4232 25.0101 95.8109 25.1748 95.2236C25.3395 94.6364 25.583 94.1136 25.9053 93.6553C26.2347 93.1969 26.6429 92.8353 27.1299 92.5703C27.6169 92.2982 28.1826 92.1621 28.8271 92.1621C29.3571 92.1621 29.8262 92.2445 30.2344 92.4092C30.6426 92.5739 30.9863 92.8281 31.2656 93.1719C31.5521 93.5085 31.7669 93.9417 31.9102 94.4717C32.0534 95.0016 32.125 95.6318 32.125 96.3623V104H30.2236V96.3408C30.2236 95.6891 30.1413 95.1842 29.9766 94.8262C29.819 94.4609 29.5934 94.2067 29.2998 94.0635C29.0062 93.9131 28.6553 93.8379 28.2471 93.8379C27.9176 93.8379 27.624 93.9131 27.3662 94.0635C27.1156 94.2139 26.9043 94.4215 26.7324 94.6865C26.5605 94.9443 26.4281 95.2415 26.335 95.5781C26.249 95.9147 26.2061 96.2728 26.2061 96.6523ZM37.0342 92.377V104H35.1436V92.377H37.0342ZM35.0361 89.2939C35.0361 88.9717 35.1257 88.6995 35.3047 88.4775C35.4837 88.2555 35.7523 88.1445 36.1104 88.1445C36.4684 88.1445 36.737 88.2555 36.916 88.4775C37.1022 88.6995 37.1953 88.9717 37.1953 89.2939C37.1953 89.6019 37.1022 89.8669 36.916 90.0889C36.737 90.3037 36.4684 90.4111 36.1104 90.4111C35.7523 90.4111 35.4837 90.3037 35.3047 90.0889C35.1257 89.8669 35.0361 89.6019 35.0361 89.2939ZM41.9434 94.8584V104H40.042V92.377H41.8359L41.9434 94.8584ZM41.4814 97.748L40.708 97.7158C40.7008 96.9209 40.7904 96.1868 40.9766 95.5137C41.1699 94.8333 41.4421 94.2425 41.793 93.7412C42.151 93.2399 42.5771 92.8532 43.0713 92.5811C43.5654 92.3018 44.1133 92.1621 44.7148 92.1621C45.1875 92.1621 45.6172 92.2409 46.0039 92.3984C46.3906 92.5488 46.7201 92.7923 46.9922 93.1289C47.2643 93.4655 47.472 93.9023 47.6152 94.4395C47.7656 94.9694 47.8408 95.6175 47.8408 96.3838V104H45.9395V96.3623C45.9395 95.7536 45.8714 95.2666 45.7354 94.9014C45.6064 94.529 45.4059 94.2604 45.1338 94.0957C44.8688 93.9238 44.5322 93.8379 44.124 93.8379C43.7516 93.8379 43.4043 93.9417 43.082 94.1494C42.7598 94.3571 42.4769 94.6436 42.2334 95.0088C41.9971 95.374 41.8109 95.793 41.6748 96.2656C41.5459 96.7311 41.4814 97.2253 41.4814 97.748ZM56.5742 101.314V92.377H58.4756V104H56.6709L56.5742 101.314ZM56.9287 98.8652L57.6807 98.8438C57.6807 99.6172 57.6126 100.333 57.4766 100.992C57.3477 101.644 57.1328 102.21 56.832 102.689C56.5384 103.169 56.1481 103.545 55.6611 103.817C55.1742 104.082 54.5762 104.215 53.8672 104.215C53.3874 104.215 52.9505 104.132 52.5566 103.968C52.1699 103.803 51.8333 103.549 51.5469 103.205C51.2676 102.861 51.0492 102.414 50.8916 101.862C50.7412 101.311 50.666 100.648 50.666 99.875V92.377H52.5566V99.8965C52.5566 100.419 52.6032 100.853 52.6963 101.196C52.7894 101.533 52.9147 101.801 53.0723 102.002C53.2298 102.195 53.4053 102.331 53.5986 102.41C53.792 102.489 53.9889 102.528 54.1895 102.528C54.8626 102.528 55.3997 102.367 55.8008 102.045C56.2018 101.715 56.4883 101.275 56.6602 100.724C56.8392 100.165 56.9287 99.5456 56.9287 98.8652ZM65.5762 92.377V93.9023H60.1514V92.377H65.5762ZM61.9238 89.5518H63.8252V101.121C63.8252 101.515 63.8717 101.812 63.9648 102.013C64.0651 102.213 64.1904 102.346 64.3408 102.41C64.4912 102.475 64.6523 102.507 64.8242 102.507C64.9531 102.507 65.0964 102.493 65.2539 102.464C65.4115 102.428 65.5189 102.399 65.5762 102.378L65.5654 104C65.4365 104.05 65.2646 104.097 65.0498 104.14C64.835 104.19 64.5628 104.215 64.2334 104.215C63.8252 104.215 63.4456 104.118 63.0947 103.925C62.7438 103.731 62.4609 103.409 62.2461 102.958C62.0312 102.5 61.9238 101.884 61.9238 101.11V89.5518ZM72 104.215C71.3053 104.215 70.6787 104.111 70.1201 103.903C69.5615 103.696 69.0853 103.381 68.6914 102.958C68.2975 102.528 67.9967 101.988 67.7891 101.336C67.5814 100.684 67.4775 99.9144 67.4775 99.0264V97.7158C67.4775 96.6917 67.5957 95.8252 67.832 95.1162C68.0755 94.4072 68.4014 93.8379 68.8096 93.4082C69.2178 92.9714 69.6797 92.6562 70.1953 92.4629C70.7109 92.2624 71.2409 92.1621 71.7852 92.1621C72.5156 92.1621 73.1387 92.2803 73.6543 92.5166C74.1699 92.7529 74.5889 93.1038 74.9111 93.5693C75.2334 94.0348 75.4697 94.6077 75.6201 95.2881C75.7777 95.9684 75.8564 96.7526 75.8564 97.6406V98.7471H68.5947V97.125H73.9551V96.8564C73.9264 96.2549 73.8441 95.7249 73.708 95.2666C73.5791 94.8083 73.3643 94.4502 73.0635 94.1924C72.7627 93.9274 72.3366 93.7949 71.7852 93.7949C71.4342 93.7949 71.1084 93.8558 70.8076 93.9775C70.514 94.0921 70.2598 94.2962 70.0449 94.5898C69.8372 94.8763 69.6725 95.2738 69.5508 95.7822C69.4362 96.2907 69.3789 96.9352 69.3789 97.7158V99.0264C69.3789 99.6494 69.4362 100.187 69.5508 100.638C69.6725 101.082 69.848 101.451 70.0771 101.744C70.3135 102.031 70.5999 102.245 70.9365 102.389C71.2803 102.525 71.6706 102.593 72.1074 102.593C72.7448 102.593 73.2712 102.471 73.6865 102.228C74.1019 101.977 74.4635 101.658 74.7715 101.271L75.7705 102.464C75.5628 102.757 75.2907 103.04 74.9541 103.312C74.6247 103.577 74.2165 103.796 73.7295 103.968C73.2497 104.132 72.6732 104.215 72 104.215ZM83.7949 101.024C83.7949 100.731 83.7233 100.473 83.5801 100.251C83.4368 100.029 83.2005 99.8141 82.8711 99.6064C82.5488 99.3988 82.112 99.1768 81.5605 98.9404C81.0234 98.7184 80.54 98.5 80.1104 98.2852C79.6878 98.0632 79.3298 97.8232 79.0361 97.5654C78.7425 97.3076 78.5169 97.0104 78.3594 96.6738C78.209 96.3301 78.1338 95.9255 78.1338 95.46C78.1338 94.9945 78.2197 94.5648 78.3916 94.1709C78.5706 93.7699 78.8213 93.4189 79.1436 93.1182C79.4658 92.8174 79.8525 92.5846 80.3037 92.4199C80.7549 92.248 81.2598 92.1621 81.8184 92.1621C82.6133 92.1621 83.29 92.3161 83.8486 92.624C84.4072 92.932 84.8333 93.3545 85.127 93.8916C85.4277 94.4215 85.5781 95.0195 85.5781 95.6855H83.6875C83.6875 95.3633 83.6159 95.0589 83.4727 94.7725C83.3294 94.486 83.1182 94.2533 82.8389 94.0742C82.5596 93.888 82.2194 93.7949 81.8184 93.7949C81.3958 93.7949 81.0521 93.8701 80.7871 94.0205C80.5221 94.1709 80.3288 94.3678 80.207 94.6113C80.0924 94.8477 80.0352 95.109 80.0352 95.3955C80.0352 95.6104 80.0638 95.7965 80.1211 95.9541C80.1855 96.1045 80.293 96.2477 80.4434 96.3838C80.5938 96.5127 80.7979 96.6488 81.0557 96.792C81.3206 96.9281 81.6572 97.0856 82.0654 97.2646C82.8532 97.5726 83.5156 97.8841 84.0527 98.1992C84.5898 98.5143 84.998 98.8831 85.2773 99.3057C85.5566 99.7282 85.6963 100.251 85.6963 100.874C85.6963 101.382 85.6032 101.844 85.417 102.26C85.238 102.668 84.9801 103.019 84.6436 103.312C84.307 103.606 83.9023 103.832 83.4297 103.989C82.9642 104.14 82.4414 104.215 81.8613 104.215C80.9876 104.215 80.2464 104.043 79.6377 103.699C79.0361 103.348 78.5778 102.894 78.2627 102.335C77.9548 101.769 77.8008 101.164 77.8008 100.52H79.7021C79.7236 101.064 79.8454 101.486 80.0674 101.787C80.2965 102.088 80.5723 102.296 80.8945 102.41C81.2168 102.525 81.5391 102.582 81.8613 102.582C82.2839 102.582 82.6383 102.521 82.9248 102.399C83.2113 102.271 83.4261 102.088 83.5693 101.852C83.7197 101.615 83.7949 101.34 83.7949 101.024ZM24.3047 123.314V114.377H26.2061V126H24.4014L24.3047 123.314ZM24.6592 120.865L25.4111 120.844C25.4111 121.617 25.3431 122.333 25.207 122.992C25.0781 123.644 24.8633 124.21 24.5625 124.689C24.2689 125.169 23.8786 125.545 23.3916 125.817C22.9046 126.082 22.3066 126.215 21.5977 126.215C21.1178 126.215 20.681 126.132 20.2871 125.968C19.9004 125.803 19.5638 125.549 19.2773 125.205C18.998 124.861 18.7796 124.414 18.6221 123.862C18.4717 123.311 18.3965 122.648 18.3965 121.875V114.377H20.2871V121.896C20.2871 122.419 20.3337 122.853 20.4268 123.196C20.5199 123.533 20.6452 123.801 20.8027 124.002C20.9603 124.195 21.1357 124.331 21.3291 124.41C21.5225 124.489 21.7194 124.528 21.9199 124.528C22.5931 124.528 23.1302 124.367 23.5312 124.045C23.9323 123.715 24.2188 123.275 24.3906 122.724C24.5697 122.165 24.6592 121.546 24.6592 120.865ZM30.9648 116.858V126H29.0635V114.377H30.8574L30.9648 116.858ZM30.5029 119.748L29.7295 119.716C29.7223 118.921 29.8118 118.187 29.998 117.514C30.1914 116.833 30.4635 116.243 30.8145 115.741C31.1725 115.24 31.5986 114.853 32.0928 114.581C32.5869 114.302 33.1348 114.162 33.7363 114.162C34.209 114.162 34.6387 114.241 35.0254 114.398C35.4121 114.549 35.7415 114.792 36.0137 115.129C36.2858 115.465 36.4935 115.902 36.6367 116.439C36.7871 116.969 36.8623 117.618 36.8623 118.384V126H34.9609V118.362C34.9609 117.754 34.8929 117.267 34.7568 116.901C34.6279 116.529 34.4274 116.26 34.1553 116.096C33.8903 115.924 33.5537 115.838 33.1455 115.838C32.7731 115.838 32.4258 115.942 32.1035 116.149C31.7812 116.357 31.4984 116.644 31.2549 117.009C31.0186 117.374 30.8324 117.793 30.6963 118.266C30.5674 118.731 30.5029 119.225 30.5029 119.748ZM43.9629 114.377V115.902H38.5381V114.377H43.9629ZM40.3105 111.552H42.2119V123.121C42.2119 123.515 42.2585 123.812 42.3516 124.013C42.4518 124.213 42.5771 124.346 42.7275 124.41C42.8779 124.475 43.0391 124.507 43.2109 124.507C43.3398 124.507 43.4831 124.493 43.6406 124.464C43.7982 124.428 43.9056 124.399 43.9629 124.378L43.9521 126C43.8232 126.05 43.6514 126.097 43.4365 126.14C43.2217 126.19 42.9495 126.215 42.6201 126.215C42.2119 126.215 41.8324 126.118 41.4814 125.925C41.1305 125.731 40.8477 125.409 40.6328 124.958C40.418 124.5 40.3105 123.884 40.3105 123.11V111.552ZM48.2705 114.377V126H46.3799V114.377H48.2705ZM46.2725 111.294C46.2725 110.972 46.362 110.7 46.541 110.478C46.7201 110.256 46.9886 110.145 47.3467 110.145C47.7048 110.145 47.9733 110.256 48.1523 110.478C48.3385 110.7 48.4316 110.972 48.4316 111.294C48.4316 111.602 48.3385 111.867 48.1523 112.089C47.9733 112.304 47.7048 112.411 47.3467 112.411C46.9886 112.411 46.7201 112.304 46.541 112.089C46.362 111.867 46.2725 111.602 46.2725 111.294ZM53.3193 109.5V126H51.4287V109.5H53.3193ZM64.1152 126H62.2139V113.152C62.2139 112.314 62.3464 111.609 62.6113 111.036C62.8835 110.456 63.2666 110.019 63.7607 109.726C64.262 109.425 64.8564 109.274 65.5439 109.274C65.7373 109.274 65.9307 109.289 66.124 109.317C66.3245 109.346 66.5143 109.389 66.6934 109.446L66.6074 111.068C66.4928 111.033 66.3532 111.007 66.1885 110.993C66.0309 110.979 65.8805 110.972 65.7373 110.972C65.3936 110.972 65.0999 111.058 64.8564 111.229C64.613 111.394 64.4268 111.638 64.2979 111.96C64.1761 112.282 64.1152 112.68 64.1152 113.152V126ZM66.0918 114.377V115.902H60.6992V114.377H66.0918ZM74.2129 123.314V114.377H76.1143V126H74.3096L74.2129 123.314ZM74.5674 120.865L75.3193 120.844C75.3193 121.617 75.2513 122.333 75.1152 122.992C74.9863 123.644 74.7715 124.21 74.4707 124.689C74.1771 125.169 73.7868 125.545 73.2998 125.817C72.8128 126.082 72.2148 126.215 71.5059 126.215C71.026 126.215 70.5892 126.132 70.1953 125.968C69.8086 125.803 69.472 125.549 69.1855 125.205C68.9062 124.861 68.6878 124.414 68.5303 123.862C68.3799 123.311 68.3047 122.648 68.3047 121.875V114.377H70.1953V121.896C70.1953 122.419 70.2419 122.853 70.335 123.196C70.4281 123.533 70.5534 123.801 70.7109 124.002C70.8685 124.195 71.0439 124.331 71.2373 124.41C71.4307 124.489 71.6276 124.528 71.8281 124.528C72.5013 124.528 73.0384 124.367 73.4395 124.045C73.8405 123.715 74.127 123.275 74.2988 122.724C74.4779 122.165 74.5674 121.546 74.5674 120.865ZM81.0127 109.5V126H79.1221V109.5H81.0127ZM86.0615 109.5V126H84.1709V109.5H86.0615Z" fill="white"/>
<path d="M78.0054 13.9243L76.9727 13.646L77.4268 8.33594H82.0703V9.58838H78.5181L78.269 12.4888C78.4351 12.3765 78.6353 12.2715 78.8696 12.1738C79.104 12.0762 79.3774 12.0273 79.6899 12.0273C80.1099 12.0273 80.4834 12.1128 80.8105 12.2837C81.1426 12.4497 81.4233 12.689 81.6528 13.0015C81.8823 13.314 82.0581 13.6899 82.1802 14.1294C82.3022 14.5688 82.3633 15.0596 82.3633 15.6016C82.3633 16.1143 82.3022 16.5854 82.1802 17.0151C82.063 17.4448 81.8823 17.8208 81.6382 18.1431C81.3989 18.4604 81.0962 18.707 80.73 18.8828C80.3687 19.0586 79.9463 19.1465 79.4629 19.1465C79.1016 19.1465 78.7598 19.0879 78.4375 18.9707C78.1152 18.8486 77.8247 18.6655 77.5659 18.4214C77.312 18.1724 77.1045 17.8647 76.9434 17.4985C76.7822 17.1274 76.6821 16.6929 76.6431 16.1948H77.8662C77.915 16.5952 78.0078 16.9321 78.1445 17.2056C78.2861 17.479 78.4668 17.6865 78.6865 17.8281C78.9111 17.9648 79.1699 18.0332 79.4629 18.0332C79.7119 18.0332 79.9365 17.9771 80.1367 17.8647C80.3369 17.7524 80.5054 17.5913 80.6421 17.3813C80.7788 17.1714 80.8838 16.9175 80.957 16.6196C81.0303 16.3218 81.0669 15.9873 81.0669 15.6162C81.0669 15.2793 81.0303 14.9668 80.957 14.6787C80.8838 14.3906 80.7739 14.1392 80.6274 13.9243C80.481 13.7095 80.3027 13.5435 80.0928 13.4263C79.8877 13.3042 79.6484 13.2432 79.375 13.2432C79.0088 13.2432 78.7378 13.3042 78.562 13.4263C78.3911 13.5483 78.2056 13.7144 78.0054 13.9243ZM84.0039 18.2822C84.0039 18.0527 84.0747 17.8599 84.2163 17.7036C84.3628 17.5425 84.5728 17.4619 84.8462 17.4619C85.1196 17.4619 85.3271 17.5425 85.4688 17.7036C85.6152 17.8599 85.6885 18.0527 85.6885 18.2822C85.6885 18.5068 85.6152 18.6973 85.4688 18.8535C85.3271 19.0098 85.1196 19.0879 84.8462 19.0879C84.5728 19.0879 84.3628 19.0098 84.2163 18.8535C84.0747 18.6973 84.0039 18.5068 84.0039 18.2822ZM83.9966 11.8149C83.9966 11.5854 84.0674 11.3926 84.209 11.2363C84.3555 11.0752 84.5654 10.9946 84.8389 10.9946C85.1123 10.9946 85.3198 11.0752 85.4614 11.2363C85.6079 11.3926 85.6812 11.5854 85.6812 11.8149C85.6812 12.0396 85.6079 12.23 85.4614 12.3862C85.3198 12.5425 85.1123 12.6206 84.8389 12.6206C84.5654 12.6206 84.3555 12.5425 84.209 12.3862C84.0674 12.23 83.9966 12.0396 83.9966 11.8149ZM93.313 17.8867V19H87.3511V18.0259L90.2881 14.1367C90.6494 13.6582 90.9253 13.2529 91.1157 12.9209C91.3062 12.584 91.438 12.2837 91.5112 12.02C91.5845 11.7515 91.6211 11.478 91.6211 11.1997C91.6211 10.8481 91.5649 10.5308 91.4526 10.2476C91.3403 9.95947 91.1768 9.72998 90.9619 9.55908C90.7471 9.38818 90.4883 9.30273 90.1855 9.30273C89.79 9.30273 89.4653 9.39551 89.2114 9.58105C88.9624 9.76172 88.7793 10.0156 88.6621 10.3428C88.5449 10.6699 88.4863 11.0459 88.4863 11.4707H87.1899C87.1899 10.8701 87.2998 10.3208 87.5195 9.82275C87.7441 9.32471 88.0786 8.9292 88.5229 8.63623C88.9673 8.33838 89.5215 8.18945 90.1855 8.18945C90.7568 8.18945 91.2451 8.30908 91.6504 8.54834C92.0605 8.78271 92.373 9.11475 92.5879 9.54443C92.8076 9.96924 92.9175 10.4673 92.9175 11.0386C92.9175 11.3511 92.8735 11.6685 92.7856 11.9907C92.7026 12.3081 92.5854 12.6255 92.4341 12.9429C92.2876 13.2603 92.1143 13.5728 91.9141 13.8804C91.7139 14.188 91.499 14.4907 91.2695 14.7886L88.9038 17.8867H93.313ZM95.9351 17.8647H96.0376C96.6968 17.8647 97.2266 17.7549 97.627 17.5352C98.0273 17.3154 98.3276 17.02 98.5278 16.6489C98.7329 16.2778 98.8696 15.8604 98.938 15.3965C99.0112 14.9277 99.0479 14.4468 99.0479 13.9536V12.3203C99.0479 11.8369 99.0015 11.4072 98.9087 11.0312C98.8208 10.6553 98.7012 10.3403 98.5498 10.0864C98.4033 9.83252 98.2349 9.63965 98.0444 9.50781C97.8589 9.37598 97.6685 9.31006 97.4731 9.31006C97.2241 9.31006 97.0044 9.37354 96.814 9.50049C96.6235 9.62256 96.4624 9.7959 96.3306 10.0205C96.2036 10.2451 96.106 10.5088 96.0376 10.8115C95.9692 11.1143 95.9351 11.4438 95.9351 11.8003C95.9351 12.1177 95.9644 12.4253 96.0229 12.7231C96.0815 13.021 96.1719 13.2896 96.2939 13.5288C96.4209 13.7681 96.5771 13.9585 96.7627 14.1001C96.9531 14.2368 97.1777 14.3052 97.4365 14.3052C97.6514 14.3052 97.8589 14.2466 98.0591 14.1294C98.2642 14.0073 98.4497 13.8438 98.6157 13.6387C98.7817 13.4287 98.9185 13.1919 99.0259 12.9282C99.1333 12.6646 99.1968 12.3887 99.2163 12.1006H99.8242C99.8242 12.5059 99.7583 12.9062 99.6265 13.3018C99.4995 13.6924 99.3164 14.0488 99.0771 14.3711C98.8428 14.6934 98.5669 14.9521 98.2495 15.1475C97.937 15.3379 97.5928 15.4331 97.2168 15.4331C96.7627 15.4331 96.3745 15.3306 96.0522 15.1255C95.73 14.9204 95.4663 14.647 95.2612 14.3052C95.061 13.9634 94.9121 13.5825 94.8145 13.1626C94.7168 12.7378 94.668 12.3081 94.668 11.8735C94.668 11.3657 94.7266 10.8896 94.8438 10.4453C94.9609 10.001 95.1343 9.61035 95.3638 9.27344C95.5981 8.93164 95.8911 8.66553 96.2427 8.4751C96.5942 8.28467 97.0044 8.18945 97.4731 8.18945C97.9956 8.18945 98.4399 8.31152 98.8062 8.55566C99.1724 8.7998 99.4678 9.12695 99.6924 9.53711C99.917 9.94727 100.081 10.4087 100.183 10.9214C100.286 11.4341 100.337 11.9614 100.337 12.5034V12.9941C100.337 13.5459 100.31 14.1074 100.256 14.6787C100.208 15.2451 100.103 15.7871 99.9414 16.3047C99.7852 16.8223 99.5508 17.2861 99.2383 17.6963C98.9258 18.1016 98.5083 18.4238 97.9858 18.6631C97.4683 18.8975 96.8188 19.0146 96.0376 19.0146H95.9424L95.9351 17.8647ZM109.309 14.8179H106.98V13.668H109.309C109.749 13.668 110.103 13.5801 110.371 13.4043C110.645 13.2285 110.842 12.9844 110.964 12.6719C111.091 12.3594 111.155 12.0029 111.155 11.6025C111.155 11.2363 111.091 10.8921 110.964 10.5698C110.842 10.2476 110.645 9.98877 110.371 9.79346C110.103 9.59326 109.749 9.49316 109.309 9.49316H107.258V19H105.911V8.33594H109.309C109.998 8.33594 110.579 8.4751 111.052 8.75342C111.526 9.03174 111.885 9.41748 112.129 9.91064C112.378 10.3989 112.502 10.958 112.502 11.5879C112.502 12.2715 112.378 12.855 112.129 13.3384C111.885 13.8218 111.526 14.1904 111.052 14.4443C110.579 14.6934 109.998 14.8179 109.309 14.8179ZM114.656 8.33594H115.959L118.75 17.0298L121.533 8.33594H122.837L119.255 19H118.23L114.656 8.33594ZM114.231 8.33594H115.374L115.571 14.8398V19H114.231V8.33594ZM122.112 8.33594H123.254V19H121.914V14.8398L122.112 8.33594Z" fill="white"/>
<path d="M73.5271 163.726L70.5829 197.825C70.2465 201.721 72.776 205.29 76.5637 206.262L119.391 217.258C120.025 217.421 120.651 217.505 121.306 217.509C181.384 217.884 302.042 218.398 311.657 217.503C320.219 216.707 328.36 213.794 332.441 211.967C333.355 211.557 334.183 210.957 334.728 210.116C338.936 203.63 336.371 191.655 334.429 183.133C334.027 181.369 333.066 179.772 331.567 178.76C316.449 168.55 284.795 163.135 268.638 161.475C267.457 161.354 266.326 160.99 265.304 160.387C251.172 152.049 223.994 136.489 217.008 134.323C207.946 131.513 160.621 130.951 141.994 134.323C127.427 136.96 101.411 148.404 89.4326 154.167C88.8917 154.428 88.3325 154.624 87.7476 154.759L79.6971 156.619C76.3172 157.4 73.8255 160.269 73.5271 163.726Z" fill="white" stroke="black" stroke-width="6"/>
<circle cx="126" cy="208" r="20" fill="white" stroke="black" stroke-width="6"/>
<circle cx="115.5" cy="161.5" r="5.5" stroke="black" stroke-width="6"/>
<path d="M168.824 13.0015H169.659C170.03 13.0015 170.338 12.9233 170.582 12.7671C170.826 12.606 171.007 12.3887 171.124 12.1152C171.246 11.8369 171.307 11.5244 171.307 11.1777C171.307 10.7676 171.253 10.4233 171.146 10.145C171.039 9.8667 170.877 9.65674 170.663 9.51514C170.453 9.37354 170.187 9.30273 169.864 9.30273C169.562 9.30273 169.298 9.37842 169.073 9.52979C168.849 9.67627 168.675 9.88623 168.553 10.1597C168.431 10.4331 168.37 10.7554 168.37 11.1265H167.081C167.081 10.5845 167.193 10.0913 167.418 9.64697C167.647 9.20264 167.97 8.84863 168.385 8.58496C168.805 8.32129 169.298 8.18945 169.864 8.18945C170.406 8.18945 170.882 8.3042 171.292 8.53369C171.703 8.7583 172.022 9.09521 172.252 9.54443C172.486 9.98877 172.604 10.543 172.604 11.207C172.604 11.4756 172.552 11.7637 172.45 12.0713C172.352 12.374 172.193 12.6572 171.974 12.9209C171.759 13.1846 171.476 13.4019 171.124 13.5728C170.777 13.7388 170.353 13.8218 169.85 13.8218H168.824V13.0015ZM168.824 14.1147V13.3018H169.85C170.445 13.3018 170.931 13.3823 171.307 13.5435C171.683 13.7046 171.974 13.9194 172.179 14.188C172.384 14.4565 172.525 14.752 172.604 15.0742C172.687 15.3916 172.728 15.709 172.728 16.0264C172.728 16.5244 172.655 16.9663 172.508 17.3521C172.367 17.7378 172.164 18.0649 171.9 18.3335C171.642 18.6021 171.339 18.8047 170.992 18.9414C170.646 19.0781 170.267 19.1465 169.857 19.1465C169.457 19.1465 169.085 19.0806 168.744 18.9487C168.402 18.8169 168.102 18.6265 167.843 18.3774C167.584 18.1235 167.381 17.8135 167.235 17.4473C167.093 17.0762 167.022 16.6538 167.022 16.1802H168.319C168.319 16.5513 168.38 16.876 168.502 17.1543C168.624 17.4326 168.8 17.6499 169.029 17.8062C169.259 17.9575 169.535 18.0332 169.857 18.0332C170.179 18.0332 170.458 17.9624 170.692 17.8208C170.926 17.6743 171.107 17.4546 171.234 17.1616C171.366 16.8687 171.432 16.5 171.432 16.0557C171.432 15.6113 171.358 15.2476 171.212 14.9644C171.07 14.6763 170.868 14.4639 170.604 14.3271C170.34 14.1855 170.025 14.1147 169.659 14.1147H168.824ZM180.278 8.33594L176.542 19.9155H175.451L179.194 8.33594H180.278ZM189.029 8.33594V9.09766L185.359 19H183.997L187.667 9.44922H182.913V8.33594H189.029Z" fill="white"/>
<path d="M101.645 160.956C105.667 158.313 110.33 156.579 115.4 157.089C117.598 157.31 119.2 159.271 118.979 161.469C118.758 163.667 116.798 165.27 114.6 165.049C111.92 164.78 109.08 165.643 106.038 167.642C102.981 169.651 99.9654 172.653 97.1016 176.185C91.363 183.262 86.7842 191.759 83.9961 196.776C81.0446 202.087 75.1081 210.295 66.5918 217.221C58.0544 224.163 46.6874 230 33 230H-20C-22.2091 230 -24 228.209 -24 226C-24 223.791 -22.2091 222 -20 222H33C44.3126 222 53.9535 217.188 61.5449 211.015C69.1571 204.824 74.4705 197.448 77.0039 192.89C79.7006 188.037 84.6226 178.872 90.8877 171.146C94.0256 167.276 97.637 163.59 101.645 160.956Z" fill="white" stroke="black" stroke-width="6" stroke-linecap="round"/>
</g>
<defs>
<clipPath id="clip0_4_2">
<rect width="200" height="228" fill="white"/>
</clipPath>
</defs>
</svg>
