<svg width="200" height="228" viewBox="0 0 200 228" fill="none" xmlns="http://www.w3.org/2000/svg">
<g clip-path="url(#clip0_7_101)">
<rect width="200" height="228" fill="white"/>
<rect width="200" height="228" fill="black"/>
<rect width="200" height="228" rx="18" fill="#FF9500"/>
<path d="M35.28 36.4V63H16.66V57.68H29.96V52.36H16.66V36.4H35.28ZM21.98 41.72V47.04H29.96V41.72H21.98ZM59.2155 36.4V63H40.5955V57.68H53.8955V52.36H40.5955V36.4H59.2155ZM45.9155 41.72V47.04H53.8955V41.72H45.9155ZM83.1511 36.4V63H64.5311V57.68H77.8311V52.36H64.5311V36.4H83.1511ZM69.8511 41.72V47.04H77.8311V41.72H69.8511ZM107.087 36.4V63H88.4666V57.68H101.767V52.36H88.4666V36.4H107.087ZM93.7866 41.72V47.04H101.767V41.72H93.7866ZM131.022 36.4V63H112.402V57.68H125.702V52.36H112.402V36.4H131.022ZM117.722 41.72V47.04H125.702V41.72H117.722ZM154.958 36.4V63H136.338V57.68H149.638V52.36H136.338V36.4H154.958ZM141.658 41.72V47.04H149.638V41.72H141.658ZM178.893 36.4V63H160.273V57.68H173.573V52.36H160.273V36.4H178.893ZM165.593 41.72V47.04H173.573V41.72H165.593Z" fill="white"/>
<path d="M18.3408 70.5V87H16.4395V70.5H18.3408ZM24.2383 75.377L20.1025 80.8018L17.5459 83.7451L17.417 81.6289L19.1787 79.2012L21.9502 75.377H24.2383ZM22.498 87L19.2324 81.457L20.21 79.6846L24.7109 87H22.498ZM28.3955 75.377V87H26.5049V75.377H28.3955ZM26.3975 72.2939C26.3975 71.9717 26.487 71.6995 26.666 71.4775C26.8451 71.2555 27.1136 71.1445 27.4717 71.1445C27.8298 71.1445 28.0983 71.2555 28.2773 71.4775C28.4635 71.6995 28.5566 71.9717 28.5566 72.2939C28.5566 72.6019 28.4635 72.8669 28.2773 73.0889C28.0983 73.3037 27.8298 73.4111 27.4717 73.4111C27.1136 73.4111 26.8451 73.3037 26.666 73.0889C26.487 72.8669 26.3975 72.6019 26.3975 72.2939ZM33.4443 70.5V87H31.5537V70.5H33.4443ZM36.0547 81.7471V80.6406C36.0547 79.7383 36.1693 78.9469 36.3984 78.2666C36.6276 77.5791 36.9463 77.0062 37.3545 76.5479C37.7627 76.0895 38.2389 75.7458 38.7832 75.5166C39.3275 75.2803 39.9111 75.1621 40.5342 75.1621C41.1715 75.1621 41.7624 75.2803 42.3066 75.5166C42.8509 75.7458 43.3271 76.0895 43.7354 76.5479C44.1507 77.0062 44.473 77.5791 44.7021 78.2666C44.9313 78.9469 45.0459 79.7383 45.0459 80.6406V81.7471C45.0459 82.6494 44.9313 83.4443 44.7021 84.1318C44.473 84.8122 44.1543 85.3815 43.7461 85.8398C43.3379 86.2982 42.8617 86.6419 42.3174 86.8711C41.7731 87.1003 41.1859 87.2148 40.5557 87.2148C39.9255 87.2148 39.3382 87.1003 38.7939 86.8711C38.2497 86.6419 37.7699 86.2982 37.3545 85.8398C36.9463 85.3815 36.6276 84.8122 36.3984 84.1318C36.1693 83.4443 36.0547 82.6494 36.0547 81.7471ZM37.9561 80.6406V81.7471C37.9561 82.3844 38.0205 82.943 38.1494 83.4229C38.2783 83.9027 38.4609 84.3037 38.6973 84.626C38.9336 84.9482 39.2093 85.1917 39.5244 85.3564C39.8395 85.514 40.1833 85.5928 40.5557 85.5928C40.9854 85.5928 41.3613 85.514 41.6836 85.3564C42.013 85.1917 42.2852 84.9482 42.5 84.626C42.7148 84.3037 42.876 83.9027 42.9834 83.4229C43.0908 82.943 43.1445 82.3844 43.1445 81.7471V80.6406C43.1445 80.0033 43.0801 79.4482 42.9512 78.9756C42.8223 78.4958 42.6396 78.0947 42.4033 77.7725C42.167 77.443 41.8877 77.1995 41.5654 77.042C41.2503 76.8773 40.9066 76.7949 40.5342 76.7949C40.1689 76.7949 39.8288 76.8773 39.5137 77.042C39.1986 77.1995 38.9229 77.443 38.6865 77.7725C38.4574 78.0947 38.2783 78.4958 38.1494 78.9756C38.0205 79.4482 37.9561 80.0033 37.9561 80.6406ZM49.3965 77.6865V87H47.5059V75.377H49.2891L49.3965 77.6865ZM49.0098 80.748L48.1289 80.7158C48.1217 79.9209 48.2005 79.1868 48.3652 78.5137C48.5299 77.8333 48.777 77.2425 49.1064 76.7412C49.443 76.2399 49.862 75.8532 50.3633 75.5811C50.8717 75.3018 51.4626 75.1621 52.1357 75.1621C52.5798 75.1621 52.9915 75.2409 53.3711 75.3984C53.7578 75.5488 54.0944 75.7887 54.3809 76.1182C54.6673 76.4476 54.8893 76.8701 55.0469 77.3857C55.2116 77.9014 55.2939 78.5244 55.2939 79.2549V87H53.3926V79.3516C53.3926 78.7428 53.3102 78.2559 53.1455 77.8906C52.988 77.5254 52.7624 77.2604 52.4688 77.0957C52.1751 76.9238 51.8242 76.8379 51.416 76.8379C50.9505 76.8379 50.5602 76.9417 50.2451 77.1494C49.9372 77.3571 49.6901 77.6436 49.5039 78.0088C49.3249 78.374 49.196 78.793 49.1172 79.2656C49.0456 79.7311 49.0098 80.2253 49.0098 80.748ZM55.2725 79.6523L54.0049 80.0605C53.9977 79.4232 54.0765 78.8109 54.2412 78.2236C54.4059 77.6364 54.6494 77.1136 54.9717 76.6553C55.3011 76.1969 55.7093 75.8353 56.1963 75.5703C56.6833 75.2982 57.249 75.1621 57.8936 75.1621C58.4235 75.1621 58.8926 75.2445 59.3008 75.4092C59.709 75.5739 60.0527 75.8281 60.332 76.1719C60.6185 76.5085 60.8333 76.9417 60.9766 77.4717C61.1198 78.0016 61.1914 78.6318 61.1914 79.3623V87H59.29V79.3408C59.29 78.6891 59.2077 78.1842 59.043 77.8262C58.8854 77.4609 58.6598 77.2067 58.3662 77.0635C58.0726 76.9131 57.7217 76.8379 57.3135 76.8379C56.984 76.8379 56.6904 76.9131 56.4326 77.0635C56.182 77.2139 55.9707 77.4215 55.7988 77.6865C55.627 77.9443 55.4945 78.2415 55.4014 78.5781C55.3154 78.9147 55.2725 79.2728 55.2725 79.6523ZM68.2168 87.2148C67.5221 87.2148 66.8955 87.111 66.3369 86.9033C65.7783 86.6956 65.3021 86.3805 64.9082 85.958C64.5143 85.5283 64.2135 84.9876 64.0059 84.3359C63.7982 83.6842 63.6943 82.9144 63.6943 82.0264V80.7158C63.6943 79.6917 63.8125 78.8252 64.0488 78.1162C64.2923 77.4072 64.6182 76.8379 65.0264 76.4082C65.4346 75.9714 65.8965 75.6562 66.4121 75.4629C66.9277 75.2624 67.4577 75.1621 68.002 75.1621C68.7324 75.1621 69.3555 75.2803 69.8711 75.5166C70.3867 75.7529 70.8057 76.1038 71.1279 76.5693C71.4502 77.0348 71.6865 77.6077 71.8369 78.2881C71.9945 78.9684 72.0732 79.7526 72.0732 80.6406V81.7471H64.8115V80.125H70.1719V79.8564C70.1432 79.2549 70.0609 78.7249 69.9248 78.2666C69.7959 77.8083 69.5811 77.4502 69.2803 77.1924C68.9795 76.9274 68.5534 76.7949 68.002 76.7949C67.651 76.7949 67.3252 76.8558 67.0244 76.9775C66.7308 77.0921 66.4766 77.2962 66.2617 77.5898C66.054 77.8763 65.8893 78.2738 65.7676 78.7822C65.653 79.2907 65.5957 79.9352 65.5957 80.7158V82.0264C65.5957 82.6494 65.653 83.1865 65.7676 83.6377C65.8893 84.0817 66.0648 84.4505 66.2939 84.7441C66.5303 85.0306 66.8167 85.2454 67.1533 85.3887C67.4971 85.5247 67.8874 85.5928 68.3242 85.5928C68.9616 85.5928 69.488 85.471 69.9033 85.2275C70.3187 84.9769 70.6803 84.6582 70.9883 84.2715L71.9873 85.4639C71.7796 85.7575 71.5075 86.0404 71.1709 86.3125C70.8415 86.5775 70.4333 86.7959 69.9463 86.9678C69.4665 87.1325 68.89 87.2148 68.2168 87.2148ZM78.6152 75.377V76.9023H73.1904V75.377H78.6152ZM74.9629 72.5518H76.8643V84.1211C76.8643 84.515 76.9108 84.8122 77.0039 85.0127C77.1042 85.2132 77.2295 85.3457 77.3799 85.4102C77.5303 85.4746 77.6914 85.5068 77.8633 85.5068C77.9922 85.5068 78.1354 85.4925 78.293 85.4639C78.4505 85.4281 78.5579 85.3994 78.6152 85.3779L78.6045 87C78.4756 87.0501 78.3037 87.0967 78.0889 87.1396C77.874 87.1898 77.6019 87.2148 77.2725 87.2148C76.8643 87.2148 76.4847 87.1182 76.1338 86.9248C75.7829 86.7314 75.5 86.4092 75.2852 85.958C75.0703 85.4997 74.9629 84.8838 74.9629 84.1104V72.5518ZM85.0391 87.2148C84.3444 87.2148 83.7178 87.111 83.1592 86.9033C82.6006 86.6956 82.1243 86.3805 81.7305 85.958C81.3366 85.5283 81.0358 84.9876 80.8281 84.3359C80.6204 83.6842 80.5166 82.9144 80.5166 82.0264V80.7158C80.5166 79.6917 80.6348 78.8252 80.8711 78.1162C81.1146 77.4072 81.4404 76.8379 81.8486 76.4082C82.2568 75.9714 82.7188 75.6562 83.2344 75.4629C83.75 75.2624 84.2799 75.1621 84.8242 75.1621C85.5547 75.1621 86.1777 75.2803 86.6934 75.5166C87.209 75.7529 87.6279 76.1038 87.9502 76.5693C88.2725 77.0348 88.5088 77.6077 88.6592 78.2881C88.8167 78.9684 88.8955 79.7526 88.8955 80.6406V81.7471H81.6338V80.125H86.9941V79.8564C86.9655 79.2549 86.8831 78.7249 86.7471 78.2666C86.6182 77.8083 86.4033 77.4502 86.1025 77.1924C85.8018 76.9274 85.3757 76.7949 84.8242 76.7949C84.4733 76.7949 84.1475 76.8558 83.8467 76.9775C83.5531 77.0921 83.2988 77.2962 83.084 77.5898C82.8763 77.8763 82.7116 78.2738 82.5898 78.7822C82.4753 79.2907 82.418 79.9352 82.418 80.7158V82.0264C82.418 82.6494 82.4753 83.1865 82.5898 83.6377C82.7116 84.0817 82.887 84.4505 83.1162 84.7441C83.3525 85.0306 83.639 85.2454 83.9756 85.3887C84.3193 85.5247 84.7096 85.5928 85.1465 85.5928C85.7839 85.5928 86.3102 85.471 86.7256 85.2275C87.141 84.9769 87.5026 84.6582 87.8105 84.2715L88.8096 85.4639C88.6019 85.7575 88.3298 86.0404 87.9932 86.3125C87.6637 86.5775 87.2555 86.7959 86.7686 86.9678C86.2887 87.1325 85.7122 87.2148 85.0391 87.2148ZM93.0957 77.2031V87H91.1943V75.377H93.0312L93.0957 77.2031ZM95.9854 75.3125L95.9961 77.1602C95.8385 77.1243 95.6953 77.1029 95.5664 77.0957C95.4447 77.0814 95.3014 77.0742 95.1367 77.0742C94.7786 77.0742 94.4635 77.1458 94.1914 77.2891C93.9264 77.4323 93.6973 77.6328 93.5039 77.8906C93.3105 78.1484 93.1566 78.4564 93.042 78.8145C92.9274 79.1654 92.8486 79.5521 92.8057 79.9746L92.3115 80.2969C92.3115 79.5951 92.3652 78.9362 92.4727 78.3203C92.5872 77.7044 92.7627 77.1602 92.999 76.6875C93.2354 76.2077 93.5361 75.8353 93.9014 75.5703C94.2738 75.2982 94.7178 75.1621 95.2334 75.1621C95.348 75.1621 95.4876 75.18 95.6523 75.2158C95.8242 75.2445 95.9352 75.2767 95.9854 75.3125ZM103.537 84.0244C103.537 83.7308 103.465 83.473 103.322 83.251C103.179 83.029 102.943 82.8141 102.613 82.6064C102.291 82.3988 101.854 82.1768 101.303 81.9404C100.766 81.7184 100.282 81.5 99.8525 81.2852C99.43 81.0632 99.0719 80.8232 98.7783 80.5654C98.4847 80.3076 98.2591 80.0104 98.1016 79.6738C97.9512 79.3301 97.876 78.9255 97.876 78.46C97.876 77.9945 97.9619 77.5648 98.1338 77.1709C98.3128 76.7699 98.5635 76.4189 98.8857 76.1182C99.208 75.8174 99.5947 75.5846 100.046 75.4199C100.497 75.248 101.002 75.1621 101.561 75.1621C102.355 75.1621 103.032 75.3161 103.591 75.624C104.149 75.932 104.576 76.3545 104.869 76.8916C105.17 77.4215 105.32 78.0195 105.32 78.6855H103.43C103.43 78.3633 103.358 78.0589 103.215 77.7725C103.072 77.486 102.86 77.2533 102.581 77.0742C102.302 76.888 101.962 76.7949 101.561 76.7949C101.138 76.7949 100.794 76.8701 100.529 77.0205C100.264 77.1709 100.071 77.3678 99.9492 77.6113C99.8346 77.8477 99.7773 78.109 99.7773 78.3955C99.7773 78.6104 99.806 78.7965 99.8633 78.9541C99.9277 79.1045 100.035 79.2477 100.186 79.3838C100.336 79.5127 100.54 79.6488 100.798 79.792C101.063 79.9281 101.399 80.0856 101.808 80.2646C102.595 80.5726 103.258 80.8841 103.795 81.1992C104.332 81.5143 104.74 81.8831 105.02 82.3057C105.299 82.7282 105.438 83.251 105.438 83.874C105.438 84.3825 105.345 84.8444 105.159 85.2598C104.98 85.668 104.722 86.0189 104.386 86.3125C104.049 86.6061 103.645 86.8317 103.172 86.9893C102.706 87.1396 102.184 87.2148 101.604 87.2148C100.73 87.2148 99.9886 87.043 99.3799 86.6992C98.7783 86.3483 98.32 85.8936 98.0049 85.335C97.6969 84.7692 97.543 84.1641 97.543 83.5195H99.4443C99.4658 84.0638 99.5876 84.4863 99.8096 84.7871C100.039 85.0879 100.314 85.2956 100.637 85.4102C100.959 85.5247 101.281 85.582 101.604 85.582C102.026 85.582 102.381 85.5212 102.667 85.3994C102.953 85.2705 103.168 85.0879 103.312 84.8516C103.462 84.6152 103.537 84.3395 103.537 84.0244ZM22.5195 106.744V92.5H24.4102V109H22.6807L22.5195 106.744ZM16.0205 103.747V102.662C16.0205 101.702 16.1136 100.879 16.2998 100.191C16.486 99.4967 16.751 98.9274 17.0947 98.4834C17.4385 98.0322 17.8503 97.6992 18.3301 97.4844C18.8099 97.2695 19.3398 97.1621 19.9199 97.1621C20.5215 97.1621 21.0371 97.2839 21.4668 97.5273C21.9036 97.7708 22.2689 98.1253 22.5625 98.5908C22.8561 99.0492 23.0853 99.6077 23.25 100.267C23.4219 100.918 23.5365 101.656 23.5938 102.479V103.93C23.5293 104.746 23.4111 105.48 23.2393 106.132C23.0745 106.784 22.8454 107.339 22.5518 107.797C22.2581 108.255 21.8929 108.606 21.4561 108.85C21.0192 109.093 20.5 109.215 19.8984 109.215C19.3255 109.215 18.8027 109.104 18.3301 108.882C17.8574 108.653 17.4456 108.312 17.0947 107.861C16.751 107.403 16.486 106.834 16.2998 106.153C16.1136 105.466 16.0205 104.664 16.0205 103.747ZM17.9219 102.662V103.747C17.9219 104.392 17.9684 104.954 18.0615 105.434C18.1546 105.906 18.3014 106.3 18.502 106.615C18.7025 106.923 18.9567 107.152 19.2646 107.303C19.5798 107.453 19.9557 107.528 20.3926 107.528C20.9225 107.528 21.3558 107.399 21.6924 107.142C22.029 106.884 22.2975 106.544 22.498 106.121C22.7057 105.691 22.8704 105.229 22.9922 104.735V101.685C22.9206 101.319 22.8167 100.968 22.6807 100.632C22.5446 100.288 22.3727 99.9837 22.165 99.7188C21.9645 99.4466 21.7174 99.2318 21.4238 99.0742C21.1374 98.9167 20.8008 98.8379 20.4141 98.8379C19.9772 98.8379 19.5977 98.9167 19.2754 99.0742C18.9603 99.2318 18.7025 99.4681 18.502 99.7832C18.3086 100.098 18.1618 100.496 18.0615 100.976C17.9684 101.455 17.9219 102.018 17.9219 102.662ZM29.2441 99.2031V109H27.3428V97.377H29.1797L29.2441 99.2031ZM32.1338 97.3125L32.1445 99.1602C31.987 99.1243 31.8438 99.1029 31.7148 99.0957C31.5931 99.0814 31.4499 99.0742 31.2852 99.0742C30.9271 99.0742 30.612 99.1458 30.3398 99.2891C30.0749 99.4323 29.8457 99.6328 29.6523 99.8906C29.459 100.148 29.305 100.456 29.1904 100.814C29.0758 101.165 28.9971 101.552 28.9541 101.975L28.46 102.297C28.46 101.595 28.5137 100.936 28.6211 100.32C28.7357 99.7044 28.9111 99.1602 29.1475 98.6875C29.3838 98.2077 29.6846 97.8353 30.0498 97.5703C30.4222 97.2982 30.8662 97.1621 31.3818 97.1621C31.4964 97.1621 31.6361 97.18 31.8008 97.2158C31.9727 97.2445 32.0837 97.2767 32.1338 97.3125ZM36.0869 97.377V109H34.1963V97.377H36.0869ZM34.0889 94.2939C34.0889 93.9717 34.1784 93.6995 34.3574 93.4775C34.5365 93.2555 34.805 93.1445 35.1631 93.1445C35.5212 93.1445 35.7897 93.2555 35.9688 93.4775C36.1549 93.6995 36.248 93.9717 36.248 94.2939C36.248 94.6019 36.1549 94.8669 35.9688 95.0889C35.7897 95.3037 35.5212 95.4111 35.1631 95.4111C34.805 95.4111 34.5365 95.3037 34.3574 95.0889C34.1784 94.8669 34.0889 94.6019 34.0889 94.2939ZM42.1025 107.206L44.5947 97.377H46.5283L43.0801 109H41.8232L42.1025 107.206ZM40.0938 97.377L42.6934 107.26L42.8975 109H41.6514L38.1602 97.377H40.0938ZM52.5332 109.215C51.8385 109.215 51.2119 109.111 50.6533 108.903C50.0947 108.696 49.6185 108.381 49.2246 107.958C48.8307 107.528 48.5299 106.988 48.3223 106.336C48.1146 105.684 48.0107 104.914 48.0107 104.026V102.716C48.0107 101.692 48.1289 100.825 48.3652 100.116C48.6087 99.4072 48.9346 98.8379 49.3428 98.4082C49.751 97.9714 50.2129 97.6562 50.7285 97.4629C51.2441 97.2624 51.7741 97.1621 52.3184 97.1621C53.0488 97.1621 53.6719 97.2803 54.1875 97.5166C54.7031 97.7529 55.1221 98.1038 55.4443 98.5693C55.7666 99.0348 56.0029 99.6077 56.1533 100.288C56.3109 100.968 56.3896 101.753 56.3896 102.641V103.747H49.1279V102.125H54.4883V101.856C54.4596 101.255 54.3773 100.725 54.2412 100.267C54.1123 99.8083 53.8975 99.4502 53.5967 99.1924C53.2959 98.9274 52.8698 98.7949 52.3184 98.7949C51.9674 98.7949 51.6416 98.8558 51.3408 98.9775C51.0472 99.0921 50.793 99.2962 50.5781 99.5898C50.3704 99.8763 50.2057 100.274 50.084 100.782C49.9694 101.291 49.9121 101.935 49.9121 102.716V104.026C49.9121 104.649 49.9694 105.187 50.084 105.638C50.2057 106.082 50.3812 106.451 50.6104 106.744C50.8467 107.031 51.1331 107.245 51.4697 107.389C51.8135 107.525 52.2038 107.593 52.6406 107.593C53.278 107.593 53.8044 107.471 54.2197 107.228C54.6351 106.977 54.9967 106.658 55.3047 106.271L56.3037 107.464C56.096 107.757 55.8239 108.04 55.4873 108.312C55.1579 108.577 54.7497 108.796 54.2627 108.968C53.7829 109.132 53.2064 109.215 52.5332 109.215ZM60.5898 99.8584V109H58.6885V97.377H60.4824L60.5898 99.8584ZM60.1279 102.748L59.3545 102.716C59.3473 101.921 59.4368 101.187 59.623 100.514C59.8164 99.8333 60.0885 99.2425 60.4395 98.7412C60.7975 98.2399 61.2236 97.8532 61.7178 97.5811C62.2119 97.3018 62.7598 97.1621 63.3613 97.1621C63.834 97.1621 64.2637 97.2409 64.6504 97.3984C65.0371 97.5488 65.3665 97.7923 65.6387 98.1289C65.9108 98.4655 66.1185 98.9023 66.2617 99.4395C66.4121 99.9694 66.4873 100.618 66.4873 101.384V109H64.5859V101.362C64.5859 100.754 64.5179 100.267 64.3818 99.9014C64.2529 99.529 64.0524 99.2604 63.7803 99.0957C63.5153 98.9238 63.1787 98.8379 62.7705 98.8379C62.3981 98.8379 62.0508 98.9417 61.7285 99.1494C61.4062 99.3571 61.1234 99.6436 60.8799 100.009C60.6436 100.374 60.4574 100.793 60.3213 101.266C60.1924 101.731 60.1279 102.225 60.1279 102.748Z" fill="white"/>
<path fill-rule="evenodd" clip-rule="evenodd" d="M146.019 103.906C146.311 103.906 146.602 103.91 146.893 103.918C148.716 103.966 149.264 106.338 147.931 107.584C142.739 112.435 139.494 119.343 139.494 127.009C139.494 141.689 151.395 153.591 166.075 153.591C167.339 153.591 168.582 153.502 169.798 153.331C171.605 153.077 173.109 154.993 172 156.442C166.026 164.253 156.611 169.291 146.019 169.291C127.963 169.291 113.326 154.654 113.326 136.599C113.326 118.543 127.963 103.906 146.019 103.906Z" fill="white"/>
<path d="M146.019 103.906V100.906H146.019L146.019 103.906ZM139.494 127.009H136.494V127.009L139.494 127.009ZM166.075 153.591L166.075 156.591H166.075V153.591ZM146.019 169.291L146.019 172.291H146.019V169.291ZM113.326 136.599H110.326V136.599L113.326 136.599ZM169.798 153.331L169.38 150.36L169.798 153.331ZM172 156.442L169.617 154.62L172 156.442ZM147.931 107.584L145.883 105.392L147.931 107.584ZM146.019 103.906V106.906C146.284 106.906 146.549 106.91 146.814 106.917L146.893 103.918L146.972 100.919C146.655 100.91 146.337 100.906 146.019 100.906V103.906ZM147.931 107.584L145.883 105.392C140.109 110.787 136.494 118.478 136.494 127.009H139.494H142.494C142.494 120.208 145.369 114.083 149.979 109.776L147.931 107.584ZM139.494 127.009L136.494 127.009C136.494 143.346 149.738 156.591 166.075 156.591L166.075 153.591L166.075 150.591C153.052 150.591 142.494 140.033 142.494 127.009L139.494 127.009ZM166.075 153.591V156.591C167.479 156.591 168.862 156.492 170.216 156.302L169.798 153.331L169.38 150.36C168.301 150.512 167.198 150.591 166.075 150.591V153.591ZM172 156.442L169.617 154.62C164.187 161.72 155.637 166.291 146.019 166.291V169.291V172.291C157.585 172.291 167.866 166.785 174.383 158.265L172 156.442ZM146.019 169.291L146.019 166.291C129.62 166.291 116.326 152.997 116.326 136.599L113.326 136.599L110.326 136.599C110.326 156.311 126.306 172.291 146.019 172.291L146.019 169.291ZM113.326 136.599H116.326C116.326 120.2 129.62 106.906 146.019 106.906L146.019 103.906L146.019 100.906C126.306 100.906 110.326 116.886 110.326 136.599H113.326ZM169.798 153.331L170.216 156.302C169.95 156.339 169.72 156.221 169.578 156.028C169.496 155.916 169.39 155.71 169.38 155.414C169.368 155.087 169.48 154.799 169.617 154.62L172 156.442L174.383 158.265C175.878 156.311 175.529 153.988 174.407 152.468C173.339 151.018 171.454 150.068 169.38 150.36L169.798 153.331ZM146.893 103.918L146.814 106.917C146.588 106.911 146.294 106.817 146.047 106.603C145.823 106.409 145.729 106.198 145.694 106.064C145.633 105.831 145.685 105.576 145.883 105.392L147.931 107.584L149.979 109.776C151.509 108.346 151.955 106.282 151.497 104.54C151.017 102.713 149.43 100.984 146.972 100.919L146.893 103.918Z" fill="black"/>
<circle cx="158.5" cy="310.5" r="148.5" fill="white" stroke="black" stroke-width="6"/>
<path d="M67 193.667C76.0328 190.145 97.8591 185.214 112.902 193.667C118.542 196.837 122.078 199.709 124.197 202.173C127.78 206.339 128.366 213.737 131.495 218.253L134.47 222.547L140 231" stroke="black" stroke-width="6" stroke-linecap="round"/>
<path d="M49.5841 179.479L50.6578 182.369C52.0216 186.039 55.8415 188.183 59.6848 187.435L67.0346 186.004C67.6738 185.88 68.2842 185.683 68.8744 185.408C85.0568 177.864 116.351 163.2 118.759 161.774C120.436 160.781 121.889 159.486 122.857 158.49C123.555 157.771 124.091 156.846 123.933 155.857C123.701 154.409 122.73 152.822 121.707 151.414C120.641 149.947 119.032 148.918 117.22 148.894C112.365 148.831 105.697 150.598 101.534 151.978C100.412 152.35 99.2331 152.51 98.0553 152.41C93.069 151.987 85.1929 151.426 83.2428 151.707C80.4869 152.104 67.8598 157.903 63.339 161.135C59.8986 163.594 54.6243 169.617 52.0786 172.729C51.8308 173.032 51.5544 173.306 51.2473 173.548C49.4649 174.955 48.7932 177.351 49.5841 179.479Z" fill="white" stroke="black" stroke-width="6"/>
<circle cx="68.261" cy="183.076" r="6.31653" transform="rotate(-25.3442 68.261 183.076)" fill="white" stroke="black" stroke-width="6"/>
<circle cx="111.147" cy="163.764" r="6.28564" transform="rotate(-25.3442 111.147 163.764)" fill="white" stroke="black" stroke-width="6"/>
<path d="M154.5 165C153.5 178.5 137.5 176 154.5 185.5C171.5 195 181.5 181 187.5 189C192.3 195.4 202.5 199.333 207 200.5" stroke="black" stroke-width="6" stroke-linecap="round"/>
<path d="M78.0054 13.9243L76.9727 13.646L77.4268 8.33594H82.0703V9.58838H78.5181L78.269 12.4888C78.4351 12.3765 78.6353 12.2715 78.8696 12.1738C79.104 12.0762 79.3774 12.0273 79.6899 12.0273C80.1099 12.0273 80.4834 12.1128 80.8105 12.2837C81.1426 12.4497 81.4233 12.689 81.6528 13.0015C81.8823 13.314 82.0581 13.6899 82.1802 14.1294C82.3022 14.5688 82.3633 15.0596 82.3633 15.6016C82.3633 16.1143 82.3022 16.5854 82.1802 17.0151C82.063 17.4448 81.8823 17.8208 81.6382 18.1431C81.3989 18.4604 81.0962 18.707 80.73 18.8828C80.3687 19.0586 79.9463 19.1465 79.4629 19.1465C79.1016 19.1465 78.7598 19.0879 78.4375 18.9707C78.1152 18.8486 77.8247 18.6655 77.5659 18.4214C77.312 18.1724 77.1045 17.8647 76.9434 17.4985C76.7822 17.1274 76.6821 16.6929 76.6431 16.1948H77.8662C77.915 16.5952 78.0078 16.9321 78.1445 17.2056C78.2861 17.479 78.4668 17.6865 78.6865 17.8281C78.9111 17.9648 79.1699 18.0332 79.4629 18.0332C79.7119 18.0332 79.9365 17.9771 80.1367 17.8647C80.3369 17.7524 80.5054 17.5913 80.6421 17.3813C80.7788 17.1714 80.8838 16.9175 80.957 16.6196C81.0303 16.3218 81.0669 15.9873 81.0669 15.6162C81.0669 15.2793 81.0303 14.9668 80.957 14.6787C80.8838 14.3906 80.7739 14.1392 80.6274 13.9243C80.481 13.7095 80.3027 13.5435 80.0928 13.4263C79.8877 13.3042 79.6484 13.2432 79.375 13.2432C79.0088 13.2432 78.7378 13.3042 78.562 13.4263C78.3911 13.5483 78.2056 13.7144 78.0054 13.9243ZM84.0039 18.2822C84.0039 18.0527 84.0747 17.8599 84.2163 17.7036C84.3628 17.5425 84.5728 17.4619 84.8462 17.4619C85.1196 17.4619 85.3271 17.5425 85.4688 17.7036C85.6152 17.8599 85.6885 18.0527 85.6885 18.2822C85.6885 18.5068 85.6152 18.6973 85.4688 18.8535C85.3271 19.0098 85.1196 19.0879 84.8462 19.0879C84.5728 19.0879 84.3628 19.0098 84.2163 18.8535C84.0747 18.6973 84.0039 18.5068 84.0039 18.2822ZM83.9966 11.8149C83.9966 11.5854 84.0674 11.3926 84.209 11.2363C84.3555 11.0752 84.5654 10.9946 84.8389 10.9946C85.1123 10.9946 85.3198 11.0752 85.4614 11.2363C85.6079 11.3926 85.6812 11.5854 85.6812 11.8149C85.6812 12.0396 85.6079 12.23 85.4614 12.3862C85.3198 12.5425 85.1123 12.6206 84.8389 12.6206C84.5654 12.6206 84.3555 12.5425 84.209 12.3862C84.0674 12.23 83.9966 12.0396 83.9966 11.8149ZM93.313 17.8867V19H87.3511V18.0259L90.2881 14.1367C90.6494 13.6582 90.9253 13.2529 91.1157 12.9209C91.3062 12.584 91.438 12.2837 91.5112 12.02C91.5845 11.7515 91.6211 11.478 91.6211 11.1997C91.6211 10.8481 91.5649 10.5308 91.4526 10.2476C91.3403 9.95947 91.1768 9.72998 90.9619 9.55908C90.7471 9.38818 90.4883 9.30273 90.1855 9.30273C89.79 9.30273 89.4653 9.39551 89.2114 9.58105C88.9624 9.76172 88.7793 10.0156 88.6621 10.3428C88.5449 10.6699 88.4863 11.0459 88.4863 11.4707H87.1899C87.1899 10.8701 87.2998 10.3208 87.5195 9.82275C87.7441 9.32471 88.0786 8.9292 88.5229 8.63623C88.9673 8.33838 89.5215 8.18945 90.1855 8.18945C90.7568 8.18945 91.2451 8.30908 91.6504 8.54834C92.0605 8.78271 92.373 9.11475 92.5879 9.54443C92.8076 9.96924 92.9175 10.4673 92.9175 11.0386C92.9175 11.3511 92.8735 11.6685 92.7856 11.9907C92.7026 12.3081 92.5854 12.6255 92.4341 12.9429C92.2876 13.2603 92.1143 13.5728 91.9141 13.8804C91.7139 14.188 91.499 14.4907 91.2695 14.7886L88.9038 17.8867H93.313ZM95.9351 17.8647H96.0376C96.6968 17.8647 97.2266 17.7549 97.627 17.5352C98.0273 17.3154 98.3276 17.02 98.5278 16.6489C98.7329 16.2778 98.8696 15.8604 98.938 15.3965C99.0112 14.9277 99.0479 14.4468 99.0479 13.9536V12.3203C99.0479 11.8369 99.0015 11.4072 98.9087 11.0312C98.8208 10.6553 98.7012 10.3403 98.5498 10.0864C98.4033 9.83252 98.2349 9.63965 98.0444 9.50781C97.8589 9.37598 97.6685 9.31006 97.4731 9.31006C97.2241 9.31006 97.0044 9.37354 96.814 9.50049C96.6235 9.62256 96.4624 9.7959 96.3306 10.0205C96.2036 10.2451 96.106 10.5088 96.0376 10.8115C95.9692 11.1143 95.9351 11.4438 95.9351 11.8003C95.9351 12.1177 95.9644 12.4253 96.0229 12.7231C96.0815 13.021 96.1719 13.2896 96.2939 13.5288C96.4209 13.7681 96.5771 13.9585 96.7627 14.1001C96.9531 14.2368 97.1777 14.3052 97.4365 14.3052C97.6514 14.3052 97.8589 14.2466 98.0591 14.1294C98.2642 14.0073 98.4497 13.8438 98.6157 13.6387C98.7817 13.4287 98.9185 13.1919 99.0259 12.9282C99.1333 12.6646 99.1968 12.3887 99.2163 12.1006H99.8242C99.8242 12.5059 99.7583 12.9062 99.6265 13.3018C99.4995 13.6924 99.3164 14.0488 99.0771 14.3711C98.8428 14.6934 98.5669 14.9521 98.2495 15.1475C97.937 15.3379 97.5928 15.4331 97.2168 15.4331C96.7627 15.4331 96.3745 15.3306 96.0522 15.1255C95.73 14.9204 95.4663 14.647 95.2612 14.3052C95.061 13.9634 94.9121 13.5825 94.8145 13.1626C94.7168 12.7378 94.668 12.3081 94.668 11.8735C94.668 11.3657 94.7266 10.8896 94.8438 10.4453C94.9609 10.001 95.1343 9.61035 95.3638 9.27344C95.5981 8.93164 95.8911 8.66553 96.2427 8.4751C96.5942 8.28467 97.0044 8.18945 97.4731 8.18945C97.9956 8.18945 98.4399 8.31152 98.8062 8.55566C99.1724 8.7998 99.4678 9.12695 99.6924 9.53711C99.917 9.94727 100.081 10.4087 100.183 10.9214C100.286 11.4341 100.337 11.9614 100.337 12.5034V12.9941C100.337 13.5459 100.31 14.1074 100.256 14.6787C100.208 15.2451 100.103 15.7871 99.9414 16.3047C99.7852 16.8223 99.5508 17.2861 99.2383 17.6963C98.9258 18.1016 98.5083 18.4238 97.9858 18.6631C97.4683 18.8975 96.8188 19.0146 96.0376 19.0146H95.9424L95.9351 17.8647ZM109.309 14.8179H106.98V13.668H109.309C109.749 13.668 110.103 13.5801 110.371 13.4043C110.645 13.2285 110.842 12.9844 110.964 12.6719C111.091 12.3594 111.155 12.0029 111.155 11.6025C111.155 11.2363 111.091 10.8921 110.964 10.5698C110.842 10.2476 110.645 9.98877 110.371 9.79346C110.103 9.59326 109.749 9.49316 109.309 9.49316H107.258V19H105.911V8.33594H109.309C109.998 8.33594 110.579 8.4751 111.052 8.75342C111.526 9.03174 111.885 9.41748 112.129 9.91064C112.378 10.3989 112.502 10.958 112.502 11.5879C112.502 12.2715 112.378 12.855 112.129 13.3384C111.885 13.8218 111.526 14.1904 111.052 14.4443C110.579 14.6934 109.998 14.8179 109.309 14.8179ZM114.656 8.33594H115.959L118.75 17.0298L121.533 8.33594H122.837L119.255 19H118.23L114.656 8.33594ZM114.231 8.33594H115.374L115.571 14.8398V19H114.231V8.33594ZM122.112 8.33594H123.254V19H121.914V14.8398L122.112 8.33594Z" fill="white"/>
<path d="M171.578 8.32129H171.673V9.47119H171.578C170.963 9.47119 170.458 9.58838 170.062 9.82275C169.671 10.0522 169.366 10.3623 169.146 10.7529C168.932 11.1387 168.783 11.5732 168.7 12.0566C168.617 12.54 168.575 13.0308 168.575 13.5288V15.0962C168.575 15.5698 168.619 15.9897 168.707 16.356C168.8 16.7173 168.919 17.0225 169.066 17.2715C169.217 17.5205 169.386 17.7085 169.571 17.8354C169.762 17.9624 169.955 18.0259 170.15 18.0259C170.399 18.0259 170.619 17.9673 170.809 17.8501C171.004 17.728 171.166 17.5596 171.292 17.3447C171.424 17.125 171.524 16.8662 171.593 16.5684C171.661 16.2705 171.695 15.9434 171.695 15.5869C171.695 15.2695 171.664 14.9644 171.6 14.6714C171.542 14.3735 171.451 14.1099 171.329 13.8804C171.207 13.646 171.051 13.4629 170.86 13.3311C170.675 13.1943 170.453 13.126 170.194 13.126C169.901 13.126 169.627 13.2188 169.374 13.4043C169.125 13.585 168.919 13.8242 168.758 14.1221C168.597 14.415 168.502 14.7349 168.473 15.0815L167.806 15.0742C167.875 14.5273 167.989 14.061 168.15 13.6753C168.312 13.2847 168.507 12.9673 168.736 12.7231C168.971 12.4741 169.229 12.2935 169.513 12.1812C169.796 12.064 170.094 12.0054 170.406 12.0054C170.86 12.0054 171.249 12.1055 171.571 12.3057C171.898 12.5059 172.164 12.7744 172.369 13.1113C172.579 13.4434 172.733 13.8193 172.831 14.2393C172.928 14.6543 172.977 15.0815 172.977 15.521C172.977 16.0239 172.916 16.4951 172.794 16.9346C172.677 17.374 172.501 17.7598 172.267 18.0918C172.032 18.4238 171.737 18.6826 171.38 18.8682C171.029 19.0537 170.619 19.1465 170.15 19.1465C169.652 19.1465 169.222 19.0293 168.861 18.7949C168.5 18.5557 168.199 18.2383 167.96 17.8428C167.726 17.4473 167.552 17.0078 167.44 16.5244C167.328 16.041 167.271 15.5503 167.271 15.0522V14.415C167.271 13.6631 167.325 12.9258 167.433 12.2031C167.54 11.4805 167.743 10.8262 168.041 10.2402C168.343 9.6543 168.778 9.18799 169.344 8.84131C169.916 8.49463 170.66 8.32129 171.578 8.32129ZM180.278 8.33594L176.542 19.9155H175.451L179.194 8.33594H180.278ZM189.029 8.33594V9.09766L185.359 19H183.997L187.667 9.44922H182.913V8.33594H189.029Z" fill="white"/>
<path fill-rule="evenodd" clip-rule="evenodd" d="M0 210C0 219.941 8.05888 228 18 228H0V210ZM200 228H182C191.941 228 200 219.941 200 210V228ZM18 0C8.05888 4.76837e-07 0 8.05888 0 18V0H18ZM200 18C200 8.05888 191.941 0 182 0H200V18Z" fill="black"/>
</g>
<defs>
<clipPath id="clip0_7_101">
<rect width="200" height="228" fill="white"/>
</clipPath>
</defs>
</svg>
