<svg width="200" height="228" viewBox="0 0 200 228" fill="none" xmlns="http://www.w3.org/2000/svg">
<g clip-path="url(#clip0_183_544)">
<rect width="200" height="228" fill="white"/>
<rect width="200" height="228" fill="black"/>
<rect width="200" height="228" rx="18" fill="#FF9500"/>
<path d="M115.031 192.747V191.641C115.031 190.738 115.146 189.947 115.375 189.267C115.604 188.579 115.923 188.006 116.331 187.548C116.739 187.09 117.215 186.746 117.76 186.517C118.304 186.28 118.888 186.162 119.511 186.162C120.148 186.162 120.739 186.28 121.283 186.517C121.827 186.746 122.304 187.09 122.712 187.548C123.127 188.006 123.45 188.579 123.679 189.267C123.908 189.947 124.022 190.738 124.022 191.641V192.747C124.022 193.649 123.908 194.444 123.679 195.132C123.45 195.812 123.131 196.382 122.723 196.84C122.314 197.298 121.838 197.642 121.294 197.871C120.75 198.1 120.162 198.215 119.532 198.215C118.902 198.215 118.315 198.1 117.771 197.871C117.226 197.642 116.746 197.298 116.331 196.84C115.923 196.382 115.604 195.812 115.375 195.132C115.146 194.444 115.031 193.649 115.031 192.747ZM116.933 191.641V192.747C116.933 193.384 116.997 193.943 117.126 194.423C117.255 194.903 117.438 195.304 117.674 195.626C117.91 195.948 118.186 196.192 118.501 196.356C118.816 196.514 119.16 196.593 119.532 196.593C119.962 196.593 120.338 196.514 120.66 196.356C120.99 196.192 121.262 195.948 121.477 195.626C121.691 195.304 121.853 194.903 121.96 194.423C122.067 193.943 122.121 193.384 122.121 192.747V191.641C122.121 191.003 122.057 190.448 121.928 189.976C121.799 189.496 121.616 189.095 121.38 188.772C121.144 188.443 120.864 188.2 120.542 188.042C120.227 187.877 119.883 187.795 119.511 187.795C119.146 187.795 118.805 187.877 118.49 188.042C118.175 188.2 117.899 188.443 117.663 188.772C117.434 189.095 117.255 189.496 117.126 189.976C116.997 190.448 116.933 191.003 116.933 191.641ZM132.348 195.314V186.377H134.249V198H132.444L132.348 195.314ZM132.702 192.865L133.454 192.844C133.454 193.617 133.386 194.333 133.25 194.992C133.121 195.644 132.906 196.21 132.605 196.689C132.312 197.169 131.922 197.545 131.435 197.817C130.948 198.082 130.35 198.215 129.641 198.215C129.161 198.215 128.724 198.132 128.33 197.968C127.943 197.803 127.607 197.549 127.32 197.205C127.041 196.861 126.823 196.414 126.665 195.862C126.515 195.311 126.439 194.648 126.439 193.875V186.377H128.33V193.896C128.33 194.419 128.377 194.853 128.47 195.196C128.563 195.533 128.688 195.801 128.846 196.002C129.003 196.195 129.179 196.331 129.372 196.41C129.565 196.489 129.762 196.528 129.963 196.528C130.636 196.528 131.173 196.367 131.574 196.045C131.975 195.715 132.262 195.275 132.434 194.724C132.613 194.165 132.702 193.546 132.702 192.865ZM141.35 186.377V187.902H135.925V186.377H141.35ZM137.697 183.552H139.599V195.121C139.599 195.515 139.645 195.812 139.738 196.013C139.839 196.213 139.964 196.346 140.114 196.41C140.265 196.475 140.426 196.507 140.598 196.507C140.727 196.507 140.87 196.493 141.027 196.464C141.185 196.428 141.292 196.399 141.35 196.378L141.339 198C141.21 198.05 141.038 198.097 140.823 198.14C140.608 198.19 140.336 198.215 140.007 198.215C139.599 198.215 139.219 198.118 138.868 197.925C138.517 197.731 138.234 197.409 138.02 196.958C137.805 196.5 137.697 195.884 137.697 195.11V183.552ZM149.256 195.024C149.256 194.731 149.184 194.473 149.041 194.251C148.898 194.029 148.661 193.814 148.332 193.606C148.01 193.399 147.573 193.177 147.021 192.94C146.484 192.718 146.001 192.5 145.571 192.285C145.149 192.063 144.791 191.823 144.497 191.565C144.203 191.308 143.978 191.01 143.82 190.674C143.67 190.33 143.595 189.925 143.595 189.46C143.595 188.994 143.681 188.565 143.853 188.171C144.032 187.77 144.282 187.419 144.604 187.118C144.927 186.817 145.313 186.585 145.765 186.42C146.216 186.248 146.721 186.162 147.279 186.162C148.074 186.162 148.751 186.316 149.31 186.624C149.868 186.932 150.294 187.354 150.588 187.892C150.889 188.422 151.039 189.02 151.039 189.686H149.148C149.148 189.363 149.077 189.059 148.934 188.772C148.79 188.486 148.579 188.253 148.3 188.074C148.021 187.888 147.68 187.795 147.279 187.795C146.857 187.795 146.513 187.87 146.248 188.021C145.983 188.171 145.79 188.368 145.668 188.611C145.553 188.848 145.496 189.109 145.496 189.396C145.496 189.61 145.525 189.797 145.582 189.954C145.646 190.104 145.754 190.248 145.904 190.384C146.055 190.513 146.259 190.649 146.517 190.792C146.782 190.928 147.118 191.086 147.526 191.265C148.314 191.573 148.977 191.884 149.514 192.199C150.051 192.514 150.459 192.883 150.738 193.306C151.018 193.728 151.157 194.251 151.157 194.874C151.157 195.382 151.064 195.844 150.878 196.26C150.699 196.668 150.441 197.019 150.104 197.312C149.768 197.606 149.363 197.832 148.891 197.989C148.425 198.14 147.902 198.215 147.322 198.215C146.449 198.215 145.707 198.043 145.099 197.699C144.497 197.348 144.039 196.894 143.724 196.335C143.416 195.769 143.262 195.164 143.262 194.52H145.163C145.185 195.064 145.306 195.486 145.528 195.787C145.757 196.088 146.033 196.296 146.355 196.41C146.678 196.525 147 196.582 147.322 196.582C147.745 196.582 148.099 196.521 148.386 196.399C148.672 196.271 148.887 196.088 149.03 195.852C149.181 195.615 149.256 195.34 149.256 195.024ZM155.69 186.377V198H153.8V186.377H155.69ZM153.692 183.294C153.692 182.972 153.782 182.7 153.961 182.478C154.14 182.256 154.409 182.145 154.767 182.145C155.125 182.145 155.393 182.256 155.572 182.478C155.758 182.7 155.852 182.972 155.852 183.294C155.852 183.602 155.758 183.867 155.572 184.089C155.393 184.304 155.125 184.411 154.767 184.411C154.409 184.411 154.14 184.304 153.961 184.089C153.782 183.867 153.692 183.602 153.692 183.294ZM164.789 195.744V181.5H166.68V198H164.95L164.789 195.744ZM158.29 192.747V191.662C158.29 190.702 158.383 189.879 158.569 189.191C158.756 188.497 159.021 187.927 159.364 187.483C159.708 187.032 160.12 186.699 160.6 186.484C161.079 186.27 161.609 186.162 162.189 186.162C162.791 186.162 163.307 186.284 163.736 186.527C164.173 186.771 164.538 187.125 164.832 187.591C165.126 188.049 165.355 188.608 165.52 189.267C165.691 189.918 165.806 190.656 165.863 191.479V192.93C165.799 193.746 165.681 194.48 165.509 195.132C165.344 195.784 165.115 196.339 164.821 196.797C164.528 197.255 164.162 197.606 163.726 197.85C163.289 198.093 162.77 198.215 162.168 198.215C161.595 198.215 161.072 198.104 160.6 197.882C160.127 197.653 159.715 197.312 159.364 196.861C159.021 196.403 158.756 195.834 158.569 195.153C158.383 194.466 158.29 193.664 158.29 192.747ZM160.191 191.662V192.747C160.191 193.392 160.238 193.954 160.331 194.434C160.424 194.906 160.571 195.3 160.771 195.615C160.972 195.923 161.226 196.152 161.534 196.303C161.849 196.453 162.225 196.528 162.662 196.528C163.192 196.528 163.625 196.399 163.962 196.142C164.299 195.884 164.567 195.544 164.768 195.121C164.975 194.691 165.14 194.229 165.262 193.735V190.685C165.19 190.319 165.086 189.968 164.95 189.632C164.814 189.288 164.642 188.984 164.435 188.719C164.234 188.447 163.987 188.232 163.693 188.074C163.407 187.917 163.07 187.838 162.684 187.838C162.247 187.838 161.867 187.917 161.545 188.074C161.23 188.232 160.972 188.468 160.771 188.783C160.578 189.098 160.431 189.496 160.331 189.976C160.238 190.455 160.191 191.018 160.191 191.662ZM173.77 198.215C173.075 198.215 172.448 198.111 171.89 197.903C171.331 197.696 170.855 197.381 170.461 196.958C170.067 196.528 169.766 195.988 169.559 195.336C169.351 194.684 169.247 193.914 169.247 193.026V191.716C169.247 190.692 169.365 189.825 169.602 189.116C169.845 188.407 170.171 187.838 170.579 187.408C170.987 186.971 171.449 186.656 171.965 186.463C172.48 186.262 173.01 186.162 173.555 186.162C174.285 186.162 174.908 186.28 175.424 186.517C175.939 186.753 176.358 187.104 176.681 187.569C177.003 188.035 177.239 188.608 177.39 189.288C177.547 189.968 177.626 190.753 177.626 191.641V192.747H170.364V191.125H175.725V190.856C175.696 190.255 175.614 189.725 175.478 189.267C175.349 188.808 175.134 188.45 174.833 188.192C174.532 187.927 174.106 187.795 173.555 187.795C173.204 187.795 172.878 187.856 172.577 187.978C172.284 188.092 172.029 188.296 171.814 188.59C171.607 188.876 171.442 189.274 171.32 189.782C171.206 190.291 171.148 190.935 171.148 191.716V193.026C171.148 193.649 171.206 194.187 171.32 194.638C171.442 195.082 171.618 195.451 171.847 195.744C172.083 196.031 172.369 196.245 172.706 196.389C173.05 196.525 173.44 196.593 173.877 196.593C174.514 196.593 175.041 196.471 175.456 196.228C175.871 195.977 176.233 195.658 176.541 195.271L177.54 196.464C177.332 196.757 177.06 197.04 176.724 197.312C176.394 197.577 175.986 197.796 175.499 197.968C175.019 198.132 174.443 198.215 173.77 198.215Z" fill="white"/>
<path d="M78.5054 13.9243L77.4727 13.646L77.9268 8.33594H82.5703V9.58838H79.0181L78.769 12.4888C78.9351 12.3765 79.1353 12.2715 79.3696 12.1738C79.604 12.0762 79.8774 12.0273 80.1899 12.0273C80.6099 12.0273 80.9834 12.1128 81.3105 12.2837C81.6426 12.4497 81.9233 12.689 82.1528 13.0015C82.3823 13.314 82.5581 13.6899 82.6802 14.1294C82.8022 14.5688 82.8633 15.0596 82.8633 15.6016C82.8633 16.1143 82.8022 16.5854 82.6802 17.0151C82.563 17.4448 82.3823 17.8208 82.1382 18.1431C81.8989 18.4604 81.5962 18.707 81.23 18.8828C80.8687 19.0586 80.4463 19.1465 79.9629 19.1465C79.6016 19.1465 79.2598 19.0879 78.9375 18.9707C78.6152 18.8486 78.3247 18.6655 78.0659 18.4214C77.812 18.1724 77.6045 17.8647 77.4434 17.4985C77.2822 17.1274 77.1821 16.6929 77.1431 16.1948H78.3662C78.415 16.5952 78.5078 16.9321 78.6445 17.2056C78.7861 17.479 78.9668 17.6865 79.1865 17.8281C79.4111 17.9648 79.6699 18.0332 79.9629 18.0332C80.2119 18.0332 80.4365 17.9771 80.6367 17.8647C80.8369 17.7524 81.0054 17.5913 81.1421 17.3813C81.2788 17.1714 81.3838 16.9175 81.457 16.6196C81.5303 16.3218 81.5669 15.9873 81.5669 15.6162C81.5669 15.2793 81.5303 14.9668 81.457 14.6787C81.3838 14.3906 81.2739 14.1392 81.1274 13.9243C80.981 13.7095 80.8027 13.5435 80.5928 13.4263C80.3877 13.3042 80.1484 13.2432 79.875 13.2432C79.5088 13.2432 79.2378 13.3042 79.062 13.4263C78.8911 13.5483 78.7056 13.7144 78.5054 13.9243ZM84.5039 18.2822C84.5039 18.0527 84.5747 17.8599 84.7163 17.7036C84.8628 17.5425 85.0728 17.4619 85.3462 17.4619C85.6196 17.4619 85.8271 17.5425 85.9688 17.7036C86.1152 17.8599 86.1885 18.0527 86.1885 18.2822C86.1885 18.5068 86.1152 18.6973 85.9688 18.8535C85.8271 19.0098 85.6196 19.0879 85.3462 19.0879C85.0728 19.0879 84.8628 19.0098 84.7163 18.8535C84.5747 18.6973 84.5039 18.5068 84.5039 18.2822ZM84.4966 11.8149C84.4966 11.5854 84.5674 11.3926 84.709 11.2363C84.8555 11.0752 85.0654 10.9946 85.3389 10.9946C85.6123 10.9946 85.8198 11.0752 85.9614 11.2363C86.1079 11.3926 86.1812 11.5854 86.1812 11.8149C86.1812 12.0396 86.1079 12.23 85.9614 12.3862C85.8198 12.5425 85.6123 12.6206 85.3389 12.6206C85.0654 12.6206 84.8555 12.5425 84.709 12.3862C84.5674 12.23 84.4966 12.0396 84.4966 11.8149ZM93.813 17.8867V19H87.8511V18.0259L90.7881 14.1367C91.1494 13.6582 91.4253 13.2529 91.6157 12.9209C91.8062 12.584 91.938 12.2837 92.0112 12.02C92.0845 11.7515 92.1211 11.478 92.1211 11.1997C92.1211 10.8481 92.0649 10.5308 91.9526 10.2476C91.8403 9.95947 91.6768 9.72998 91.4619 9.55908C91.2471 9.38818 90.9883 9.30273 90.6855 9.30273C90.29 9.30273 89.9653 9.39551 89.7114 9.58105C89.4624 9.76172 89.2793 10.0156 89.1621 10.3428C89.0449 10.6699 88.9863 11.0459 88.9863 11.4707H87.6899C87.6899 10.8701 87.7998 10.3208 88.0195 9.82275C88.2441 9.32471 88.5786 8.9292 89.0229 8.63623C89.4673 8.33838 90.0215 8.18945 90.6855 8.18945C91.2568 8.18945 91.7451 8.30908 92.1504 8.54834C92.5605 8.78271 92.873 9.11475 93.0879 9.54443C93.3076 9.96924 93.4175 10.4673 93.4175 11.0386C93.4175 11.3511 93.3735 11.6685 93.2856 11.9907C93.2026 12.3081 93.0854 12.6255 92.9341 12.9429C92.7876 13.2603 92.6143 13.5728 92.4141 13.8804C92.2139 14.188 91.999 14.4907 91.7695 14.7886L89.4038 17.8867H93.813ZM96.4351 17.8647H96.5376C97.1968 17.8647 97.7266 17.7549 98.127 17.5352C98.5273 17.3154 98.8276 17.02 99.0278 16.6489C99.2329 16.2778 99.3696 15.8604 99.438 15.3965C99.5112 14.9277 99.5479 14.4468 99.5479 13.9536V12.3203C99.5479 11.8369 99.5015 11.4072 99.4087 11.0312C99.3208 10.6553 99.2012 10.3403 99.0498 10.0864C98.9033 9.83252 98.7349 9.63965 98.5444 9.50781C98.3589 9.37598 98.1685 9.31006 97.9731 9.31006C97.7241 9.31006 97.5044 9.37354 97.314 9.50049C97.1235 9.62256 96.9624 9.7959 96.8306 10.0205C96.7036 10.2451 96.606 10.5088 96.5376 10.8115C96.4692 11.1143 96.4351 11.4438 96.4351 11.8003C96.4351 12.1177 96.4644 12.4253 96.5229 12.7231C96.5815 13.021 96.6719 13.2896 96.7939 13.5288C96.9209 13.7681 97.0771 13.9585 97.2627 14.1001C97.4531 14.2368 97.6777 14.3052 97.9365 14.3052C98.1514 14.3052 98.3589 14.2466 98.5591 14.1294C98.7642 14.0073 98.9497 13.8438 99.1157 13.6387C99.2817 13.4287 99.4185 13.1919 99.5259 12.9282C99.6333 12.6646 99.6968 12.3887 99.7163 12.1006H100.324C100.324 12.5059 100.258 12.9062 100.126 13.3018C99.9995 13.6924 99.8164 14.0488 99.5771 14.3711C99.3428 14.6934 99.0669 14.9521 98.7495 15.1475C98.437 15.3379 98.0928 15.4331 97.7168 15.4331C97.2627 15.4331 96.8745 15.3306 96.5522 15.1255C96.23 14.9204 95.9663 14.647 95.7612 14.3052C95.561 13.9634 95.4121 13.5825 95.3145 13.1626C95.2168 12.7378 95.168 12.3081 95.168 11.8735C95.168 11.3657 95.2266 10.8896 95.3438 10.4453C95.4609 10.001 95.6343 9.61035 95.8638 9.27344C96.0981 8.93164 96.3911 8.66553 96.7427 8.4751C97.0942 8.28467 97.5044 8.18945 97.9731 8.18945C98.4956 8.18945 98.9399 8.31152 99.3062 8.55566C99.6724 8.7998 99.9678 9.12695 100.192 9.53711C100.417 9.94727 100.581 10.4087 100.683 10.9214C100.786 11.4341 100.837 11.9614 100.837 12.5034V12.9941C100.837 13.5459 100.81 14.1074 100.756 14.6787C100.708 15.2451 100.603 15.7871 100.441 16.3047C100.285 16.8223 100.051 17.2861 99.7383 17.6963C99.4258 18.1016 99.0083 18.4238 98.4858 18.6631C97.9683 18.8975 97.3188 19.0146 96.5376 19.0146H96.4424L96.4351 17.8647ZM109.809 14.8179H107.48V13.668H109.809C110.249 13.668 110.603 13.5801 110.871 13.4043C111.145 13.2285 111.342 12.9844 111.464 12.6719C111.591 12.3594 111.655 12.0029 111.655 11.6025C111.655 11.2363 111.591 10.8921 111.464 10.5698C111.342 10.2476 111.145 9.98877 110.871 9.79346C110.603 9.59326 110.249 9.49316 109.809 9.49316H107.758V19H106.411V8.33594H109.809C110.498 8.33594 111.079 8.4751 111.552 8.75342C112.026 9.03174 112.385 9.41748 112.629 9.91064C112.878 10.3989 113.002 10.958 113.002 11.5879C113.002 12.2715 112.878 12.855 112.629 13.3384C112.385 13.8218 112.026 14.1904 111.552 14.4443C111.079 14.6934 110.498 14.8179 109.809 14.8179ZM115.156 8.33594H116.459L119.25 17.0298L122.033 8.33594H123.337L119.755 19H118.73L115.156 8.33594ZM114.731 8.33594H115.874L116.071 14.8398V19H114.731V8.33594ZM122.612 8.33594H123.754V19H122.414V14.8398L122.612 8.33594Z" fill="white"/>
<path d="M22.66 198V171.4H41.28V176.72H27.98V182.04H41.28V198H22.66ZM27.98 187.36V192.68H35.96V187.36H27.98ZM46.5955 198V171.4H65.2155V198H46.5955ZM51.9155 176.72V192.68H59.8955V176.72H51.9155ZM70.5311 183.37V171.4H82.5011V183.37H70.5311ZM74.5211 175.39V179.38H78.5111V175.39H74.5211ZM87.8241 198V171.4H106.444V176.72H93.1441V182.04H103.784V187.36H93.1441V198H87.8241Z" fill="white"/>
<line x1="22" y1="160" x2="178" y2="160" stroke="white" stroke-width="2"/>
<path d="M171.021 8.27734V19H169.725V9.96924L167.484 10.9653V9.74219L170.824 8.27734H171.021ZM180.278 8.33594L176.542 19.9155H175.451L179.194 8.33594H180.278ZM189.029 8.33594V9.09766L185.359 19H183.997L187.667 9.44922H182.913V8.33594H189.029Z" fill="white"/>
<path d="M18.48 81V36.2H49.84V81H18.48ZM27.44 45.16V72.04H40.88V45.16H27.44ZM58.7925 81V36.2H90.1525V45.16H67.7525V54.12H85.6725V63.08H67.7525V81H58.7925ZM96.855 81V36.2H128.215V45.16H105.815V54.12H123.735V63.08H105.815V81H96.855Z" fill="white"/>
<path d="M22.457 103.593C22.8366 103.593 23.1803 103.518 23.4883 103.367C23.8034 103.21 24.0612 102.966 24.2617 102.637C24.4622 102.3 24.5768 101.863 24.6055 101.326H26.3887C26.36 102.1 26.1631 102.78 25.7979 103.367C25.4398 103.947 24.9671 104.402 24.3799 104.731C23.7998 105.054 23.1589 105.215 22.457 105.215C21.7051 105.215 21.0498 105.093 20.4912 104.85C19.9398 104.606 19.4814 104.255 19.1162 103.797C18.7581 103.331 18.4896 102.769 18.3105 102.11C18.1315 101.444 18.042 100.689 18.042 99.8438V98.5332C18.042 97.6882 18.1315 96.9362 18.3105 96.2773C18.4896 95.6113 18.7581 95.0492 19.1162 94.5908C19.4814 94.1253 19.9398 93.7708 20.4912 93.5273C21.0498 93.2839 21.7051 93.1621 22.457 93.1621C23.2448 93.1621 23.9251 93.3304 24.498 93.667C25.0781 93.9964 25.5293 94.4762 25.8516 95.1064C26.181 95.7295 26.36 96.485 26.3887 97.373H24.6055C24.5768 96.8001 24.473 96.3239 24.2939 95.9443C24.1149 95.5576 23.8714 95.2712 23.5635 95.085C23.2555 94.8916 22.8867 94.7949 22.457 94.7949C21.9557 94.7949 21.5404 94.8844 21.2109 95.0635C20.8887 95.2354 20.6344 95.486 20.4482 95.8154C20.262 96.1449 20.1296 96.5387 20.0508 96.9971C19.9792 97.4554 19.9434 97.9674 19.9434 98.5332V99.8438C19.9434 100.41 19.9792 100.925 20.0508 101.391C20.1296 101.849 20.2585 102.243 20.4375 102.572C20.6237 102.902 20.8815 103.156 21.2109 103.335C21.5404 103.507 21.9557 103.593 22.457 103.593ZM30.6318 88.5V105H28.7412V88.5H30.6318ZM35.6807 93.377V105H33.79V93.377H35.6807ZM33.6826 90.2939C33.6826 89.9717 33.7721 89.6995 33.9512 89.4775C34.1302 89.2555 34.3988 89.1445 34.7568 89.1445C35.1149 89.1445 35.3835 89.2555 35.5625 89.4775C35.7487 89.6995 35.8418 89.9717 35.8418 90.2939C35.8418 90.6019 35.7487 90.8669 35.5625 91.0889C35.3835 91.3037 35.1149 91.4111 34.7568 91.4111C34.3988 91.4111 34.1302 91.3037 33.9512 91.0889C33.7721 90.8669 33.6826 90.6019 33.6826 90.2939ZM40.5898 95.6865V105H38.6992V93.377H40.4824L40.5898 95.6865ZM40.2031 98.748L39.3223 98.7158C39.3151 97.9209 39.3939 97.1868 39.5586 96.5137C39.7233 95.8333 39.9704 95.2425 40.2998 94.7412C40.6364 94.2399 41.0553 93.8532 41.5566 93.5811C42.0651 93.3018 42.6559 93.1621 43.3291 93.1621C43.7731 93.1621 44.1849 93.2409 44.5645 93.3984C44.9512 93.5488 45.2878 93.7887 45.5742 94.1182C45.8607 94.4476 46.0827 94.8701 46.2402 95.3857C46.4049 95.9014 46.4873 96.5244 46.4873 97.2549V105H44.5859V97.3516C44.5859 96.7428 44.5036 96.2559 44.3389 95.8906C44.1813 95.5254 43.9557 95.2604 43.6621 95.0957C43.3685 94.9238 43.0176 94.8379 42.6094 94.8379C42.1439 94.8379 41.7536 94.9417 41.4385 95.1494C41.1305 95.3571 40.8835 95.6436 40.6973 96.0088C40.5182 96.374 40.3893 96.793 40.3105 97.2656C40.2389 97.7311 40.2031 98.2253 40.2031 98.748ZM46.4658 97.6523L45.1982 98.0605C45.1911 97.4232 45.2699 96.8109 45.4346 96.2236C45.5993 95.6364 45.8428 95.1136 46.165 94.6553C46.4945 94.1969 46.9027 93.8353 47.3896 93.5703C47.8766 93.2982 48.4424 93.1621 49.0869 93.1621C49.6169 93.1621 50.0859 93.2445 50.4941 93.4092C50.9023 93.5739 51.2461 93.8281 51.5254 94.1719C51.8118 94.5085 52.0267 94.9417 52.1699 95.4717C52.3132 96.0016 52.3848 96.6318 52.3848 97.3623V105H50.4834V97.3408C50.4834 96.6891 50.401 96.1842 50.2363 95.8262C50.0788 95.4609 49.8532 95.2067 49.5596 95.0635C49.266 94.9131 48.915 94.8379 48.5068 94.8379C48.1774 94.8379 47.8838 94.9131 47.626 95.0635C47.3753 95.2139 47.1641 95.4215 46.9922 95.6865C46.8203 95.9443 46.6878 96.2415 46.5947 96.5781C46.5088 96.9147 46.4658 97.2728 46.4658 97.6523ZM60.9463 103.013V96.707C60.9463 96.2487 60.8747 95.8799 60.7314 95.6006C60.5954 95.3213 60.3877 95.1172 60.1084 94.9883C59.8363 94.8594 59.4925 94.7949 59.0771 94.7949C58.6761 94.7949 58.3288 94.8773 58.0352 95.042C57.7487 95.2067 57.5267 95.4251 57.3691 95.6973C57.2188 95.9694 57.1436 96.2702 57.1436 96.5996H55.2422C55.2422 96.1842 55.3317 95.7725 55.5107 95.3643C55.6969 94.9561 55.9619 94.5872 56.3057 94.2578C56.6494 93.9212 57.0612 93.6562 57.541 93.4629C58.028 93.2624 58.5723 93.1621 59.1738 93.1621C59.89 93.1621 60.5238 93.2803 61.0752 93.5166C61.6266 93.7458 62.0599 94.1217 62.375 94.6445C62.6901 95.1673 62.8477 95.862 62.8477 96.7285V102.465C62.8477 102.852 62.8763 103.263 62.9336 103.7C62.998 104.137 63.0876 104.513 63.2021 104.828V105H61.2363C61.1432 104.771 61.0716 104.466 61.0215 104.087C60.9714 103.7 60.9463 103.342 60.9463 103.013ZM61.2471 97.9531L61.2686 99.3496H59.9473C59.4961 99.3496 59.0843 99.3997 58.7119 99.5C58.3467 99.6003 58.0316 99.7471 57.7666 99.9404C57.5016 100.127 57.2975 100.359 57.1543 100.639C57.0182 100.918 56.9502 101.237 56.9502 101.595C56.9502 102.06 57.0146 102.433 57.1436 102.712C57.2725 102.984 57.4658 103.181 57.7236 103.303C57.9814 103.424 58.3073 103.485 58.7012 103.485C59.181 103.485 59.6035 103.374 59.9688 103.152C60.334 102.93 60.6169 102.662 60.8174 102.347C61.0251 102.032 61.1217 101.738 61.1074 101.466L61.5264 102.357C61.4977 102.637 61.4046 102.941 61.2471 103.271C61.0967 103.593 60.8854 103.904 60.6133 104.205C60.3411 104.499 60.0189 104.742 59.6465 104.936C59.2812 105.122 58.8695 105.215 58.4111 105.215C57.738 105.215 57.1471 105.086 56.6387 104.828C56.1374 104.57 55.7471 104.191 55.4678 103.689C55.1885 103.188 55.0488 102.569 55.0488 101.831C55.0488 101.272 55.1455 100.757 55.3389 100.284C55.5322 99.8115 55.8187 99.4033 56.1982 99.0596C56.5778 98.7087 57.054 98.4365 57.627 98.2432C58.207 98.0498 58.8766 97.9531 59.6357 97.9531H61.2471ZM70.0449 93.377V94.9023H64.6201V93.377H70.0449ZM66.3926 90.5518H68.2939V102.121C68.2939 102.515 68.3405 102.812 68.4336 103.013C68.5339 103.213 68.6592 103.346 68.8096 103.41C68.96 103.475 69.1211 103.507 69.293 103.507C69.4219 103.507 69.5651 103.493 69.7227 103.464C69.8802 103.428 69.9876 103.399 70.0449 103.378L70.0342 105C69.9053 105.05 69.7334 105.097 69.5186 105.14C69.3037 105.19 69.0316 105.215 68.7021 105.215C68.2939 105.215 67.9144 105.118 67.5635 104.925C67.2126 104.731 66.9297 104.409 66.7148 103.958C66.5 103.5 66.3926 102.884 66.3926 102.11V90.5518ZM76.4688 105.215C75.7741 105.215 75.1475 105.111 74.5889 104.903C74.0303 104.696 73.554 104.381 73.1602 103.958C72.7663 103.528 72.4655 102.988 72.2578 102.336C72.0501 101.684 71.9463 100.914 71.9463 100.026V98.7158C71.9463 97.6917 72.0645 96.8252 72.3008 96.1162C72.5443 95.4072 72.8701 94.8379 73.2783 94.4082C73.6865 93.9714 74.1484 93.6562 74.6641 93.4629C75.1797 93.2624 75.7096 93.1621 76.2539 93.1621C76.9844 93.1621 77.6074 93.2803 78.123 93.5166C78.6387 93.7529 79.0576 94.1038 79.3799 94.5693C79.7021 95.0348 79.9385 95.6077 80.0889 96.2881C80.2464 96.9684 80.3252 97.7526 80.3252 98.6406V99.7471H73.0635V98.125H78.4238V97.8564C78.3952 97.2549 78.3128 96.7249 78.1768 96.2666C78.0479 95.8083 77.833 95.4502 77.5322 95.1924C77.2314 94.9274 76.8053 94.7949 76.2539 94.7949C75.903 94.7949 75.5771 94.8558 75.2764 94.9775C74.9827 95.0921 74.7285 95.2962 74.5137 95.5898C74.306 95.8763 74.1413 96.2738 74.0195 96.7822C73.9049 97.2907 73.8477 97.9352 73.8477 98.7158V100.026C73.8477 100.649 73.9049 101.187 74.0195 101.638C74.1413 102.082 74.3167 102.451 74.5459 102.744C74.7822 103.031 75.0687 103.245 75.4053 103.389C75.749 103.525 76.1393 103.593 76.5762 103.593C77.2135 103.593 77.7399 103.471 78.1553 103.228C78.5706 102.977 78.9323 102.658 79.2402 102.271L80.2393 103.464C80.0316 103.757 79.7594 104.04 79.4229 104.312C79.0934 104.577 78.6852 104.796 78.1982 104.968C77.7184 105.132 77.1419 105.215 76.4688 105.215Z" fill="white"/>
<path d="M22.457 103.593C22.8366 103.593 23.1803 103.518 23.4883 103.367C23.8034 103.21 24.0612 102.966 24.2617 102.637C24.4622 102.3 24.5768 101.863 24.6055 101.326H26.3887C26.36 102.1 26.1631 102.78 25.7979 103.367C25.4398 103.947 24.9671 104.402 24.3799 104.731C23.7998 105.054 23.1589 105.215 22.457 105.215C21.7051 105.215 21.0498 105.093 20.4912 104.85C19.9398 104.606 19.4814 104.255 19.1162 103.797C18.7581 103.331 18.4896 102.769 18.3105 102.11C18.1315 101.444 18.042 100.689 18.042 99.8438V98.5332C18.042 97.6882 18.1315 96.9362 18.3105 96.2773C18.4896 95.6113 18.7581 95.0492 19.1162 94.5908C19.4814 94.1253 19.9398 93.7708 20.4912 93.5273C21.0498 93.2839 21.7051 93.1621 22.457 93.1621C23.2448 93.1621 23.9251 93.3304 24.498 93.667C25.0781 93.9964 25.5293 94.4762 25.8516 95.1064C26.181 95.7295 26.36 96.485 26.3887 97.373H24.6055C24.5768 96.8001 24.473 96.3239 24.2939 95.9443C24.1149 95.5576 23.8714 95.2712 23.5635 95.085C23.2555 94.8916 22.8867 94.7949 22.457 94.7949C21.9557 94.7949 21.5404 94.8844 21.2109 95.0635C20.8887 95.2354 20.6344 95.486 20.4482 95.8154C20.262 96.1449 20.1296 96.5387 20.0508 96.9971C19.9792 97.4554 19.9434 97.9674 19.9434 98.5332V99.8438C19.9434 100.41 19.9792 100.925 20.0508 101.391C20.1296 101.849 20.2585 102.243 20.4375 102.572C20.6237 102.902 20.8815 103.156 21.2109 103.335C21.5404 103.507 21.9557 103.593 22.457 103.593ZM30.6318 88.5V105H28.7412V88.5H30.6318ZM35.6807 93.377V105H33.79V93.377H35.6807ZM33.6826 90.2939C33.6826 89.9717 33.7721 89.6995 33.9512 89.4775C34.1302 89.2555 34.3988 89.1445 34.7568 89.1445C35.1149 89.1445 35.3835 89.2555 35.5625 89.4775C35.7487 89.6995 35.8418 89.9717 35.8418 90.2939C35.8418 90.6019 35.7487 90.8669 35.5625 91.0889C35.3835 91.3037 35.1149 91.4111 34.7568 91.4111C34.3988 91.4111 34.1302 91.3037 33.9512 91.0889C33.7721 90.8669 33.6826 90.6019 33.6826 90.2939ZM40.5898 95.6865V105H38.6992V93.377H40.4824L40.5898 95.6865ZM40.2031 98.748L39.3223 98.7158C39.3151 97.9209 39.3939 97.1868 39.5586 96.5137C39.7233 95.8333 39.9704 95.2425 40.2998 94.7412C40.6364 94.2399 41.0553 93.8532 41.5566 93.5811C42.0651 93.3018 42.6559 93.1621 43.3291 93.1621C43.7731 93.1621 44.1849 93.2409 44.5645 93.3984C44.9512 93.5488 45.2878 93.7887 45.5742 94.1182C45.8607 94.4476 46.0827 94.8701 46.2402 95.3857C46.4049 95.9014 46.4873 96.5244 46.4873 97.2549V105H44.5859V97.3516C44.5859 96.7428 44.5036 96.2559 44.3389 95.8906C44.1813 95.5254 43.9557 95.2604 43.6621 95.0957C43.3685 94.9238 43.0176 94.8379 42.6094 94.8379C42.1439 94.8379 41.7536 94.9417 41.4385 95.1494C41.1305 95.3571 40.8835 95.6436 40.6973 96.0088C40.5182 96.374 40.3893 96.793 40.3105 97.2656C40.2389 97.7311 40.2031 98.2253 40.2031 98.748ZM46.4658 97.6523L45.1982 98.0605C45.1911 97.4232 45.2699 96.8109 45.4346 96.2236C45.5993 95.6364 45.8428 95.1136 46.165 94.6553C46.4945 94.1969 46.9027 93.8353 47.3896 93.5703C47.8766 93.2982 48.4424 93.1621 49.0869 93.1621C49.6169 93.1621 50.0859 93.2445 50.4941 93.4092C50.9023 93.5739 51.2461 93.8281 51.5254 94.1719C51.8118 94.5085 52.0267 94.9417 52.1699 95.4717C52.3132 96.0016 52.3848 96.6318 52.3848 97.3623V105H50.4834V97.3408C50.4834 96.6891 50.401 96.1842 50.2363 95.8262C50.0788 95.4609 49.8532 95.2067 49.5596 95.0635C49.266 94.9131 48.915 94.8379 48.5068 94.8379C48.1774 94.8379 47.8838 94.9131 47.626 95.0635C47.3753 95.2139 47.1641 95.4215 46.9922 95.6865C46.8203 95.9443 46.6878 96.2415 46.5947 96.5781C46.5088 96.9147 46.4658 97.2728 46.4658 97.6523ZM60.9463 103.013V96.707C60.9463 96.2487 60.8747 95.8799 60.7314 95.6006C60.5954 95.3213 60.3877 95.1172 60.1084 94.9883C59.8363 94.8594 59.4925 94.7949 59.0771 94.7949C58.6761 94.7949 58.3288 94.8773 58.0352 95.042C57.7487 95.2067 57.5267 95.4251 57.3691 95.6973C57.2188 95.9694 57.1436 96.2702 57.1436 96.5996H55.2422C55.2422 96.1842 55.3317 95.7725 55.5107 95.3643C55.6969 94.9561 55.9619 94.5872 56.3057 94.2578C56.6494 93.9212 57.0612 93.6562 57.541 93.4629C58.028 93.2624 58.5723 93.1621 59.1738 93.1621C59.89 93.1621 60.5238 93.2803 61.0752 93.5166C61.6266 93.7458 62.0599 94.1217 62.375 94.6445C62.6901 95.1673 62.8477 95.862 62.8477 96.7285V102.465C62.8477 102.852 62.8763 103.263 62.9336 103.7C62.998 104.137 63.0876 104.513 63.2021 104.828V105H61.2363C61.1432 104.771 61.0716 104.466 61.0215 104.087C60.9714 103.7 60.9463 103.342 60.9463 103.013ZM61.2471 97.9531L61.2686 99.3496H59.9473C59.4961 99.3496 59.0843 99.3997 58.7119 99.5C58.3467 99.6003 58.0316 99.7471 57.7666 99.9404C57.5016 100.127 57.2975 100.359 57.1543 100.639C57.0182 100.918 56.9502 101.237 56.9502 101.595C56.9502 102.06 57.0146 102.433 57.1436 102.712C57.2725 102.984 57.4658 103.181 57.7236 103.303C57.9814 103.424 58.3073 103.485 58.7012 103.485C59.181 103.485 59.6035 103.374 59.9688 103.152C60.334 102.93 60.6169 102.662 60.8174 102.347C61.0251 102.032 61.1217 101.738 61.1074 101.466L61.5264 102.357C61.4977 102.637 61.4046 102.941 61.2471 103.271C61.0967 103.593 60.8854 103.904 60.6133 104.205C60.3411 104.499 60.0189 104.742 59.6465 104.936C59.2812 105.122 58.8695 105.215 58.4111 105.215C57.738 105.215 57.1471 105.086 56.6387 104.828C56.1374 104.57 55.7471 104.191 55.4678 103.689C55.1885 103.188 55.0488 102.569 55.0488 101.831C55.0488 101.272 55.1455 100.757 55.3389 100.284C55.5322 99.8115 55.8187 99.4033 56.1982 99.0596C56.5778 98.7087 57.054 98.4365 57.627 98.2432C58.207 98.0498 58.8766 97.9531 59.6357 97.9531H61.2471ZM70.0449 93.377V94.9023H64.6201V93.377H70.0449ZM66.3926 90.5518H68.2939V102.121C68.2939 102.515 68.3405 102.812 68.4336 103.013C68.5339 103.213 68.6592 103.346 68.8096 103.41C68.96 103.475 69.1211 103.507 69.293 103.507C69.4219 103.507 69.5651 103.493 69.7227 103.464C69.8802 103.428 69.9876 103.399 70.0449 103.378L70.0342 105C69.9053 105.05 69.7334 105.097 69.5186 105.14C69.3037 105.19 69.0316 105.215 68.7021 105.215C68.2939 105.215 67.9144 105.118 67.5635 104.925C67.2126 104.731 66.9297 104.409 66.7148 103.958C66.5 103.5 66.3926 102.884 66.3926 102.11V90.5518ZM76.4688 105.215C75.7741 105.215 75.1475 105.111 74.5889 104.903C74.0303 104.696 73.554 104.381 73.1602 103.958C72.7663 103.528 72.4655 102.988 72.2578 102.336C72.0501 101.684 71.9463 100.914 71.9463 100.026V98.7158C71.9463 97.6917 72.0645 96.8252 72.3008 96.1162C72.5443 95.4072 72.8701 94.8379 73.2783 94.4082C73.6865 93.9714 74.1484 93.6562 74.6641 93.4629C75.1797 93.2624 75.7096 93.1621 76.2539 93.1621C76.9844 93.1621 77.6074 93.2803 78.123 93.5166C78.6387 93.7529 79.0576 94.1038 79.3799 94.5693C79.7021 95.0348 79.9385 95.6077 80.0889 96.2881C80.2464 96.9684 80.3252 97.7526 80.3252 98.6406V99.7471H73.0635V98.125H78.4238V97.8564C78.3952 97.2549 78.3128 96.7249 78.1768 96.2666C78.0479 95.8083 77.833 95.4502 77.5322 95.1924C77.2314 94.9274 76.8053 94.7949 76.2539 94.7949C75.903 94.7949 75.5771 94.8558 75.2764 94.9775C74.9827 95.0921 74.7285 95.2962 74.5137 95.5898C74.306 95.8763 74.1413 96.2738 74.0195 96.7822C73.9049 97.2907 73.8477 97.9352 73.8477 98.7158V100.026C73.8477 100.649 73.9049 101.187 74.0195 101.638C74.1413 102.082 74.3167 102.451 74.5459 102.744C74.7822 103.031 75.0687 103.245 75.4053 103.389C75.749 103.525 76.1393 103.593 76.5762 103.593C77.2135 103.593 77.7399 103.471 78.1553 103.228C78.5706 102.977 78.9323 102.658 79.2402 102.271L80.2393 103.464C80.0316 103.757 79.7594 104.04 79.4229 104.312C79.0934 104.577 78.6852 104.796 78.1982 104.968C77.7184 105.132 77.1419 105.215 76.4688 105.215Z" fill="white"/>
<circle cx="209.5" cy="114.5" r="22.5" fill="black"/>
</g>
<defs>
<clipPath id="clip0_183_544">
<rect width="200" height="228" fill="white"/>
</clipPath>
</defs>
</svg>
