<svg width="200" height="228" viewBox="0 0 200 228" fill="none" xmlns="http://www.w3.org/2000/svg">
<g clip-path="url(#clip0_7_177)">
<rect width="200" height="228" fill="white"/>
<rect width="200" height="228" fill="black"/>
<rect width="200" height="228" rx="18" fill="#FF9500"/>
<path d="M78.0054 13.9243L76.9727 13.646L77.4268 8.33594H82.0703V9.58838H78.5181L78.269 12.4888C78.4351 12.3765 78.6353 12.2715 78.8696 12.1738C79.104 12.0762 79.3774 12.0273 79.6899 12.0273C80.1099 12.0273 80.4834 12.1128 80.8105 12.2837C81.1426 12.4497 81.4233 12.689 81.6528 13.0015C81.8823 13.314 82.0581 13.6899 82.1802 14.1294C82.3022 14.5688 82.3633 15.0596 82.3633 15.6016C82.3633 16.1143 82.3022 16.5854 82.1802 17.0151C82.063 17.4448 81.8823 17.8208 81.6382 18.1431C81.3989 18.4604 81.0962 18.707 80.73 18.8828C80.3687 19.0586 79.9463 19.1465 79.4629 19.1465C79.1016 19.1465 78.7598 19.0879 78.4375 18.9707C78.1152 18.8486 77.8247 18.6655 77.5659 18.4214C77.312 18.1724 77.1045 17.8647 76.9434 17.4985C76.7822 17.1274 76.6821 16.6929 76.6431 16.1948H77.8662C77.915 16.5952 78.0078 16.9321 78.1445 17.2056C78.2861 17.479 78.4668 17.6865 78.6865 17.8281C78.9111 17.9648 79.1699 18.0332 79.4629 18.0332C79.7119 18.0332 79.9365 17.9771 80.1367 17.8647C80.3369 17.7524 80.5054 17.5913 80.6421 17.3813C80.7788 17.1714 80.8838 16.9175 80.957 16.6196C81.0303 16.3218 81.0669 15.9873 81.0669 15.6162C81.0669 15.2793 81.0303 14.9668 80.957 14.6787C80.8838 14.3906 80.7739 14.1392 80.6274 13.9243C80.481 13.7095 80.3027 13.5435 80.0928 13.4263C79.8877 13.3042 79.6484 13.2432 79.375 13.2432C79.0088 13.2432 78.7378 13.3042 78.562 13.4263C78.3911 13.5483 78.2056 13.7144 78.0054 13.9243ZM84.0039 18.2822C84.0039 18.0527 84.0747 17.8599 84.2163 17.7036C84.3628 17.5425 84.5728 17.4619 84.8462 17.4619C85.1196 17.4619 85.3271 17.5425 85.4688 17.7036C85.6152 17.8599 85.6885 18.0527 85.6885 18.2822C85.6885 18.5068 85.6152 18.6973 85.4688 18.8535C85.3271 19.0098 85.1196 19.0879 84.8462 19.0879C84.5728 19.0879 84.3628 19.0098 84.2163 18.8535C84.0747 18.6973 84.0039 18.5068 84.0039 18.2822ZM83.9966 11.8149C83.9966 11.5854 84.0674 11.3926 84.209 11.2363C84.3555 11.0752 84.5654 10.9946 84.8389 10.9946C85.1123 10.9946 85.3198 11.0752 85.4614 11.2363C85.6079 11.3926 85.6812 11.5854 85.6812 11.8149C85.6812 12.0396 85.6079 12.23 85.4614 12.3862C85.3198 12.5425 85.1123 12.6206 84.8389 12.6206C84.5654 12.6206 84.3555 12.5425 84.209 12.3862C84.0674 12.23 83.9966 12.0396 83.9966 11.8149ZM93.313 17.8867V19H87.3511V18.0259L90.2881 14.1367C90.6494 13.6582 90.9253 13.2529 91.1157 12.9209C91.3062 12.584 91.438 12.2837 91.5112 12.02C91.5845 11.7515 91.6211 11.478 91.6211 11.1997C91.6211 10.8481 91.5649 10.5308 91.4526 10.2476C91.3403 9.95947 91.1768 9.72998 90.9619 9.55908C90.7471 9.38818 90.4883 9.30273 90.1855 9.30273C89.79 9.30273 89.4653 9.39551 89.2114 9.58105C88.9624 9.76172 88.7793 10.0156 88.6621 10.3428C88.5449 10.6699 88.4863 11.0459 88.4863 11.4707H87.1899C87.1899 10.8701 87.2998 10.3208 87.5195 9.82275C87.7441 9.32471 88.0786 8.9292 88.5229 8.63623C88.9673 8.33838 89.5215 8.18945 90.1855 8.18945C90.7568 8.18945 91.2451 8.30908 91.6504 8.54834C92.0605 8.78271 92.373 9.11475 92.5879 9.54443C92.8076 9.96924 92.9175 10.4673 92.9175 11.0386C92.9175 11.3511 92.8735 11.6685 92.7856 11.9907C92.7026 12.3081 92.5854 12.6255 92.4341 12.9429C92.2876 13.2603 92.1143 13.5728 91.9141 13.8804C91.7139 14.188 91.499 14.4907 91.2695 14.7886L88.9038 17.8867H93.313ZM95.9351 17.8647H96.0376C96.6968 17.8647 97.2266 17.7549 97.627 17.5352C98.0273 17.3154 98.3276 17.02 98.5278 16.6489C98.7329 16.2778 98.8696 15.8604 98.938 15.3965C99.0112 14.9277 99.0479 14.4468 99.0479 13.9536V12.3203C99.0479 11.8369 99.0015 11.4072 98.9087 11.0312C98.8208 10.6553 98.7012 10.3403 98.5498 10.0864C98.4033 9.83252 98.2349 9.63965 98.0444 9.50781C97.8589 9.37598 97.6685 9.31006 97.4731 9.31006C97.2241 9.31006 97.0044 9.37354 96.814 9.50049C96.6235 9.62256 96.4624 9.7959 96.3306 10.0205C96.2036 10.2451 96.106 10.5088 96.0376 10.8115C95.9692 11.1143 95.9351 11.4438 95.9351 11.8003C95.9351 12.1177 95.9644 12.4253 96.0229 12.7231C96.0815 13.021 96.1719 13.2896 96.2939 13.5288C96.4209 13.7681 96.5771 13.9585 96.7627 14.1001C96.9531 14.2368 97.1777 14.3052 97.4365 14.3052C97.6514 14.3052 97.8589 14.2466 98.0591 14.1294C98.2642 14.0073 98.4497 13.8438 98.6157 13.6387C98.7817 13.4287 98.9185 13.1919 99.0259 12.9282C99.1333 12.6646 99.1968 12.3887 99.2163 12.1006H99.8242C99.8242 12.5059 99.7583 12.9062 99.6265 13.3018C99.4995 13.6924 99.3164 14.0488 99.0771 14.3711C98.8428 14.6934 98.5669 14.9521 98.2495 15.1475C97.937 15.3379 97.5928 15.4331 97.2168 15.4331C96.7627 15.4331 96.3745 15.3306 96.0522 15.1255C95.73 14.9204 95.4663 14.647 95.2612 14.3052C95.061 13.9634 94.9121 13.5825 94.8145 13.1626C94.7168 12.7378 94.668 12.3081 94.668 11.8735C94.668 11.3657 94.7266 10.8896 94.8438 10.4453C94.9609 10.001 95.1343 9.61035 95.3638 9.27344C95.5981 8.93164 95.8911 8.66553 96.2427 8.4751C96.5942 8.28467 97.0044 8.18945 97.4731 8.18945C97.9956 8.18945 98.4399 8.31152 98.8062 8.55566C99.1724 8.7998 99.4678 9.12695 99.6924 9.53711C99.917 9.94727 100.081 10.4087 100.183 10.9214C100.286 11.4341 100.337 11.9614 100.337 12.5034V12.9941C100.337 13.5459 100.31 14.1074 100.256 14.6787C100.208 15.2451 100.103 15.7871 99.9414 16.3047C99.7852 16.8223 99.5508 17.2861 99.2383 17.6963C98.9258 18.1016 98.5083 18.4238 97.9858 18.6631C97.4683 18.8975 96.8188 19.0146 96.0376 19.0146H95.9424L95.9351 17.8647ZM109.309 14.8179H106.98V13.668H109.309C109.749 13.668 110.103 13.5801 110.371 13.4043C110.645 13.2285 110.842 12.9844 110.964 12.6719C111.091 12.3594 111.155 12.0029 111.155 11.6025C111.155 11.2363 111.091 10.8921 110.964 10.5698C110.842 10.2476 110.645 9.98877 110.371 9.79346C110.103 9.59326 109.749 9.49316 109.309 9.49316H107.258V19H105.911V8.33594H109.309C109.998 8.33594 110.579 8.4751 111.052 8.75342C111.526 9.03174 111.885 9.41748 112.129 9.91064C112.378 10.3989 112.502 10.958 112.502 11.5879C112.502 12.2715 112.378 12.855 112.129 13.3384C111.885 13.8218 111.526 14.1904 111.052 14.4443C110.579 14.6934 109.998 14.8179 109.309 14.8179ZM114.656 8.33594H115.959L118.75 17.0298L121.533 8.33594H122.837L119.255 19H118.23L114.656 8.33594ZM114.231 8.33594H115.374L115.571 14.8398V19H114.231V8.33594ZM122.112 8.33594H123.254V19H121.914V14.8398L122.112 8.33594Z" fill="white"/>
<path d="M100 65C106.114 65 111.987 67.4109 116.325 71.7188C120.665 76.0283 123.111 81.8843 123.111 88V93.8115C130.235 94.1015 136 99.9398 136 107.2V143.6C136 150.932 130.121 156.814 122.9 156.996L122.556 157H77.4443C70.0671 157 64 151.048 64 143.6V107.2C64 99.9398 69.7649 94.1015 76.8887 93.8115V88C76.8887 81.8843 79.3354 76.0283 83.6748 71.7188C88.0127 67.4109 93.8864 65 100 65ZM99.5459 79.0107C97.2807 79.1223 95.1397 80.0658 93.541 81.6533C91.8374 83.3452 90.8887 85.6291 90.8887 88V93.7998H109.111V88C109.111 85.6291 108.163 83.3452 106.459 81.6533C104.754 79.9601 102.432 79 100 79L99.5459 79.0107Z" fill="white" stroke="black" stroke-width="6" stroke-linecap="round" stroke-linejoin="round"/>
<path d="M173.124 17.8867V19H167.162V18.0259L170.099 14.1367C170.46 13.6582 170.736 13.2529 170.926 12.9209C171.117 12.584 171.249 12.2837 171.322 12.02C171.395 11.7515 171.432 11.478 171.432 11.1997C171.432 10.8481 171.375 10.5308 171.263 10.2476C171.151 9.95947 170.987 9.72998 170.772 9.55908C170.558 9.38818 170.299 9.30273 169.996 9.30273C169.601 9.30273 169.276 9.39551 169.022 9.58105C168.773 9.76172 168.59 10.0156 168.473 10.3428C168.355 10.6699 168.297 11.0459 168.297 11.4707H167C167 10.8701 167.11 10.3208 167.33 9.82275C167.555 9.32471 167.889 8.9292 168.333 8.63623C168.778 8.33838 169.332 8.18945 169.996 8.18945C170.567 8.18945 171.056 8.30908 171.461 8.54834C171.871 8.78271 172.184 9.11475 172.398 9.54443C172.618 9.96924 172.728 10.4673 172.728 11.0386C172.728 11.3511 172.684 11.6685 172.596 11.9907C172.513 12.3081 172.396 12.6255 172.245 12.9429C172.098 13.2603 171.925 13.5728 171.725 13.8804C171.524 14.188 171.31 14.4907 171.08 14.7886L168.714 17.8867H173.124ZM180.278 8.33594L176.542 19.9155H175.451L179.194 8.33594H180.278ZM189.029 8.33594V9.09766L185.359 19H183.997L187.667 9.44922H182.913V8.33594H189.029Z" fill="white"/>
<path d="M74.374 173.5V190H72.4834V173.5H74.374ZM76.9844 184.747V183.641C76.9844 182.738 77.099 181.947 77.3281 181.267C77.5573 180.579 77.876 180.006 78.2842 179.548C78.6924 179.09 79.1686 178.746 79.7129 178.517C80.2572 178.28 80.8408 178.162 81.4639 178.162C82.1012 178.162 82.6921 178.28 83.2363 178.517C83.7806 178.746 84.2568 179.09 84.665 179.548C85.0804 180.006 85.4027 180.579 85.6318 181.267C85.861 181.947 85.9756 182.738 85.9756 183.641V184.747C85.9756 185.649 85.861 186.444 85.6318 187.132C85.4027 187.812 85.084 188.382 84.6758 188.84C84.2676 189.298 83.7913 189.642 83.2471 189.871C82.7028 190.1 82.1156 190.215 81.4854 190.215C80.8551 190.215 80.2679 190.1 79.7236 189.871C79.1794 189.642 78.6995 189.298 78.2842 188.84C77.876 188.382 77.5573 187.812 77.3281 187.132C77.099 186.444 76.9844 185.649 76.9844 184.747ZM78.8857 183.641V184.747C78.8857 185.384 78.9502 185.943 79.0791 186.423C79.208 186.903 79.3906 187.304 79.627 187.626C79.8633 187.948 80.139 188.192 80.4541 188.356C80.7692 188.514 81.113 188.593 81.4854 188.593C81.915 188.593 82.291 188.514 82.6133 188.356C82.9427 188.192 83.2148 187.948 83.4297 187.626C83.6445 187.304 83.8057 186.903 83.9131 186.423C84.0205 185.943 84.0742 185.384 84.0742 184.747V183.641C84.0742 183.003 84.0098 182.448 83.8809 181.976C83.752 181.496 83.5693 181.095 83.333 180.772C83.0967 180.443 82.8174 180.2 82.4951 180.042C82.18 179.877 81.8363 179.795 81.4639 179.795C81.0986 179.795 80.7585 179.877 80.4434 180.042C80.1283 180.2 79.8525 180.443 79.6162 180.772C79.387 181.095 79.208 181.496 79.0791 181.976C78.9502 182.448 78.8857 183.003 78.8857 183.641ZM92.4531 188.593C92.8327 188.593 93.1764 188.518 93.4844 188.367C93.7995 188.21 94.0573 187.966 94.2578 187.637C94.4583 187.3 94.5729 186.863 94.6016 186.326H96.3848C96.3561 187.1 96.1592 187.78 95.7939 188.367C95.4359 188.947 94.9632 189.402 94.376 189.731C93.7959 190.054 93.1549 190.215 92.4531 190.215C91.7012 190.215 91.0459 190.093 90.4873 189.85C89.9359 189.606 89.4775 189.255 89.1123 188.797C88.7542 188.331 88.4857 187.769 88.3066 187.11C88.1276 186.444 88.0381 185.689 88.0381 184.844V183.533C88.0381 182.688 88.1276 181.936 88.3066 181.277C88.4857 180.611 88.7542 180.049 89.1123 179.591C89.4775 179.125 89.9359 178.771 90.4873 178.527C91.0459 178.284 91.7012 178.162 92.4531 178.162C93.2409 178.162 93.9212 178.33 94.4941 178.667C95.0742 178.996 95.5254 179.476 95.8477 180.106C96.1771 180.729 96.3561 181.485 96.3848 182.373H94.6016C94.5729 181.8 94.4691 181.324 94.29 180.944C94.111 180.558 93.8675 180.271 93.5596 180.085C93.2516 179.892 92.8828 179.795 92.4531 179.795C91.9518 179.795 91.5365 179.884 91.207 180.063C90.8848 180.235 90.6305 180.486 90.4443 180.815C90.2581 181.145 90.1257 181.539 90.0469 181.997C89.9753 182.455 89.9395 182.967 89.9395 183.533V184.844C89.9395 185.41 89.9753 185.925 90.0469 186.391C90.1257 186.849 90.2546 187.243 90.4336 187.572C90.6198 187.902 90.8776 188.156 91.207 188.335C91.5365 188.507 91.9518 188.593 92.4531 188.593ZM100.499 173.5V190H98.5977V173.5H100.499ZM106.396 178.377L102.261 183.802L99.7041 186.745L99.5752 184.629L101.337 182.201L104.108 178.377H106.396ZM104.656 190L101.391 184.457L102.368 182.685L106.869 190H104.656ZM112.455 190.215C111.76 190.215 111.134 190.111 110.575 189.903C110.017 189.696 109.54 189.381 109.146 188.958C108.753 188.528 108.452 187.988 108.244 187.336C108.036 186.684 107.933 185.914 107.933 185.026V183.716C107.933 182.692 108.051 181.825 108.287 181.116C108.531 180.407 108.856 179.838 109.265 179.408C109.673 178.971 110.135 178.656 110.65 178.463C111.166 178.262 111.696 178.162 112.24 178.162C112.971 178.162 113.594 178.28 114.109 178.517C114.625 178.753 115.044 179.104 115.366 179.569C115.688 180.035 115.925 180.608 116.075 181.288C116.233 181.968 116.312 182.753 116.312 183.641V184.747H109.05V183.125H114.41V182.856C114.382 182.255 114.299 181.725 114.163 181.267C114.034 180.808 113.819 180.45 113.519 180.192C113.218 179.927 112.792 179.795 112.24 179.795C111.889 179.795 111.563 179.856 111.263 179.978C110.969 180.092 110.715 180.296 110.5 180.59C110.292 180.876 110.128 181.274 110.006 181.782C109.891 182.291 109.834 182.935 109.834 183.716V185.026C109.834 185.649 109.891 186.187 110.006 186.638C110.128 187.082 110.303 187.451 110.532 187.744C110.769 188.031 111.055 188.245 111.392 188.389C111.735 188.525 112.126 188.593 112.562 188.593C113.2 188.593 113.726 188.471 114.142 188.228C114.557 187.977 114.919 187.658 115.227 187.271L116.226 188.464C116.018 188.757 115.746 189.04 115.409 189.312C115.08 189.577 114.672 189.796 114.185 189.968C113.705 190.132 113.128 190.215 112.455 190.215ZM124.701 187.744V173.5H126.592V190H124.862L124.701 187.744ZM118.202 184.747V183.662C118.202 182.702 118.295 181.879 118.481 181.191C118.668 180.497 118.933 179.927 119.276 179.483C119.62 179.032 120.032 178.699 120.512 178.484C120.992 178.27 121.521 178.162 122.102 178.162C122.703 178.162 123.219 178.284 123.648 178.527C124.085 178.771 124.451 179.125 124.744 179.591C125.038 180.049 125.267 180.608 125.432 181.267C125.604 181.918 125.718 182.656 125.775 183.479V184.93C125.711 185.746 125.593 186.48 125.421 187.132C125.256 187.784 125.027 188.339 124.733 188.797C124.44 189.255 124.075 189.606 123.638 189.85C123.201 190.093 122.682 190.215 122.08 190.215C121.507 190.215 120.984 190.104 120.512 189.882C120.039 189.653 119.627 189.312 119.276 188.861C118.933 188.403 118.668 187.834 118.481 187.153C118.295 186.466 118.202 185.664 118.202 184.747ZM120.104 183.662V184.747C120.104 185.392 120.15 185.954 120.243 186.434C120.336 186.906 120.483 187.3 120.684 187.615C120.884 187.923 121.138 188.152 121.446 188.303C121.761 188.453 122.137 188.528 122.574 188.528C123.104 188.528 123.537 188.399 123.874 188.142C124.211 187.884 124.479 187.544 124.68 187.121C124.887 186.691 125.052 186.229 125.174 185.735V182.685C125.102 182.319 124.998 181.968 124.862 181.632C124.726 181.288 124.554 180.984 124.347 180.719C124.146 180.447 123.899 180.232 123.605 180.074C123.319 179.917 122.982 179.838 122.596 179.838C122.159 179.838 121.779 179.917 121.457 180.074C121.142 180.232 120.884 180.468 120.684 180.783C120.49 181.098 120.343 181.496 120.243 181.976C120.15 182.455 120.104 183.018 120.104 183.662Z" fill="white"/>
<line x1="100" y1="120" x2="100" y2="132" stroke="black" stroke-width="6" stroke-linecap="round"/>
<circle cx="209.5" cy="114.5" r="22.5" fill="black"/>
</g>
<defs>
<clipPath id="clip0_7_177">
<rect width="200" height="228" fill="white"/>
</clipPath>
</defs>
</svg>
