<svg width="200" height="228" viewBox="0 0 200 228" fill="none" xmlns="http://www.w3.org/2000/svg">
<g clip-path="url(#clip0_25_869)">
<rect width="200" height="228" fill="white"/>
<rect width="200" height="228" fill="black"/>
<rect width="200" height="228" rx="18" fill="#FF9500"/>
<path d="M18.48 46.16V37.2H36.4V73.04H45.36V82H18.48V73.04H27.44V46.16H18.48ZM52.105 82V37.2H83.465V82H52.105ZM74.505 64.08H61.065V73.04H74.505V64.08ZM61.065 55.12H74.505V46.16H61.065V55.12ZM92.4175 82V37.2H123.778V82H92.4175ZM101.378 46.16V73.04H114.818V46.16H101.378Z" fill="white"/>
<path d="M21.3408 92.5V109H19.4395V92.5H21.3408ZM27.2383 97.377L23.1025 102.802L20.5459 105.745L20.417 103.629L22.1787 101.201L24.9502 97.377H27.2383ZM25.498 109L22.2324 103.457L23.21 101.685L27.7109 109H25.498ZM31.3955 97.377V109H29.5049V97.377H31.3955ZM29.3975 94.2939C29.3975 93.9717 29.487 93.6995 29.666 93.4775C29.8451 93.2555 30.1136 93.1445 30.4717 93.1445C30.8298 93.1445 31.0983 93.2555 31.2773 93.4775C31.4635 93.6995 31.5566 93.9717 31.5566 94.2939C31.5566 94.6019 31.4635 94.8669 31.2773 95.0889C31.0983 95.3037 30.8298 95.4111 30.4717 95.4111C30.1136 95.4111 29.8451 95.3037 29.666 95.0889C29.487 94.8669 29.3975 94.6019 29.3975 94.2939ZM36.4443 92.5V109H34.5537V92.5H36.4443ZM39.0547 103.747V102.641C39.0547 101.738 39.1693 100.947 39.3984 100.267C39.6276 99.5791 39.9463 99.0062 40.3545 98.5479C40.7627 98.0895 41.2389 97.7458 41.7832 97.5166C42.3275 97.2803 42.9111 97.1621 43.5342 97.1621C44.1715 97.1621 44.7624 97.2803 45.3066 97.5166C45.8509 97.7458 46.3271 98.0895 46.7354 98.5479C47.1507 99.0062 47.473 99.5791 47.7021 100.267C47.9313 100.947 48.0459 101.738 48.0459 102.641V103.747C48.0459 104.649 47.9313 105.444 47.7021 106.132C47.473 106.812 47.1543 107.382 46.7461 107.84C46.3379 108.298 45.8617 108.642 45.3174 108.871C44.7731 109.1 44.1859 109.215 43.5557 109.215C42.9255 109.215 42.3382 109.1 41.7939 108.871C41.2497 108.642 40.7699 108.298 40.3545 107.84C39.9463 107.382 39.6276 106.812 39.3984 106.132C39.1693 105.444 39.0547 104.649 39.0547 103.747ZM40.9561 102.641V103.747C40.9561 104.384 41.0205 104.943 41.1494 105.423C41.2783 105.903 41.4609 106.304 41.6973 106.626C41.9336 106.948 42.2093 107.192 42.5244 107.356C42.8395 107.514 43.1833 107.593 43.5557 107.593C43.9854 107.593 44.3613 107.514 44.6836 107.356C45.013 107.192 45.2852 106.948 45.5 106.626C45.7148 106.304 45.876 105.903 45.9834 105.423C46.0908 104.943 46.1445 104.384 46.1445 103.747V102.641C46.1445 102.003 46.0801 101.448 45.9512 100.976C45.8223 100.496 45.6396 100.095 45.4033 99.7725C45.167 99.443 44.8877 99.1995 44.5654 99.042C44.2503 98.8773 43.9066 98.7949 43.5342 98.7949C43.1689 98.7949 42.8288 98.8773 42.5137 99.042C42.1986 99.1995 41.9229 99.443 41.6865 99.7725C41.4574 100.095 41.2783 100.496 41.1494 100.976C41.0205 101.448 40.9561 102.003 40.9561 102.641ZM52.3965 99.6865V109H50.5059V97.377H52.2891L52.3965 99.6865ZM52.0098 102.748L51.1289 102.716C51.1217 101.921 51.2005 101.187 51.3652 100.514C51.5299 99.8333 51.777 99.2425 52.1064 98.7412C52.443 98.2399 52.862 97.8532 53.3633 97.5811C53.8717 97.3018 54.4626 97.1621 55.1357 97.1621C55.5798 97.1621 55.9915 97.2409 56.3711 97.3984C56.7578 97.5488 57.0944 97.7887 57.3809 98.1182C57.6673 98.4476 57.8893 98.8701 58.0469 99.3857C58.2116 99.9014 58.2939 100.524 58.2939 101.255V109H56.3926V101.352C56.3926 100.743 56.3102 100.256 56.1455 99.8906C55.988 99.5254 55.7624 99.2604 55.4688 99.0957C55.1751 98.9238 54.8242 98.8379 54.416 98.8379C53.9505 98.8379 53.5602 98.9417 53.2451 99.1494C52.9372 99.3571 52.6901 99.6436 52.5039 100.009C52.3249 100.374 52.196 100.793 52.1172 101.266C52.0456 101.731 52.0098 102.225 52.0098 102.748ZM58.2725 101.652L57.0049 102.061C56.9977 101.423 57.0765 100.811 57.2412 100.224C57.4059 99.6364 57.6494 99.1136 57.9717 98.6553C58.3011 98.1969 58.7093 97.8353 59.1963 97.5703C59.6833 97.2982 60.249 97.1621 60.8936 97.1621C61.4235 97.1621 61.8926 97.2445 62.3008 97.4092C62.709 97.5739 63.0527 97.8281 63.332 98.1719C63.6185 98.5085 63.8333 98.9417 63.9766 99.4717C64.1198 100.002 64.1914 100.632 64.1914 101.362V109H62.29V101.341C62.29 100.689 62.2077 100.184 62.043 99.8262C61.8854 99.4609 61.6598 99.2067 61.3662 99.0635C61.0726 98.9131 60.7217 98.8379 60.3135 98.8379C59.984 98.8379 59.6904 98.9131 59.4326 99.0635C59.182 99.2139 58.9707 99.4215 58.7988 99.6865C58.627 99.9443 58.4945 100.242 58.4014 100.578C58.3154 100.915 58.2725 101.273 58.2725 101.652ZM71.2168 109.215C70.5221 109.215 69.8955 109.111 69.3369 108.903C68.7783 108.696 68.3021 108.381 67.9082 107.958C67.5143 107.528 67.2135 106.988 67.0059 106.336C66.7982 105.684 66.6943 104.914 66.6943 104.026V102.716C66.6943 101.692 66.8125 100.825 67.0488 100.116C67.2923 99.4072 67.6182 98.8379 68.0264 98.4082C68.4346 97.9714 68.8965 97.6562 69.4121 97.4629C69.9277 97.2624 70.4577 97.1621 71.002 97.1621C71.7324 97.1621 72.3555 97.2803 72.8711 97.5166C73.3867 97.7529 73.8057 98.1038 74.1279 98.5693C74.4502 99.0348 74.6865 99.6077 74.8369 100.288C74.9945 100.968 75.0732 101.753 75.0732 102.641V103.747H67.8115V102.125H73.1719V101.856C73.1432 101.255 73.0609 100.725 72.9248 100.267C72.7959 99.8083 72.5811 99.4502 72.2803 99.1924C71.9795 98.9274 71.5534 98.7949 71.002 98.7949C70.651 98.7949 70.3252 98.8558 70.0244 98.9775C69.7308 99.0921 69.4766 99.2962 69.2617 99.5898C69.054 99.8763 68.8893 100.274 68.7676 100.782C68.653 101.291 68.5957 101.935 68.5957 102.716V104.026C68.5957 104.649 68.653 105.187 68.7676 105.638C68.8893 106.082 69.0648 106.451 69.2939 106.744C69.5303 107.031 69.8167 107.245 70.1533 107.389C70.4971 107.525 70.8874 107.593 71.3242 107.593C71.9616 107.593 72.488 107.471 72.9033 107.228C73.3187 106.977 73.6803 106.658 73.9883 106.271L74.9873 107.464C74.7796 107.757 74.5075 108.04 74.1709 108.312C73.8415 108.577 73.4333 108.796 72.9463 108.968C72.4665 109.132 71.89 109.215 71.2168 109.215ZM81.6152 97.377V98.9023H76.1904V97.377H81.6152ZM77.9629 94.5518H79.8643V106.121C79.8643 106.515 79.9108 106.812 80.0039 107.013C80.1042 107.213 80.2295 107.346 80.3799 107.41C80.5303 107.475 80.6914 107.507 80.8633 107.507C80.9922 107.507 81.1354 107.493 81.293 107.464C81.4505 107.428 81.5579 107.399 81.6152 107.378L81.6045 109C81.4756 109.05 81.3037 109.097 81.0889 109.14C80.874 109.19 80.6019 109.215 80.2725 109.215C79.8643 109.215 79.4847 109.118 79.1338 108.925C78.7829 108.731 78.5 108.409 78.2852 107.958C78.0703 107.5 77.9629 106.884 77.9629 106.11V94.5518ZM88.0391 109.215C87.3444 109.215 86.7178 109.111 86.1592 108.903C85.6006 108.696 85.1243 108.381 84.7305 107.958C84.3366 107.528 84.0358 106.988 83.8281 106.336C83.6204 105.684 83.5166 104.914 83.5166 104.026V102.716C83.5166 101.692 83.6348 100.825 83.8711 100.116C84.1146 99.4072 84.4404 98.8379 84.8486 98.4082C85.2568 97.9714 85.7188 97.6562 86.2344 97.4629C86.75 97.2624 87.2799 97.1621 87.8242 97.1621C88.5547 97.1621 89.1777 97.2803 89.6934 97.5166C90.209 97.7529 90.6279 98.1038 90.9502 98.5693C91.2725 99.0348 91.5088 99.6077 91.6592 100.288C91.8167 100.968 91.8955 101.753 91.8955 102.641V103.747H84.6338V102.125H89.9941V101.856C89.9655 101.255 89.8831 100.725 89.7471 100.267C89.6182 99.8083 89.4033 99.4502 89.1025 99.1924C88.8018 98.9274 88.3757 98.7949 87.8242 98.7949C87.4733 98.7949 87.1475 98.8558 86.8467 98.9775C86.5531 99.0921 86.2988 99.2962 86.084 99.5898C85.8763 99.8763 85.7116 100.274 85.5898 100.782C85.4753 101.291 85.418 101.935 85.418 102.716V104.026C85.418 104.649 85.4753 105.187 85.5898 105.638C85.7116 106.082 85.887 106.451 86.1162 106.744C86.3525 107.031 86.639 107.245 86.9756 107.389C87.3193 107.525 87.7096 107.593 88.1465 107.593C88.7839 107.593 89.3102 107.471 89.7256 107.228C90.141 106.977 90.5026 106.658 90.8105 106.271L91.8096 107.464C91.6019 107.757 91.3298 108.04 90.9932 108.312C90.6637 108.577 90.2555 108.796 89.7686 108.968C89.2887 109.132 88.7122 109.215 88.0391 109.215ZM96.0957 99.2031V109H94.1943V97.377H96.0312L96.0957 99.2031ZM98.9854 97.3125L98.9961 99.1602C98.8385 99.1243 98.6953 99.1029 98.5664 99.0957C98.4447 99.0814 98.3014 99.0742 98.1367 99.0742C97.7786 99.0742 97.4635 99.1458 97.1914 99.2891C96.9264 99.4323 96.6973 99.6328 96.5039 99.8906C96.3105 100.148 96.1566 100.456 96.042 100.814C95.9274 101.165 95.8486 101.552 95.8057 101.975L95.3115 102.297C95.3115 101.595 95.3652 100.936 95.4727 100.32C95.5872 99.7044 95.7627 99.1602 95.999 98.6875C96.2354 98.2077 96.5361 97.8353 96.9014 97.5703C97.2738 97.2982 97.7178 97.1621 98.2334 97.1621C98.348 97.1621 98.4876 97.18 98.6523 97.2158C98.8242 97.2445 98.9352 97.2767 98.9854 97.3125ZM21.3301 121.203V131H19.4287V119.377H21.2656L21.3301 121.203ZM24.2197 119.312L24.2305 121.16C24.0729 121.124 23.9297 121.103 23.8008 121.096C23.679 121.081 23.5358 121.074 23.3711 121.074C23.013 121.074 22.6979 121.146 22.4258 121.289C22.1608 121.432 21.9316 121.633 21.7383 121.891C21.5449 122.148 21.391 122.456 21.2764 122.814C21.1618 123.165 21.083 123.552 21.04 123.975L20.5459 124.297C20.5459 123.595 20.5996 122.936 20.707 122.32C20.8216 121.704 20.9971 121.16 21.2334 120.688C21.4697 120.208 21.7705 119.835 22.1357 119.57C22.5081 119.298 22.9521 119.162 23.4678 119.162C23.5824 119.162 23.722 119.18 23.8867 119.216C24.0586 119.244 24.1696 119.277 24.2197 119.312ZM31.3955 129.013V122.707C31.3955 122.249 31.3239 121.88 31.1807 121.601C31.0446 121.321 30.8369 121.117 30.5576 120.988C30.2855 120.859 29.9417 120.795 29.5264 120.795C29.1253 120.795 28.778 120.877 28.4844 121.042C28.1979 121.207 27.9759 121.425 27.8184 121.697C27.668 121.969 27.5928 122.27 27.5928 122.6H25.6914C25.6914 122.184 25.7809 121.772 25.96 121.364C26.1462 120.956 26.4111 120.587 26.7549 120.258C27.0986 119.921 27.5104 119.656 27.9902 119.463C28.4772 119.262 29.0215 119.162 29.623 119.162C30.3392 119.162 30.973 119.28 31.5244 119.517C32.0758 119.746 32.5091 120.122 32.8242 120.645C33.1393 121.167 33.2969 121.862 33.2969 122.729V128.465C33.2969 128.852 33.3255 129.263 33.3828 129.7C33.4473 130.137 33.5368 130.513 33.6514 130.828V131H31.6855C31.5924 130.771 31.5208 130.466 31.4707 130.087C31.4206 129.7 31.3955 129.342 31.3955 129.013ZM31.6963 123.953L31.7178 125.35H30.3965C29.9453 125.35 29.5335 125.4 29.1611 125.5C28.7959 125.6 28.4808 125.747 28.2158 125.94C27.9508 126.127 27.7467 126.359 27.6035 126.639C27.4674 126.918 27.3994 127.237 27.3994 127.595C27.3994 128.06 27.4639 128.433 27.5928 128.712C27.7217 128.984 27.915 129.181 28.1729 129.303C28.4307 129.424 28.7565 129.485 29.1504 129.485C29.6302 129.485 30.0527 129.374 30.418 129.152C30.7832 128.93 31.0661 128.662 31.2666 128.347C31.4743 128.032 31.571 127.738 31.5566 127.466L31.9756 128.357C31.9469 128.637 31.8538 128.941 31.6963 129.271C31.5459 129.593 31.3346 129.904 31.0625 130.205C30.7904 130.499 30.4681 130.742 30.0957 130.936C29.7305 131.122 29.3187 131.215 28.8604 131.215C28.1872 131.215 27.5964 131.086 27.0879 130.828C26.5866 130.57 26.1963 130.191 25.917 129.689C25.6377 129.188 25.498 128.569 25.498 127.831C25.498 127.272 25.5947 126.757 25.7881 126.284C25.9814 125.812 26.2679 125.403 26.6475 125.06C27.027 124.709 27.5033 124.437 28.0762 124.243C28.6562 124.05 29.3258 123.953 30.085 123.953H31.6963ZM38.1523 121.858V131H36.251V119.377H38.0449L38.1523 121.858ZM37.6904 124.748L36.917 124.716C36.9098 123.921 36.9993 123.187 37.1855 122.514C37.3789 121.833 37.651 121.243 38.002 120.741C38.36 120.24 38.7861 119.853 39.2803 119.581C39.7744 119.302 40.3223 119.162 40.9238 119.162C41.3965 119.162 41.8262 119.241 42.2129 119.398C42.5996 119.549 42.929 119.792 43.2012 120.129C43.4733 120.465 43.681 120.902 43.8242 121.439C43.9746 121.969 44.0498 122.618 44.0498 123.384V131H42.1484V123.362C42.1484 122.754 42.0804 122.267 41.9443 121.901C41.8154 121.529 41.6149 121.26 41.3428 121.096C41.0778 120.924 40.7412 120.838 40.333 120.838C39.9606 120.838 39.6133 120.942 39.291 121.149C38.9688 121.357 38.6859 121.644 38.4424 122.009C38.2061 122.374 38.0199 122.793 37.8838 123.266C37.7549 123.731 37.6904 124.225 37.6904 124.748ZM53.2021 119.377H54.9102V131.097C54.9102 132.121 54.7311 132.966 54.373 133.632C54.0221 134.298 53.5316 134.788 52.9014 135.104C52.2712 135.426 51.5443 135.587 50.7207 135.587C50.4271 135.587 50.0583 135.533 49.6143 135.426C49.1702 135.318 48.7262 135.154 48.2822 134.932C47.8382 134.717 47.473 134.445 47.1865 134.115L47.9707 132.794C48.3789 133.209 48.8122 133.507 49.2705 133.686C49.7288 133.865 50.1657 133.954 50.5811 133.954C51.0752 133.954 51.5049 133.865 51.8701 133.686C52.2354 133.507 52.5182 133.213 52.7188 132.805C52.9193 132.404 53.0195 131.867 53.0195 131.193V121.934L53.2021 119.377ZM46.5205 125.747V124.662C46.5205 123.702 46.61 122.879 46.7891 122.191C46.9681 121.497 47.2259 120.927 47.5625 120.483C47.9062 120.032 48.318 119.699 48.7979 119.484C49.2777 119.27 49.8148 119.162 50.4092 119.162C51.0107 119.162 51.5299 119.284 51.9668 119.527C52.4036 119.771 52.7653 120.125 53.0518 120.591C53.3454 121.049 53.5745 121.608 53.7393 122.267C53.9111 122.918 54.0293 123.656 54.0938 124.479V125.93C54.0293 126.746 53.9111 127.48 53.7393 128.132C53.5745 128.784 53.3418 129.339 53.041 129.797C52.7474 130.255 52.3822 130.606 51.9453 130.85C51.5085 131.093 50.9893 131.215 50.3877 131.215C49.8005 131.215 49.2705 131.104 48.7979 130.882C48.3252 130.653 47.917 130.312 47.5732 129.861C47.2367 129.403 46.9753 128.834 46.7891 128.153C46.61 127.466 46.5205 126.664 46.5205 125.747ZM48.4219 124.662V125.747C48.4219 126.392 48.4684 126.954 48.5615 127.434C48.6546 127.906 48.7979 128.3 48.9912 128.615C49.1917 128.923 49.446 129.152 49.7539 129.303C50.069 129.453 50.445 129.528 50.8818 129.528C51.4118 129.528 51.8451 129.399 52.1816 129.142C52.5182 128.884 52.7868 128.544 52.9873 128.121C53.195 127.691 53.3597 127.229 53.4814 126.735V123.685C53.4098 123.319 53.306 122.968 53.1699 122.632C53.041 122.288 52.8727 121.984 52.665 121.719C52.4574 121.447 52.2067 121.232 51.9131 121.074C51.6266 120.917 51.29 120.838 50.9033 120.838C50.4665 120.838 50.0905 120.917 49.7754 121.074C49.4603 121.232 49.2025 121.468 49.002 121.783C48.8014 122.098 48.6546 122.496 48.5615 122.976C48.4684 123.455 48.4219 124.018 48.4219 124.662ZM61.9141 131.215C61.2194 131.215 60.5928 131.111 60.0342 130.903C59.4756 130.696 58.9993 130.381 58.6055 129.958C58.2116 129.528 57.9108 128.988 57.7031 128.336C57.4954 127.684 57.3916 126.914 57.3916 126.026V124.716C57.3916 123.692 57.5098 122.825 57.7461 122.116C57.9896 121.407 58.3154 120.838 58.7236 120.408C59.1318 119.971 59.5938 119.656 60.1094 119.463C60.625 119.262 61.1549 119.162 61.6992 119.162C62.4297 119.162 63.0527 119.28 63.5684 119.517C64.084 119.753 64.5029 120.104 64.8252 120.569C65.1475 121.035 65.3838 121.608 65.5342 122.288C65.6917 122.968 65.7705 123.753 65.7705 124.641V125.747H58.5088V124.125H63.8691V123.856C63.8405 123.255 63.7581 122.725 63.6221 122.267C63.4932 121.808 63.2783 121.45 62.9775 121.192C62.6768 120.927 62.2507 120.795 61.6992 120.795C61.3483 120.795 61.0225 120.856 60.7217 120.978C60.4281 121.092 60.1738 121.296 59.959 121.59C59.7513 121.876 59.5866 122.274 59.4648 122.782C59.3503 123.291 59.293 123.935 59.293 124.716V126.026C59.293 126.649 59.3503 127.187 59.4648 127.638C59.5866 128.082 59.762 128.451 59.9912 128.744C60.2275 129.031 60.514 129.245 60.8506 129.389C61.1943 129.525 61.5846 129.593 62.0215 129.593C62.6589 129.593 63.1852 129.471 63.6006 129.228C64.016 128.977 64.3776 128.658 64.6855 128.271L65.6846 129.464C65.4769 129.757 65.2048 130.04 64.8682 130.312C64.5387 130.577 64.1305 130.796 63.6436 130.968C63.1637 131.132 62.5872 131.215 61.9141 131.215Z" fill="white"/>
<rect x="40" y="170" width="40" height="58" fill="white" stroke="black" stroke-width="6" stroke-linejoin="round"/>
<rect x="80" y="150" width="40" height="78" fill="white" stroke="black" stroke-width="6" stroke-linejoin="round"/>
<path fill-rule="evenodd" clip-rule="evenodd" d="M157.03 101C158.687 101 160.03 102.343 160.03 104V241C160.03 242.657 158.687 244 157.03 244H134.747C133.09 244 131.747 242.657 131.747 241H122.748C121.091 241 119.748 239.657 119.748 238V130C119.748 128.343 121.091 127 122.748 127H131.747V104C131.747 102.343 133.09 101 134.747 101H157.03Z" fill="white"/>
<path d="M157.03 101L157.031 98H157.03V101ZM157.03 244V247H157.031L157.03 244ZM131.747 241H134.747C134.747 239.343 133.404 238 131.747 238V241ZM131.747 127V130C133.404 130 134.747 128.657 134.747 127H131.747ZM157.03 101L157.03 104H157.03H160.03H163.03C163.03 100.686 160.344 98.0003 157.031 98L157.03 101ZM160.03 104H157.03V241H160.03H163.03V104H160.03ZM160.03 241H157.03H157.03L157.03 244L157.031 247C160.344 247 163.03 244.314 163.03 241H160.03ZM157.03 244V241H134.747V244V247H157.03V244ZM134.747 244V241H131.747H128.747C128.747 244.314 131.433 247 134.747 247V244ZM131.747 241V238H122.748V241V244H131.747V241ZM122.748 241V238H119.748H116.748C116.748 241.314 119.434 244 122.748 244V241ZM119.748 238H122.748V130H119.748H116.748V238H119.748ZM119.748 130H122.748V127V124C119.434 124 116.748 126.686 116.748 130H119.748ZM122.748 127V130H131.747V127V124H122.748V127ZM131.747 127H134.747V104H131.747H128.747V127H131.747ZM131.747 104H134.747V101V98C131.433 98 128.747 100.686 128.747 104H131.747ZM134.747 101V104H157.03V101V98H134.747V101Z" fill="black"/>
<path d="M163.202 137C161.545 137 160.202 138.343 160.202 140V277C160.202 278.657 161.545 280 163.202 280H179.202C180.859 280 182.202 278.657 182.202 277H201C202.657 277 204 275.657 204 274V152C204 150.343 202.657 149 201 149H182.202V140C182.202 138.343 180.859 137 179.202 137H163.202Z" fill="white"/>
<path d="M163.202 137L163.202 134H163.202V137ZM163.202 280V283H163.202L163.202 280ZM182.202 277H179.202C179.202 275.343 180.545 274 182.202 274V277ZM182.202 149V152C180.545 152 179.202 150.657 179.202 149H182.202ZM163.202 137L163.202 140H163.202H160.202H157.202C157.202 136.686 159.889 134 163.202 134L163.202 137ZM160.202 140H163.202V277H160.202H157.202V140H160.202ZM160.202 277H163.202H163.202L163.202 280L163.202 283C159.889 283 157.202 280.314 157.202 277H160.202ZM163.202 280V277H179.202V280V283H163.202V280ZM179.202 280V277H182.202H185.202C185.202 280.314 182.516 283 179.202 283V280ZM182.202 277V274H201V277V280H182.202V277ZM201 277V274H204H207C207 277.314 204.314 280 201 280V277ZM204 274H201V152H204H207V274H204ZM204 152H201V149V146C204.314 146 207 148.686 207 152H204ZM201 149V152H182.202V149V146H201V149ZM182.202 149H179.202V140H182.202H185.202V149H182.202ZM182.202 140H179.202V137V134C182.516 134 185.202 136.686 185.202 140H182.202ZM179.202 137V140H163.202V137V134H179.202V137Z" fill="black"/>
<path d="M36.4551 160C38.1118 160 39.4551 161.343 39.4551 163V300C39.4551 301.657 38.1118 303 36.4551 303H14.4551C12.7982 303 11.4551 301.657 11.4551 300H-1.70215C-3.35898 300 -4.70215 298.657 -4.70215 297V181C-4.70215 179.343 -3.35898 178 -1.70215 178H11.4551V163C11.4551 161.343 12.7982 160 14.4551 160H36.4551Z" fill="white"/>
<path d="M36.4551 160L36.4554 157H36.4551V160ZM36.4551 303V306H36.4554L36.4551 303ZM11.4551 300H14.4551C14.4551 298.343 13.1119 297 11.4551 297V300ZM-1.70215 300L-1.7022 303H-1.70215V300ZM-1.70215 178V175H-1.7022L-1.70215 178ZM11.4551 178V181C13.1119 181 14.4551 179.657 14.4551 178H11.4551ZM36.4551 160L36.4547 163H36.4551H39.4551H42.4551C42.4551 159.686 39.7684 157 36.4554 157L36.4551 160ZM39.4551 163H36.4551V300H39.4551H42.4551V163H39.4551ZM39.4551 300H36.4551H36.4547L36.4551 303L36.4554 306C39.7684 306 42.4551 303.314 42.4551 300H39.4551ZM36.4551 303V300H14.4551V303V306H36.4551V303ZM14.4551 303V300H11.4551H8.45508C8.45508 303.314 11.1414 306 14.4551 306V303ZM11.4551 300V297H-1.70215V300V303H11.4551V300ZM-1.70215 300L-1.7021 297H-1.70215H-4.70215H-7.70215C-7.70215 300.314 -5.01579 303 -1.7022 303L-1.70215 300ZM-4.70215 297H-1.70215V181H-4.70215H-7.70215V297H-4.70215ZM-4.70215 181H-1.70215H-1.7021L-1.70215 178L-1.7022 175C-5.01579 175 -7.70215 177.686 -7.70215 181H-4.70215ZM-1.70215 178V181H11.4551V178V175H-1.70215V178ZM11.4551 178H14.4551V163H11.4551H8.45508V178H11.4551ZM11.4551 163H14.4551V160V157C11.1414 157 8.45508 159.686 8.45508 163H11.4551ZM14.4551 160V163H36.4551V160V157H14.4551V160Z" fill="black"/>
<path d="M78.0054 13.9243L76.9727 13.646L77.4268 8.33594H82.0703V9.58838H78.5181L78.269 12.4888C78.4351 12.3765 78.6353 12.2715 78.8696 12.1738C79.104 12.0762 79.3774 12.0273 79.6899 12.0273C80.1099 12.0273 80.4834 12.1128 80.8105 12.2837C81.1426 12.4497 81.4233 12.689 81.6528 13.0015C81.8823 13.314 82.0581 13.6899 82.1802 14.1294C82.3022 14.5688 82.3633 15.0596 82.3633 15.6016C82.3633 16.1143 82.3022 16.5854 82.1802 17.0151C82.063 17.4448 81.8823 17.8208 81.6382 18.1431C81.3989 18.4604 81.0962 18.707 80.73 18.8828C80.3687 19.0586 79.9463 19.1465 79.4629 19.1465C79.1016 19.1465 78.7598 19.0879 78.4375 18.9707C78.1152 18.8486 77.8247 18.6655 77.5659 18.4214C77.312 18.1724 77.1045 17.8647 76.9434 17.4985C76.7822 17.1274 76.6821 16.6929 76.6431 16.1948H77.8662C77.915 16.5952 78.0078 16.9321 78.1445 17.2056C78.2861 17.479 78.4668 17.6865 78.6865 17.8281C78.9111 17.9648 79.1699 18.0332 79.4629 18.0332C79.7119 18.0332 79.9365 17.9771 80.1367 17.8647C80.3369 17.7524 80.5054 17.5913 80.6421 17.3813C80.7788 17.1714 80.8838 16.9175 80.957 16.6196C81.0303 16.3218 81.0669 15.9873 81.0669 15.6162C81.0669 15.2793 81.0303 14.9668 80.957 14.6787C80.8838 14.3906 80.7739 14.1392 80.6274 13.9243C80.481 13.7095 80.3027 13.5435 80.0928 13.4263C79.8877 13.3042 79.6484 13.2432 79.375 13.2432C79.0088 13.2432 78.7378 13.3042 78.562 13.4263C78.3911 13.5483 78.2056 13.7144 78.0054 13.9243ZM84.0039 18.2822C84.0039 18.0527 84.0747 17.8599 84.2163 17.7036C84.3628 17.5425 84.5728 17.4619 84.8462 17.4619C85.1196 17.4619 85.3271 17.5425 85.4688 17.7036C85.6152 17.8599 85.6885 18.0527 85.6885 18.2822C85.6885 18.5068 85.6152 18.6973 85.4688 18.8535C85.3271 19.0098 85.1196 19.0879 84.8462 19.0879C84.5728 19.0879 84.3628 19.0098 84.2163 18.8535C84.0747 18.6973 84.0039 18.5068 84.0039 18.2822ZM83.9966 11.8149C83.9966 11.5854 84.0674 11.3926 84.209 11.2363C84.3555 11.0752 84.5654 10.9946 84.8389 10.9946C85.1123 10.9946 85.3198 11.0752 85.4614 11.2363C85.6079 11.3926 85.6812 11.5854 85.6812 11.8149C85.6812 12.0396 85.6079 12.23 85.4614 12.3862C85.3198 12.5425 85.1123 12.6206 84.8389 12.6206C84.5654 12.6206 84.3555 12.5425 84.209 12.3862C84.0674 12.23 83.9966 12.0396 83.9966 11.8149ZM93.313 17.8867V19H87.3511V18.0259L90.2881 14.1367C90.6494 13.6582 90.9253 13.2529 91.1157 12.9209C91.3062 12.584 91.438 12.2837 91.5112 12.02C91.5845 11.7515 91.6211 11.478 91.6211 11.1997C91.6211 10.8481 91.5649 10.5308 91.4526 10.2476C91.3403 9.95947 91.1768 9.72998 90.9619 9.55908C90.7471 9.38818 90.4883 9.30273 90.1855 9.30273C89.79 9.30273 89.4653 9.39551 89.2114 9.58105C88.9624 9.76172 88.7793 10.0156 88.6621 10.3428C88.5449 10.6699 88.4863 11.0459 88.4863 11.4707H87.1899C87.1899 10.8701 87.2998 10.3208 87.5195 9.82275C87.7441 9.32471 88.0786 8.9292 88.5229 8.63623C88.9673 8.33838 89.5215 8.18945 90.1855 8.18945C90.7568 8.18945 91.2451 8.30908 91.6504 8.54834C92.0605 8.78271 92.373 9.11475 92.5879 9.54443C92.8076 9.96924 92.9175 10.4673 92.9175 11.0386C92.9175 11.3511 92.8735 11.6685 92.7856 11.9907C92.7026 12.3081 92.5854 12.6255 92.4341 12.9429C92.2876 13.2603 92.1143 13.5728 91.9141 13.8804C91.7139 14.188 91.499 14.4907 91.2695 14.7886L88.9038 17.8867H93.313ZM95.9351 17.8647H96.0376C96.6968 17.8647 97.2266 17.7549 97.627 17.5352C98.0273 17.3154 98.3276 17.02 98.5278 16.6489C98.7329 16.2778 98.8696 15.8604 98.938 15.3965C99.0112 14.9277 99.0479 14.4468 99.0479 13.9536V12.3203C99.0479 11.8369 99.0015 11.4072 98.9087 11.0312C98.8208 10.6553 98.7012 10.3403 98.5498 10.0864C98.4033 9.83252 98.2349 9.63965 98.0444 9.50781C97.8589 9.37598 97.6685 9.31006 97.4731 9.31006C97.2241 9.31006 97.0044 9.37354 96.814 9.50049C96.6235 9.62256 96.4624 9.7959 96.3306 10.0205C96.2036 10.2451 96.106 10.5088 96.0376 10.8115C95.9692 11.1143 95.9351 11.4438 95.9351 11.8003C95.9351 12.1177 95.9644 12.4253 96.0229 12.7231C96.0815 13.021 96.1719 13.2896 96.2939 13.5288C96.4209 13.7681 96.5771 13.9585 96.7627 14.1001C96.9531 14.2368 97.1777 14.3052 97.4365 14.3052C97.6514 14.3052 97.8589 14.2466 98.0591 14.1294C98.2642 14.0073 98.4497 13.8438 98.6157 13.6387C98.7817 13.4287 98.9185 13.1919 99.0259 12.9282C99.1333 12.6646 99.1968 12.3887 99.2163 12.1006H99.8242C99.8242 12.5059 99.7583 12.9062 99.6265 13.3018C99.4995 13.6924 99.3164 14.0488 99.0771 14.3711C98.8428 14.6934 98.5669 14.9521 98.2495 15.1475C97.937 15.3379 97.5928 15.4331 97.2168 15.4331C96.7627 15.4331 96.3745 15.3306 96.0522 15.1255C95.73 14.9204 95.4663 14.647 95.2612 14.3052C95.061 13.9634 94.9121 13.5825 94.8145 13.1626C94.7168 12.7378 94.668 12.3081 94.668 11.8735C94.668 11.3657 94.7266 10.8896 94.8438 10.4453C94.9609 10.001 95.1343 9.61035 95.3638 9.27344C95.5981 8.93164 95.8911 8.66553 96.2427 8.4751C96.5942 8.28467 97.0044 8.18945 97.4731 8.18945C97.9956 8.18945 98.4399 8.31152 98.8062 8.55566C99.1724 8.7998 99.4678 9.12695 99.6924 9.53711C99.917 9.94727 100.081 10.4087 100.183 10.9214C100.286 11.4341 100.337 11.9614 100.337 12.5034V12.9941C100.337 13.5459 100.31 14.1074 100.256 14.6787C100.208 15.2451 100.103 15.7871 99.9414 16.3047C99.7852 16.8223 99.5508 17.2861 99.2383 17.6963C98.9258 18.1016 98.5083 18.4238 97.9858 18.6631C97.4683 18.8975 96.8188 19.0146 96.0376 19.0146H95.9424L95.9351 17.8647ZM109.309 14.8179H106.98V13.668H109.309C109.749 13.668 110.103 13.5801 110.371 13.4043C110.645 13.2285 110.842 12.9844 110.964 12.6719C111.091 12.3594 111.155 12.0029 111.155 11.6025C111.155 11.2363 111.091 10.8921 110.964 10.5698C110.842 10.2476 110.645 9.98877 110.371 9.79346C110.103 9.59326 109.749 9.49316 109.309 9.49316H107.258V19H105.911V8.33594H109.309C109.998 8.33594 110.579 8.4751 111.052 8.75342C111.526 9.03174 111.885 9.41748 112.129 9.91064C112.378 10.3989 112.502 10.958 112.502 11.5879C112.502 12.2715 112.378 12.855 112.129 13.3384C111.885 13.8218 111.526 14.1904 111.052 14.4443C110.579 14.6934 109.998 14.8179 109.309 14.8179ZM114.656 8.33594H115.959L118.75 17.0298L121.533 8.33594H122.837L119.255 19H118.23L114.656 8.33594ZM114.231 8.33594H115.374L115.571 14.8398V19H114.231V8.33594ZM122.112 8.33594H123.254V19H121.914V14.8398L122.112 8.33594Z" fill="white"/>
<path d="M31.3813 198.862L30.588 207.991C30.2489 211.893 32.7851 215.467 36.5806 216.435L52.6213 220.527C53.2513 220.688 53.8797 220.771 54.5299 220.775C82.8237 220.949 138.661 221.183 143.135 220.769C146.677 220.442 150.065 219.346 152.123 218.509C153.05 218.132 153.911 217.537 154.322 216.625C155.551 213.901 154.876 209.71 154.125 206.248C153.74 204.475 152.758 202.859 151.181 201.963C144.038 197.9 131.272 195.635 123.937 194.81C122.764 194.679 121.635 194.319 120.616 193.724C113.819 189.758 101.964 183.048 98.8241 182.081C94.5815 180.773 72.4258 180.512 63.7049 182.081C57.0545 183.277 45.3069 188.368 39.5272 191.106C38.9874 191.362 38.427 191.559 37.8449 191.692L37.5621 191.757C34.1786 192.534 31.6819 195.403 31.3813 198.862Z" fill="white" stroke="black" stroke-width="6"/>
<circle cx="56.5" cy="217.5" r="11.5" fill="white" stroke="black" stroke-width="6"/>
<circle cx="132.5" cy="217.5" r="11.5" fill="white" stroke="black" stroke-width="6"/>
<path d="M168.729 13.9243L167.696 13.646L168.15 8.33594H172.794V9.58838H169.242L168.993 12.4888C169.159 12.3765 169.359 12.2715 169.593 12.1738C169.828 12.0762 170.101 12.0273 170.414 12.0273C170.833 12.0273 171.207 12.1128 171.534 12.2837C171.866 12.4497 172.147 12.689 172.376 13.0015C172.606 13.314 172.782 13.6899 172.904 14.1294C173.026 14.5688 173.087 15.0596 173.087 15.6016C173.087 16.1143 173.026 16.5854 172.904 17.0151C172.787 17.4448 172.606 17.8208 172.362 18.1431C172.123 18.4604 171.82 18.707 171.454 18.8828C171.092 19.0586 170.67 19.1465 170.187 19.1465C169.825 19.1465 169.483 19.0879 169.161 18.9707C168.839 18.8486 168.548 18.6655 168.29 18.4214C168.036 18.1724 167.828 17.8647 167.667 17.4985C167.506 17.1274 167.406 16.6929 167.367 16.1948H168.59C168.639 16.5952 168.731 16.9321 168.868 17.2056C169.01 17.479 169.19 17.6865 169.41 17.8281C169.635 17.9648 169.894 18.0332 170.187 18.0332C170.436 18.0332 170.66 17.9771 170.86 17.8647C171.061 17.7524 171.229 17.5913 171.366 17.3813C171.502 17.1714 171.607 16.9175 171.681 16.6196C171.754 16.3218 171.791 15.9873 171.791 15.6162C171.791 15.2793 171.754 14.9668 171.681 14.6787C171.607 14.3906 171.498 14.1392 171.351 13.9243C171.205 13.7095 171.026 13.5435 170.816 13.4263C170.611 13.3042 170.372 13.2432 170.099 13.2432C169.732 13.2432 169.461 13.3042 169.286 13.4263C169.115 13.5483 168.929 13.7144 168.729 13.9243ZM180.278 8.33594L176.542 19.9155H175.451L179.194 8.33594H180.278ZM189.029 8.33594V9.09766L185.359 19H183.997L187.667 9.44922H182.913V8.33594H189.029Z" fill="white"/>
<path fill-rule="evenodd" clip-rule="evenodd" d="M0 210C0 219.941 8.05888 228 18 228H0V210ZM200 228H182C191.941 228 200 219.941 200 210V228ZM18 0C8.05888 4.76837e-07 0 8.05888 0 18V0H18ZM200 18C200 8.05888 191.941 0 182 0H200V18Z" fill="black"/>
</g>
<defs>
<clipPath id="clip0_25_869">
<rect width="200" height="228" fill="white"/>
</clipPath>
</defs>
</svg>
